%TF.GenerationSoftware,KiCad,Pcbnew,9.0.7*%
%TF.CreationDate,2026-01-30T16:00:42+01:00*%
%TF.ProjectId,icncconv,69636e63-636f-46e7-962e-6b696361645f,rev?*%
%TF.SameCoordinates,Original*%
%TF.FileFunction,Copper,L1,Top*%
%TF.FilePolarity,Positive*%
%FSLAX46Y46*%
G04 Gerber Fmt 4.6, Leading zero omitted, Abs format (unit mm)*
G04 Created by KiCad (PCBNEW 9.0.7) date 2026-01-30 16:00:42*
%MOMM*%
%LPD*%
G01*
G04 APERTURE LIST*
G04 Aperture macros list*
%AMRoundRect*
0 Rectangle with rounded corners*
0 $1 Rounding radius*
0 $2 $3 $4 $5 $6 $7 $8 $9 X,Y pos of 4 corners*
0 Add a 4 corners polygon primitive as box body*
4,1,4,$2,$3,$4,$5,$6,$7,$8,$9,$2,$3,0*
0 Add four circle primitives for the rounded corners*
1,1,$1+$1,$2,$3*
1,1,$1+$1,$4,$5*
1,1,$1+$1,$6,$7*
1,1,$1+$1,$8,$9*
0 Add four rect primitives between the rounded corners*
20,1,$1+$1,$2,$3,$4,$5,0*
20,1,$1+$1,$4,$5,$6,$7,0*
20,1,$1+$1,$6,$7,$8,$9,0*
20,1,$1+$1,$8,$9,$2,$3,0*%
G04 Aperture macros list end*
%TA.AperFunction,EtchedComponent*%
%ADD10C,0.000000*%
%TD*%
%TA.AperFunction,SMDPad,CuDef*%
%ADD11RoundRect,0.112500X-0.112500X0.187500X-0.112500X-0.187500X0.112500X-0.187500X0.112500X0.187500X0*%
%TD*%
%TA.AperFunction,SMDPad,CuDef*%
%ADD12RoundRect,0.237500X-0.250000X-0.237500X0.250000X-0.237500X0.250000X0.237500X-0.250000X0.237500X0*%
%TD*%
%TA.AperFunction,SMDPad,CuDef*%
%ADD13RoundRect,0.237500X0.250000X0.237500X-0.250000X0.237500X-0.250000X-0.237500X0.250000X-0.237500X0*%
%TD*%
%TA.AperFunction,SMDPad,CuDef*%
%ADD14RoundRect,0.237500X0.300000X0.237500X-0.300000X0.237500X-0.300000X-0.237500X0.300000X-0.237500X0*%
%TD*%
%TA.AperFunction,SMDPad,CuDef*%
%ADD15RoundRect,0.237500X0.237500X-0.300000X0.237500X0.300000X-0.237500X0.300000X-0.237500X-0.300000X0*%
%TD*%
%TA.AperFunction,SMDPad,CuDef*%
%ADD16RoundRect,0.237500X-0.237500X0.300000X-0.237500X-0.300000X0.237500X-0.300000X0.237500X0.300000X0*%
%TD*%
%TA.AperFunction,SMDPad,CuDef*%
%ADD17RoundRect,0.237500X-0.300000X-0.237500X0.300000X-0.237500X0.300000X0.237500X-0.300000X0.237500X0*%
%TD*%
%TA.AperFunction,SMDPad,CuDef*%
%ADD18R,1.000000X0.500000*%
%TD*%
%TA.AperFunction,SMDPad,CuDef*%
%ADD19R,0.650000X0.900000*%
%TD*%
%TA.AperFunction,SMDPad,CuDef*%
%ADD20R,1.500000X1.000000*%
%TD*%
%TA.AperFunction,SMDPad,CuDef*%
%ADD21RoundRect,0.112500X-0.187500X-0.112500X0.187500X-0.112500X0.187500X0.112500X-0.187500X0.112500X0*%
%TD*%
%TA.AperFunction,ComponentPad*%
%ADD22C,6.400000*%
%TD*%
%TA.AperFunction,SMDPad,CuDef*%
%ADD23R,0.900000X0.900000*%
%TD*%
%TA.AperFunction,SMDPad,CuDef*%
%ADD24R,0.900000X1.250000*%
%TD*%
%TA.AperFunction,ComponentPad*%
%ADD25C,1.100000*%
%TD*%
%TA.AperFunction,SMDPad,CuDef*%
%ADD26R,1.200000X1.200000*%
%TD*%
%TA.AperFunction,SMDPad,CuDef*%
%ADD27R,1.600000X1.500000*%
%TD*%
%TA.AperFunction,SMDPad,CuDef*%
%ADD28O,0.600000X1.970000*%
%TD*%
%TA.AperFunction,SMDPad,CuDef*%
%ADD29RoundRect,0.100000X0.100000X-0.637500X0.100000X0.637500X-0.100000X0.637500X-0.100000X-0.637500X0*%
%TD*%
%TA.AperFunction,ComponentPad*%
%ADD30C,1.800000*%
%TD*%
%TA.AperFunction,ComponentPad*%
%ADD31R,1.800000X1.800000*%
%TD*%
%TA.AperFunction,ComponentPad*%
%ADD32C,4.500000*%
%TD*%
%TA.AperFunction,SMDPad,CuDef*%
%ADD33C,2.000000*%
%TD*%
%TA.AperFunction,ComponentPad*%
%ADD34C,2.600000*%
%TD*%
%TA.AperFunction,ViaPad*%
%ADD35C,0.250000*%
%TD*%
%TA.AperFunction,ViaPad*%
%ADD36C,0.600000*%
%TD*%
%TA.AperFunction,Conductor*%
%ADD37C,0.200000*%
%TD*%
%TA.AperFunction,Conductor*%
%ADD38C,0.400000*%
%TD*%
%TA.AperFunction,Conductor*%
%ADD39C,0.100000*%
%TD*%
G04 APERTURE END LIST*
D10*
%TA.AperFunction,EtchedComponent*%
%TO.C,NT1*%
G36*
X148730000Y-92560000D02*
G01*
X146730000Y-92560000D01*
X146730000Y-88560000D01*
X148730000Y-88560000D01*
X148730000Y-92560000D01*
G37*
%TD.AperFunction*%
%TD*%
D11*
%TO.P,D1,2,A2*%
%TO.N,GND*%
X130020000Y-108085000D03*
%TO.P,D1,1,A1*%
%TO.N,COS-*%
X130020000Y-105985000D03*
%TD*%
D12*
%TO.P,R4,2*%
%TO.N,ICNV_VREF*%
X133895000Y-106165000D03*
%TO.P,R4,1*%
%TO.N,COS-*%
X132070000Y-106165000D03*
%TD*%
D13*
%TO.P,R8,2*%
%TO.N,SIN+*%
X132070000Y-96025000D03*
%TO.P,R8,1*%
%TO.N,ICNV_VREF*%
X133895000Y-96025000D03*
%TD*%
D12*
%TO.P,R1,2*%
%TO.N,SIN+*%
X137935000Y-96025000D03*
%TO.P,R1,1*%
X136110000Y-96025000D03*
%TD*%
%TO.P,R12,2*%
%TO.N,IDX-*%
X137935000Y-89755000D03*
%TO.P,R12,1*%
X136110000Y-89755000D03*
%TD*%
D13*
%TO.P,R3,2*%
%TO.N,COS+*%
X132070000Y-104195000D03*
%TO.P,R3,1*%
%TO.N,ICNV_VREF*%
X133895000Y-104195000D03*
%TD*%
D12*
%TO.P,R14,1*%
%TO.N,Net-(D13-K)*%
X141507500Y-116135000D03*
%TO.P,R14,2*%
%TO.N,GND*%
X143332500Y-116135000D03*
%TD*%
%TO.P,R11,1*%
%TO.N,SIN-*%
X136110000Y-98005000D03*
%TO.P,R11,2*%
X137935000Y-98005000D03*
%TD*%
D13*
%TO.P,R10,1*%
%TO.N,GNDS*%
X169662500Y-115640000D03*
%TO.P,R10,2*%
%TO.N,GND*%
X167837500Y-115640000D03*
%TD*%
D12*
%TO.P,R9,1*%
%TO.N,SIN-*%
X132070000Y-98005000D03*
%TO.P,R9,2*%
%TO.N,ICNV_VREF*%
X133895000Y-98005000D03*
%TD*%
%TO.P,R7,1*%
%TO.N,IDX-*%
X132070000Y-89765000D03*
%TO.P,R7,2*%
%TO.N,ICNV_VREF*%
X133895000Y-89765000D03*
%TD*%
D13*
%TO.P,R6,1*%
%TO.N,ICNV_VREF*%
X133892500Y-87765000D03*
%TO.P,R6,2*%
%TO.N,IDX+*%
X132067500Y-87765000D03*
%TD*%
D12*
%TO.P,R5,1*%
%TO.N,IDX+*%
X136122500Y-87755000D03*
%TO.P,R5,2*%
X137947500Y-87755000D03*
%TD*%
%TO.P,R2,1*%
%TO.N,COS+*%
X136110000Y-104195000D03*
%TO.P,R2,2*%
X137935000Y-104195000D03*
%TD*%
D14*
%TO.P,C17,1*%
%TO.N,GNDS*%
X169620000Y-119830000D03*
%TO.P,C17,2*%
%TO.N,GND*%
X167895000Y-119830000D03*
%TD*%
D15*
%TO.P,C16,1*%
%TO.N,GND*%
X142190000Y-91400000D03*
%TO.P,C16,2*%
%TO.N,IDX-*%
X142190000Y-89675000D03*
%TD*%
D16*
%TO.P,C15,1*%
%TO.N,IDX+*%
X139870000Y-87920000D03*
%TO.P,C15,2*%
%TO.N,IDX-*%
X139870000Y-89645000D03*
%TD*%
D15*
%TO.P,C14,1*%
%TO.N,IDX+*%
X142190000Y-87915000D03*
%TO.P,C14,2*%
%TO.N,GND*%
X142190000Y-86190000D03*
%TD*%
%TO.P,C13,1*%
%TO.N,GND*%
X142180000Y-107780000D03*
%TO.P,C13,2*%
%TO.N,COS-*%
X142180000Y-106055000D03*
%TD*%
D16*
%TO.P,C12,1*%
%TO.N,COS+*%
X139870000Y-104335000D03*
%TO.P,C12,2*%
%TO.N,COS-*%
X139870000Y-106060000D03*
%TD*%
D15*
%TO.P,C11,1*%
%TO.N,COS+*%
X142180000Y-104355000D03*
%TO.P,C11,2*%
%TO.N,GND*%
X142180000Y-102630000D03*
%TD*%
%TO.P,C10,1*%
%TO.N,GND*%
X142180000Y-99600000D03*
%TO.P,C10,2*%
%TO.N,SIN-*%
X142180000Y-97875000D03*
%TD*%
D16*
%TO.P,C9,1*%
%TO.N,SIN+*%
X139870000Y-96142500D03*
%TO.P,C9,2*%
%TO.N,SIN-*%
X139870000Y-97867500D03*
%TD*%
D15*
%TO.P,C8,1*%
%TO.N,SIN+*%
X142180000Y-96145000D03*
%TO.P,C8,2*%
%TO.N,GND*%
X142180000Y-94420000D03*
%TD*%
D17*
%TO.P,C7,1*%
%TO.N,ICNV_RCLK*%
X154825000Y-94500000D03*
%TO.P,C7,2*%
%TO.N,GND*%
X156550000Y-94500000D03*
%TD*%
%TO.P,C6,1*%
%TO.N,ICNV_RCLK*%
X154825000Y-90500000D03*
%TO.P,C6,2*%
%TO.N,ICNV_VREF*%
X156550000Y-90500000D03*
%TD*%
D15*
%TO.P,C5,1*%
%TO.N,GND*%
X167234300Y-109735850D03*
%TO.P,C5,2*%
%TO.N,+5V*%
X167234300Y-108010850D03*
%TD*%
D14*
%TO.P,C4,1*%
%TO.N,+5V*%
X151802500Y-90500000D03*
%TO.P,C4,2*%
%TO.N,GND*%
X150077500Y-90500000D03*
%TD*%
%TO.P,C3,1*%
%TO.N,+5V*%
X151802500Y-94500000D03*
%TO.P,C3,2*%
%TO.N,GND*%
X150077500Y-94500000D03*
%TD*%
D15*
%TO.P,C2,1*%
%TO.N,+5V*%
X129990000Y-113237500D03*
%TO.P,C2,2*%
%TO.N,GND*%
X129990000Y-111512500D03*
%TD*%
D16*
%TO.P,C1,1*%
%TO.N,ICNV_VREF*%
X151133500Y-111187500D03*
%TO.P,C1,2*%
%TO.N,GND*%
X151133500Y-112912500D03*
%TD*%
D18*
%TO.P,D13,3*%
%TO.N,N/C*%
X136720000Y-116505000D03*
D19*
%TO.P,D13,2,A*%
%TO.N,+5V*%
X135420000Y-116125000D03*
%TO.P,D13,1,K*%
%TO.N,Net-(D13-K)*%
X138020000Y-116125000D03*
%TD*%
D20*
%TO.P,JP5,3,B*%
%TO.N,GND*%
X160300000Y-110560000D03*
%TO.P,JP5,2,C*%
%TO.N,SF0*%
X160300000Y-111860000D03*
%TO.P,JP5,1,A*%
%TO.N,+5V*%
X160300000Y-113160000D03*
%TD*%
D21*
%TO.P,D8,1,A1*%
%TO.N,GND*%
X174710000Y-96302000D03*
%TO.P,D8,2,A2*%
%TO.N,A-*%
X176810000Y-96302000D03*
%TD*%
%TO.P,D7,1,A1*%
%TO.N,GND*%
X174710000Y-93600000D03*
%TO.P,D7,2,A2*%
%TO.N,A+*%
X176810000Y-93600000D03*
%TD*%
D22*
%TO.P,H5,1,1*%
%TO.N,GNDS*%
X176490000Y-119820000D03*
%TD*%
D23*
%TO.P,SW1,EH,EH*%
%TO.N,GND*%
X150450000Y-86750000D03*
X158050000Y-86750000D03*
X150450000Y-84550000D03*
X158050000Y-84550000D03*
D24*
%TO.P,SW1,2,2*%
%TO.N,ICNV_RCLK*%
X154950000Y-83570000D03*
%TO.P,SW1,3,3*%
%TO.N,Net-(RV3-Pad2)*%
X156450000Y-83570000D03*
%TO.P,SW1,1,1*%
%TO.N,+5V*%
X151950000Y-83570000D03*
D25*
%TO.P,SW1,*%
%TO.N,*%
X155750000Y-85650000D03*
X152750000Y-85650000D03*
%TD*%
D21*
%TO.P,D12,1,A1*%
%TO.N,GND*%
X174720000Y-107252000D03*
%TO.P,D12,2,A2*%
%TO.N,Z-*%
X176820000Y-107252000D03*
%TD*%
%TO.P,D11,1,A1*%
%TO.N,GND*%
X174720000Y-104550000D03*
%TO.P,D11,2,A2*%
%TO.N,Z+*%
X176820000Y-104550000D03*
%TD*%
%TO.P,D10,1,A1*%
%TO.N,GND*%
X174710000Y-99350000D03*
%TO.P,D10,2,A2*%
%TO.N,B-*%
X176810000Y-99350000D03*
%TD*%
%TO.P,D9,1,A1*%
%TO.N,GND*%
X174710000Y-102052000D03*
%TO.P,D9,2,A2*%
%TO.N,B+*%
X176810000Y-102052000D03*
%TD*%
D11*
%TO.P,D6,1,A1*%
%TO.N,GND*%
X130030000Y-94105000D03*
%TO.P,D6,2,A2*%
%TO.N,SIN+*%
X130030000Y-96205000D03*
%TD*%
%TO.P,D5,1,A1*%
%TO.N,SIN-*%
X130030000Y-97825000D03*
%TO.P,D5,2,A2*%
%TO.N,GND*%
X130030000Y-99925000D03*
%TD*%
%TO.P,D4,1,A1*%
%TO.N,GND*%
X130012500Y-85845000D03*
%TO.P,D4,2,A2*%
%TO.N,IDX+*%
X130012500Y-87945000D03*
%TD*%
%TO.P,D3,1,A1*%
%TO.N,IDX-*%
X130020000Y-89595000D03*
%TO.P,D3,2,A2*%
%TO.N,GND*%
X130020000Y-91695000D03*
%TD*%
%TO.P,D2,1,A1*%
%TO.N,GND*%
X130020000Y-102275000D03*
%TO.P,D2,2,A2*%
%TO.N,COS+*%
X130020000Y-104375000D03*
%TD*%
D26*
%TO.P,RV3,1,1*%
%TO.N,GND*%
X161170000Y-87575000D03*
%TO.P,RV3,3,3*%
%TO.N,Net-(RV3-Pad2)*%
X163070000Y-87575000D03*
D27*
%TO.P,RV3,2,2*%
X162120000Y-84375000D03*
%TD*%
D28*
%TO.P,U2,1,1A*%
%TO.N,MC_2A*%
X172320000Y-98919750D03*
%TO.P,U2,2,1Y*%
%TO.N,B+*%
X171050000Y-98919750D03*
%TO.P,U2,3,1Z*%
%TO.N,B-*%
X169780000Y-98919750D03*
%TO.P,U2,4,1\u002C2EN*%
%TO.N,+5V*%
X168500000Y-98919750D03*
%TO.P,U2,5,2Z*%
%TO.N,A-*%
X167240000Y-98919750D03*
%TO.P,U2,6,2Y*%
%TO.N,A+*%
X165970000Y-98919750D03*
%TO.P,U2,7,2A*%
%TO.N,MC_1A*%
X164700000Y-98919750D03*
%TO.P,U2,8,GND*%
%TO.N,GND*%
X163430000Y-98919750D03*
%TO.P,U2,9,3A*%
%TO.N,unconnected-(U2-3A-Pad9)*%
X163430000Y-104399750D03*
%TO.P,U2,10,3Y*%
%TO.N,unconnected-(U2-3Y-Pad10)*%
X164700000Y-104399750D03*
%TO.P,U2,11,3Z*%
%TO.N,unconnected-(U2-3Z-Pad11)*%
X165970000Y-104399750D03*
%TO.P,U2,12,3\u002C4EN*%
%TO.N,+5V*%
X167240000Y-104399750D03*
%TO.P,U2,13,4Z*%
%TO.N,Z-*%
X168500000Y-104399750D03*
%TO.P,U2,14,4Y*%
%TO.N,Z+*%
X169780000Y-104399750D03*
%TO.P,U2,15,4A*%
%TO.N,MC_3A*%
X171050000Y-104399750D03*
%TO.P,U2,16,VCC*%
%TO.N,+5V*%
X172320000Y-104399750D03*
%TD*%
D29*
%TO.P,U1,1,PCOS*%
%TO.N,COS+*%
X148500000Y-104200000D03*
%TO.P,U1,2,NCOS*%
%TO.N,COS-*%
X149150000Y-104200000D03*
%TO.P,U1,3,SG1*%
%TO.N,SG1*%
X149800000Y-104200000D03*
%TO.P,U1,4,SG0*%
%TO.N,SG0*%
X150450000Y-104200000D03*
%TO.P,U1,5,VREF*%
%TO.N,ICNV_VREF*%
X151100000Y-104200000D03*
%TO.P,U1,6,ROT*%
%TO.N,ROT*%
X151750000Y-104200000D03*
%TO.P,U1,7,SF1*%
%TO.N,SF1*%
X152400000Y-104200000D03*
%TO.P,U1,8,SF0*%
%TO.N,SF0*%
X153050000Y-104200000D03*
%TO.P,U1,9,GND*%
%TO.N,GND*%
X153700000Y-104200000D03*
%TO.P,U1,10,Z*%
%TO.N,MC_3A*%
X154350000Y-104200000D03*
%TO.P,U1,11,B*%
%TO.N,MC_2A*%
X154350000Y-98475000D03*
%TO.P,U1,12,A*%
%TO.N,MC_1A*%
X153700000Y-98475000D03*
%TO.P,U1,13,VDD*%
%TO.N,+5V*%
X153050000Y-98475000D03*
%TO.P,U1,14,RCLK*%
%TO.N,ICNV_RCLK*%
X152400000Y-98475000D03*
%TO.P,U1,15,VCC*%
%TO.N,+5V*%
X151750000Y-98475000D03*
%TO.P,U1,16,GNDA*%
%TO.N,GNDA*%
X151100000Y-98475000D03*
%TO.P,U1,17,PZERO*%
%TO.N,IDX+*%
X150450000Y-98475000D03*
%TO.P,U1,18,NZERO*%
%TO.N,IDX-*%
X149800000Y-98475000D03*
%TO.P,U1,19,PSIN*%
%TO.N,SIN+*%
X149150000Y-98475000D03*
%TO.P,U1,20,NSIN*%
%TO.N,SIN-*%
X148500000Y-98475000D03*
%TD*%
D20*
%TO.P,JP1,3,B*%
%TO.N,GND*%
X145057500Y-110570000D03*
%TO.P,JP1,2,C*%
%TO.N,SG1*%
X145057500Y-111870000D03*
%TO.P,JP1,1,A*%
%TO.N,+5V*%
X145057500Y-113170000D03*
%TD*%
D30*
%TO.P,J1,3,Pin_3*%
%TO.N,COS+*%
X125506047Y-100433112D03*
%TO.P,J1,5,Pin_5*%
%TO.N,SIN+*%
X125506047Y-94893112D03*
%TO.P,J1,4,Pin_4*%
%TO.N,SIN-*%
X125506047Y-97663112D03*
%TO.P,J1,2,Pin_2*%
%TO.N,COS-*%
X125506047Y-103203112D03*
D31*
%TO.P,J1,1,Pin_1*%
%TO.N,GND*%
X125506047Y-105973112D03*
D30*
%TO.P,J1,9,Pin_9*%
%TO.N,IDX+*%
X122666047Y-96283112D03*
%TO.P,J1,8,Pin_8*%
%TO.N,IDX-*%
X122666047Y-99053112D03*
%TO.P,J1,7,Pin_7*%
%TO.N,SHIELD*%
X122666047Y-101823112D03*
%TO.P,J1,6,Pin_6*%
%TO.N,+5V*%
X122666047Y-104593112D03*
D32*
%TO.P,J1,10,Pin_10*%
%TO.N,GNDS*%
X124086047Y-87933112D03*
%TO.P,J1,11,Pin_11*%
X124086047Y-112933112D03*
%TD*%
D20*
%TO.P,JP3,3,B*%
%TO.N,GND*%
X157209500Y-110570000D03*
%TO.P,JP3,2,C*%
%TO.N,SF1*%
X157209500Y-111870000D03*
%TO.P,JP3,1,A*%
%TO.N,+5V*%
X157209500Y-113170000D03*
%TD*%
D33*
%TO.P,NT1,1,1*%
%TO.N,GND*%
X147730000Y-88560000D03*
%TO.P,NT1,2,2*%
%TO.N,GNDA*%
X147730000Y-92560000D03*
%TD*%
D20*
%TO.P,JP4,3,B*%
%TO.N,GND*%
X153979000Y-110570000D03*
%TO.P,JP4,2,C*%
%TO.N,ROT*%
X153979000Y-111870000D03*
%TO.P,JP4,1,A*%
%TO.N,+5V*%
X153979000Y-113170000D03*
%TD*%
%TO.P,JP2,3,B*%
%TO.N,GND*%
X148288000Y-110570000D03*
%TO.P,JP2,2,C*%
%TO.N,SG0*%
X148288000Y-111870000D03*
%TO.P,JP2,1,A*%
%TO.N,+5V*%
X148288000Y-113170000D03*
%TD*%
D34*
%TO.P,TP1,1,1*%
%TO.N,Net-(RV3-Pad2)*%
X167900000Y-85200000D03*
%TD*%
%TO.P,TP2,1,1*%
%TO.N,GND*%
X146700000Y-85300000D03*
%TD*%
D30*
%TO.P,J3,3,Pin_3*%
%TO.N,A-*%
X179880000Y-100360000D03*
%TO.P,J3,5,Pin_5*%
%TO.N,Z-*%
X179880000Y-105900000D03*
%TO.P,J3,4,Pin_4*%
%TO.N,B+*%
X179880000Y-103130000D03*
%TO.P,J3,2,Pin_2*%
%TO.N,A+*%
X179880000Y-97590000D03*
D31*
%TO.P,J3,1,Pin_1*%
%TO.N,GND*%
X179880000Y-94820000D03*
D30*
%TO.P,J3,9,Pin_9*%
%TO.N,Z+*%
X182720000Y-104510000D03*
%TO.P,J3,8,Pin_8*%
%TO.N,B-*%
X182720000Y-101740000D03*
%TO.P,J3,7,Pin_7*%
%TO.N,SHIELD*%
X182720000Y-98970000D03*
%TO.P,J3,6,Pin_6*%
%TO.N,+5V*%
X182720000Y-96200000D03*
D32*
%TO.P,J3,10,Pin_10*%
%TO.N,GNDS*%
X181300000Y-112860000D03*
%TO.P,J3,11,Pin_11*%
X181300000Y-87860000D03*
%TD*%
D12*
%TO.P,R13,1*%
%TO.N,COS-*%
X136110000Y-106165000D03*
%TO.P,R13,2*%
X137935000Y-106165000D03*
%TD*%
D35*
%TO.N,GND*%
X127940000Y-96330000D03*
X127940000Y-99720000D03*
X127940000Y-97440000D03*
X127940000Y-102000000D03*
X127930000Y-89890000D03*
X127920000Y-92036667D03*
X127920000Y-94183333D03*
X127850000Y-103280000D03*
X127840000Y-105186667D03*
X127850000Y-107093333D03*
X127940000Y-86490000D03*
X129960000Y-83880000D03*
X143940000Y-82430000D03*
X143950000Y-85040000D03*
X143970000Y-87380000D03*
X143960142Y-91599858D03*
X143950000Y-93250000D03*
X143950000Y-96520000D03*
X143940000Y-97580000D03*
X143960000Y-99946667D03*
X143960000Y-102313333D03*
X143940000Y-104680000D03*
X143970000Y-105760000D03*
D36*
X140830000Y-86210000D03*
X142180000Y-101030000D03*
X140820000Y-107760000D03*
X142190000Y-92870000D03*
X130020000Y-101110000D03*
%TO.N,ICNV_VREF*%
X135010000Y-87840000D03*
X135010000Y-92920000D03*
X135010000Y-101030000D03*
X135020000Y-107890000D03*
%TO.N,GND*%
X136720000Y-117555000D03*
%TO.N,+5V*%
X134250000Y-116115000D03*
%TO.N,GND*%
X145960000Y-116135000D03*
D35*
X139940000Y-82440000D03*
X143960000Y-89620000D03*
X141940000Y-82425000D03*
X137940000Y-82425000D03*
X135940000Y-82425000D03*
X133940000Y-82425000D03*
X131950000Y-83160000D03*
X127970000Y-84635000D03*
X127940000Y-88345000D03*
D36*
X131550000Y-108070000D03*
D35*
X127870000Y-109000000D03*
X131897500Y-109000000D03*
X135925000Y-109000000D03*
X139952500Y-109000000D03*
X143980000Y-109000000D03*
D36*
%TO.N,+5V*%
X153910000Y-96720000D03*
D35*
%TO.N,GND*%
X130010000Y-84565000D03*
D36*
X130020000Y-92895000D03*
X160300000Y-108990000D03*
X167810000Y-117730000D03*
X173680000Y-93590000D03*
X173670000Y-96231750D03*
X173750000Y-99350000D03*
X173550000Y-102070000D03*
X173550000Y-104550000D03*
X173490000Y-107300000D03*
%TO.N,+5V*%
X172330000Y-106100000D03*
%TO.N,GND*%
X148288000Y-109000000D03*
X151090000Y-114700000D03*
X153979000Y-109000000D03*
X154900000Y-105800000D03*
X157967500Y-94490000D03*
X157209500Y-109000000D03*
X162492300Y-98919750D03*
X161175000Y-88975000D03*
X165675000Y-110440000D03*
X145057500Y-109000000D03*
%TO.N,ICNV_VREF*%
X158960000Y-91080000D03*
X151130000Y-109110000D03*
%TO.N,+5V*%
X148288000Y-114700000D03*
X153100000Y-90500000D03*
X153979000Y-114700000D03*
X165600000Y-107310000D03*
X168492300Y-97472550D03*
%TD*%
D37*
%TO.N,SHIELD*%
X121465047Y-103024112D02*
X122666047Y-101823112D01*
X121465047Y-106121067D02*
X121465047Y-103024112D01*
X128789000Y-113445020D02*
X121465047Y-106121067D01*
X128789000Y-116194000D02*
X128789000Y-113445020D01*
X131505000Y-118910000D02*
X128789000Y-116194000D01*
X165828810Y-113690000D02*
X160608810Y-118910000D01*
X181201000Y-110309000D02*
X174301000Y-110309000D01*
X184620000Y-106890000D02*
X181201000Y-110309000D01*
X170920000Y-113690000D02*
X165828810Y-113690000D01*
X160608810Y-118910000D02*
X131505000Y-118910000D01*
X184620000Y-100870000D02*
X184620000Y-106890000D01*
X182720000Y-98970000D02*
X184620000Y-100870000D01*
X174301000Y-110309000D02*
X170920000Y-113690000D01*
D38*
%TO.N,GNDS*%
X176480000Y-119830000D02*
X176490000Y-119820000D01*
X169620000Y-119830000D02*
X176480000Y-119830000D01*
X175185000Y-121125000D02*
X176490000Y-119820000D01*
X132277935Y-121125000D02*
X175185000Y-121125000D01*
X169662500Y-119787500D02*
X169620000Y-119830000D01*
X169662500Y-115640000D02*
X169662500Y-119787500D01*
%TO.N,GND*%
X167837500Y-119772500D02*
X167895000Y-119830000D01*
X167837500Y-115640000D02*
X167837500Y-119772500D01*
D39*
%TO.N,IDX+*%
X148110952Y-96281000D02*
X149311000Y-96281000D01*
X147336252Y-95506299D02*
X148110952Y-96281000D01*
X143166980Y-91337027D02*
X145634008Y-93804055D01*
X149311000Y-96281000D02*
X150450000Y-97420000D01*
X142190000Y-87915000D02*
X142440000Y-88165000D01*
X142440000Y-88165000D02*
X142440000Y-88760786D01*
X146475094Y-94150908D02*
X146397681Y-94228318D01*
X146390242Y-93726644D02*
X146475094Y-93811496D01*
X143166980Y-89487766D02*
X143166980Y-91337027D01*
X146397682Y-94567730D02*
X146482536Y-94652583D01*
X150450000Y-97420000D02*
X150450000Y-98475000D01*
X146482536Y-94652583D02*
X147336252Y-95506299D01*
X142440000Y-88760786D02*
X143166980Y-89487766D01*
X145973420Y-93804056D02*
X146050830Y-93726643D01*
X146397681Y-94228318D02*
G75*
G03*
X146397705Y-94567707I169719J-169682D01*
G01*
X145634008Y-93804055D02*
G75*
G03*
X145973406Y-93804042I169692J169755D01*
G01*
X146475094Y-93811496D02*
G75*
G02*
X146475092Y-94150906I-169694J-169704D01*
G01*
X146050830Y-93726643D02*
G75*
G02*
X146390207Y-93726679I169670J-169757D01*
G01*
%TO.N,SIN-*%
X142986251Y-97875000D02*
X142180000Y-97875000D01*
X148500000Y-98475000D02*
X148500000Y-98178554D01*
X144964316Y-97574564D02*
X144964316Y-97375000D01*
X147456446Y-97135000D02*
X145804316Y-97135000D01*
X148500000Y-98178554D02*
X147456446Y-97135000D01*
X143565089Y-97296162D02*
X142986251Y-97875000D01*
X143726251Y-97135000D02*
X143565089Y-97296162D01*
X144604316Y-97135000D02*
X143726251Y-97135000D01*
X144724316Y-97135000D02*
X144604316Y-97135000D01*
X145324316Y-97814564D02*
X145204316Y-97814564D01*
X145564316Y-97375000D02*
X145564316Y-97574564D01*
X144964316Y-97375000D02*
G75*
G03*
X144724316Y-97134984I-240016J0D01*
G01*
X145804316Y-97135000D02*
G75*
G03*
X145564300Y-97375000I-16J-240000D01*
G01*
X145564316Y-97574564D02*
G75*
G02*
X145324316Y-97814616I-240016J-36D01*
G01*
X145204316Y-97814564D02*
G75*
G02*
X144964336Y-97574564I-16J239964D01*
G01*
%TO.N,COS+*%
X146598425Y-105080000D02*
X147916446Y-105080000D01*
X142986251Y-104355000D02*
X143711251Y-105080000D01*
X146478425Y-105080000D02*
X146598425Y-105080000D01*
X145638425Y-104840000D02*
X145638425Y-104574201D01*
X147916446Y-105080000D02*
X147942116Y-105054330D01*
X148500000Y-104496446D02*
X148500000Y-104200000D01*
X142180000Y-104355000D02*
X142986251Y-104355000D01*
X143711251Y-105080000D02*
X145398425Y-105080000D01*
X146238425Y-104574201D02*
X146238425Y-104840000D01*
X147942116Y-105054330D02*
X148500000Y-104496446D01*
X145878425Y-104334201D02*
X145998425Y-104334201D01*
X145638425Y-104574201D02*
G75*
G02*
X145878425Y-104334225I239975J1D01*
G01*
X146238425Y-104840000D02*
G75*
G03*
X146478425Y-105079975I239975J0D01*
G01*
X145998425Y-104334201D02*
G75*
G02*
X146238399Y-104574201I-25J-239999D01*
G01*
X145398425Y-105080000D02*
G75*
G03*
X145638400Y-104840000I-25J240000D01*
G01*
%TO.N,COS-*%
X148354950Y-105511000D02*
X147632478Y-105511000D01*
X142986251Y-106055000D02*
X142180000Y-106055000D01*
X148901000Y-104449000D02*
X148901000Y-104964950D01*
X144824312Y-105330000D02*
X143711251Y-105330000D01*
X145767262Y-105330000D02*
X144824312Y-105330000D01*
X148901000Y-104964950D02*
X148354950Y-105511000D01*
X143711251Y-105330000D02*
X142986251Y-106055000D01*
X147485446Y-105330000D02*
X145767262Y-105330000D01*
X147485446Y-105363968D02*
X147485446Y-105330000D01*
X147632478Y-105511000D02*
X147485446Y-105363968D01*
X149150000Y-104200000D02*
X148901000Y-104449000D01*
%TO.N,SIN+*%
X143726251Y-96885000D02*
X142986251Y-96145000D01*
X148297500Y-96885000D02*
X143726251Y-96885000D01*
X142986251Y-96145000D02*
X142180000Y-96145000D01*
X149150000Y-98475000D02*
X149150000Y-97737501D01*
X149150000Y-97737501D02*
X148297500Y-96885000D01*
%TO.N,IDX-*%
X142916000Y-91440987D02*
X148006993Y-96531980D01*
X142190000Y-90165076D02*
X142916000Y-90891076D01*
X142190000Y-89675000D02*
X142190000Y-90165076D01*
X142916000Y-90891076D02*
X142916000Y-91440987D01*
D38*
%TO.N,GND*%
X140850000Y-86190000D02*
X140830000Y-86210000D01*
X142190000Y-86190000D02*
X140850000Y-86190000D01*
X142180000Y-101030000D02*
X142180000Y-99600000D01*
X140840000Y-107780000D02*
X140820000Y-107760000D01*
X142180000Y-107780000D02*
X140840000Y-107780000D01*
X142180000Y-102630000D02*
X142180000Y-101030000D01*
X142190000Y-94410000D02*
X142180000Y-94420000D01*
X142190000Y-91400000D02*
X142190000Y-94410000D01*
X145810000Y-86190000D02*
X146700000Y-85300000D01*
X130012500Y-84567500D02*
X130010000Y-84565000D01*
X130012500Y-85845000D02*
X130012500Y-84567500D01*
X130030000Y-92905000D02*
X130020000Y-92895000D01*
X130030000Y-94105000D02*
X130030000Y-92905000D01*
X130020000Y-91695000D02*
X130020000Y-92895000D01*
X130020000Y-102275000D02*
X130020000Y-101110000D01*
X130030000Y-101100000D02*
X130020000Y-101110000D01*
X130030000Y-99925000D02*
X130030000Y-101100000D01*
X131535000Y-108085000D02*
X131550000Y-108070000D01*
X130020000Y-108085000D02*
X131535000Y-108085000D01*
D37*
%TO.N,ICNV_VREF*%
X134935000Y-87765000D02*
X135010000Y-87840000D01*
X133892500Y-87765000D02*
X134935000Y-87765000D01*
X133895000Y-94135000D02*
X135110000Y-92920000D01*
X133895000Y-96025000D02*
X133895000Y-94135000D01*
X133895000Y-91705000D02*
X135110000Y-92920000D01*
X133895000Y-89765000D02*
X133895000Y-91705000D01*
X133895000Y-102245000D02*
X135110000Y-101030000D01*
X133895000Y-104195000D02*
X133895000Y-102245000D01*
X133895000Y-99815000D02*
X133895000Y-98005000D01*
X135110000Y-101030000D02*
X133895000Y-99815000D01*
X133895000Y-106665000D02*
X133895000Y-106165000D01*
X135120000Y-107890000D02*
X133895000Y-106665000D01*
D38*
%TO.N,GND*%
X147730000Y-86330000D02*
X146700000Y-85300000D01*
X147730000Y-88560000D02*
X147730000Y-86330000D01*
D37*
%TO.N,GNDA*%
X147730000Y-93458134D02*
X147730000Y-92560000D01*
X150201866Y-95930000D02*
X147730000Y-93458134D01*
X150300000Y-95930000D02*
X150201866Y-95930000D01*
%TO.N,ICNV_VREF*%
X158380000Y-90500000D02*
X156550000Y-90500000D01*
X158960000Y-91080000D02*
X158380000Y-90500000D01*
D38*
%TO.N,GND*%
X150077500Y-87122500D02*
X150450000Y-86750000D01*
X150077500Y-90500000D02*
X150077500Y-87122500D01*
X150077500Y-94500000D02*
X150077500Y-90500000D01*
D39*
%TO.N,COS-*%
X142175000Y-106060000D02*
X142180000Y-106055000D01*
X139870000Y-106060000D02*
X142175000Y-106060000D01*
%TO.N,COS+*%
X139930000Y-104355000D02*
X142180000Y-104355000D01*
X139910000Y-104335000D02*
X139930000Y-104355000D01*
X139870000Y-104335000D02*
X139910000Y-104335000D01*
%TO.N,COS-*%
X139765000Y-106165000D02*
X139870000Y-106060000D01*
X137935000Y-106165000D02*
X139765000Y-106165000D01*
%TO.N,COS+*%
X139730000Y-104195000D02*
X139870000Y-104335000D01*
X137935000Y-104195000D02*
X139730000Y-104195000D01*
%TO.N,COS-*%
X136110000Y-106165000D02*
X137935000Y-106165000D01*
%TO.N,COS+*%
X136110000Y-104195000D02*
X137935000Y-104195000D01*
%TO.N,COS-*%
X136110000Y-105795000D02*
X136110000Y-106165000D01*
X135620000Y-105305000D02*
X136110000Y-105795000D01*
%TO.N,COS+*%
X136110000Y-104565000D02*
X136110000Y-104195000D01*
X135620000Y-105055000D02*
X136110000Y-104565000D01*
%TO.N,COS-*%
X132930000Y-105305000D02*
X135620000Y-105305000D01*
%TO.N,COS+*%
X132930000Y-105055000D02*
X135620000Y-105055000D01*
%TO.N,COS-*%
X132070000Y-106165000D02*
X132930000Y-105305000D01*
%TO.N,COS+*%
X132070000Y-104195000D02*
X132930000Y-105055000D01*
%TO.N,COS-*%
X131890000Y-105985000D02*
X132070000Y-106165000D01*
X130020000Y-105985000D02*
X131890000Y-105985000D01*
%TO.N,COS+*%
X131890000Y-104375000D02*
X132070000Y-104195000D01*
X130020000Y-104375000D02*
X131890000Y-104375000D01*
%TO.N,COS-*%
X128205000Y-104506778D02*
X128205000Y-103136778D01*
X128205000Y-103136778D02*
X127011334Y-101943112D01*
X126766047Y-101943112D02*
X125506047Y-103203112D01*
X128998222Y-105300000D02*
X128205000Y-104506778D01*
X129785000Y-105300000D02*
X128998222Y-105300000D01*
X130020000Y-105535000D02*
X129785000Y-105300000D01*
X130020000Y-105985000D02*
X130020000Y-105535000D01*
X127011334Y-101943112D02*
X126766047Y-101943112D01*
%TO.N,COS+*%
X129795000Y-105050000D02*
X130020000Y-104825000D01*
X128455000Y-104403222D02*
X129101778Y-105050000D01*
X129101778Y-105050000D02*
X129795000Y-105050000D01*
X128455000Y-103033222D02*
X128455000Y-104403222D01*
X127114890Y-101693112D02*
X128455000Y-103033222D01*
X125506047Y-100433112D02*
X126766047Y-101693112D01*
X126766047Y-101693112D02*
X127114890Y-101693112D01*
X130020000Y-104825000D02*
X130020000Y-104375000D01*
%TO.N,SIN+*%
X142177500Y-96142500D02*
X142180000Y-96145000D01*
X139870000Y-96142500D02*
X142177500Y-96142500D01*
%TO.N,SIN-*%
X142172500Y-97867500D02*
X142180000Y-97875000D01*
X139870000Y-97867500D02*
X142172500Y-97867500D01*
X139732500Y-98005000D02*
X139870000Y-97867500D01*
X137935000Y-98005000D02*
X139732500Y-98005000D01*
%TO.N,SIN+*%
X139752500Y-96025000D02*
X139870000Y-96142500D01*
X137935000Y-96025000D02*
X139752500Y-96025000D01*
%TO.N,SIN-*%
X136110000Y-98005000D02*
X137935000Y-98005000D01*
%TO.N,SIN+*%
X136110000Y-96025000D02*
X137935000Y-96025000D01*
%TO.N,SIN-*%
X136110000Y-97460000D02*
X135790000Y-97140000D01*
X136110000Y-98005000D02*
X136110000Y-97460000D01*
%TO.N,SIN+*%
X136110000Y-96570000D02*
X135790000Y-96890000D01*
X136110000Y-96025000D02*
X136110000Y-96570000D01*
%TO.N,SIN-*%
X132070000Y-98005000D02*
X132082500Y-98005000D01*
%TO.N,SIN+*%
X132947500Y-96890000D02*
X135790000Y-96890000D01*
%TO.N,SIN-*%
X132082500Y-98005000D02*
X132947500Y-97140000D01*
%TO.N,SIN+*%
X132082500Y-96025000D02*
X132947500Y-96890000D01*
%TO.N,SIN-*%
X132947500Y-97140000D02*
X135790000Y-97140000D01*
%TO.N,SIN+*%
X132070000Y-96025000D02*
X132082500Y-96025000D01*
X132070000Y-96540000D02*
X131720000Y-96890000D01*
X132070000Y-96025000D02*
X132070000Y-96540000D01*
%TO.N,SIN-*%
X132070000Y-97490000D02*
X131720000Y-97140000D01*
X132070000Y-98005000D02*
X132070000Y-97490000D01*
X130715000Y-97140000D02*
X131720000Y-97140000D01*
X130030000Y-97825000D02*
X130715000Y-97140000D01*
%TO.N,SIN+*%
X130030000Y-96205000D02*
X130715000Y-96890000D01*
X130715000Y-96890000D02*
X131720000Y-96890000D01*
%TO.N,SIN-*%
X130030000Y-97440000D02*
X130030000Y-97825000D01*
X129650000Y-97060000D02*
X130030000Y-97440000D01*
%TO.N,SIN+*%
X126914890Y-96153112D02*
X127571778Y-96810000D01*
X130030000Y-96535000D02*
X130030000Y-96205000D01*
X126766047Y-96153112D02*
X126914890Y-96153112D01*
X125506047Y-94893112D02*
X126766047Y-96153112D01*
X127571778Y-96810000D02*
X129755000Y-96810000D01*
X129755000Y-96810000D02*
X130030000Y-96535000D01*
%TO.N,SIN-*%
X126811334Y-96403112D02*
X127468222Y-97060000D01*
X126766047Y-96403112D02*
X126811334Y-96403112D01*
X127468222Y-97060000D02*
X129650000Y-97060000D01*
X125506047Y-97663112D02*
X126766047Y-96403112D01*
%TO.N,IDX-*%
X142160000Y-89645000D02*
X142190000Y-89675000D01*
X139930000Y-89645000D02*
X142160000Y-89645000D01*
%TO.N,IDX+*%
X139930000Y-87920000D02*
X142185000Y-87920000D01*
X142185000Y-87920000D02*
X142190000Y-87915000D01*
%TO.N,IDX-*%
X139820000Y-89755000D02*
X139930000Y-89645000D01*
X137935000Y-89755000D02*
X139820000Y-89755000D01*
%TO.N,IDX+*%
X139765000Y-87755000D02*
X139930000Y-87920000D01*
X137947500Y-87755000D02*
X139765000Y-87755000D01*
%TO.N,IDX-*%
X136110000Y-89755000D02*
X137935000Y-89755000D01*
%TO.N,IDX+*%
X136122500Y-87755000D02*
X137947500Y-87755000D01*
%TO.N,IDX-*%
X135586250Y-88891250D02*
X136110000Y-89415000D01*
X132943750Y-88891250D02*
X135586250Y-88891250D01*
X132070000Y-89765000D02*
X132943750Y-88891250D01*
X136110000Y-89415000D02*
X136110000Y-89755000D01*
%TO.N,IDX+*%
X136122500Y-88081778D02*
X136122500Y-87755000D01*
X135563028Y-88641250D02*
X136122500Y-88081778D01*
X132943750Y-88641250D02*
X135563028Y-88641250D01*
X132067500Y-87765000D02*
X132943750Y-88641250D01*
%TO.N,IDX-*%
X130020000Y-89595000D02*
X131900000Y-89595000D01*
X131900000Y-89595000D02*
X132070000Y-89765000D01*
%TO.N,IDX+*%
X130012500Y-87945000D02*
X131887500Y-87945000D01*
X131887500Y-87945000D02*
X132067500Y-87765000D01*
%TO.N,IDX-*%
X130020000Y-89385000D02*
X130020000Y-89595000D01*
X128401778Y-88870000D02*
X129505000Y-88870000D01*
X122916047Y-94976062D02*
X122916047Y-94355731D01*
X123767047Y-95827062D02*
X122916047Y-94976062D01*
X122916047Y-94355731D02*
X128401778Y-88870000D01*
X129505000Y-88870000D02*
X130020000Y-89385000D01*
X123767047Y-96739162D02*
X123767047Y-95827062D01*
X122916047Y-97590162D02*
X123767047Y-96739162D01*
X122916047Y-98803112D02*
X122916047Y-97590162D01*
X122666047Y-99053112D02*
X122916047Y-98803112D01*
%TO.N,IDX+*%
X130012500Y-88057500D02*
X130012500Y-87945000D01*
X129450000Y-88620000D02*
X130012500Y-88057500D01*
X128298222Y-88620000D02*
X129450000Y-88620000D01*
X122666047Y-94252175D02*
X128298222Y-88620000D01*
D38*
%TO.N,+5V*%
X129990000Y-113237500D02*
X129290000Y-113237500D01*
%TO.N,GND*%
X128414942Y-111512500D02*
X129990000Y-111512500D01*
X127538721Y-110636279D02*
X128414942Y-111512500D01*
X127538721Y-110636279D02*
X127714942Y-110812500D01*
X143332500Y-116135000D02*
X145960000Y-116135000D01*
D37*
%TO.N,Net-(D13-K)*%
X141507500Y-116135000D02*
X140870000Y-116135000D01*
D38*
%TO.N,GND*%
X136720000Y-116505000D02*
X136720000Y-117555000D01*
%TO.N,+5V*%
X134260000Y-116125000D02*
X134250000Y-116115000D01*
X135420000Y-116125000D02*
X134260000Y-116125000D01*
D37*
%TO.N,Net-(D13-K)*%
X140860000Y-116125000D02*
X140870000Y-116135000D01*
X138020000Y-116125000D02*
X140860000Y-116125000D01*
%TO.N,Z-*%
X172407211Y-108560000D02*
G75*
G02*
X172647200Y-108800000I-11J-240000D01*
G01*
X173007211Y-109070692D02*
G75*
G03*
X173247192Y-108830692I-11J239992D01*
G01*
X173247211Y-108800000D02*
G75*
G02*
X173487211Y-108560011I239989J0D01*
G01*
X172647211Y-108830692D02*
G75*
G03*
X172887211Y-109070689I239989J-8D01*
G01*
X174680369Y-108560000D02*
X175512000Y-108560000D01*
X168500000Y-105790000D02*
X171270000Y-108560000D01*
X173487211Y-108560000D02*
X173607211Y-108560000D01*
X172647211Y-108800000D02*
X172647211Y-108830692D01*
X172887211Y-109070692D02*
X173007211Y-109070692D01*
X171270000Y-108560000D02*
X172407211Y-108560000D01*
X175512000Y-108560000D02*
X176820000Y-107252000D01*
X168500000Y-104399750D02*
X168500000Y-105790000D01*
X173247211Y-108830692D02*
X173247211Y-108800000D01*
X173607211Y-108560000D02*
X174680369Y-108560000D01*
%TO.N,B+*%
X174265466Y-100743944D02*
G75*
G03*
X174265515Y-101083306I169734J-169656D01*
G01*
X176064605Y-100302445D02*
G75*
G02*
X176064654Y-100641906I-169705J-169755D01*
G01*
X175640341Y-100217592D02*
G75*
G02*
X175979706Y-100217639I169659J-169708D01*
G01*
X174350318Y-101168207D02*
G75*
G03*
X174689730Y-101168207I169706J169704D01*
G01*
X175758990Y-100947473D02*
G75*
G03*
X175758969Y-101286906I169710J-169727D01*
G01*
X174571053Y-100098947D02*
G75*
G02*
X174571101Y-100438405I-169753J-169753D01*
G01*
X175165021Y-100692915D02*
X175334725Y-100523208D01*
X174995316Y-100862620D02*
X175165021Y-100692915D01*
X173150000Y-99820000D02*
X173428947Y-100098947D01*
X172679644Y-97633750D02*
X173150000Y-98104106D01*
X174525683Y-100098947D02*
X174571053Y-100098947D01*
X173150000Y-98104106D02*
X173150000Y-99820000D01*
X175979753Y-100217593D02*
X176064605Y-100302445D01*
X174689730Y-101168207D02*
X174995316Y-100862620D01*
X173428947Y-100098947D02*
X173875683Y-100098947D01*
X174265466Y-101083355D02*
X174350318Y-101168207D01*
X172071058Y-97633750D02*
X172679644Y-97633750D01*
X175843842Y-101371736D02*
X176524106Y-102052000D01*
X176524106Y-102052000D02*
X176693277Y-102052000D01*
X171050000Y-98919750D02*
X171050000Y-98654808D01*
X176693277Y-102052000D02*
X176810000Y-102052000D01*
X171050000Y-98654808D02*
X172071058Y-97633750D01*
X175334725Y-100523208D02*
X175640341Y-100217592D01*
X173875683Y-100098947D02*
X174525683Y-100098947D01*
X175758990Y-101286885D02*
X175843842Y-101371736D01*
X174571053Y-100438358D02*
X174265466Y-100743944D01*
X176064605Y-100641857D02*
X175758990Y-100947473D01*
%TO.N,A-*%
X168841326Y-96273581D02*
G75*
G02*
X169180737Y-96273580I169706J-169707D01*
G01*
X169455503Y-96548347D02*
G75*
G03*
X169794914Y-96548348I169706J169707D01*
G01*
X169604999Y-95849315D02*
G75*
G02*
X169604989Y-95509895I169701J169715D01*
G01*
X169879766Y-96463494D02*
G75*
G03*
X169879754Y-96124094I-169666J169694D01*
G01*
X169604999Y-95509904D02*
X169689854Y-95425052D01*
X171078919Y-95160000D02*
X175668000Y-95160000D01*
X167240000Y-98919750D02*
X167240000Y-97874907D01*
X175668000Y-95160000D02*
X176810000Y-96302000D01*
X169180737Y-96273581D02*
X169455503Y-96548347D01*
X169954907Y-95160000D02*
X171078919Y-95160000D01*
X167240000Y-97874907D02*
X168841326Y-96273581D01*
X169689854Y-95425052D02*
X169954907Y-95160000D01*
X169879766Y-96124082D02*
X169604999Y-95849315D01*
X169794914Y-96548347D02*
X169879766Y-96463494D01*
D38*
%TO.N,GND*%
X125506047Y-108603605D02*
X127538721Y-110636279D01*
X125506047Y-105973112D02*
X125506047Y-108603605D01*
%TO.N,+5V*%
X153050000Y-97580000D02*
X153910000Y-96720000D01*
X153050000Y-98475000D02*
X153050000Y-97580000D01*
D37*
%TO.N,Net-(RV3-Pad2)*%
X162120000Y-86625000D02*
X163070000Y-87575000D01*
X162120000Y-84375000D02*
X162120000Y-86625000D01*
D39*
%TO.N,IDX-*%
X148006993Y-96531980D02*
X148594479Y-96531980D01*
X149800000Y-97737501D02*
X149800000Y-98475000D01*
X148594479Y-96531980D02*
X149800000Y-97737501D01*
%TO.N,IDX+*%
X122666047Y-96283112D02*
X122666047Y-94252175D01*
D37*
%TO.N,GNDA*%
X150300000Y-95930000D02*
X151100000Y-96730000D01*
X151100000Y-96730000D02*
X151100000Y-98475000D01*
D38*
%TO.N,+5V*%
X122666047Y-106613547D02*
X129290000Y-113237500D01*
X122666047Y-104593112D02*
X122666047Y-106613547D01*
%TO.N,GND*%
X163430000Y-98919750D02*
X162492300Y-98919750D01*
X150450000Y-84550000D02*
X147450000Y-84550000D01*
X147450000Y-84550000D02*
X146700000Y-85300000D01*
X150450000Y-86750000D02*
X150450000Y-84550000D01*
%TO.N,+5V*%
X151800000Y-83720000D02*
X151800000Y-90500000D01*
X151950000Y-83570000D02*
X151800000Y-83720000D01*
X151800000Y-90500000D02*
X153100000Y-90500000D01*
X151800000Y-94500000D02*
X151800000Y-90500000D01*
X151750000Y-94550000D02*
X151800000Y-94500000D01*
X151750000Y-98475000D02*
X151750000Y-94550000D01*
%TO.N,GND*%
X161170000Y-88970000D02*
X161175000Y-88975000D01*
X161170000Y-87575000D02*
X161170000Y-88970000D01*
X158050000Y-86750000D02*
X160345000Y-86750000D01*
X160345000Y-86750000D02*
X161170000Y-87575000D01*
X158050000Y-84550000D02*
X158050000Y-86750000D01*
D37*
%TO.N,Net-(RV3-Pad2)*%
X163070000Y-87575000D02*
X165525000Y-87575000D01*
X165525000Y-87575000D02*
X167900000Y-85200000D01*
X161315000Y-83570000D02*
X162120000Y-84375000D01*
X156450000Y-83570000D02*
X161315000Y-83570000D01*
%TO.N,ICNV_RCLK*%
X154837500Y-83682500D02*
X154950000Y-83570000D01*
X154837500Y-90500000D02*
X154837500Y-83682500D01*
X154837500Y-94500000D02*
X154837500Y-90500000D01*
D38*
%TO.N,GND*%
X156680000Y-94490000D02*
X157967500Y-94490000D01*
D37*
%TO.N,ICNV_RCLK*%
X152400000Y-98475000D02*
X152400000Y-96937500D01*
X152400000Y-96937500D02*
X154837500Y-94500000D01*
%TO.N,ICNV_VREF*%
X151133500Y-109113500D02*
X151130000Y-109110000D01*
X151133500Y-110487500D02*
X151133500Y-109113500D01*
X151100000Y-109080000D02*
X151130000Y-109110000D01*
X151100000Y-104200000D02*
X151100000Y-109080000D01*
D38*
%TO.N,GND*%
X151133500Y-114656500D02*
X151090000Y-114700000D01*
X151133500Y-113612500D02*
X151133500Y-114656500D01*
D37*
%TO.N,SG1*%
X146338499Y-111539001D02*
X146007500Y-111870000D01*
X146338499Y-108399000D02*
X146338499Y-111539001D01*
X146007500Y-111870000D02*
X145057500Y-111870000D01*
X149800000Y-104200000D02*
X149800000Y-104937499D01*
X149800000Y-104937499D02*
X146338499Y-108399000D01*
%TO.N,SG0*%
X149238000Y-111870000D02*
X148288000Y-111870000D01*
X149339000Y-111769000D02*
X149238000Y-111870000D01*
X150450000Y-104937499D02*
X149339000Y-106048499D01*
X150450000Y-104200000D02*
X150450000Y-104937499D01*
X149339000Y-106048499D02*
X149339000Y-111769000D01*
%TO.N,ROT*%
X153427000Y-111870000D02*
X153979000Y-111870000D01*
X152928000Y-111371000D02*
X153427000Y-111870000D01*
X152928000Y-109769000D02*
X152928000Y-111371000D01*
X151750000Y-108591000D02*
X152928000Y-109769000D01*
X151750000Y-104200000D02*
X151750000Y-108591000D01*
%TO.N,SF1*%
X156657500Y-111870000D02*
X157209500Y-111870000D01*
X156158500Y-111371000D02*
X156657500Y-111870000D01*
X156158500Y-110238500D02*
X156158500Y-111371000D01*
X152400000Y-106480000D02*
X156158500Y-110238500D01*
X152400000Y-104200000D02*
X152400000Y-106480000D01*
%TO.N,SF0*%
X159350000Y-111860000D02*
X160300000Y-111860000D01*
X157458443Y-108399000D02*
X159249000Y-110189557D01*
X156391687Y-108399000D02*
X157458443Y-108399000D01*
X153050000Y-105057313D02*
X156391687Y-108399000D01*
X153050000Y-104200000D02*
X153050000Y-105057313D01*
X159249000Y-110189557D02*
X159249000Y-111759000D01*
X159249000Y-111759000D02*
X159350000Y-111860000D01*
D38*
%TO.N,GND*%
X154501208Y-105800000D02*
X154900000Y-105800000D01*
X153700000Y-104998792D02*
X154501208Y-105800000D01*
X153700000Y-104200000D02*
X153700000Y-104998792D01*
X145057500Y-109000000D02*
X145057500Y-110570000D01*
X148288000Y-109000000D02*
X148288000Y-110570000D01*
X160300000Y-108990000D02*
X160300000Y-110560000D01*
X157209500Y-109000000D02*
X157209500Y-110570000D01*
X153979000Y-109000000D02*
X153979000Y-110570000D01*
%TO.N,+5V*%
X153979000Y-113170000D02*
X160440000Y-113170000D01*
X153979000Y-113170000D02*
X153979000Y-114700000D01*
X148288000Y-113170000D02*
X148288000Y-114700000D01*
X145057500Y-113170000D02*
X148288000Y-113170000D01*
%TO.N,GNDS*%
X182940000Y-112860000D02*
X181300000Y-112860000D01*
X185240000Y-110560000D02*
X182940000Y-112860000D01*
X185240000Y-91800000D02*
X185240000Y-110560000D01*
X181300000Y-87860000D02*
X185240000Y-91800000D01*
X117360000Y-106207065D02*
X124086047Y-112933112D01*
X117360000Y-94659159D02*
X117360000Y-106207065D01*
X124086047Y-87933112D02*
X117360000Y-94659159D01*
X175160000Y-121150000D02*
X176490000Y-119820000D01*
X124086047Y-112933112D02*
X132277935Y-121125000D01*
X181300000Y-112860000D02*
X176490000Y-117670000D01*
X176490000Y-117670000D02*
X176490000Y-119820000D01*
D37*
%TO.N,A+*%
X177590000Y-93890000D02*
X177590000Y-95300000D01*
X177590000Y-95300000D02*
X179880000Y-97590000D01*
X177300000Y-93600000D02*
X177590000Y-93890000D01*
X176810000Y-93600000D02*
X177300000Y-93600000D01*
X170113750Y-94191000D02*
X176219000Y-94191000D01*
X176219000Y-94191000D02*
X176810000Y-93600000D01*
X165970000Y-98334750D02*
X170113750Y-94191000D01*
X165970000Y-98919750D02*
X165970000Y-98334750D01*
D38*
%TO.N,GND*%
X173690000Y-93600000D02*
X173680000Y-93590000D01*
X174710000Y-93600000D02*
X173690000Y-93600000D01*
X173740250Y-96302000D02*
X173670000Y-96231750D01*
X174710000Y-96302000D02*
X173740250Y-96302000D01*
D37*
%TO.N,A-*%
X176810000Y-97290000D02*
X179880000Y-100360000D01*
X176810000Y-96302000D02*
X176810000Y-97290000D01*
D38*
%TO.N,+5V*%
X168500000Y-97480250D02*
X168492300Y-97472550D01*
X168500000Y-98919750D02*
X168500000Y-97480250D01*
D37*
%TO.N,B-*%
X179200000Y-101740000D02*
X182720000Y-101740000D01*
X176810000Y-99350000D02*
X179200000Y-101740000D01*
%TO.N,B+*%
X178802000Y-102052000D02*
X179880000Y-103130000D01*
X176810000Y-102052000D02*
X178802000Y-102052000D01*
%TO.N,B-*%
X174692750Y-97232750D02*
X176810000Y-99350000D01*
X170882000Y-97232750D02*
X174692750Y-97232750D01*
X169780000Y-98334750D02*
X170882000Y-97232750D01*
X169780000Y-98919750D02*
X169780000Y-98334750D01*
D38*
%TO.N,GND*%
X174710000Y-99350000D02*
X173750000Y-99350000D01*
D37*
%TO.N,MC_1A*%
X164700000Y-98334750D02*
X164700000Y-98919750D01*
X163801750Y-97436500D02*
X164700000Y-98334750D01*
X153700000Y-97817630D02*
X154081130Y-97436500D01*
X154081130Y-97436500D02*
X163801750Y-97436500D01*
X153700000Y-98475000D02*
X153700000Y-97817630D01*
%TO.N,MC_2A*%
X171619000Y-100205750D02*
X156080750Y-100205750D01*
X156080750Y-100205750D02*
X154350000Y-98475000D01*
X172320000Y-99504750D02*
X171619000Y-100205750D01*
X172320000Y-98919750D02*
X172320000Y-99504750D01*
D38*
%TO.N,GND*%
X173550000Y-102070000D02*
X173568000Y-102052000D01*
X174710000Y-102052000D02*
X173568000Y-102052000D01*
X174720000Y-104550000D02*
X173550000Y-104550000D01*
X173538000Y-107252000D02*
X173490000Y-107300000D01*
X174720000Y-107252000D02*
X173538000Y-107252000D01*
D37*
%TO.N,Z+*%
X182680000Y-104550000D02*
X182720000Y-104510000D01*
X176820000Y-104550000D02*
X182680000Y-104550000D01*
X173180000Y-106700000D02*
X173640000Y-106700000D01*
X173640000Y-106700000D02*
X175790000Y-104550000D01*
X173179000Y-106701000D02*
X173180000Y-106700000D01*
X175790000Y-104550000D02*
X176820000Y-104550000D01*
X169780000Y-105840000D02*
X170641000Y-106701000D01*
X169780000Y-104399750D02*
X169780000Y-105840000D01*
X170641000Y-106701000D02*
X173179000Y-106701000D01*
D38*
%TO.N,+5V*%
X172320000Y-106090000D02*
X172330000Y-106100000D01*
X172320000Y-105350000D02*
X172320000Y-104399750D01*
X172320000Y-105350000D02*
X172320000Y-106090000D01*
D37*
%TO.N,Z-*%
X178528000Y-107252000D02*
X179880000Y-105900000D01*
X176820000Y-107252000D02*
X178528000Y-107252000D01*
D38*
%TO.N,+5V*%
X165600850Y-107310850D02*
X165600000Y-107310000D01*
X167234300Y-107310850D02*
X165600850Y-107310850D01*
%TO.N,GND*%
X165679150Y-110435850D02*
X165675000Y-110440000D01*
X167234300Y-110435850D02*
X165679150Y-110435850D01*
D37*
%TO.N,MC_3A*%
X170028942Y-103113750D02*
X155436250Y-103113750D01*
X155436250Y-103113750D02*
X154350000Y-104200000D01*
X171050000Y-104134808D02*
X170028942Y-103113750D01*
X171050000Y-104399750D02*
X171050000Y-104134808D01*
D38*
%TO.N,+5V*%
X172320000Y-105470000D02*
X172320000Y-105350000D01*
X167240000Y-107305150D02*
X167234300Y-107310850D01*
X167240000Y-104399750D02*
X167240000Y-107305150D01*
%TD*%
M02*
