%TF.GenerationSoftware,KiCad,Pcbnew,9.0.7*%
%TF.CreationDate,2026-02-04T08:31:01+01:00*%
%TF.ProjectId,icncconv,69636e63-636f-46e7-962e-6b696361645f,rev?*%
%TF.SameCoordinates,Original*%
%TF.FileFunction,Copper,L3,Inr*%
%TF.FilePolarity,Positive*%
%FSLAX46Y46*%
G04 Gerber Fmt 4.6, Leading zero omitted, Abs format (unit mm)*
G04 Created by KiCad (PCBNEW 9.0.7) date 2026-02-04 08:31:01*
%MOMM*%
%LPD*%
G01*
G04 APERTURE LIST*
%TA.AperFunction,ComponentPad*%
%ADD10C,1.100000*%
%TD*%
%TA.AperFunction,ComponentPad*%
%ADD11R,1.800000X1.800000*%
%TD*%
%TA.AperFunction,ComponentPad*%
%ADD12C,1.800000*%
%TD*%
%TA.AperFunction,ComponentPad*%
%ADD13C,4.500000*%
%TD*%
%TA.AperFunction,ComponentPad*%
%ADD14C,2.600000*%
%TD*%
%TA.AperFunction,ComponentPad*%
%ADD15C,6.400000*%
%TD*%
%TA.AperFunction,ViaPad*%
%ADD16C,0.600000*%
%TD*%
G04 APERTURE END LIST*
D10*
%TO.N,*%
%TO.C,SW1*%
X152750000Y-85650000D03*
X155750000Y-85650000D03*
%TD*%
D11*
%TO.N,GND*%
%TO.C,J1*%
X125506047Y-105973112D03*
D12*
%TO.N,COS-*%
X125506047Y-103203112D03*
%TO.N,COS+*%
X125506047Y-100433112D03*
%TO.N,SIN-*%
X125506047Y-97663112D03*
%TO.N,SIN+*%
X125506047Y-94893112D03*
%TO.N,+5V*%
X122666047Y-104593112D03*
%TO.N,SHIELD*%
X122666047Y-101823112D03*
%TO.N,IDX-*%
X122666047Y-99053112D03*
%TO.N,IDX+*%
X122666047Y-96283112D03*
D13*
%TO.N,GNDS*%
X124086047Y-87933112D03*
X124086047Y-112933112D03*
%TD*%
D14*
%TO.N,Net-(RV3-Pad2)*%
%TO.C,TP1*%
X167900000Y-85200000D03*
%TD*%
%TO.N,GND*%
%TO.C,TP2*%
X146700000Y-85300000D03*
%TD*%
D15*
%TO.N,GNDS*%
%TO.C,H5*%
X176490000Y-119820000D03*
%TD*%
D11*
%TO.N,GND*%
%TO.C,J3*%
X179880000Y-94820000D03*
D12*
%TO.N,A+*%
X179880000Y-97590000D03*
%TO.N,A-*%
X179880000Y-100360000D03*
%TO.N,B+*%
X179880000Y-103130000D03*
%TO.N,Z-*%
X179880000Y-105900000D03*
%TO.N,+5V*%
X182720000Y-96200000D03*
%TO.N,SHIELD*%
X182720000Y-98970000D03*
%TO.N,B-*%
X182720000Y-101740000D03*
%TO.N,Z+*%
X182720000Y-104510000D03*
D13*
%TO.N,GNDS*%
X181300000Y-112860000D03*
X181300000Y-87860000D03*
%TD*%
D16*
%TO.N,GND*%
X127940000Y-88345000D03*
X127940000Y-86490000D03*
X127970000Y-84635000D03*
X130010000Y-84610000D03*
X129960000Y-83880000D03*
X131950000Y-83160000D03*
X133940000Y-82425000D03*
X135940000Y-82425000D03*
X137940000Y-82425000D03*
X139940000Y-82440000D03*
X141940000Y-82425000D03*
X143940000Y-82430000D03*
X143950000Y-84722465D03*
X143970000Y-87014929D03*
X143960000Y-89307394D03*
X143970000Y-91510000D03*
X143950000Y-93330000D03*
X143960000Y-96430000D03*
X143950000Y-97680000D03*
X143960000Y-99946667D03*
X143960000Y-102313333D03*
X143950000Y-104600000D03*
X143970000Y-105820000D03*
X127930000Y-90040000D03*
X127920000Y-92036667D03*
X127920000Y-94183333D03*
X127930000Y-96270000D03*
X128040000Y-97540000D03*
X128050000Y-99730000D03*
X128040000Y-101910000D03*
X127680000Y-103360000D03*
X127670000Y-105210000D03*
X127680000Y-107080000D03*
X127700000Y-108950000D03*
X131897500Y-109000000D03*
X135925000Y-109000000D03*
X139952500Y-109000000D03*
X143950000Y-108950000D03*
X173550000Y-102070000D03*
X145960000Y-116135000D03*
X148288000Y-109000000D03*
X131550000Y-108070000D03*
X140820000Y-107760000D03*
X130020000Y-101110000D03*
X151090000Y-114700000D03*
X153979000Y-109000000D03*
X160300000Y-108990000D03*
X136720000Y-117555000D03*
X140830000Y-86210000D03*
X154900000Y-105800000D03*
X173550000Y-104550000D03*
X142190000Y-92870000D03*
X157967500Y-94490000D03*
X157209500Y-109000000D03*
X162492300Y-98919750D03*
X173670000Y-96231750D03*
X173680000Y-93590000D03*
X173750000Y-99350000D03*
X161175000Y-88975000D03*
X130020000Y-92895000D03*
X173490000Y-107300000D03*
X165550000Y-109050000D03*
X142180000Y-101030000D03*
X167810000Y-117730000D03*
X145057500Y-109000000D03*
%TO.N,ICNV_VREF*%
X135010000Y-92920000D03*
X158960000Y-91080000D03*
X135010000Y-101030000D03*
X135020000Y-107890000D03*
X151130000Y-109110000D03*
X135010000Y-87840000D03*
%TO.N,+5V*%
X148288000Y-114700000D03*
X153910000Y-96720000D03*
X134250000Y-116115000D03*
X172330000Y-106100000D03*
X153100000Y-90500000D03*
X153979000Y-114700000D03*
X165600000Y-107310000D03*
X168492300Y-97472550D03*
%TD*%
%TA.AperFunction,Conductor*%
%TO.N,+5V*%
G36*
X185878387Y-75534916D02*
G01*
X185878577Y-75534967D01*
X185941870Y-75534966D01*
X185947180Y-75535084D01*
X186331244Y-75551849D01*
X186341978Y-75552789D01*
X186720451Y-75602614D01*
X186731070Y-75604486D01*
X187103770Y-75687108D01*
X187114185Y-75689899D01*
X187478243Y-75804684D01*
X187488386Y-75808375D01*
X187841082Y-75954462D01*
X187850842Y-75959014D01*
X188090837Y-76083946D01*
X188189442Y-76135276D01*
X188198810Y-76140685D01*
X188520734Y-76345770D01*
X188529596Y-76351975D01*
X188832422Y-76584338D01*
X188840709Y-76591291D01*
X189122138Y-76849170D01*
X189129787Y-76856819D01*
X189387669Y-77138245D01*
X189394622Y-77146532D01*
X189626987Y-77449350D01*
X189633192Y-77458211D01*
X189838284Y-77780138D01*
X189843693Y-77789506D01*
X190019950Y-78128086D01*
X190024522Y-78137891D01*
X190170595Y-78490536D01*
X190174295Y-78500701D01*
X190289082Y-78864751D01*
X190291881Y-78875199D01*
X190374497Y-79247841D01*
X190376376Y-79258495D01*
X190426202Y-79636936D01*
X190427144Y-79647710D01*
X190443848Y-80030208D01*
X190443966Y-80035618D01*
X190443966Y-119968573D01*
X190443965Y-119968577D01*
X190443965Y-119981755D01*
X190443965Y-119998748D01*
X190443965Y-120031764D01*
X190443847Y-120037172D01*
X190427083Y-120421220D01*
X190426140Y-120431997D01*
X190376320Y-120810429D01*
X190374442Y-120821082D01*
X190291827Y-121193745D01*
X190289027Y-121204194D01*
X190174248Y-121568231D01*
X190170548Y-121578396D01*
X190024479Y-121931040D01*
X190019907Y-121940845D01*
X189843659Y-122279416D01*
X189838251Y-122288784D01*
X189633157Y-122610719D01*
X189626952Y-122619580D01*
X189394592Y-122922398D01*
X189387638Y-122930685D01*
X189129759Y-123212110D01*
X189122110Y-123219759D01*
X188840685Y-123477638D01*
X188832398Y-123484592D01*
X188529580Y-123716952D01*
X188520719Y-123723157D01*
X188198784Y-123928251D01*
X188189416Y-123933659D01*
X187850845Y-124109907D01*
X187841040Y-124114479D01*
X187488396Y-124260548D01*
X187478231Y-124264248D01*
X187114194Y-124379027D01*
X187103745Y-124381827D01*
X186731082Y-124464442D01*
X186720429Y-124466320D01*
X186341997Y-124516140D01*
X186331219Y-124517083D01*
X185947225Y-124533844D01*
X185941722Y-124533962D01*
X119610299Y-124482668D01*
X119610296Y-124482668D01*
X119602125Y-124482661D01*
X119601934Y-124482611D01*
X119538638Y-124482611D01*
X119538630Y-124482608D01*
X119533330Y-124482493D01*
X119522450Y-124482018D01*
X119149287Y-124465729D01*
X119138511Y-124464786D01*
X118760079Y-124414968D01*
X118749426Y-124413090D01*
X118376759Y-124330475D01*
X118366309Y-124327675D01*
X118002268Y-124212896D01*
X117992113Y-124209200D01*
X117639440Y-124063122D01*
X117629657Y-124058560D01*
X117291070Y-123882305D01*
X117281702Y-123876896D01*
X116959778Y-123671811D01*
X116950916Y-123665606D01*
X116648089Y-123433242D01*
X116639802Y-123426289D01*
X116626314Y-123413930D01*
X116358373Y-123168410D01*
X116350724Y-123160761D01*
X116201450Y-122997859D01*
X116092838Y-122879331D01*
X116085906Y-122871070D01*
X115853515Y-122568216D01*
X115847322Y-122559370D01*
X115746424Y-122400994D01*
X115642227Y-122237439D01*
X115636820Y-122228073D01*
X115460564Y-121889493D01*
X115455992Y-121879689D01*
X115338295Y-121595546D01*
X115309917Y-121527036D01*
X115306220Y-121516878D01*
X115191433Y-121152828D01*
X115188640Y-121142402D01*
X115106015Y-120769713D01*
X115104142Y-120759086D01*
X115054315Y-120380620D01*
X115053375Y-120369882D01*
X115037074Y-119996544D01*
X115036665Y-119987164D01*
X115036547Y-119981755D01*
X115036547Y-119760258D01*
X125629500Y-119760258D01*
X125629500Y-119989741D01*
X125635745Y-120037172D01*
X125659452Y-120217238D01*
X125700347Y-120369863D01*
X125718842Y-120438887D01*
X125806650Y-120650876D01*
X125806657Y-120650890D01*
X125921392Y-120849617D01*
X126061081Y-121031661D01*
X126061089Y-121031670D01*
X126223330Y-121193911D01*
X126223338Y-121193918D01*
X126405382Y-121333607D01*
X126405385Y-121333608D01*
X126405388Y-121333611D01*
X126604112Y-121448344D01*
X126604117Y-121448346D01*
X126604123Y-121448349D01*
X126695480Y-121486190D01*
X126816113Y-121536158D01*
X127037762Y-121595548D01*
X127265266Y-121625500D01*
X127265273Y-121625500D01*
X127494727Y-121625500D01*
X127494734Y-121625500D01*
X127722238Y-121595548D01*
X127943887Y-121536158D01*
X128155888Y-121448344D01*
X128354612Y-121333611D01*
X128536661Y-121193919D01*
X128536665Y-121193914D01*
X128536670Y-121193911D01*
X128698911Y-121031670D01*
X128698914Y-121031665D01*
X128698919Y-121031661D01*
X128838611Y-120849612D01*
X128953344Y-120650888D01*
X129041158Y-120438887D01*
X129100548Y-120217238D01*
X129130500Y-119989734D01*
X129130500Y-119760266D01*
X129114430Y-119638206D01*
X172789500Y-119638206D01*
X172789500Y-120001794D01*
X172800337Y-120111829D01*
X172825137Y-120363630D01*
X172896064Y-120720212D01*
X172896067Y-120720223D01*
X173001614Y-121068165D01*
X173140754Y-121404078D01*
X173140756Y-121404083D01*
X173312140Y-121724720D01*
X173312144Y-121724727D01*
X173312147Y-121724732D01*
X173419030Y-121884694D01*
X173514140Y-122027035D01*
X173514150Y-122027049D01*
X173744807Y-122308106D01*
X174001893Y-122565192D01*
X174001898Y-122565196D01*
X174001899Y-122565197D01*
X174282956Y-122795854D01*
X174585268Y-122997853D01*
X174585277Y-122997858D01*
X174585279Y-122997859D01*
X174905916Y-123169243D01*
X174905918Y-123169243D01*
X174905924Y-123169247D01*
X175241836Y-123308386D01*
X175589767Y-123413930D01*
X175589773Y-123413931D01*
X175589776Y-123413932D01*
X175589787Y-123413935D01*
X175910051Y-123477638D01*
X175946369Y-123484862D01*
X176308206Y-123520500D01*
X176308209Y-123520500D01*
X176671791Y-123520500D01*
X176671794Y-123520500D01*
X177033631Y-123484862D01*
X177103045Y-123471054D01*
X177390212Y-123413935D01*
X177390223Y-123413932D01*
X177390223Y-123413931D01*
X177390233Y-123413930D01*
X177738164Y-123308386D01*
X178074076Y-123169247D01*
X178394732Y-122997853D01*
X178697044Y-122795854D01*
X178978101Y-122565197D01*
X179235197Y-122308101D01*
X179465854Y-122027044D01*
X179667853Y-121724732D01*
X179839247Y-121404076D01*
X179978386Y-121068164D01*
X180083930Y-120720233D01*
X180083932Y-120720223D01*
X180083935Y-120720212D01*
X180154862Y-120363630D01*
X180169280Y-120217240D01*
X180190500Y-120001794D01*
X180190500Y-119638206D01*
X180154862Y-119276369D01*
X180119604Y-119099112D01*
X180083935Y-118919787D01*
X180083932Y-118919776D01*
X180083931Y-118919773D01*
X180083930Y-118919767D01*
X179978386Y-118571836D01*
X179839247Y-118235924D01*
X179795699Y-118154452D01*
X179667859Y-117915279D01*
X179667858Y-117915277D01*
X179667853Y-117915268D01*
X179465854Y-117612956D01*
X179235197Y-117331899D01*
X179235196Y-117331898D01*
X179235192Y-117331893D01*
X178978106Y-117074807D01*
X178697049Y-116844150D01*
X178697048Y-116844149D01*
X178697044Y-116844146D01*
X178394732Y-116642147D01*
X178394727Y-116642144D01*
X178394720Y-116642140D01*
X178074083Y-116470756D01*
X178074078Y-116470754D01*
X177738165Y-116331614D01*
X177390223Y-116226067D01*
X177390212Y-116226064D01*
X177033630Y-116155137D01*
X176761111Y-116128296D01*
X176671794Y-116119500D01*
X176308206Y-116119500D01*
X176225679Y-116127628D01*
X175946369Y-116155137D01*
X175589787Y-116226064D01*
X175589776Y-116226067D01*
X175241834Y-116331614D01*
X174905921Y-116470754D01*
X174905916Y-116470756D01*
X174585279Y-116642140D01*
X174585261Y-116642151D01*
X174282964Y-116844140D01*
X174282950Y-116844150D01*
X174001893Y-117074807D01*
X173744807Y-117331893D01*
X173514150Y-117612950D01*
X173514140Y-117612964D01*
X173312151Y-117915261D01*
X173312140Y-117915279D01*
X173140756Y-118235916D01*
X173140754Y-118235921D01*
X173001614Y-118571834D01*
X172896067Y-118919776D01*
X172896064Y-118919787D01*
X172825137Y-119276369D01*
X172799886Y-119532759D01*
X172789500Y-119638206D01*
X129114430Y-119638206D01*
X129100548Y-119532762D01*
X129041158Y-119311113D01*
X128953344Y-119099112D01*
X128838611Y-118900388D01*
X128838608Y-118900385D01*
X128838607Y-118900382D01*
X128698918Y-118718338D01*
X128698911Y-118718330D01*
X128536670Y-118556089D01*
X128536661Y-118556081D01*
X128354617Y-118416392D01*
X128155890Y-118301657D01*
X128155876Y-118301650D01*
X127943887Y-118213842D01*
X127722238Y-118154452D01*
X127684215Y-118149446D01*
X127494741Y-118124500D01*
X127494734Y-118124500D01*
X127265266Y-118124500D01*
X127265258Y-118124500D01*
X127048715Y-118153009D01*
X127037762Y-118154452D01*
X126954398Y-118176789D01*
X126816112Y-118213842D01*
X126604123Y-118301650D01*
X126604109Y-118301657D01*
X126405382Y-118416392D01*
X126223338Y-118556081D01*
X126061081Y-118718338D01*
X125921392Y-118900382D01*
X125806657Y-119099109D01*
X125806650Y-119099123D01*
X125718842Y-119311112D01*
X125659453Y-119532759D01*
X125659451Y-119532770D01*
X125629500Y-119760258D01*
X115036547Y-119760258D01*
X115036547Y-117476153D01*
X135919500Y-117476153D01*
X135919500Y-117633846D01*
X135950261Y-117788489D01*
X135950264Y-117788501D01*
X136010602Y-117934172D01*
X136010609Y-117934185D01*
X136098210Y-118065288D01*
X136098213Y-118065292D01*
X136209707Y-118176786D01*
X136209711Y-118176789D01*
X136340814Y-118264390D01*
X136340827Y-118264397D01*
X136486498Y-118324735D01*
X136486503Y-118324737D01*
X136622487Y-118351786D01*
X136641153Y-118355499D01*
X136641156Y-118355500D01*
X136641158Y-118355500D01*
X136798844Y-118355500D01*
X136798845Y-118355499D01*
X136953497Y-118324737D01*
X137099179Y-118264394D01*
X137230289Y-118176789D01*
X137341789Y-118065289D01*
X137429394Y-117934179D01*
X137489737Y-117788497D01*
X137517056Y-117651158D01*
X137517057Y-117651153D01*
X167009500Y-117651153D01*
X167009500Y-117808846D01*
X167040261Y-117963489D01*
X167040264Y-117963501D01*
X167100602Y-118109172D01*
X167100609Y-118109185D01*
X167188210Y-118240288D01*
X167188213Y-118240292D01*
X167299707Y-118351786D01*
X167299711Y-118351789D01*
X167430814Y-118439390D01*
X167430827Y-118439397D01*
X167576498Y-118499735D01*
X167576503Y-118499737D01*
X167731153Y-118530499D01*
X167731156Y-118530500D01*
X167731158Y-118530500D01*
X167888844Y-118530500D01*
X167888845Y-118530499D01*
X168043497Y-118499737D01*
X168189179Y-118439394D01*
X168320289Y-118351789D01*
X168431789Y-118240289D01*
X168519394Y-118109179D01*
X168579737Y-117963497D01*
X168610500Y-117808842D01*
X168610500Y-117651158D01*
X168610500Y-117651155D01*
X168610499Y-117651153D01*
X168579738Y-117496510D01*
X168579737Y-117496503D01*
X168571308Y-117476153D01*
X168519397Y-117350827D01*
X168519390Y-117350814D01*
X168431789Y-117219711D01*
X168431786Y-117219707D01*
X168320292Y-117108213D01*
X168320288Y-117108210D01*
X168189185Y-117020609D01*
X168189172Y-117020602D01*
X168043501Y-116960264D01*
X168043489Y-116960261D01*
X167888845Y-116929500D01*
X167888842Y-116929500D01*
X167731158Y-116929500D01*
X167731155Y-116929500D01*
X167576510Y-116960261D01*
X167576498Y-116960264D01*
X167430827Y-117020602D01*
X167430814Y-117020609D01*
X167299711Y-117108210D01*
X167299707Y-117108213D01*
X167188213Y-117219707D01*
X167188210Y-117219711D01*
X167100609Y-117350814D01*
X167100602Y-117350827D01*
X167040264Y-117496498D01*
X167040261Y-117496510D01*
X167009500Y-117651153D01*
X137517057Y-117651153D01*
X137520500Y-117633845D01*
X137520500Y-117476155D01*
X137520499Y-117476153D01*
X137495570Y-117350827D01*
X137489737Y-117321503D01*
X137447572Y-117219707D01*
X137429397Y-117175827D01*
X137429390Y-117175814D01*
X137341789Y-117044711D01*
X137341786Y-117044707D01*
X137230292Y-116933213D01*
X137230288Y-116933210D01*
X137099185Y-116845609D01*
X137099172Y-116845602D01*
X136953501Y-116785264D01*
X136953489Y-116785261D01*
X136798845Y-116754500D01*
X136798842Y-116754500D01*
X136641158Y-116754500D01*
X136641155Y-116754500D01*
X136486510Y-116785261D01*
X136486498Y-116785264D01*
X136340827Y-116845602D01*
X136340814Y-116845609D01*
X136209711Y-116933210D01*
X136209707Y-116933213D01*
X136098213Y-117044707D01*
X136098210Y-117044711D01*
X136010609Y-117175814D01*
X136010602Y-117175827D01*
X135950264Y-117321498D01*
X135950261Y-117321510D01*
X135919500Y-117476153D01*
X115036547Y-117476153D01*
X115036547Y-116056153D01*
X145159500Y-116056153D01*
X145159500Y-116213846D01*
X145190261Y-116368489D01*
X145190264Y-116368501D01*
X145250602Y-116514172D01*
X145250609Y-116514185D01*
X145338210Y-116645288D01*
X145338213Y-116645292D01*
X145449707Y-116756786D01*
X145449711Y-116756789D01*
X145580814Y-116844390D01*
X145580827Y-116844397D01*
X145726498Y-116904735D01*
X145726503Y-116904737D01*
X145869661Y-116933213D01*
X145881153Y-116935499D01*
X145881156Y-116935500D01*
X145881158Y-116935500D01*
X146038844Y-116935500D01*
X146038845Y-116935499D01*
X146193497Y-116904737D01*
X146339179Y-116844394D01*
X146470289Y-116756789D01*
X146581789Y-116645289D01*
X146669394Y-116514179D01*
X146729737Y-116368497D01*
X146760500Y-116213842D01*
X146760500Y-116056158D01*
X146760500Y-116056155D01*
X146760499Y-116056153D01*
X146729738Y-115901510D01*
X146729737Y-115901503D01*
X146729735Y-115901498D01*
X146669397Y-115755827D01*
X146669390Y-115755814D01*
X146581789Y-115624711D01*
X146581786Y-115624707D01*
X146470292Y-115513213D01*
X146470288Y-115513210D01*
X146339185Y-115425609D01*
X146339172Y-115425602D01*
X146193501Y-115365264D01*
X146193489Y-115365261D01*
X146038845Y-115334500D01*
X146038842Y-115334500D01*
X145881158Y-115334500D01*
X145881155Y-115334500D01*
X145726510Y-115365261D01*
X145726498Y-115365264D01*
X145580827Y-115425602D01*
X145580814Y-115425609D01*
X145449711Y-115513210D01*
X145449707Y-115513213D01*
X145338213Y-115624707D01*
X145338210Y-115624711D01*
X145250609Y-115755814D01*
X145250602Y-115755827D01*
X145190264Y-115901498D01*
X145190261Y-115901510D01*
X145159500Y-116056153D01*
X115036547Y-116056153D01*
X115036547Y-112778640D01*
X121335547Y-112778640D01*
X121335547Y-113087583D01*
X121370133Y-113394549D01*
X121370136Y-113394567D01*
X121438878Y-113695747D01*
X121438882Y-113695759D01*
X121540909Y-113987334D01*
X121540915Y-113987348D01*
X121674950Y-114265674D01*
X121674952Y-114265677D01*
X121839312Y-114527255D01*
X122031927Y-114768786D01*
X122250373Y-114987232D01*
X122491904Y-115179847D01*
X122753482Y-115344207D01*
X123031818Y-115478247D01*
X123095413Y-115500500D01*
X123323399Y-115580276D01*
X123323411Y-115580280D01*
X123624595Y-115649023D01*
X123624601Y-115649023D01*
X123624609Y-115649025D01*
X123829253Y-115672082D01*
X123931576Y-115683611D01*
X123931579Y-115683612D01*
X123931582Y-115683612D01*
X124240515Y-115683612D01*
X124240516Y-115683611D01*
X124397403Y-115665934D01*
X124547484Y-115649025D01*
X124547489Y-115649024D01*
X124547499Y-115649023D01*
X124848683Y-115580280D01*
X125140276Y-115478247D01*
X125418612Y-115344207D01*
X125680190Y-115179847D01*
X125921721Y-114987232D01*
X126140167Y-114768786D01*
X126257901Y-114621153D01*
X150289500Y-114621153D01*
X150289500Y-114778846D01*
X150320261Y-114933489D01*
X150320264Y-114933501D01*
X150380602Y-115079172D01*
X150380609Y-115079185D01*
X150468210Y-115210288D01*
X150468213Y-115210292D01*
X150579707Y-115321786D01*
X150579711Y-115321789D01*
X150710814Y-115409390D01*
X150710827Y-115409397D01*
X150856498Y-115469735D01*
X150856503Y-115469737D01*
X151011153Y-115500499D01*
X151011156Y-115500500D01*
X151011158Y-115500500D01*
X151168844Y-115500500D01*
X151168845Y-115500499D01*
X151323497Y-115469737D01*
X151469179Y-115409394D01*
X151600289Y-115321789D01*
X151711789Y-115210289D01*
X151799394Y-115079179D01*
X151859737Y-114933497D01*
X151890500Y-114778842D01*
X151890500Y-114621158D01*
X151890500Y-114621155D01*
X151890499Y-114621153D01*
X151859737Y-114466503D01*
X151854617Y-114454141D01*
X151799397Y-114320827D01*
X151799390Y-114320814D01*
X151711789Y-114189711D01*
X151711786Y-114189707D01*
X151600292Y-114078213D01*
X151600288Y-114078210D01*
X151469185Y-113990609D01*
X151469172Y-113990602D01*
X151323501Y-113930264D01*
X151323489Y-113930261D01*
X151168845Y-113899500D01*
X151168842Y-113899500D01*
X151011158Y-113899500D01*
X151011155Y-113899500D01*
X150856510Y-113930261D01*
X150856498Y-113930264D01*
X150710827Y-113990602D01*
X150710814Y-113990609D01*
X150579711Y-114078210D01*
X150579707Y-114078213D01*
X150468213Y-114189707D01*
X150468210Y-114189711D01*
X150380609Y-114320814D01*
X150380602Y-114320827D01*
X150320264Y-114466498D01*
X150320261Y-114466510D01*
X150289500Y-114621153D01*
X126257901Y-114621153D01*
X126332782Y-114527255D01*
X126497142Y-114265677D01*
X126631182Y-113987341D01*
X126733215Y-113695748D01*
X126801958Y-113394564D01*
X126810196Y-113321455D01*
X126836546Y-113087583D01*
X126836547Y-113087579D01*
X126836547Y-112778644D01*
X126836546Y-112778642D01*
X126829482Y-112715940D01*
X126829482Y-112715939D01*
X126828309Y-112705528D01*
X178549500Y-112705528D01*
X178549500Y-113014471D01*
X178584086Y-113321437D01*
X178584089Y-113321455D01*
X178652831Y-113622635D01*
X178652835Y-113622647D01*
X178754862Y-113914222D01*
X178754868Y-113914236D01*
X178888903Y-114192562D01*
X178888905Y-114192565D01*
X179053265Y-114454143D01*
X179245880Y-114695674D01*
X179464326Y-114914120D01*
X179705857Y-115106735D01*
X179967435Y-115271095D01*
X180245771Y-115405135D01*
X180257951Y-115409397D01*
X180537352Y-115507164D01*
X180537364Y-115507168D01*
X180838548Y-115575911D01*
X180838554Y-115575911D01*
X180838562Y-115575913D01*
X181043206Y-115598970D01*
X181145529Y-115610499D01*
X181145532Y-115610500D01*
X181145535Y-115610500D01*
X181454468Y-115610500D01*
X181454469Y-115610499D01*
X181611356Y-115592822D01*
X181761437Y-115575913D01*
X181761442Y-115575912D01*
X181761452Y-115575911D01*
X182062636Y-115507168D01*
X182354229Y-115405135D01*
X182632565Y-115271095D01*
X182894143Y-115106735D01*
X183135674Y-114914120D01*
X183354120Y-114695674D01*
X183546735Y-114454143D01*
X183711095Y-114192565D01*
X183845135Y-113914229D01*
X183947168Y-113622636D01*
X184015911Y-113321452D01*
X184050500Y-113014465D01*
X184050500Y-112705535D01*
X184038970Y-112603206D01*
X184015913Y-112398562D01*
X184015910Y-112398544D01*
X183947168Y-112097364D01*
X183947164Y-112097352D01*
X183845137Y-111805777D01*
X183845135Y-111805771D01*
X183711095Y-111527435D01*
X183546735Y-111265857D01*
X183354120Y-111024326D01*
X183135674Y-110805880D01*
X182894143Y-110613265D01*
X182632565Y-110448905D01*
X182632562Y-110448903D01*
X182354236Y-110314868D01*
X182354222Y-110314862D01*
X182062647Y-110212835D01*
X182062635Y-110212831D01*
X181761455Y-110144089D01*
X181761437Y-110144086D01*
X181454471Y-110109500D01*
X181454465Y-110109500D01*
X181145535Y-110109500D01*
X181145528Y-110109500D01*
X180838562Y-110144086D01*
X180838544Y-110144089D01*
X180537364Y-110212831D01*
X180537352Y-110212835D01*
X180245777Y-110314862D01*
X180245763Y-110314868D01*
X179967437Y-110448903D01*
X179705858Y-110613264D01*
X179464326Y-110805879D01*
X179245879Y-111024326D01*
X179053264Y-111265858D01*
X178888903Y-111527437D01*
X178754868Y-111805763D01*
X178754862Y-111805777D01*
X178652835Y-112097352D01*
X178652831Y-112097364D01*
X178584089Y-112398544D01*
X178584086Y-112398562D01*
X178549500Y-112705528D01*
X126828309Y-112705528D01*
X126801960Y-112471674D01*
X126801957Y-112471656D01*
X126733215Y-112170476D01*
X126733211Y-112170464D01*
X126631184Y-111878889D01*
X126631182Y-111878883D01*
X126497142Y-111600547D01*
X126332782Y-111338969D01*
X126140167Y-111097438D01*
X125921721Y-110878992D01*
X125680190Y-110686377D01*
X125418612Y-110522017D01*
X125418609Y-110522015D01*
X125140283Y-110387980D01*
X125140269Y-110387974D01*
X124848694Y-110285947D01*
X124848682Y-110285943D01*
X124547502Y-110217201D01*
X124547484Y-110217198D01*
X124240518Y-110182612D01*
X124240512Y-110182612D01*
X123931582Y-110182612D01*
X123931575Y-110182612D01*
X123624609Y-110217198D01*
X123624591Y-110217201D01*
X123323411Y-110285943D01*
X123323399Y-110285947D01*
X123031824Y-110387974D01*
X123031810Y-110387980D01*
X122753484Y-110522015D01*
X122491905Y-110686376D01*
X122250373Y-110878991D01*
X122031926Y-111097438D01*
X121839311Y-111338970D01*
X121674950Y-111600549D01*
X121540915Y-111878875D01*
X121540909Y-111878889D01*
X121438882Y-112170464D01*
X121438878Y-112170476D01*
X121370136Y-112471656D01*
X121370133Y-112471674D01*
X121335547Y-112778640D01*
X115036547Y-112778640D01*
X115036547Y-108871153D01*
X126899500Y-108871153D01*
X126899500Y-109028846D01*
X126930261Y-109183489D01*
X126930264Y-109183501D01*
X126990602Y-109329172D01*
X126990609Y-109329185D01*
X127078210Y-109460288D01*
X127078213Y-109460292D01*
X127189707Y-109571786D01*
X127189711Y-109571789D01*
X127320814Y-109659390D01*
X127320827Y-109659397D01*
X127466498Y-109719735D01*
X127466503Y-109719737D01*
X127621153Y-109750499D01*
X127621156Y-109750500D01*
X127621158Y-109750500D01*
X127778844Y-109750500D01*
X127778845Y-109750499D01*
X127933497Y-109719737D01*
X128079179Y-109659394D01*
X128210289Y-109571789D01*
X128321789Y-109460289D01*
X128409394Y-109329179D01*
X128469737Y-109183497D01*
X128500500Y-109028842D01*
X128500500Y-108871158D01*
X128500500Y-108871155D01*
X128500499Y-108871153D01*
X128479684Y-108766510D01*
X128469737Y-108716503D01*
X128459500Y-108691789D01*
X128409397Y-108570827D01*
X128409390Y-108570814D01*
X128321789Y-108439711D01*
X128321786Y-108439707D01*
X128210292Y-108328213D01*
X128210288Y-108328210D01*
X128079181Y-108240607D01*
X128079172Y-108240602D01*
X127933501Y-108180264D01*
X127933489Y-108180261D01*
X127778845Y-108149500D01*
X127778842Y-108149500D01*
X127621158Y-108149500D01*
X127621155Y-108149500D01*
X127466510Y-108180261D01*
X127466498Y-108180264D01*
X127320827Y-108240602D01*
X127320819Y-108240607D01*
X127189711Y-108328210D01*
X127189707Y-108328213D01*
X127078213Y-108439707D01*
X127078210Y-108439711D01*
X126990609Y-108570814D01*
X126990602Y-108570827D01*
X126930264Y-108716498D01*
X126930261Y-108716510D01*
X126899500Y-108871153D01*
X115036547Y-108871153D01*
X115036547Y-107991153D01*
X130749500Y-107991153D01*
X130749500Y-108148846D01*
X130780261Y-108303489D01*
X130780264Y-108303501D01*
X130840602Y-108449172D01*
X130840609Y-108449185D01*
X130928210Y-108580288D01*
X130928213Y-108580292D01*
X131039708Y-108691787D01*
X131061659Y-108706454D01*
X131106465Y-108760066D01*
X131115172Y-108829391D01*
X131114386Y-108833748D01*
X131097000Y-108921153D01*
X131097000Y-109078846D01*
X131127761Y-109233489D01*
X131127764Y-109233501D01*
X131188102Y-109379172D01*
X131188109Y-109379185D01*
X131275710Y-109510288D01*
X131275713Y-109510292D01*
X131387207Y-109621786D01*
X131387211Y-109621789D01*
X131518314Y-109709390D01*
X131518327Y-109709397D01*
X131639863Y-109759738D01*
X131664003Y-109769737D01*
X131818653Y-109800499D01*
X131818656Y-109800500D01*
X131818658Y-109800500D01*
X131976344Y-109800500D01*
X131976345Y-109800499D01*
X132130997Y-109769737D01*
X132276679Y-109709394D01*
X132407789Y-109621789D01*
X132519289Y-109510289D01*
X132606894Y-109379179D01*
X132667237Y-109233497D01*
X132698000Y-109078842D01*
X132698000Y-108921158D01*
X132698000Y-108921155D01*
X132697999Y-108921153D01*
X132689119Y-108876510D01*
X132667237Y-108766503D01*
X132667235Y-108766498D01*
X132606897Y-108620827D01*
X132606890Y-108620814D01*
X132519289Y-108489711D01*
X132519286Y-108489707D01*
X132407792Y-108378213D01*
X132407788Y-108378210D01*
X132385839Y-108363544D01*
X132341034Y-108309932D01*
X132332327Y-108240607D01*
X132333113Y-108236250D01*
X132334305Y-108230261D01*
X132344339Y-108179815D01*
X132350500Y-108148844D01*
X132350500Y-107991155D01*
X132350499Y-107991153D01*
X132319739Y-107836510D01*
X132319735Y-107836498D01*
X132309237Y-107811153D01*
X134219500Y-107811153D01*
X134219500Y-107968846D01*
X134250261Y-108123489D01*
X134250264Y-108123501D01*
X134310602Y-108269172D01*
X134310609Y-108269185D01*
X134398210Y-108400288D01*
X134398213Y-108400292D01*
X134509707Y-108511786D01*
X134509711Y-108511789D01*
X134640814Y-108599390D01*
X134640827Y-108599397D01*
X134751301Y-108645156D01*
X134786503Y-108659737D01*
X134931928Y-108688664D01*
X134941153Y-108690499D01*
X134941156Y-108690500D01*
X135019286Y-108690500D01*
X135086325Y-108710185D01*
X135132080Y-108762989D01*
X135142024Y-108832147D01*
X135140903Y-108838691D01*
X135124500Y-108921153D01*
X135124500Y-109078846D01*
X135155261Y-109233489D01*
X135155264Y-109233501D01*
X135215602Y-109379172D01*
X135215609Y-109379185D01*
X135303210Y-109510288D01*
X135303213Y-109510292D01*
X135414707Y-109621786D01*
X135414711Y-109621789D01*
X135545814Y-109709390D01*
X135545827Y-109709397D01*
X135667363Y-109759738D01*
X135691503Y-109769737D01*
X135846153Y-109800499D01*
X135846156Y-109800500D01*
X135846158Y-109800500D01*
X136003844Y-109800500D01*
X136003845Y-109800499D01*
X136158497Y-109769737D01*
X136304179Y-109709394D01*
X136435289Y-109621789D01*
X136546789Y-109510289D01*
X136634394Y-109379179D01*
X136694737Y-109233497D01*
X136725500Y-109078842D01*
X136725500Y-108921158D01*
X136725500Y-108921155D01*
X136725499Y-108921153D01*
X139152000Y-108921153D01*
X139152000Y-109078846D01*
X139182761Y-109233489D01*
X139182764Y-109233501D01*
X139243102Y-109379172D01*
X139243109Y-109379185D01*
X139330710Y-109510288D01*
X139330713Y-109510292D01*
X139442207Y-109621786D01*
X139442211Y-109621789D01*
X139573314Y-109709390D01*
X139573327Y-109709397D01*
X139694863Y-109759738D01*
X139719003Y-109769737D01*
X139873653Y-109800499D01*
X139873656Y-109800500D01*
X139873658Y-109800500D01*
X140031344Y-109800500D01*
X140031345Y-109800499D01*
X140185997Y-109769737D01*
X140331679Y-109709394D01*
X140462789Y-109621789D01*
X140574289Y-109510289D01*
X140661894Y-109379179D01*
X140722237Y-109233497D01*
X140753000Y-109078842D01*
X140753000Y-108921158D01*
X140753000Y-108921155D01*
X140747283Y-108892417D01*
X140743053Y-108871153D01*
X143149500Y-108871153D01*
X143149500Y-109028846D01*
X143180261Y-109183489D01*
X143180264Y-109183501D01*
X143240602Y-109329172D01*
X143240609Y-109329185D01*
X143328210Y-109460288D01*
X143328213Y-109460292D01*
X143439707Y-109571786D01*
X143439711Y-109571789D01*
X143570814Y-109659390D01*
X143570827Y-109659397D01*
X143716498Y-109719735D01*
X143716503Y-109719737D01*
X143871153Y-109750499D01*
X143871156Y-109750500D01*
X143871158Y-109750500D01*
X144028844Y-109750500D01*
X144028845Y-109750499D01*
X144183497Y-109719737D01*
X144329179Y-109659394D01*
X144329184Y-109659390D01*
X144329187Y-109659389D01*
X144364403Y-109635857D01*
X144398151Y-109613307D01*
X144464828Y-109592429D01*
X144532208Y-109610913D01*
X144545707Y-109620555D01*
X144547211Y-109621789D01*
X144678314Y-109709390D01*
X144678327Y-109709397D01*
X144799863Y-109759738D01*
X144824003Y-109769737D01*
X144978653Y-109800499D01*
X144978656Y-109800500D01*
X144978658Y-109800500D01*
X145136344Y-109800500D01*
X145136345Y-109800499D01*
X145290997Y-109769737D01*
X145436679Y-109709394D01*
X145567789Y-109621789D01*
X145679289Y-109510289D01*
X145766894Y-109379179D01*
X145827237Y-109233497D01*
X145858000Y-109078842D01*
X145858000Y-108921158D01*
X145858000Y-108921155D01*
X145857999Y-108921153D01*
X147487500Y-108921153D01*
X147487500Y-109078846D01*
X147518261Y-109233489D01*
X147518264Y-109233501D01*
X147578602Y-109379172D01*
X147578609Y-109379185D01*
X147666210Y-109510288D01*
X147666213Y-109510292D01*
X147777707Y-109621786D01*
X147777711Y-109621789D01*
X147908814Y-109709390D01*
X147908827Y-109709397D01*
X148030363Y-109759738D01*
X148054503Y-109769737D01*
X148209153Y-109800499D01*
X148209156Y-109800500D01*
X148209158Y-109800500D01*
X148366844Y-109800500D01*
X148366845Y-109800499D01*
X148521497Y-109769737D01*
X148667179Y-109709394D01*
X148798289Y-109621789D01*
X148909789Y-109510289D01*
X148997394Y-109379179D01*
X149057737Y-109233497D01*
X149088500Y-109078842D01*
X149088500Y-109031153D01*
X150329500Y-109031153D01*
X150329500Y-109188846D01*
X150360261Y-109343489D01*
X150360264Y-109343501D01*
X150420602Y-109489172D01*
X150420609Y-109489185D01*
X150508210Y-109620288D01*
X150508213Y-109620292D01*
X150619707Y-109731786D01*
X150619711Y-109731789D01*
X150750814Y-109819390D01*
X150750827Y-109819397D01*
X150896498Y-109879735D01*
X150896503Y-109879737D01*
X151051153Y-109910499D01*
X151051156Y-109910500D01*
X151051158Y-109910500D01*
X151208844Y-109910500D01*
X151208845Y-109910499D01*
X151363497Y-109879737D01*
X151509179Y-109819394D01*
X151640289Y-109731789D01*
X151751789Y-109620289D01*
X151839394Y-109489179D01*
X151899737Y-109343497D01*
X151930500Y-109188842D01*
X151930500Y-109031158D01*
X151930500Y-109031155D01*
X151912220Y-108939258D01*
X151912220Y-108939257D01*
X151908619Y-108921153D01*
X153178500Y-108921153D01*
X153178500Y-109078846D01*
X153209261Y-109233489D01*
X153209264Y-109233501D01*
X153269602Y-109379172D01*
X153269609Y-109379185D01*
X153357210Y-109510288D01*
X153357213Y-109510292D01*
X153468707Y-109621786D01*
X153468711Y-109621789D01*
X153599814Y-109709390D01*
X153599827Y-109709397D01*
X153721363Y-109759738D01*
X153745503Y-109769737D01*
X153900153Y-109800499D01*
X153900156Y-109800500D01*
X153900158Y-109800500D01*
X154057844Y-109800500D01*
X154057845Y-109800499D01*
X154212497Y-109769737D01*
X154358179Y-109709394D01*
X154489289Y-109621789D01*
X154600789Y-109510289D01*
X154688394Y-109379179D01*
X154748737Y-109233497D01*
X154779500Y-109078842D01*
X154779500Y-108921158D01*
X154779500Y-108921155D01*
X154779499Y-108921153D01*
X156409000Y-108921153D01*
X156409000Y-109078846D01*
X156439761Y-109233489D01*
X156439764Y-109233501D01*
X156500102Y-109379172D01*
X156500109Y-109379185D01*
X156587710Y-109510288D01*
X156587713Y-109510292D01*
X156699207Y-109621786D01*
X156699211Y-109621789D01*
X156830314Y-109709390D01*
X156830327Y-109709397D01*
X156951863Y-109759738D01*
X156976003Y-109769737D01*
X157130653Y-109800499D01*
X157130656Y-109800500D01*
X157130658Y-109800500D01*
X157288344Y-109800500D01*
X157288345Y-109800499D01*
X157442997Y-109769737D01*
X157588679Y-109709394D01*
X157719789Y-109621789D01*
X157831289Y-109510289D01*
X157918894Y-109379179D01*
X157979237Y-109233497D01*
X158010000Y-109078842D01*
X158010000Y-108921158D01*
X158008010Y-108911153D01*
X159499500Y-108911153D01*
X159499500Y-109068846D01*
X159530261Y-109223489D01*
X159530264Y-109223501D01*
X159590602Y-109369172D01*
X159590609Y-109369185D01*
X159678210Y-109500288D01*
X159678213Y-109500292D01*
X159789707Y-109611786D01*
X159789711Y-109611789D01*
X159920814Y-109699390D01*
X159920827Y-109699397D01*
X160065665Y-109759390D01*
X160066503Y-109759737D01*
X160221153Y-109790499D01*
X160221156Y-109790500D01*
X160221158Y-109790500D01*
X160378844Y-109790500D01*
X160378845Y-109790499D01*
X160533497Y-109759737D01*
X160646166Y-109713067D01*
X160679172Y-109699397D01*
X160679172Y-109699396D01*
X160679179Y-109699394D01*
X160810289Y-109611789D01*
X160921789Y-109500289D01*
X161009394Y-109369179D01*
X161069737Y-109223497D01*
X161100500Y-109068842D01*
X161100500Y-108971153D01*
X164749500Y-108971153D01*
X164749500Y-109128846D01*
X164780261Y-109283489D01*
X164780264Y-109283501D01*
X164840602Y-109429172D01*
X164840609Y-109429185D01*
X164928210Y-109560288D01*
X164928213Y-109560292D01*
X165039707Y-109671786D01*
X165039711Y-109671789D01*
X165170814Y-109759390D01*
X165170827Y-109759397D01*
X165270060Y-109800500D01*
X165316503Y-109819737D01*
X165471153Y-109850499D01*
X165471156Y-109850500D01*
X165471158Y-109850500D01*
X165628844Y-109850500D01*
X165628845Y-109850499D01*
X165783497Y-109819737D01*
X165929179Y-109759394D01*
X166060289Y-109671789D01*
X166171789Y-109560289D01*
X166259394Y-109429179D01*
X166319737Y-109283497D01*
X166350500Y-109128842D01*
X166350500Y-108971158D01*
X166350500Y-108971155D01*
X166350499Y-108971153D01*
X166340553Y-108921153D01*
X166319737Y-108816503D01*
X166319735Y-108816498D01*
X166259397Y-108670827D01*
X166259390Y-108670814D01*
X166171789Y-108539711D01*
X166171786Y-108539707D01*
X166060292Y-108428213D01*
X166060288Y-108428210D01*
X165929185Y-108340609D01*
X165929172Y-108340602D01*
X165783501Y-108280264D01*
X165783489Y-108280261D01*
X165628845Y-108249500D01*
X165628842Y-108249500D01*
X165471158Y-108249500D01*
X165471155Y-108249500D01*
X165316510Y-108280261D01*
X165316498Y-108280264D01*
X165170827Y-108340602D01*
X165170814Y-108340609D01*
X165039711Y-108428210D01*
X165039707Y-108428213D01*
X164928213Y-108539707D01*
X164928210Y-108539711D01*
X164840609Y-108670814D01*
X164840602Y-108670827D01*
X164780264Y-108816498D01*
X164780261Y-108816510D01*
X164749500Y-108971153D01*
X161100500Y-108971153D01*
X161100500Y-108911158D01*
X161100500Y-108911155D01*
X161100499Y-108911153D01*
X161085102Y-108833748D01*
X161069737Y-108756503D01*
X161059096Y-108730814D01*
X161009397Y-108610827D01*
X161009390Y-108610814D01*
X160921789Y-108479711D01*
X160921786Y-108479707D01*
X160810292Y-108368213D01*
X160810288Y-108368210D01*
X160679185Y-108280609D01*
X160679172Y-108280602D01*
X160533501Y-108220264D01*
X160533489Y-108220261D01*
X160378845Y-108189500D01*
X160378842Y-108189500D01*
X160221158Y-108189500D01*
X160221155Y-108189500D01*
X160066510Y-108220261D01*
X160066498Y-108220264D01*
X159920827Y-108280602D01*
X159920814Y-108280609D01*
X159789711Y-108368210D01*
X159789707Y-108368213D01*
X159678213Y-108479707D01*
X159678210Y-108479711D01*
X159590609Y-108610814D01*
X159590602Y-108610827D01*
X159530264Y-108756498D01*
X159530261Y-108756510D01*
X159499500Y-108911153D01*
X158008010Y-108911153D01*
X157979237Y-108766503D01*
X157979235Y-108766498D01*
X157918897Y-108620827D01*
X157918890Y-108620814D01*
X157831289Y-108489711D01*
X157831286Y-108489707D01*
X157719792Y-108378213D01*
X157719788Y-108378210D01*
X157588685Y-108290609D01*
X157588672Y-108290602D01*
X157443001Y-108230264D01*
X157442989Y-108230261D01*
X157288345Y-108199500D01*
X157288342Y-108199500D01*
X157130658Y-108199500D01*
X157130655Y-108199500D01*
X156976010Y-108230261D01*
X156975998Y-108230264D01*
X156830327Y-108290602D01*
X156830314Y-108290609D01*
X156699211Y-108378210D01*
X156699207Y-108378213D01*
X156587713Y-108489707D01*
X156587710Y-108489711D01*
X156500109Y-108620814D01*
X156500102Y-108620827D01*
X156439764Y-108766498D01*
X156439761Y-108766510D01*
X156409000Y-108921153D01*
X154779499Y-108921153D01*
X154770619Y-108876510D01*
X154748737Y-108766503D01*
X154748735Y-108766498D01*
X154688397Y-108620827D01*
X154688390Y-108620814D01*
X154600789Y-108489711D01*
X154600786Y-108489707D01*
X154489292Y-108378213D01*
X154489288Y-108378210D01*
X154358185Y-108290609D01*
X154358172Y-108290602D01*
X154212501Y-108230264D01*
X154212489Y-108230261D01*
X154057845Y-108199500D01*
X154057842Y-108199500D01*
X153900158Y-108199500D01*
X153900155Y-108199500D01*
X153745510Y-108230261D01*
X153745498Y-108230264D01*
X153599827Y-108290602D01*
X153599814Y-108290609D01*
X153468711Y-108378210D01*
X153468707Y-108378213D01*
X153357213Y-108489707D01*
X153357210Y-108489711D01*
X153269609Y-108620814D01*
X153269602Y-108620827D01*
X153209264Y-108766498D01*
X153209261Y-108766510D01*
X153178500Y-108921153D01*
X151908619Y-108921153D01*
X151906171Y-108908848D01*
X151899737Y-108876503D01*
X151884075Y-108838691D01*
X151839397Y-108730827D01*
X151839390Y-108730814D01*
X151751789Y-108599711D01*
X151751786Y-108599707D01*
X151640292Y-108488213D01*
X151640288Y-108488210D01*
X151509185Y-108400609D01*
X151509172Y-108400602D01*
X151363501Y-108340264D01*
X151363489Y-108340261D01*
X151208845Y-108309500D01*
X151208842Y-108309500D01*
X151051158Y-108309500D01*
X151051155Y-108309500D01*
X150896510Y-108340261D01*
X150896498Y-108340264D01*
X150750827Y-108400602D01*
X150750814Y-108400609D01*
X150619711Y-108488210D01*
X150619707Y-108488213D01*
X150508213Y-108599707D01*
X150508210Y-108599711D01*
X150420609Y-108730814D01*
X150420602Y-108730827D01*
X150360264Y-108876498D01*
X150360261Y-108876510D01*
X150329500Y-109031153D01*
X149088500Y-109031153D01*
X149088500Y-108921158D01*
X149088500Y-108921155D01*
X149088499Y-108921153D01*
X149079619Y-108876510D01*
X149057737Y-108766503D01*
X149057735Y-108766498D01*
X148997397Y-108620827D01*
X148997390Y-108620814D01*
X148909789Y-108489711D01*
X148909786Y-108489707D01*
X148798292Y-108378213D01*
X148798288Y-108378210D01*
X148667185Y-108290609D01*
X148667172Y-108290602D01*
X148521501Y-108230264D01*
X148521489Y-108230261D01*
X148366845Y-108199500D01*
X148366842Y-108199500D01*
X148209158Y-108199500D01*
X148209155Y-108199500D01*
X148054510Y-108230261D01*
X148054498Y-108230264D01*
X147908827Y-108290602D01*
X147908814Y-108290609D01*
X147777711Y-108378210D01*
X147777707Y-108378213D01*
X147666213Y-108489707D01*
X147666210Y-108489711D01*
X147578609Y-108620814D01*
X147578602Y-108620827D01*
X147518264Y-108766498D01*
X147518261Y-108766510D01*
X147487500Y-108921153D01*
X145857999Y-108921153D01*
X145849119Y-108876510D01*
X145827237Y-108766503D01*
X145827235Y-108766498D01*
X145766897Y-108620827D01*
X145766890Y-108620814D01*
X145679289Y-108489711D01*
X145679286Y-108489707D01*
X145567792Y-108378213D01*
X145567788Y-108378210D01*
X145436685Y-108290609D01*
X145436672Y-108290602D01*
X145291001Y-108230264D01*
X145290989Y-108230261D01*
X145136345Y-108199500D01*
X145136342Y-108199500D01*
X144978658Y-108199500D01*
X144978655Y-108199500D01*
X144824010Y-108230261D01*
X144823998Y-108230264D01*
X144678327Y-108290602D01*
X144678309Y-108290612D01*
X144609346Y-108336692D01*
X144542669Y-108357570D01*
X144475289Y-108339085D01*
X144461793Y-108329445D01*
X144460288Y-108328210D01*
X144329181Y-108240607D01*
X144329172Y-108240602D01*
X144183501Y-108180264D01*
X144183489Y-108180261D01*
X144028845Y-108149500D01*
X144028842Y-108149500D01*
X143871158Y-108149500D01*
X143871155Y-108149500D01*
X143716510Y-108180261D01*
X143716498Y-108180264D01*
X143570827Y-108240602D01*
X143570819Y-108240607D01*
X143439711Y-108328210D01*
X143439707Y-108328213D01*
X143328213Y-108439707D01*
X143328210Y-108439711D01*
X143240609Y-108570814D01*
X143240602Y-108570827D01*
X143180264Y-108716498D01*
X143180261Y-108716510D01*
X143149500Y-108871153D01*
X140743053Y-108871153D01*
X140722237Y-108766503D01*
X140704495Y-108723670D01*
X140702291Y-108714977D01*
X140703271Y-108688664D01*
X140700457Y-108662483D01*
X140704553Y-108654300D01*
X140704894Y-108645156D01*
X140719948Y-108623546D01*
X140731733Y-108600004D01*
X140739600Y-108595336D01*
X140744832Y-108587826D01*
X140769180Y-108577785D01*
X140791822Y-108564352D01*
X140806110Y-108562557D01*
X140809426Y-108561190D01*
X140812516Y-108561752D01*
X140822487Y-108560500D01*
X140898844Y-108560500D01*
X140898845Y-108560499D01*
X141053497Y-108529737D01*
X141199179Y-108469394D01*
X141330289Y-108381789D01*
X141441789Y-108270289D01*
X141529394Y-108139179D01*
X141589737Y-107993497D01*
X141620500Y-107838842D01*
X141620500Y-107681158D01*
X141620500Y-107681155D01*
X141620499Y-107681153D01*
X141615595Y-107656498D01*
X141589737Y-107526503D01*
X141583241Y-107510821D01*
X141529397Y-107380827D01*
X141529390Y-107380814D01*
X141464672Y-107283957D01*
X141441789Y-107249711D01*
X141441786Y-107249707D01*
X141413232Y-107221153D01*
X172689500Y-107221153D01*
X172689500Y-107378846D01*
X172720261Y-107533489D01*
X172720264Y-107533501D01*
X172780602Y-107679172D01*
X172780609Y-107679185D01*
X172868210Y-107810288D01*
X172868213Y-107810292D01*
X172979707Y-107921786D01*
X172979711Y-107921789D01*
X173110814Y-108009390D01*
X173110827Y-108009397D01*
X173227812Y-108057853D01*
X173256503Y-108069737D01*
X173396162Y-108097517D01*
X173411153Y-108100499D01*
X173411156Y-108100500D01*
X173411158Y-108100500D01*
X173568844Y-108100500D01*
X173568845Y-108100499D01*
X173723497Y-108069737D01*
X173869179Y-108009394D01*
X174000289Y-107921789D01*
X174111789Y-107810289D01*
X174199394Y-107679179D01*
X174259737Y-107533497D01*
X174290500Y-107378842D01*
X174290500Y-107221158D01*
X174290500Y-107221155D01*
X174290499Y-107221153D01*
X174274001Y-107138213D01*
X174259737Y-107066503D01*
X174247073Y-107035928D01*
X174199397Y-106920827D01*
X174199390Y-106920814D01*
X174111789Y-106789711D01*
X174111786Y-106789707D01*
X174000292Y-106678213D01*
X174000288Y-106678210D01*
X173869185Y-106590609D01*
X173869172Y-106590602D01*
X173723501Y-106530264D01*
X173723489Y-106530261D01*
X173568845Y-106499500D01*
X173568842Y-106499500D01*
X173411158Y-106499500D01*
X173411155Y-106499500D01*
X173256510Y-106530261D01*
X173256498Y-106530264D01*
X173110827Y-106590602D01*
X173110814Y-106590609D01*
X172979711Y-106678210D01*
X172979707Y-106678213D01*
X172868213Y-106789707D01*
X172868210Y-106789711D01*
X172780609Y-106920814D01*
X172780602Y-106920827D01*
X172720264Y-107066498D01*
X172720261Y-107066510D01*
X172689500Y-107221153D01*
X141413232Y-107221153D01*
X141330292Y-107138213D01*
X141330288Y-107138210D01*
X141199185Y-107050609D01*
X141199172Y-107050602D01*
X141053501Y-106990264D01*
X141053489Y-106990261D01*
X140898845Y-106959500D01*
X140898842Y-106959500D01*
X140741158Y-106959500D01*
X140741155Y-106959500D01*
X140586510Y-106990261D01*
X140586498Y-106990264D01*
X140440827Y-107050602D01*
X140440814Y-107050609D01*
X140309711Y-107138210D01*
X140309707Y-107138213D01*
X140198213Y-107249707D01*
X140198210Y-107249711D01*
X140110609Y-107380814D01*
X140110602Y-107380827D01*
X140050264Y-107526498D01*
X140050261Y-107526510D01*
X140019500Y-107681153D01*
X140019500Y-107838846D01*
X140050261Y-107993489D01*
X140050264Y-107993501D01*
X140064574Y-108028048D01*
X140072043Y-108097517D01*
X140040767Y-108159996D01*
X139980678Y-108195648D01*
X139950013Y-108199500D01*
X139873655Y-108199500D01*
X139719010Y-108230261D01*
X139718998Y-108230264D01*
X139573327Y-108290602D01*
X139573314Y-108290609D01*
X139442211Y-108378210D01*
X139442207Y-108378213D01*
X139330713Y-108489707D01*
X139330710Y-108489711D01*
X139243109Y-108620814D01*
X139243102Y-108620827D01*
X139182764Y-108766498D01*
X139182761Y-108766510D01*
X139152000Y-108921153D01*
X136725499Y-108921153D01*
X136716619Y-108876510D01*
X136694737Y-108766503D01*
X136694735Y-108766498D01*
X136634397Y-108620827D01*
X136634390Y-108620814D01*
X136546789Y-108489711D01*
X136546786Y-108489707D01*
X136435292Y-108378213D01*
X136435288Y-108378210D01*
X136304185Y-108290609D01*
X136304172Y-108290602D01*
X136158501Y-108230264D01*
X136158489Y-108230261D01*
X136003845Y-108199500D01*
X136003842Y-108199500D01*
X135925714Y-108199500D01*
X135858675Y-108179815D01*
X135812920Y-108127011D01*
X135802976Y-108057853D01*
X135804097Y-108051309D01*
X135820499Y-107968846D01*
X135820500Y-107968844D01*
X135820500Y-107811155D01*
X135820499Y-107811153D01*
X135798744Y-107701786D01*
X135789737Y-107656503D01*
X135762312Y-107590292D01*
X135729397Y-107510827D01*
X135729390Y-107510814D01*
X135641789Y-107379711D01*
X135641786Y-107379707D01*
X135530292Y-107268213D01*
X135530288Y-107268210D01*
X135399185Y-107180609D01*
X135399172Y-107180602D01*
X135253501Y-107120264D01*
X135253489Y-107120261D01*
X135098845Y-107089500D01*
X135098842Y-107089500D01*
X134941158Y-107089500D01*
X134941155Y-107089500D01*
X134786510Y-107120261D01*
X134786498Y-107120264D01*
X134640827Y-107180602D01*
X134640814Y-107180609D01*
X134509711Y-107268210D01*
X134509707Y-107268213D01*
X134398213Y-107379707D01*
X134398210Y-107379711D01*
X134310609Y-107510814D01*
X134310602Y-107510827D01*
X134250264Y-107656498D01*
X134250261Y-107656510D01*
X134219500Y-107811153D01*
X132309237Y-107811153D01*
X132259397Y-107690827D01*
X132259390Y-107690814D01*
X132171789Y-107559711D01*
X132171786Y-107559707D01*
X132060292Y-107448213D01*
X132060288Y-107448210D01*
X131929185Y-107360609D01*
X131929172Y-107360602D01*
X131783501Y-107300264D01*
X131783489Y-107300261D01*
X131628845Y-107269500D01*
X131628842Y-107269500D01*
X131471158Y-107269500D01*
X131471155Y-107269500D01*
X131316510Y-107300261D01*
X131316498Y-107300264D01*
X131170827Y-107360602D01*
X131170814Y-107360609D01*
X131039711Y-107448210D01*
X131039707Y-107448213D01*
X130928213Y-107559707D01*
X130928210Y-107559711D01*
X130840609Y-107690814D01*
X130840602Y-107690827D01*
X130780264Y-107836498D01*
X130780261Y-107836510D01*
X130749500Y-107991153D01*
X115036547Y-107991153D01*
X115036547Y-96172890D01*
X121265547Y-96172890D01*
X121265547Y-96393334D01*
X121270673Y-96425700D01*
X121300032Y-96611064D01*
X121368150Y-96820715D01*
X121368151Y-96820718D01*
X121429077Y-96940289D01*
X121467995Y-97016669D01*
X121468234Y-97017137D01*
X121597799Y-97195470D01*
X121597803Y-97195475D01*
X121753683Y-97351355D01*
X121753688Y-97351359D01*
X121932023Y-97480926D01*
X122082556Y-97557628D01*
X122133351Y-97605602D01*
X122150146Y-97673423D01*
X122127608Y-97739558D01*
X122082556Y-97778596D01*
X121932023Y-97855297D01*
X121753688Y-97984864D01*
X121753683Y-97984868D01*
X121597803Y-98140748D01*
X121597799Y-98140753D01*
X121468234Y-98319086D01*
X121368151Y-98515505D01*
X121368150Y-98515508D01*
X121300032Y-98725159D01*
X121281889Y-98839711D01*
X121265547Y-98942890D01*
X121265547Y-99163334D01*
X121267701Y-99176931D01*
X121300032Y-99381064D01*
X121368150Y-99590715D01*
X121368151Y-99590718D01*
X121468234Y-99787137D01*
X121597799Y-99965470D01*
X121597803Y-99965475D01*
X121753683Y-100121355D01*
X121753688Y-100121359D01*
X121932023Y-100250926D01*
X122082556Y-100327628D01*
X122133351Y-100375602D01*
X122150146Y-100443423D01*
X122127608Y-100509558D01*
X122082556Y-100548596D01*
X121932023Y-100625297D01*
X121753688Y-100754864D01*
X121753683Y-100754868D01*
X121597803Y-100910748D01*
X121597799Y-100910753D01*
X121468234Y-101089086D01*
X121368151Y-101285505D01*
X121368150Y-101285508D01*
X121300032Y-101495159D01*
X121269042Y-101690821D01*
X121265547Y-101712890D01*
X121265547Y-101933334D01*
X121276945Y-102005297D01*
X121300032Y-102151064D01*
X121368150Y-102360715D01*
X121368151Y-102360718D01*
X121423369Y-102469086D01*
X121463861Y-102548556D01*
X121468234Y-102557137D01*
X121597799Y-102735470D01*
X121597803Y-102735475D01*
X121753683Y-102891355D01*
X121753688Y-102891359D01*
X121817626Y-102937812D01*
X121932025Y-103020927D01*
X122053986Y-103083070D01*
X122083107Y-103097908D01*
X122133903Y-103145883D01*
X122150698Y-103213704D01*
X122128160Y-103279839D01*
X122083107Y-103318878D01*
X121932280Y-103395728D01*
X121868532Y-103442043D01*
X121868532Y-103442044D01*
X122495802Y-104069314D01*
X122453750Y-104080582D01*
X122328332Y-104152993D01*
X122225928Y-104255397D01*
X122153517Y-104380815D01*
X122142249Y-104422867D01*
X121514979Y-103795597D01*
X121514978Y-103795597D01*
X121468663Y-103859345D01*
X121368614Y-104055701D01*
X121300520Y-104265276D01*
X121266047Y-104482930D01*
X121266047Y-104703293D01*
X121300520Y-104920947D01*
X121368614Y-105130522D01*
X121468658Y-105326868D01*
X121514979Y-105390625D01*
X122142249Y-104763355D01*
X122153517Y-104805409D01*
X122225928Y-104930827D01*
X122328332Y-105033231D01*
X122453750Y-105105642D01*
X122495801Y-105116909D01*
X121868532Y-105744177D01*
X121868532Y-105744178D01*
X121932290Y-105790500D01*
X122128636Y-105890544D01*
X122338211Y-105958638D01*
X122555866Y-105993112D01*
X122776228Y-105993112D01*
X122993882Y-105958638D01*
X123203457Y-105890544D01*
X123399807Y-105790498D01*
X123463560Y-105744178D01*
X123463561Y-105744178D01*
X122836291Y-105116909D01*
X122878344Y-105105642D01*
X123003762Y-105033231D01*
X123106166Y-104930827D01*
X123178577Y-104805409D01*
X123189844Y-104763357D01*
X123817113Y-105390626D01*
X123817113Y-105390625D01*
X123863433Y-105326872D01*
X123871061Y-105311902D01*
X123919034Y-105261105D01*
X123986855Y-105244309D01*
X124052991Y-105266845D01*
X124096443Y-105321559D01*
X124105547Y-105368195D01*
X124105547Y-106920982D01*
X124105548Y-106920988D01*
X124111955Y-106980595D01*
X124162249Y-107115440D01*
X124162253Y-107115447D01*
X124248499Y-107230656D01*
X124248502Y-107230659D01*
X124363711Y-107316905D01*
X124363718Y-107316909D01*
X124498564Y-107367203D01*
X124498563Y-107367203D01*
X124505491Y-107367947D01*
X124558174Y-107373612D01*
X126453919Y-107373611D01*
X126513530Y-107367203D01*
X126648378Y-107316908D01*
X126721572Y-107262114D01*
X126787033Y-107237698D01*
X126855306Y-107252549D01*
X126904712Y-107301953D01*
X126910442Y-107313930D01*
X126970602Y-107459172D01*
X126970609Y-107459185D01*
X127058210Y-107590288D01*
X127058213Y-107590292D01*
X127169707Y-107701786D01*
X127169711Y-107701789D01*
X127300814Y-107789390D01*
X127300827Y-107789397D01*
X127446498Y-107849735D01*
X127446503Y-107849737D01*
X127601153Y-107880499D01*
X127601156Y-107880500D01*
X127601158Y-107880500D01*
X127758844Y-107880500D01*
X127758845Y-107880499D01*
X127784236Y-107875448D01*
X127844560Y-107863450D01*
X127844565Y-107863449D01*
X127893691Y-107853676D01*
X127913497Y-107849737D01*
X128059179Y-107789394D01*
X128190289Y-107701789D01*
X128301789Y-107590289D01*
X128389394Y-107459179D01*
X128393938Y-107448210D01*
X128421851Y-107380821D01*
X128449737Y-107313497D01*
X128480500Y-107158842D01*
X128480500Y-107001158D01*
X128480500Y-107001155D01*
X128480499Y-107001153D01*
X128476410Y-106980595D01*
X128449737Y-106846503D01*
X128426212Y-106789707D01*
X128389397Y-106700827D01*
X128389390Y-106700814D01*
X128301789Y-106569711D01*
X128301786Y-106569707D01*
X128190292Y-106458213D01*
X128190288Y-106458210D01*
X128059185Y-106370609D01*
X128059172Y-106370602D01*
X127913501Y-106310264D01*
X127913489Y-106310261D01*
X127758845Y-106279500D01*
X127758842Y-106279500D01*
X127601158Y-106279500D01*
X127601155Y-106279500D01*
X127446510Y-106310261D01*
X127446498Y-106310264D01*
X127300827Y-106370602D01*
X127300814Y-106370609D01*
X127169711Y-106458210D01*
X127169707Y-106458213D01*
X127118227Y-106509694D01*
X127056904Y-106543179D01*
X126987212Y-106538195D01*
X126931279Y-106496323D01*
X126906862Y-106430859D01*
X126906546Y-106422013D01*
X126906546Y-105877987D01*
X126926231Y-105810948D01*
X126979035Y-105765193D01*
X127048193Y-105755249D01*
X127111749Y-105784274D01*
X127118227Y-105790306D01*
X127159707Y-105831786D01*
X127159711Y-105831789D01*
X127290814Y-105919390D01*
X127290827Y-105919397D01*
X127385565Y-105958638D01*
X127436503Y-105979737D01*
X127589755Y-106010221D01*
X127591153Y-106010499D01*
X127591156Y-106010500D01*
X127591158Y-106010500D01*
X127748844Y-106010500D01*
X127748845Y-106010499D01*
X127903497Y-105979737D01*
X128049179Y-105919394D01*
X128180289Y-105831789D01*
X128291789Y-105720289D01*
X128379394Y-105589179D01*
X128380503Y-105586503D01*
X128439735Y-105443501D01*
X128439737Y-105443497D01*
X128470500Y-105288842D01*
X128470500Y-105131158D01*
X128470500Y-105131155D01*
X128470499Y-105131153D01*
X128466348Y-105110287D01*
X128439737Y-104976503D01*
X128420818Y-104930827D01*
X128379397Y-104830827D01*
X128379390Y-104830814D01*
X128291789Y-104699711D01*
X128291786Y-104699707D01*
X128180292Y-104588213D01*
X128180288Y-104588210D01*
X128079931Y-104521153D01*
X143149500Y-104521153D01*
X143149500Y-104678846D01*
X143180261Y-104833489D01*
X143180264Y-104833501D01*
X143240602Y-104979172D01*
X143240609Y-104979185D01*
X143328209Y-105110287D01*
X143328210Y-105110288D01*
X143328211Y-105110289D01*
X143350240Y-105132318D01*
X143383725Y-105193639D01*
X143378742Y-105263330D01*
X143352002Y-105304940D01*
X143352076Y-105305001D01*
X143351559Y-105305629D01*
X143350247Y-105307673D01*
X143348216Y-105309703D01*
X143348210Y-105309711D01*
X143260609Y-105440814D01*
X143260602Y-105440827D01*
X143200264Y-105586498D01*
X143200261Y-105586510D01*
X143169500Y-105741153D01*
X143169500Y-105898846D01*
X143200261Y-106053489D01*
X143200264Y-106053501D01*
X143260602Y-106199172D01*
X143260609Y-106199185D01*
X143348210Y-106330288D01*
X143348213Y-106330292D01*
X143459707Y-106441786D01*
X143459711Y-106441789D01*
X143590814Y-106529390D01*
X143590827Y-106529397D01*
X143736498Y-106589735D01*
X143736503Y-106589737D01*
X143891153Y-106620499D01*
X143891156Y-106620500D01*
X143891158Y-106620500D01*
X144048844Y-106620500D01*
X144048845Y-106620499D01*
X144203497Y-106589737D01*
X144349179Y-106529394D01*
X144480289Y-106441789D01*
X144591789Y-106330289D01*
X144679394Y-106199179D01*
X144739737Y-106053497D01*
X144770500Y-105898842D01*
X144770500Y-105741158D01*
X144770121Y-105739251D01*
X144770121Y-105739248D01*
X144766522Y-105721153D01*
X154099500Y-105721153D01*
X154099500Y-105878846D01*
X154130261Y-106033489D01*
X154130264Y-106033501D01*
X154190602Y-106179172D01*
X154190609Y-106179185D01*
X154278210Y-106310288D01*
X154278213Y-106310292D01*
X154389707Y-106421786D01*
X154389711Y-106421789D01*
X154520814Y-106509390D01*
X154520827Y-106509397D01*
X154666440Y-106569711D01*
X154666503Y-106569737D01*
X154821153Y-106600499D01*
X154821156Y-106600500D01*
X154821158Y-106600500D01*
X154978844Y-106600500D01*
X154978845Y-106600499D01*
X155133497Y-106569737D01*
X155279179Y-106509394D01*
X155410289Y-106421789D01*
X155521789Y-106310289D01*
X155609394Y-106179179D01*
X155669737Y-106033497D01*
X155700500Y-105878842D01*
X155700500Y-105721158D01*
X155700500Y-105721155D01*
X155700499Y-105721153D01*
X155697845Y-105707812D01*
X155669737Y-105566503D01*
X155625070Y-105458666D01*
X155609397Y-105420827D01*
X155609390Y-105420814D01*
X155521789Y-105289711D01*
X155521786Y-105289707D01*
X155410292Y-105178213D01*
X155410288Y-105178210D01*
X155279185Y-105090609D01*
X155279172Y-105090602D01*
X155133501Y-105030264D01*
X155133489Y-105030261D01*
X154978845Y-104999500D01*
X154978842Y-104999500D01*
X154821158Y-104999500D01*
X154821155Y-104999500D01*
X154666510Y-105030261D01*
X154666498Y-105030264D01*
X154520827Y-105090602D01*
X154520814Y-105090609D01*
X154389711Y-105178210D01*
X154389707Y-105178213D01*
X154278213Y-105289707D01*
X154278210Y-105289711D01*
X154190609Y-105420814D01*
X154190602Y-105420827D01*
X154130264Y-105566498D01*
X154130261Y-105566510D01*
X154099500Y-105721153D01*
X144766522Y-105721153D01*
X144739738Y-105586508D01*
X144739737Y-105586507D01*
X144739737Y-105586503D01*
X144686786Y-105458666D01*
X144679397Y-105440827D01*
X144679390Y-105440814D01*
X144591790Y-105309712D01*
X144587018Y-105304940D01*
X144569758Y-105287680D01*
X144536274Y-105226360D01*
X144541257Y-105156669D01*
X144567999Y-105115060D01*
X144567924Y-105114999D01*
X144568454Y-105114352D01*
X144569766Y-105112312D01*
X144571789Y-105110289D01*
X144659394Y-104979179D01*
X144660503Y-104976503D01*
X144680102Y-104929185D01*
X144719737Y-104833497D01*
X144750500Y-104678842D01*
X144750500Y-104521158D01*
X144750500Y-104521155D01*
X144744155Y-104489258D01*
X144744155Y-104489257D01*
X144740554Y-104471153D01*
X172749500Y-104471153D01*
X172749500Y-104628846D01*
X172780261Y-104783489D01*
X172780264Y-104783501D01*
X172840602Y-104929172D01*
X172840609Y-104929185D01*
X172928210Y-105060288D01*
X172928213Y-105060292D01*
X173039707Y-105171786D01*
X173039711Y-105171789D01*
X173170814Y-105259390D01*
X173170827Y-105259397D01*
X173292298Y-105309711D01*
X173316503Y-105319737D01*
X173471153Y-105350499D01*
X173471156Y-105350500D01*
X173471158Y-105350500D01*
X173628844Y-105350500D01*
X173628845Y-105350499D01*
X173783497Y-105319737D01*
X173929179Y-105259394D01*
X174060289Y-105171789D01*
X174171789Y-105060289D01*
X174259394Y-104929179D01*
X174319737Y-104783497D01*
X174350500Y-104628842D01*
X174350500Y-104471158D01*
X174350500Y-104471155D01*
X174350499Y-104471153D01*
X174344355Y-104440264D01*
X174319737Y-104316503D01*
X174301036Y-104271354D01*
X174259397Y-104170827D01*
X174259390Y-104170814D01*
X174171789Y-104039711D01*
X174171786Y-104039707D01*
X174060292Y-103928213D01*
X174060288Y-103928210D01*
X173929185Y-103840609D01*
X173929172Y-103840602D01*
X173783501Y-103780264D01*
X173783489Y-103780261D01*
X173628845Y-103749500D01*
X173628842Y-103749500D01*
X173471158Y-103749500D01*
X173471155Y-103749500D01*
X173316510Y-103780261D01*
X173316498Y-103780264D01*
X173170827Y-103840602D01*
X173170814Y-103840609D01*
X173039711Y-103928210D01*
X173039707Y-103928213D01*
X172928213Y-104039707D01*
X172928210Y-104039711D01*
X172840609Y-104170814D01*
X172840602Y-104170827D01*
X172780264Y-104316498D01*
X172780261Y-104316510D01*
X172749500Y-104471153D01*
X144740554Y-104471153D01*
X144719738Y-104366510D01*
X144719737Y-104366503D01*
X144703711Y-104327812D01*
X144659397Y-104220827D01*
X144659390Y-104220814D01*
X144571789Y-104089711D01*
X144571786Y-104089707D01*
X144460292Y-103978213D01*
X144460288Y-103978210D01*
X144329185Y-103890609D01*
X144329172Y-103890602D01*
X144183501Y-103830264D01*
X144183489Y-103830261D01*
X144028845Y-103799500D01*
X144028842Y-103799500D01*
X143871158Y-103799500D01*
X143871155Y-103799500D01*
X143716510Y-103830261D01*
X143716498Y-103830264D01*
X143570827Y-103890602D01*
X143570814Y-103890609D01*
X143439711Y-103978210D01*
X143439707Y-103978213D01*
X143328213Y-104089707D01*
X143328210Y-104089711D01*
X143240609Y-104220814D01*
X143240602Y-104220827D01*
X143180264Y-104366498D01*
X143180261Y-104366510D01*
X143149500Y-104521153D01*
X128079931Y-104521153D01*
X128049185Y-104500609D01*
X128049172Y-104500602D01*
X127903501Y-104440264D01*
X127903489Y-104440261D01*
X127748845Y-104409500D01*
X127748842Y-104409500D01*
X127591158Y-104409500D01*
X127591155Y-104409500D01*
X127436510Y-104440261D01*
X127436498Y-104440264D01*
X127290827Y-104500602D01*
X127290814Y-104500609D01*
X127159711Y-104588210D01*
X127159707Y-104588213D01*
X127048213Y-104699707D01*
X127048210Y-104699711D01*
X127005736Y-104763278D01*
X126952123Y-104808083D01*
X126882798Y-104816790D01*
X126819771Y-104786635D01*
X126803370Y-104768701D01*
X126763593Y-104715566D01*
X126740756Y-104698470D01*
X126648382Y-104629318D01*
X126648375Y-104629314D01*
X126513529Y-104579020D01*
X126513530Y-104579020D01*
X126453930Y-104572613D01*
X126453928Y-104572612D01*
X126453920Y-104572612D01*
X126453912Y-104572612D01*
X126385399Y-104572612D01*
X126318360Y-104552927D01*
X126272605Y-104500123D01*
X126262661Y-104430965D01*
X126291686Y-104367409D01*
X126312514Y-104348294D01*
X126418405Y-104271359D01*
X126418403Y-104271359D01*
X126418412Y-104271354D01*
X126574289Y-104115477D01*
X126703862Y-103937134D01*
X126780445Y-103786832D01*
X126828419Y-103736038D01*
X126896240Y-103719243D01*
X126962375Y-103741781D01*
X126994031Y-103774238D01*
X127058210Y-103870288D01*
X127058213Y-103870292D01*
X127169707Y-103981786D01*
X127169711Y-103981789D01*
X127300814Y-104069390D01*
X127300827Y-104069397D01*
X127412059Y-104115470D01*
X127446503Y-104129737D01*
X127601153Y-104160499D01*
X127601156Y-104160500D01*
X127601158Y-104160500D01*
X127758844Y-104160500D01*
X127758845Y-104160499D01*
X127913497Y-104129737D01*
X128059179Y-104069394D01*
X128190289Y-103981789D01*
X128301789Y-103870289D01*
X128389394Y-103739179D01*
X128449737Y-103593497D01*
X128480500Y-103438842D01*
X128480500Y-103281158D01*
X128480500Y-103281155D01*
X128480499Y-103281153D01*
X128466764Y-103212105D01*
X128449737Y-103126503D01*
X128449735Y-103126498D01*
X128389397Y-102980827D01*
X128389390Y-102980814D01*
X128301789Y-102849711D01*
X128297924Y-102845001D01*
X128299678Y-102843560D01*
X128271052Y-102791135D01*
X128276036Y-102721443D01*
X128317908Y-102665510D01*
X128344759Y-102650219D01*
X128419179Y-102619394D01*
X128550289Y-102531789D01*
X128661789Y-102420289D01*
X128749394Y-102289179D01*
X128772048Y-102234488D01*
X128772049Y-102234486D01*
X143159500Y-102234486D01*
X143159500Y-102392179D01*
X143190261Y-102546822D01*
X143190264Y-102546834D01*
X143250602Y-102692505D01*
X143250609Y-102692518D01*
X143338210Y-102823621D01*
X143338213Y-102823625D01*
X143449707Y-102935119D01*
X143449711Y-102935122D01*
X143580814Y-103022723D01*
X143580827Y-103022730D01*
X143676818Y-103062490D01*
X143726503Y-103083070D01*
X143841855Y-103106015D01*
X143881153Y-103113832D01*
X143881156Y-103113833D01*
X143881158Y-103113833D01*
X144038844Y-103113833D01*
X144038845Y-103113832D01*
X144193497Y-103083070D01*
X144339179Y-103022727D01*
X144470289Y-102935122D01*
X144581789Y-102823622D01*
X144669394Y-102692512D01*
X144669694Y-102691789D01*
X144710864Y-102592393D01*
X144729737Y-102546830D01*
X144760500Y-102392175D01*
X144760500Y-102234491D01*
X144760500Y-102234488D01*
X144760499Y-102234486D01*
X144743464Y-102148846D01*
X144729737Y-102079836D01*
X144722248Y-102061756D01*
X144710138Y-102032518D01*
X144693004Y-101991153D01*
X172749500Y-101991153D01*
X172749500Y-102148846D01*
X172780261Y-102303489D01*
X172780264Y-102303501D01*
X172840602Y-102449172D01*
X172840609Y-102449185D01*
X172928210Y-102580288D01*
X172928213Y-102580292D01*
X173039707Y-102691786D01*
X173039711Y-102691789D01*
X173170814Y-102779390D01*
X173170827Y-102779397D01*
X173316498Y-102839735D01*
X173316503Y-102839737D01*
X173471153Y-102870499D01*
X173471156Y-102870500D01*
X173471158Y-102870500D01*
X173628844Y-102870500D01*
X173628845Y-102870499D01*
X173783497Y-102839737D01*
X173929179Y-102779394D01*
X174060289Y-102691789D01*
X174171789Y-102580289D01*
X174259394Y-102449179D01*
X174319737Y-102303497D01*
X174350500Y-102148842D01*
X174350500Y-101991158D01*
X174350500Y-101991155D01*
X174350499Y-101991153D01*
X174338056Y-101928597D01*
X174319737Y-101836503D01*
X174317521Y-101831153D01*
X174259397Y-101690827D01*
X174259390Y-101690814D01*
X174171789Y-101559711D01*
X174171786Y-101559707D01*
X174060292Y-101448213D01*
X174060288Y-101448210D01*
X173929185Y-101360609D01*
X173929172Y-101360602D01*
X173783501Y-101300264D01*
X173783489Y-101300261D01*
X173628845Y-101269500D01*
X173628842Y-101269500D01*
X173471158Y-101269500D01*
X173471155Y-101269500D01*
X173316510Y-101300261D01*
X173316498Y-101300264D01*
X173170827Y-101360602D01*
X173170814Y-101360609D01*
X173039711Y-101448210D01*
X173039707Y-101448213D01*
X172928213Y-101559707D01*
X172928210Y-101559711D01*
X172840609Y-101690814D01*
X172840602Y-101690827D01*
X172780264Y-101836498D01*
X172780261Y-101836510D01*
X172749500Y-101991153D01*
X144693004Y-101991153D01*
X144669397Y-101934160D01*
X144669390Y-101934147D01*
X144581789Y-101803044D01*
X144581786Y-101803040D01*
X144470292Y-101691546D01*
X144470288Y-101691543D01*
X144339185Y-101603942D01*
X144339172Y-101603935D01*
X144193501Y-101543597D01*
X144193489Y-101543594D01*
X144038845Y-101512833D01*
X144038842Y-101512833D01*
X143881158Y-101512833D01*
X143881155Y-101512833D01*
X143726510Y-101543594D01*
X143726498Y-101543597D01*
X143580827Y-101603935D01*
X143580814Y-101603942D01*
X143449711Y-101691543D01*
X143449707Y-101691546D01*
X143338213Y-101803040D01*
X143338210Y-101803044D01*
X143250609Y-101934147D01*
X143250602Y-101934160D01*
X143190264Y-102079831D01*
X143190261Y-102079843D01*
X143159500Y-102234486D01*
X128772049Y-102234486D01*
X128794225Y-102180947D01*
X128794225Y-102180946D01*
X128809737Y-102143497D01*
X128840500Y-101988842D01*
X128840500Y-101831158D01*
X128840500Y-101831155D01*
X128840499Y-101831153D01*
X128837574Y-101816446D01*
X128809737Y-101676503D01*
X128809735Y-101676498D01*
X128749397Y-101530827D01*
X128749390Y-101530814D01*
X128661789Y-101399711D01*
X128661786Y-101399707D01*
X128550292Y-101288213D01*
X128550288Y-101288210D01*
X128419185Y-101200609D01*
X128419172Y-101200602D01*
X128273501Y-101140264D01*
X128273489Y-101140261D01*
X128118845Y-101109500D01*
X128118842Y-101109500D01*
X127961158Y-101109500D01*
X127961155Y-101109500D01*
X127806510Y-101140261D01*
X127806498Y-101140264D01*
X127660827Y-101200602D01*
X127660814Y-101200609D01*
X127529711Y-101288210D01*
X127529707Y-101288213D01*
X127418213Y-101399707D01*
X127418210Y-101399711D01*
X127330609Y-101530814D01*
X127330602Y-101530827D01*
X127270264Y-101676498D01*
X127270261Y-101676510D01*
X127239500Y-101831153D01*
X127239500Y-101988846D01*
X127270261Y-102143489D01*
X127270264Y-102143501D01*
X127330602Y-102289172D01*
X127330609Y-102289185D01*
X127418210Y-102420288D01*
X127422076Y-102424999D01*
X127420320Y-102426439D01*
X127448947Y-102478864D01*
X127443963Y-102548556D01*
X127402091Y-102604489D01*
X127375234Y-102619783D01*
X127300823Y-102650604D01*
X127300814Y-102650609D01*
X127169711Y-102738210D01*
X127054554Y-102853367D01*
X126993231Y-102886851D01*
X126923539Y-102881867D01*
X126867606Y-102839995D01*
X126848942Y-102804003D01*
X126803943Y-102665508D01*
X126803942Y-102665505D01*
X126752269Y-102564094D01*
X126703862Y-102469090D01*
X126687307Y-102446304D01*
X126574294Y-102290753D01*
X126574290Y-102290748D01*
X126418410Y-102134868D01*
X126418405Y-102134864D01*
X126240072Y-102005299D01*
X126240071Y-102005298D01*
X126240069Y-102005297D01*
X126089537Y-101928596D01*
X126038742Y-101880622D01*
X126021947Y-101812801D01*
X126044485Y-101746666D01*
X126089538Y-101707627D01*
X126240069Y-101630927D01*
X126418412Y-101501354D01*
X126574289Y-101345477D01*
X126703862Y-101167134D01*
X126773149Y-101031153D01*
X129219500Y-101031153D01*
X129219500Y-101188846D01*
X129250261Y-101343489D01*
X129250264Y-101343501D01*
X129310602Y-101489172D01*
X129310609Y-101489185D01*
X129398210Y-101620288D01*
X129398213Y-101620292D01*
X129509707Y-101731786D01*
X129509711Y-101731789D01*
X129640814Y-101819390D01*
X129640827Y-101819397D01*
X129786498Y-101879735D01*
X129786503Y-101879737D01*
X129914599Y-101905217D01*
X129941153Y-101910499D01*
X129941156Y-101910500D01*
X129941158Y-101910500D01*
X130098844Y-101910500D01*
X130098845Y-101910499D01*
X130253497Y-101879737D01*
X130399179Y-101819394D01*
X130530289Y-101731789D01*
X130641789Y-101620289D01*
X130729394Y-101489179D01*
X130789737Y-101343497D01*
X130820500Y-101188842D01*
X130820500Y-101031158D01*
X130820500Y-101031155D01*
X130820499Y-101031153D01*
X130808188Y-100969257D01*
X130804587Y-100951153D01*
X134209500Y-100951153D01*
X134209500Y-101108846D01*
X134240261Y-101263489D01*
X134240264Y-101263501D01*
X134300602Y-101409172D01*
X134300609Y-101409185D01*
X134388210Y-101540288D01*
X134388213Y-101540292D01*
X134499707Y-101651786D01*
X134499711Y-101651789D01*
X134630814Y-101739390D01*
X134630827Y-101739397D01*
X134690189Y-101763985D01*
X134776503Y-101799737D01*
X134895580Y-101823423D01*
X134931153Y-101830499D01*
X134931156Y-101830500D01*
X134931158Y-101830500D01*
X135088844Y-101830500D01*
X135088845Y-101830499D01*
X135243497Y-101799737D01*
X135389179Y-101739394D01*
X135520289Y-101651789D01*
X135631789Y-101540289D01*
X135719394Y-101409179D01*
X135779737Y-101263497D01*
X135810500Y-101108842D01*
X135810500Y-100951158D01*
X135810500Y-100951155D01*
X135810499Y-100951153D01*
X141379500Y-100951153D01*
X141379500Y-101108846D01*
X141410261Y-101263489D01*
X141410264Y-101263501D01*
X141470602Y-101409172D01*
X141470609Y-101409185D01*
X141558210Y-101540288D01*
X141558213Y-101540292D01*
X141669707Y-101651786D01*
X141669711Y-101651789D01*
X141800814Y-101739390D01*
X141800827Y-101739397D01*
X141860189Y-101763985D01*
X141946503Y-101799737D01*
X142065580Y-101823423D01*
X142101153Y-101830499D01*
X142101156Y-101830500D01*
X142101158Y-101830500D01*
X142258844Y-101830500D01*
X142258845Y-101830499D01*
X142413497Y-101799737D01*
X142559179Y-101739394D01*
X142690289Y-101651789D01*
X142801789Y-101540289D01*
X142889394Y-101409179D01*
X142949737Y-101263497D01*
X142980500Y-101108842D01*
X142980500Y-100951158D01*
X142980500Y-100951155D01*
X142980499Y-100951153D01*
X142965649Y-100876498D01*
X142949737Y-100796503D01*
X142935058Y-100761064D01*
X142889397Y-100650827D01*
X142889390Y-100650814D01*
X142801789Y-100519711D01*
X142801786Y-100519707D01*
X142690292Y-100408213D01*
X142690288Y-100408210D01*
X142559185Y-100320609D01*
X142559172Y-100320602D01*
X142413501Y-100260264D01*
X142413489Y-100260261D01*
X142258845Y-100229500D01*
X142258842Y-100229500D01*
X142101158Y-100229500D01*
X142101155Y-100229500D01*
X141946510Y-100260261D01*
X141946498Y-100260264D01*
X141800827Y-100320602D01*
X141800814Y-100320609D01*
X141669711Y-100408210D01*
X141669707Y-100408213D01*
X141558213Y-100519707D01*
X141558210Y-100519711D01*
X141470609Y-100650814D01*
X141470602Y-100650827D01*
X141410264Y-100796498D01*
X141410261Y-100796510D01*
X141379500Y-100951153D01*
X135810499Y-100951153D01*
X135795649Y-100876498D01*
X135779737Y-100796503D01*
X135765058Y-100761064D01*
X135719397Y-100650827D01*
X135719390Y-100650814D01*
X135631789Y-100519711D01*
X135631786Y-100519707D01*
X135520292Y-100408213D01*
X135520288Y-100408210D01*
X135389185Y-100320609D01*
X135389172Y-100320602D01*
X135243501Y-100260264D01*
X135243489Y-100260261D01*
X135088845Y-100229500D01*
X135088842Y-100229500D01*
X134931158Y-100229500D01*
X134931155Y-100229500D01*
X134776510Y-100260261D01*
X134776498Y-100260264D01*
X134630827Y-100320602D01*
X134630814Y-100320609D01*
X134499711Y-100408210D01*
X134499707Y-100408213D01*
X134388213Y-100519707D01*
X134388210Y-100519711D01*
X134300609Y-100650814D01*
X134300602Y-100650827D01*
X134240264Y-100796498D01*
X134240261Y-100796510D01*
X134209500Y-100951153D01*
X130804587Y-100951153D01*
X130789738Y-100876508D01*
X130789737Y-100876507D01*
X130789737Y-100876503D01*
X130769496Y-100827636D01*
X130729397Y-100730827D01*
X130729390Y-100730814D01*
X130641789Y-100599711D01*
X130641786Y-100599707D01*
X130530292Y-100488213D01*
X130530288Y-100488210D01*
X130399185Y-100400609D01*
X130399172Y-100400602D01*
X130253501Y-100340264D01*
X130253489Y-100340261D01*
X130098845Y-100309500D01*
X130098842Y-100309500D01*
X129941158Y-100309500D01*
X129941155Y-100309500D01*
X129786510Y-100340261D01*
X129786498Y-100340264D01*
X129640827Y-100400602D01*
X129640814Y-100400609D01*
X129509711Y-100488210D01*
X129509707Y-100488213D01*
X129398213Y-100599707D01*
X129398210Y-100599711D01*
X129310609Y-100730814D01*
X129310602Y-100730827D01*
X129250264Y-100876498D01*
X129250261Y-100876510D01*
X129219500Y-101031153D01*
X126773149Y-101031153D01*
X126803942Y-100970718D01*
X126872062Y-100761063D01*
X126906547Y-100543334D01*
X126906547Y-100322890D01*
X126872062Y-100105161D01*
X126838002Y-100000333D01*
X126803943Y-99895508D01*
X126803942Y-99895506D01*
X126774407Y-99837541D01*
X126703862Y-99699090D01*
X126669034Y-99651153D01*
X127249500Y-99651153D01*
X127249500Y-99808846D01*
X127280261Y-99963489D01*
X127280264Y-99963501D01*
X127340602Y-100109172D01*
X127340609Y-100109185D01*
X127428210Y-100240288D01*
X127428213Y-100240292D01*
X127539707Y-100351786D01*
X127539711Y-100351789D01*
X127670814Y-100439390D01*
X127670827Y-100439397D01*
X127788681Y-100488213D01*
X127816503Y-100499737D01*
X127944599Y-100525217D01*
X127971153Y-100530499D01*
X127971156Y-100530500D01*
X127971158Y-100530500D01*
X128128844Y-100530500D01*
X128128845Y-100530499D01*
X128283497Y-100499737D01*
X128429179Y-100439394D01*
X128560289Y-100351789D01*
X128671789Y-100240289D01*
X128759394Y-100109179D01*
X128819737Y-99963497D01*
X128833261Y-99895508D01*
X128838769Y-99867820D01*
X143159500Y-99867820D01*
X143159500Y-100025513D01*
X143190261Y-100180156D01*
X143190264Y-100180168D01*
X143250602Y-100325839D01*
X143250609Y-100325852D01*
X143338210Y-100456955D01*
X143338213Y-100456959D01*
X143449707Y-100568453D01*
X143449711Y-100568456D01*
X143580814Y-100656057D01*
X143580827Y-100656064D01*
X143657813Y-100687952D01*
X143726503Y-100716404D01*
X143881153Y-100747166D01*
X143881156Y-100747167D01*
X143881158Y-100747167D01*
X144038844Y-100747167D01*
X144038845Y-100747166D01*
X144193497Y-100716404D01*
X144339179Y-100656061D01*
X144470289Y-100568456D01*
X144581789Y-100456956D01*
X144669394Y-100325846D01*
X144671565Y-100320606D01*
X144704831Y-100240292D01*
X144729737Y-100180164D01*
X144760500Y-100025509D01*
X144760500Y-99867825D01*
X144760500Y-99867822D01*
X144760499Y-99867820D01*
X144754476Y-99837540D01*
X144729737Y-99713170D01*
X144719927Y-99689487D01*
X144669397Y-99567494D01*
X144669390Y-99567481D01*
X144581789Y-99436378D01*
X144581786Y-99436374D01*
X144470292Y-99324880D01*
X144470288Y-99324877D01*
X144339185Y-99237276D01*
X144339172Y-99237269D01*
X144193501Y-99176931D01*
X144193489Y-99176928D01*
X144038845Y-99146167D01*
X144038842Y-99146167D01*
X143881158Y-99146167D01*
X143881155Y-99146167D01*
X143726510Y-99176928D01*
X143726498Y-99176931D01*
X143580827Y-99237269D01*
X143580814Y-99237276D01*
X143449711Y-99324877D01*
X143449707Y-99324880D01*
X143338213Y-99436374D01*
X143338210Y-99436378D01*
X143250609Y-99567481D01*
X143250602Y-99567494D01*
X143190264Y-99713165D01*
X143190261Y-99713177D01*
X143159500Y-99867820D01*
X128838769Y-99867820D01*
X128844792Y-99837541D01*
X128844792Y-99837540D01*
X128850499Y-99808846D01*
X128850500Y-99808844D01*
X128850500Y-99651155D01*
X128850499Y-99651153D01*
X128845491Y-99625978D01*
X128819737Y-99496503D01*
X128799496Y-99447636D01*
X128759397Y-99350827D01*
X128759390Y-99350814D01*
X128671789Y-99219711D01*
X128671786Y-99219707D01*
X128560292Y-99108213D01*
X128560288Y-99108210D01*
X128429185Y-99020609D01*
X128429172Y-99020602D01*
X128283501Y-98960264D01*
X128283489Y-98960261D01*
X128264245Y-98956433D01*
X128264244Y-98956433D01*
X128128844Y-98929500D01*
X128128842Y-98929500D01*
X127971158Y-98929500D01*
X127971155Y-98929500D01*
X127816510Y-98960261D01*
X127816498Y-98960264D01*
X127670827Y-99020602D01*
X127670814Y-99020609D01*
X127539711Y-99108210D01*
X127539707Y-99108213D01*
X127428213Y-99219707D01*
X127428210Y-99219711D01*
X127340609Y-99350814D01*
X127340602Y-99350827D01*
X127280264Y-99496498D01*
X127280261Y-99496510D01*
X127249500Y-99651153D01*
X126669034Y-99651153D01*
X126653041Y-99629140D01*
X126574294Y-99520753D01*
X126574290Y-99520748D01*
X126418410Y-99364868D01*
X126418405Y-99364864D01*
X126240072Y-99235299D01*
X126240071Y-99235298D01*
X126240069Y-99235297D01*
X126089537Y-99158596D01*
X126038742Y-99110622D01*
X126021947Y-99042801D01*
X126044485Y-98976666D01*
X126089538Y-98937627D01*
X126108954Y-98927734D01*
X126240069Y-98860927D01*
X126267630Y-98840903D01*
X161691800Y-98840903D01*
X161691800Y-98998596D01*
X161722561Y-99153239D01*
X161722564Y-99153251D01*
X161782902Y-99298922D01*
X161782909Y-99298935D01*
X161870510Y-99430038D01*
X161870513Y-99430042D01*
X161982007Y-99541536D01*
X161982011Y-99541539D01*
X162113114Y-99629140D01*
X162113127Y-99629147D01*
X162258798Y-99689485D01*
X162258803Y-99689487D01*
X162377840Y-99713165D01*
X162413453Y-99720249D01*
X162413456Y-99720250D01*
X162413458Y-99720250D01*
X162571144Y-99720250D01*
X162571145Y-99720249D01*
X162725797Y-99689487D01*
X162871479Y-99629144D01*
X163002589Y-99541539D01*
X163114089Y-99430039D01*
X163201694Y-99298929D01*
X163213197Y-99271158D01*
X163213199Y-99271153D01*
X172949500Y-99271153D01*
X172949500Y-99428846D01*
X172980261Y-99583489D01*
X172980264Y-99583501D01*
X173040602Y-99729172D01*
X173040609Y-99729185D01*
X173128210Y-99860288D01*
X173128213Y-99860292D01*
X173239707Y-99971786D01*
X173239711Y-99971789D01*
X173370814Y-100059390D01*
X173370827Y-100059397D01*
X173491028Y-100109185D01*
X173516503Y-100119737D01*
X173671153Y-100150499D01*
X173671156Y-100150500D01*
X173671158Y-100150500D01*
X173828844Y-100150500D01*
X173828845Y-100150499D01*
X173983497Y-100119737D01*
X174129179Y-100059394D01*
X174260289Y-99971789D01*
X174371789Y-99860289D01*
X174459394Y-99729179D01*
X174463093Y-99720250D01*
X174500828Y-99629147D01*
X174519737Y-99583497D01*
X174550500Y-99428842D01*
X174550500Y-99271158D01*
X174550500Y-99271155D01*
X174550499Y-99271153D01*
X174528824Y-99162187D01*
X174519737Y-99116503D01*
X174489209Y-99042801D01*
X174459397Y-98970827D01*
X174459390Y-98970814D01*
X174371789Y-98839711D01*
X174371786Y-98839707D01*
X174260292Y-98728213D01*
X174260288Y-98728210D01*
X174129185Y-98640609D01*
X174129172Y-98640602D01*
X173983501Y-98580264D01*
X173983489Y-98580261D01*
X173828845Y-98549500D01*
X173828842Y-98549500D01*
X173671158Y-98549500D01*
X173671155Y-98549500D01*
X173516510Y-98580261D01*
X173516498Y-98580264D01*
X173370827Y-98640602D01*
X173370814Y-98640609D01*
X173239711Y-98728210D01*
X173239707Y-98728213D01*
X173128213Y-98839707D01*
X173128210Y-98839711D01*
X173040609Y-98970814D01*
X173040602Y-98970827D01*
X172980264Y-99116498D01*
X172980261Y-99116510D01*
X172949500Y-99271153D01*
X163213199Y-99271153D01*
X163235376Y-99217614D01*
X163262035Y-99153251D01*
X163262037Y-99153247D01*
X163292800Y-98998592D01*
X163292800Y-98840908D01*
X163292800Y-98840905D01*
X163292799Y-98840903D01*
X163262038Y-98686260D01*
X163262037Y-98686253D01*
X163243727Y-98642049D01*
X163201697Y-98540577D01*
X163201690Y-98540564D01*
X163114089Y-98409461D01*
X163114086Y-98409457D01*
X163002592Y-98297963D01*
X163002588Y-98297960D01*
X162871485Y-98210359D01*
X162871472Y-98210352D01*
X162725801Y-98150014D01*
X162725789Y-98150011D01*
X162571145Y-98119250D01*
X162571142Y-98119250D01*
X162413458Y-98119250D01*
X162413455Y-98119250D01*
X162258810Y-98150011D01*
X162258798Y-98150014D01*
X162113127Y-98210352D01*
X162113114Y-98210359D01*
X161982011Y-98297960D01*
X161982007Y-98297963D01*
X161870513Y-98409457D01*
X161870510Y-98409461D01*
X161782909Y-98540564D01*
X161782902Y-98540577D01*
X161722564Y-98686248D01*
X161722561Y-98686260D01*
X161691800Y-98840903D01*
X126267630Y-98840903D01*
X126418412Y-98731354D01*
X126574289Y-98575477D01*
X126703862Y-98397134D01*
X126803942Y-98200718D01*
X126872062Y-97991063D01*
X126906547Y-97773334D01*
X126906547Y-97552890D01*
X126872062Y-97335161D01*
X126818304Y-97169707D01*
X126803943Y-97125508D01*
X126803942Y-97125505D01*
X126756425Y-97032250D01*
X126703862Y-96929090D01*
X126656257Y-96863567D01*
X126574294Y-96750753D01*
X126574290Y-96750748D01*
X126418410Y-96594868D01*
X126418405Y-96594864D01*
X126240072Y-96465299D01*
X126240071Y-96465298D01*
X126240069Y-96465297D01*
X126089537Y-96388596D01*
X126081099Y-96380627D01*
X126070278Y-96376435D01*
X126056161Y-96357074D01*
X126038742Y-96340622D01*
X126035952Y-96329356D01*
X126029114Y-96319978D01*
X126027706Y-96296057D01*
X126021947Y-96272801D01*
X126025690Y-96261815D01*
X126025009Y-96250229D01*
X126036755Y-96229346D01*
X126044485Y-96206666D01*
X126054449Y-96197891D01*
X126058240Y-96191153D01*
X127129500Y-96191153D01*
X127129500Y-96348846D01*
X127160261Y-96503489D01*
X127160264Y-96503501D01*
X127220602Y-96649172D01*
X127220609Y-96649185D01*
X127308210Y-96780288D01*
X127308213Y-96780292D01*
X127402096Y-96874175D01*
X127435581Y-96935498D01*
X127430597Y-97005190D01*
X127417518Y-97030746D01*
X127330608Y-97160816D01*
X127330602Y-97160827D01*
X127270264Y-97306498D01*
X127270261Y-97306510D01*
X127239500Y-97461153D01*
X127239500Y-97618846D01*
X127270261Y-97773489D01*
X127270264Y-97773501D01*
X127330602Y-97919172D01*
X127330609Y-97919185D01*
X127418210Y-98050288D01*
X127418213Y-98050292D01*
X127529707Y-98161786D01*
X127529711Y-98161789D01*
X127660814Y-98249390D01*
X127660827Y-98249397D01*
X127806498Y-98309735D01*
X127806503Y-98309737D01*
X127961153Y-98340499D01*
X127961156Y-98340500D01*
X127961158Y-98340500D01*
X128118844Y-98340500D01*
X128118845Y-98340499D01*
X128273497Y-98309737D01*
X128419179Y-98249394D01*
X128550289Y-98161789D01*
X128661789Y-98050289D01*
X128749394Y-97919179D01*
X128809737Y-97773497D01*
X128840500Y-97618842D01*
X128840500Y-97601153D01*
X143149500Y-97601153D01*
X143149500Y-97758846D01*
X143180261Y-97913489D01*
X143180264Y-97913501D01*
X143240602Y-98059172D01*
X143240609Y-98059185D01*
X143328210Y-98190288D01*
X143328213Y-98190292D01*
X143439707Y-98301786D01*
X143439711Y-98301789D01*
X143570814Y-98389390D01*
X143570827Y-98389397D01*
X143716498Y-98449735D01*
X143716503Y-98449737D01*
X143871153Y-98480499D01*
X143871156Y-98480500D01*
X143871158Y-98480500D01*
X144028844Y-98480500D01*
X144028845Y-98480499D01*
X144183497Y-98449737D01*
X144329179Y-98389394D01*
X144460289Y-98301789D01*
X144571789Y-98190289D01*
X144659394Y-98059179D01*
X144719737Y-97913497D01*
X144750500Y-97758842D01*
X144750500Y-97601158D01*
X144750500Y-97601155D01*
X144750499Y-97601153D01*
X144740899Y-97552890D01*
X144719737Y-97446503D01*
X144699393Y-97397388D01*
X144659397Y-97300827D01*
X144659390Y-97300814D01*
X144571790Y-97169712D01*
X144562892Y-97160814D01*
X144549758Y-97147680D01*
X144516274Y-97086360D01*
X144521257Y-97016669D01*
X144549760Y-96972318D01*
X144581786Y-96940292D01*
X144581789Y-96940289D01*
X144669394Y-96809179D01*
X144729737Y-96663497D01*
X144760500Y-96508842D01*
X144760500Y-96351158D01*
X144760500Y-96351155D01*
X144760499Y-96351153D01*
X144752349Y-96310181D01*
X144729737Y-96196503D01*
X144711678Y-96152903D01*
X172869500Y-96152903D01*
X172869500Y-96310596D01*
X172900261Y-96465239D01*
X172900264Y-96465251D01*
X172960602Y-96610922D01*
X172960609Y-96610935D01*
X173048210Y-96742038D01*
X173048213Y-96742042D01*
X173159707Y-96853536D01*
X173159711Y-96853539D01*
X173290814Y-96941140D01*
X173290827Y-96941147D01*
X173366082Y-96972318D01*
X173436503Y-97001487D01*
X173578374Y-97029707D01*
X173591153Y-97032249D01*
X173591156Y-97032250D01*
X173591158Y-97032250D01*
X173748844Y-97032250D01*
X173748845Y-97032249D01*
X173903497Y-97001487D01*
X174049179Y-96941144D01*
X174180289Y-96853539D01*
X174291789Y-96742039D01*
X174379394Y-96610929D01*
X174439737Y-96465247D01*
X174470500Y-96310592D01*
X174470500Y-96152908D01*
X174470500Y-96152905D01*
X174470499Y-96152903D01*
X174458171Y-96090926D01*
X174439737Y-95998253D01*
X174435367Y-95987703D01*
X174379397Y-95852577D01*
X174379390Y-95852564D01*
X174291789Y-95721461D01*
X174291786Y-95721457D01*
X174180292Y-95609963D01*
X174180288Y-95609960D01*
X174049185Y-95522359D01*
X174049172Y-95522352D01*
X173903501Y-95462014D01*
X173903489Y-95462011D01*
X173748845Y-95431250D01*
X173748842Y-95431250D01*
X173591158Y-95431250D01*
X173591155Y-95431250D01*
X173436510Y-95462011D01*
X173436498Y-95462014D01*
X173290827Y-95522352D01*
X173290814Y-95522359D01*
X173159711Y-95609960D01*
X173159707Y-95609963D01*
X173048213Y-95721457D01*
X173048210Y-95721461D01*
X172960609Y-95852564D01*
X172960602Y-95852577D01*
X172900264Y-95998248D01*
X172900261Y-95998260D01*
X172869500Y-96152903D01*
X144711678Y-96152903D01*
X144701193Y-96127590D01*
X144669397Y-96050827D01*
X144669390Y-96050814D01*
X144581789Y-95919711D01*
X144581786Y-95919707D01*
X144470292Y-95808213D01*
X144470288Y-95808210D01*
X144339185Y-95720609D01*
X144339172Y-95720602D01*
X144193501Y-95660264D01*
X144193489Y-95660261D01*
X144038845Y-95629500D01*
X144038842Y-95629500D01*
X143881158Y-95629500D01*
X143881155Y-95629500D01*
X143726510Y-95660261D01*
X143726498Y-95660264D01*
X143580827Y-95720602D01*
X143580814Y-95720609D01*
X143449711Y-95808210D01*
X143449707Y-95808213D01*
X143338213Y-95919707D01*
X143338210Y-95919711D01*
X143250609Y-96050814D01*
X143250602Y-96050827D01*
X143190264Y-96196498D01*
X143190261Y-96196510D01*
X143159500Y-96351153D01*
X143159500Y-96508846D01*
X143190261Y-96663489D01*
X143190264Y-96663501D01*
X143250602Y-96809172D01*
X143250609Y-96809185D01*
X143338210Y-96940288D01*
X143338213Y-96940292D01*
X143360240Y-96962319D01*
X143393725Y-97023642D01*
X143388741Y-97093334D01*
X143360240Y-97137681D01*
X143328213Y-97169707D01*
X143328210Y-97169711D01*
X143240609Y-97300814D01*
X143240602Y-97300827D01*
X143180264Y-97446498D01*
X143180261Y-97446510D01*
X143149500Y-97601153D01*
X128840500Y-97601153D01*
X128840500Y-97461158D01*
X128840500Y-97461155D01*
X128840499Y-97461153D01*
X128818659Y-97351359D01*
X128809737Y-97306503D01*
X128807386Y-97300827D01*
X128749397Y-97160827D01*
X128749390Y-97160814D01*
X128661789Y-97029711D01*
X128661786Y-97029707D01*
X128567903Y-96935824D01*
X128534418Y-96874501D01*
X128539402Y-96804809D01*
X128552482Y-96779252D01*
X128639390Y-96649185D01*
X128639390Y-96649184D01*
X128639394Y-96649179D01*
X128699737Y-96503497D01*
X128730500Y-96348842D01*
X128730500Y-96191158D01*
X128730500Y-96191155D01*
X128730499Y-96191153D01*
X128726001Y-96168540D01*
X128699737Y-96036503D01*
X128699735Y-96036498D01*
X128639397Y-95890827D01*
X128639390Y-95890814D01*
X128551789Y-95759711D01*
X128551786Y-95759707D01*
X128440292Y-95648213D01*
X128440288Y-95648210D01*
X128309185Y-95560609D01*
X128309172Y-95560602D01*
X128163501Y-95500264D01*
X128163489Y-95500261D01*
X128008845Y-95469500D01*
X128008842Y-95469500D01*
X127851158Y-95469500D01*
X127851155Y-95469500D01*
X127696510Y-95500261D01*
X127696498Y-95500264D01*
X127550827Y-95560602D01*
X127550814Y-95560609D01*
X127419711Y-95648210D01*
X127419707Y-95648213D01*
X127308213Y-95759707D01*
X127308210Y-95759711D01*
X127220609Y-95890814D01*
X127220602Y-95890827D01*
X127160264Y-96036498D01*
X127160261Y-96036510D01*
X127129500Y-96191153D01*
X126058240Y-96191153D01*
X126059264Y-96189333D01*
X126085666Y-96170402D01*
X126087782Y-96168540D01*
X126088674Y-96168067D01*
X126240069Y-96090927D01*
X126258487Y-96077546D01*
X126418405Y-95961359D01*
X126418403Y-95961359D01*
X126418412Y-95961354D01*
X126574289Y-95805477D01*
X126703862Y-95627134D01*
X126803942Y-95430718D01*
X126872062Y-95221063D01*
X126906547Y-95003334D01*
X126906547Y-94782890D01*
X126872062Y-94565161D01*
X126838002Y-94460333D01*
X126803943Y-94355508D01*
X126803942Y-94355505D01*
X126703862Y-94159090D01*
X126703856Y-94159081D01*
X126664191Y-94104486D01*
X127119500Y-94104486D01*
X127119500Y-94262179D01*
X127150261Y-94416822D01*
X127150264Y-94416834D01*
X127210602Y-94562505D01*
X127210609Y-94562518D01*
X127298210Y-94693621D01*
X127298213Y-94693625D01*
X127409707Y-94805119D01*
X127409711Y-94805122D01*
X127540814Y-94892723D01*
X127540827Y-94892730D01*
X127686498Y-94953068D01*
X127686503Y-94953070D01*
X127841153Y-94983832D01*
X127841156Y-94983833D01*
X127841158Y-94983833D01*
X127998844Y-94983833D01*
X127998845Y-94983832D01*
X128153497Y-94953070D01*
X128299179Y-94892727D01*
X128430289Y-94805122D01*
X128541789Y-94693622D01*
X128629394Y-94562512D01*
X128689737Y-94416830D01*
X128690866Y-94411153D01*
X157167000Y-94411153D01*
X157167000Y-94568846D01*
X157197761Y-94723489D01*
X157197764Y-94723501D01*
X157258102Y-94869172D01*
X157258109Y-94869185D01*
X157345710Y-95000288D01*
X157345713Y-95000292D01*
X157457207Y-95111786D01*
X157457211Y-95111789D01*
X157588314Y-95199390D01*
X157588327Y-95199397D01*
X157640637Y-95221064D01*
X157734003Y-95259737D01*
X157888653Y-95290499D01*
X157888656Y-95290500D01*
X157888658Y-95290500D01*
X158046344Y-95290500D01*
X158046345Y-95290499D01*
X158200997Y-95259737D01*
X158346679Y-95199394D01*
X158477789Y-95111789D01*
X158589289Y-95000289D01*
X158676894Y-94869179D01*
X158737237Y-94723497D01*
X158768000Y-94568842D01*
X158768000Y-94411158D01*
X158768000Y-94411155D01*
X158767999Y-94411153D01*
X158745769Y-94299397D01*
X158737237Y-94256503D01*
X158696884Y-94159081D01*
X158676897Y-94110827D01*
X158676890Y-94110814D01*
X158589289Y-93979711D01*
X158589286Y-93979707D01*
X158477792Y-93868213D01*
X158477788Y-93868210D01*
X158346685Y-93780609D01*
X158346672Y-93780602D01*
X158201001Y-93720264D01*
X158200989Y-93720261D01*
X158046345Y-93689500D01*
X158046342Y-93689500D01*
X157888658Y-93689500D01*
X157888655Y-93689500D01*
X157734010Y-93720261D01*
X157733998Y-93720264D01*
X157588327Y-93780602D01*
X157588314Y-93780609D01*
X157457211Y-93868210D01*
X157457207Y-93868213D01*
X157345713Y-93979707D01*
X157345710Y-93979711D01*
X157258109Y-94110814D01*
X157258102Y-94110827D01*
X157197764Y-94256498D01*
X157197761Y-94256510D01*
X157167000Y-94411153D01*
X128690866Y-94411153D01*
X128714397Y-94292855D01*
X128720500Y-94262177D01*
X128720500Y-94104488D01*
X128720499Y-94104486D01*
X128707551Y-94039394D01*
X128689737Y-93949836D01*
X128689735Y-93949831D01*
X128629397Y-93804160D01*
X128629390Y-93804147D01*
X128541789Y-93673044D01*
X128541786Y-93673040D01*
X128430292Y-93561546D01*
X128430288Y-93561543D01*
X128299185Y-93473942D01*
X128299172Y-93473935D01*
X128153501Y-93413597D01*
X128153489Y-93413594D01*
X127998845Y-93382833D01*
X127998842Y-93382833D01*
X127841158Y-93382833D01*
X127841155Y-93382833D01*
X127686510Y-93413594D01*
X127686498Y-93413597D01*
X127540827Y-93473935D01*
X127540814Y-93473942D01*
X127409711Y-93561543D01*
X127409707Y-93561546D01*
X127298213Y-93673040D01*
X127298210Y-93673044D01*
X127210609Y-93804147D01*
X127210602Y-93804160D01*
X127150264Y-93949831D01*
X127150261Y-93949843D01*
X127119500Y-94104486D01*
X126664191Y-94104486D01*
X126574294Y-93980753D01*
X126574290Y-93980748D01*
X126418410Y-93824868D01*
X126418405Y-93824864D01*
X126240072Y-93695299D01*
X126240071Y-93695298D01*
X126240069Y-93695297D01*
X126177143Y-93663234D01*
X126043653Y-93595216D01*
X126043650Y-93595215D01*
X125833999Y-93527097D01*
X125725133Y-93509854D01*
X125616269Y-93492612D01*
X125395825Y-93492612D01*
X125323248Y-93504107D01*
X125178094Y-93527097D01*
X124968443Y-93595215D01*
X124968440Y-93595216D01*
X124772021Y-93695299D01*
X124593688Y-93824864D01*
X124593683Y-93824868D01*
X124437803Y-93980748D01*
X124437799Y-93980753D01*
X124308234Y-94159086D01*
X124208151Y-94355505D01*
X124208150Y-94355508D01*
X124140032Y-94565159D01*
X124105547Y-94782890D01*
X124105547Y-95003333D01*
X124140032Y-95221064D01*
X124208150Y-95430715D01*
X124208151Y-95430718D01*
X124254842Y-95522352D01*
X124299481Y-95609960D01*
X124308234Y-95627137D01*
X124437799Y-95805470D01*
X124437803Y-95805475D01*
X124593683Y-95961355D01*
X124593688Y-95961359D01*
X124772023Y-96090926D01*
X124922556Y-96167628D01*
X124973351Y-96215602D01*
X124990146Y-96283423D01*
X124967608Y-96349558D01*
X124922556Y-96388596D01*
X124772023Y-96465297D01*
X124593688Y-96594864D01*
X124593683Y-96594868D01*
X124437803Y-96750748D01*
X124437799Y-96750753D01*
X124308234Y-96929086D01*
X124208151Y-97125505D01*
X124208150Y-97125508D01*
X124140032Y-97335159D01*
X124140032Y-97335161D01*
X124105547Y-97552890D01*
X124105547Y-97773334D01*
X124106381Y-97778597D01*
X124140032Y-97991064D01*
X124208150Y-98200715D01*
X124208151Y-98200718D01*
X124263701Y-98309738D01*
X124304288Y-98389394D01*
X124308234Y-98397137D01*
X124437799Y-98575470D01*
X124437803Y-98575475D01*
X124593683Y-98731355D01*
X124593688Y-98731359D01*
X124772023Y-98860926D01*
X124922556Y-98937628D01*
X124973351Y-98985602D01*
X124990146Y-99053423D01*
X124967608Y-99119558D01*
X124922556Y-99158596D01*
X124772023Y-99235297D01*
X124593688Y-99364864D01*
X124593683Y-99364868D01*
X124437803Y-99520748D01*
X124437799Y-99520753D01*
X124308234Y-99699086D01*
X124208151Y-99895505D01*
X124208150Y-99895508D01*
X124140032Y-100105159D01*
X124118630Y-100240288D01*
X124105547Y-100322890D01*
X124105547Y-100543334D01*
X124109526Y-100568456D01*
X124140032Y-100761064D01*
X124208150Y-100970715D01*
X124208151Y-100970718D01*
X124268464Y-101089086D01*
X124294540Y-101140263D01*
X124308234Y-101167137D01*
X124437799Y-101345470D01*
X124437803Y-101345475D01*
X124593683Y-101501355D01*
X124593688Y-101501359D01*
X124772023Y-101630926D01*
X124922556Y-101707628D01*
X124973351Y-101755602D01*
X124990146Y-101823423D01*
X124967608Y-101889558D01*
X124922556Y-101928596D01*
X124772023Y-102005297D01*
X124593688Y-102134864D01*
X124593683Y-102134868D01*
X124437803Y-102290748D01*
X124437799Y-102290753D01*
X124308234Y-102469086D01*
X124208151Y-102665505D01*
X124208150Y-102665508D01*
X124140032Y-102875159D01*
X124105547Y-103092890D01*
X124105547Y-103313333D01*
X124140032Y-103531064D01*
X124208150Y-103740715D01*
X124208151Y-103740718D01*
X124268596Y-103859345D01*
X124303686Y-103928213D01*
X124308234Y-103937137D01*
X124437799Y-104115470D01*
X124437803Y-104115475D01*
X124437805Y-104115477D01*
X124593682Y-104271354D01*
X124699582Y-104348294D01*
X124742247Y-104403623D01*
X124748226Y-104473236D01*
X124715621Y-104535032D01*
X124654782Y-104569389D01*
X124626698Y-104572612D01*
X124558177Y-104572612D01*
X124558170Y-104572613D01*
X124498563Y-104579020D01*
X124363718Y-104629314D01*
X124363711Y-104629318D01*
X124264358Y-104703695D01*
X124198894Y-104728113D01*
X124130621Y-104713262D01*
X124081215Y-104663857D01*
X124066047Y-104604429D01*
X124066047Y-104482930D01*
X124031573Y-104265276D01*
X123963479Y-104055701D01*
X123863435Y-103859355D01*
X123817113Y-103795597D01*
X123817112Y-103795597D01*
X123189844Y-104422866D01*
X123178577Y-104380815D01*
X123106166Y-104255397D01*
X123003762Y-104152993D01*
X122878344Y-104080582D01*
X122836290Y-104069313D01*
X123463560Y-103442044D01*
X123399803Y-103395723D01*
X123248986Y-103318878D01*
X123198190Y-103270903D01*
X123181395Y-103203082D01*
X123203932Y-103136948D01*
X123248984Y-103097909D01*
X123400069Y-103020927D01*
X123578412Y-102891354D01*
X123734289Y-102735477D01*
X123863862Y-102557134D01*
X123963942Y-102360718D01*
X124032062Y-102151063D01*
X124066547Y-101933334D01*
X124066547Y-101712890D01*
X124032062Y-101495161D01*
X123988342Y-101360602D01*
X123963943Y-101285508D01*
X123963942Y-101285505D01*
X123903629Y-101167137D01*
X123863862Y-101089090D01*
X123803475Y-101005974D01*
X123734294Y-100910753D01*
X123734290Y-100910748D01*
X123578410Y-100754868D01*
X123578405Y-100754864D01*
X123400072Y-100625299D01*
X123400071Y-100625298D01*
X123400069Y-100625297D01*
X123249537Y-100548596D01*
X123198742Y-100500622D01*
X123181947Y-100432801D01*
X123204485Y-100366666D01*
X123249538Y-100327627D01*
X123253022Y-100325852D01*
X123400069Y-100250927D01*
X123578412Y-100121354D01*
X123734289Y-99965477D01*
X123863862Y-99787134D01*
X123963942Y-99590718D01*
X124032062Y-99381063D01*
X124066547Y-99163334D01*
X124066547Y-98942890D01*
X124032062Y-98725161D01*
X123984982Y-98580261D01*
X123963943Y-98515508D01*
X123963942Y-98515505D01*
X123909909Y-98409461D01*
X123863862Y-98319090D01*
X123847307Y-98296304D01*
X123734294Y-98140753D01*
X123734290Y-98140748D01*
X123578410Y-97984868D01*
X123578405Y-97984864D01*
X123400072Y-97855299D01*
X123400071Y-97855298D01*
X123400069Y-97855297D01*
X123249537Y-97778596D01*
X123198742Y-97730622D01*
X123181947Y-97662801D01*
X123204485Y-97596666D01*
X123249538Y-97557627D01*
X123258835Y-97552890D01*
X123400069Y-97480927D01*
X123578412Y-97351354D01*
X123734289Y-97195477D01*
X123863862Y-97017134D01*
X123963942Y-96820718D01*
X124032062Y-96611063D01*
X124066547Y-96393334D01*
X124066547Y-96172890D01*
X124032062Y-95955161D01*
X123990578Y-95827483D01*
X123963943Y-95745508D01*
X123963942Y-95745505D01*
X123921693Y-95662589D01*
X123863862Y-95549090D01*
X123814550Y-95481217D01*
X123734294Y-95370753D01*
X123734290Y-95370748D01*
X123578410Y-95214868D01*
X123578405Y-95214864D01*
X123400072Y-95085299D01*
X123400071Y-95085298D01*
X123400069Y-95085297D01*
X123337143Y-95053234D01*
X123203653Y-94985216D01*
X123203650Y-94985215D01*
X122993999Y-94917097D01*
X122840107Y-94892723D01*
X122776269Y-94882612D01*
X122555825Y-94882612D01*
X122491987Y-94892723D01*
X122338094Y-94917097D01*
X122128443Y-94985215D01*
X122128440Y-94985216D01*
X121932021Y-95085299D01*
X121753688Y-95214864D01*
X121753683Y-95214868D01*
X121597803Y-95370748D01*
X121597799Y-95370753D01*
X121468234Y-95549086D01*
X121368151Y-95745505D01*
X121368150Y-95745508D01*
X121300032Y-95955159D01*
X121266987Y-96163796D01*
X121265547Y-96172890D01*
X115036547Y-96172890D01*
X115036547Y-91957820D01*
X127119500Y-91957820D01*
X127119500Y-92115513D01*
X127150261Y-92270156D01*
X127150264Y-92270168D01*
X127210602Y-92415839D01*
X127210609Y-92415852D01*
X127298210Y-92546955D01*
X127298213Y-92546959D01*
X127409707Y-92658453D01*
X127409711Y-92658456D01*
X127540814Y-92746057D01*
X127540827Y-92746064D01*
X127686498Y-92806402D01*
X127686503Y-92806404D01*
X127841153Y-92837166D01*
X127841156Y-92837167D01*
X127841158Y-92837167D01*
X127998844Y-92837167D01*
X127998845Y-92837166D01*
X128104485Y-92816153D01*
X129219500Y-92816153D01*
X129219500Y-92973846D01*
X129250261Y-93128489D01*
X129250264Y-93128501D01*
X129310602Y-93274172D01*
X129310609Y-93274185D01*
X129398210Y-93405288D01*
X129398213Y-93405292D01*
X129509707Y-93516786D01*
X129509711Y-93516789D01*
X129640814Y-93604390D01*
X129640827Y-93604397D01*
X129786498Y-93664735D01*
X129786503Y-93664737D01*
X129912176Y-93689735D01*
X129941153Y-93695499D01*
X129941156Y-93695500D01*
X129941158Y-93695500D01*
X130098844Y-93695500D01*
X130098845Y-93695499D01*
X130253497Y-93664737D01*
X130399179Y-93604394D01*
X130530289Y-93516789D01*
X130641789Y-93405289D01*
X130729394Y-93274179D01*
X130789737Y-93128497D01*
X130820500Y-92973842D01*
X130820500Y-92841153D01*
X134209500Y-92841153D01*
X134209500Y-92998846D01*
X134240261Y-93153489D01*
X134240264Y-93153501D01*
X134300602Y-93299172D01*
X134300609Y-93299185D01*
X134388210Y-93430288D01*
X134388213Y-93430292D01*
X134499707Y-93541786D01*
X134499711Y-93541789D01*
X134630814Y-93629390D01*
X134630827Y-93629397D01*
X134775931Y-93689500D01*
X134776503Y-93689737D01*
X134929967Y-93720263D01*
X134931153Y-93720499D01*
X134931156Y-93720500D01*
X134931158Y-93720500D01*
X135088844Y-93720500D01*
X135088845Y-93720499D01*
X135243497Y-93689737D01*
X135389179Y-93629394D01*
X135520289Y-93541789D01*
X135631789Y-93430289D01*
X135719394Y-93299179D01*
X135779737Y-93153497D01*
X135810500Y-92998842D01*
X135810500Y-92841158D01*
X135810500Y-92841155D01*
X135804155Y-92809258D01*
X135804155Y-92809257D01*
X135800554Y-92791153D01*
X141389500Y-92791153D01*
X141389500Y-92948846D01*
X141420261Y-93103489D01*
X141420264Y-93103501D01*
X141480602Y-93249172D01*
X141480609Y-93249185D01*
X141568210Y-93380288D01*
X141568213Y-93380292D01*
X141679707Y-93491786D01*
X141679711Y-93491789D01*
X141810814Y-93579390D01*
X141810827Y-93579397D01*
X141956498Y-93639735D01*
X141956503Y-93639737D01*
X142082176Y-93664735D01*
X142111153Y-93670499D01*
X142111156Y-93670500D01*
X142111158Y-93670500D01*
X142268844Y-93670500D01*
X142268845Y-93670499D01*
X142423497Y-93639737D01*
X142569179Y-93579394D01*
X142700289Y-93491789D01*
X142811789Y-93380289D01*
X142899394Y-93249179D01*
X142910938Y-93221306D01*
X142954779Y-93166904D01*
X143021072Y-93144838D01*
X143088772Y-93162116D01*
X143136383Y-93213253D01*
X143149500Y-93268759D01*
X143149500Y-93408846D01*
X143180261Y-93563489D01*
X143180264Y-93563501D01*
X143240602Y-93709172D01*
X143240609Y-93709185D01*
X143328210Y-93840288D01*
X143328213Y-93840292D01*
X143439707Y-93951786D01*
X143439711Y-93951789D01*
X143570814Y-94039390D01*
X143570827Y-94039397D01*
X143716498Y-94099735D01*
X143716503Y-94099737D01*
X143871153Y-94130499D01*
X143871156Y-94130500D01*
X143871158Y-94130500D01*
X144028844Y-94130500D01*
X144028845Y-94130499D01*
X144183497Y-94099737D01*
X144329179Y-94039394D01*
X144460289Y-93951789D01*
X144571789Y-93840289D01*
X144659394Y-93709179D01*
X144719737Y-93563497D01*
X144730149Y-93511153D01*
X172879500Y-93511153D01*
X172879500Y-93668846D01*
X172910261Y-93823489D01*
X172910264Y-93823501D01*
X172970602Y-93969172D01*
X172970609Y-93969185D01*
X173058210Y-94100288D01*
X173058213Y-94100292D01*
X173169707Y-94211786D01*
X173169711Y-94211789D01*
X173300814Y-94299390D01*
X173300827Y-94299397D01*
X173436286Y-94355505D01*
X173446503Y-94359737D01*
X173601153Y-94390499D01*
X173601156Y-94390500D01*
X173601158Y-94390500D01*
X173758844Y-94390500D01*
X173758845Y-94390499D01*
X173913497Y-94359737D01*
X174059179Y-94299394D01*
X174190289Y-94211789D01*
X174301789Y-94100289D01*
X174389394Y-93969179D01*
X174429591Y-93872135D01*
X178479500Y-93872135D01*
X178479500Y-95767870D01*
X178479501Y-95767876D01*
X178485908Y-95827483D01*
X178536202Y-95962328D01*
X178536206Y-95962335D01*
X178622452Y-96077544D01*
X178622455Y-96077547D01*
X178737664Y-96163793D01*
X178737671Y-96163797D01*
X178762051Y-96172890D01*
X178872517Y-96214091D01*
X178932127Y-96220500D01*
X179000649Y-96220499D01*
X179067686Y-96240183D01*
X179113442Y-96292986D01*
X179123386Y-96362144D01*
X179094362Y-96425700D01*
X179073534Y-96444817D01*
X178967636Y-96521756D01*
X178811756Y-96677636D01*
X178811752Y-96677641D01*
X178682187Y-96855974D01*
X178582104Y-97052393D01*
X178582103Y-97052396D01*
X178513985Y-97262047D01*
X178479500Y-97479778D01*
X178479500Y-97700221D01*
X178513985Y-97917952D01*
X178582103Y-98127603D01*
X178582104Y-98127606D01*
X178624270Y-98210359D01*
X178674906Y-98309737D01*
X178682187Y-98324025D01*
X178811752Y-98502358D01*
X178811756Y-98502363D01*
X178967636Y-98658243D01*
X178967641Y-98658247D01*
X179145976Y-98787814D01*
X179296509Y-98864516D01*
X179347304Y-98912490D01*
X179364099Y-98980311D01*
X179341561Y-99046446D01*
X179296509Y-99085484D01*
X179145976Y-99162185D01*
X178967641Y-99291752D01*
X178967636Y-99291756D01*
X178811756Y-99447636D01*
X178811752Y-99447641D01*
X178682187Y-99625974D01*
X178582104Y-99822393D01*
X178582103Y-99822396D01*
X178513985Y-100032047D01*
X178495224Y-100150499D01*
X178479500Y-100249778D01*
X178479500Y-100470222D01*
X178484175Y-100499737D01*
X178513985Y-100687952D01*
X178582103Y-100897603D01*
X178582104Y-100897606D01*
X178682187Y-101094025D01*
X178811752Y-101272358D01*
X178811756Y-101272363D01*
X178967636Y-101428243D01*
X178967641Y-101428247D01*
X179145976Y-101557814D01*
X179296509Y-101634516D01*
X179347304Y-101682490D01*
X179364099Y-101750311D01*
X179341561Y-101816446D01*
X179296509Y-101855484D01*
X179145976Y-101932185D01*
X178967641Y-102061752D01*
X178967636Y-102061756D01*
X178811756Y-102217636D01*
X178811752Y-102217641D01*
X178682187Y-102395974D01*
X178582104Y-102592393D01*
X178582103Y-102592396D01*
X178513985Y-102802047D01*
X178492909Y-102935119D01*
X178479500Y-103019778D01*
X178479500Y-103240222D01*
X178485775Y-103279839D01*
X178513985Y-103457952D01*
X178582103Y-103667603D01*
X178582104Y-103667606D01*
X178636437Y-103774238D01*
X178670255Y-103840609D01*
X178682187Y-103864025D01*
X178811752Y-104042358D01*
X178811756Y-104042363D01*
X178967636Y-104198243D01*
X178967641Y-104198247D01*
X179145976Y-104327814D01*
X179296509Y-104404516D01*
X179347304Y-104452490D01*
X179364099Y-104520311D01*
X179341561Y-104586446D01*
X179296509Y-104625484D01*
X179145976Y-104702185D01*
X178967641Y-104831752D01*
X178967636Y-104831756D01*
X178811756Y-104987636D01*
X178811752Y-104987641D01*
X178682187Y-105165974D01*
X178582104Y-105362393D01*
X178582103Y-105362396D01*
X178513985Y-105572047D01*
X178486722Y-105744178D01*
X178479500Y-105789778D01*
X178479500Y-106010222D01*
X178483187Y-106033501D01*
X178513985Y-106227952D01*
X178582103Y-106437603D01*
X178582104Y-106437606D01*
X178649415Y-106569707D01*
X178659620Y-106589737D01*
X178682187Y-106634025D01*
X178811752Y-106812358D01*
X178811756Y-106812363D01*
X178967636Y-106968243D01*
X178967641Y-106968247D01*
X179102880Y-107066503D01*
X179145978Y-107097815D01*
X179225263Y-107138213D01*
X179342393Y-107197895D01*
X179342396Y-107197896D01*
X179443230Y-107230658D01*
X179552049Y-107266015D01*
X179769778Y-107300500D01*
X179769779Y-107300500D01*
X179990221Y-107300500D01*
X179990222Y-107300500D01*
X180207951Y-107266015D01*
X180417606Y-107197895D01*
X180614022Y-107097815D01*
X180792365Y-106968242D01*
X180948242Y-106812365D01*
X181077815Y-106634022D01*
X181177895Y-106437606D01*
X181246015Y-106227951D01*
X181280500Y-106010222D01*
X181280500Y-105789778D01*
X181246015Y-105572049D01*
X181203375Y-105440814D01*
X181177896Y-105362396D01*
X181177895Y-105362393D01*
X181117582Y-105244025D01*
X181077815Y-105165978D01*
X181023057Y-105090609D01*
X180948247Y-104987641D01*
X180948243Y-104987636D01*
X180792363Y-104831756D01*
X180792358Y-104831752D01*
X180614025Y-104702187D01*
X180614024Y-104702186D01*
X180614022Y-104702185D01*
X180463490Y-104625484D01*
X180412695Y-104577510D01*
X180395900Y-104509689D01*
X180418438Y-104443554D01*
X180463491Y-104404515D01*
X180472788Y-104399778D01*
X180614022Y-104327815D01*
X180792365Y-104198242D01*
X180948242Y-104042365D01*
X181077815Y-103864022D01*
X181177895Y-103667606D01*
X181246015Y-103457951D01*
X181280500Y-103240222D01*
X181280500Y-103019778D01*
X181246015Y-102802049D01*
X181206274Y-102679737D01*
X181177896Y-102592396D01*
X181177895Y-102592393D01*
X181117582Y-102474025D01*
X181077815Y-102395978D01*
X181001365Y-102290753D01*
X180948247Y-102217641D01*
X180948243Y-102217636D01*
X180792363Y-102061756D01*
X180792358Y-102061752D01*
X180614025Y-101932187D01*
X180614024Y-101932186D01*
X180614022Y-101932185D01*
X180463490Y-101855484D01*
X180412695Y-101807510D01*
X180395900Y-101739689D01*
X180418438Y-101673554D01*
X180463491Y-101634515D01*
X180472788Y-101629778D01*
X180614022Y-101557815D01*
X180792365Y-101428242D01*
X180948242Y-101272365D01*
X181077815Y-101094022D01*
X181177895Y-100897606D01*
X181246015Y-100687951D01*
X181280500Y-100470222D01*
X181280500Y-100249778D01*
X181246015Y-100032049D01*
X181201650Y-99895505D01*
X181177896Y-99822396D01*
X181177895Y-99822393D01*
X181130399Y-99729179D01*
X181077815Y-99625978D01*
X181001365Y-99520753D01*
X180948247Y-99447641D01*
X180948243Y-99447636D01*
X180792363Y-99291756D01*
X180792358Y-99291752D01*
X180614025Y-99162187D01*
X180614024Y-99162186D01*
X180614022Y-99162185D01*
X180463490Y-99085484D01*
X180456245Y-99078641D01*
X180446861Y-99075289D01*
X180431268Y-99055051D01*
X180412695Y-99037510D01*
X180410299Y-99027837D01*
X180404217Y-99019943D01*
X180402040Y-98994484D01*
X180395900Y-98969689D01*
X180399114Y-98960257D01*
X180398265Y-98950327D01*
X180410197Y-98927734D01*
X180418438Y-98903554D01*
X180427111Y-98895709D01*
X180430896Y-98888545D01*
X180453286Y-98872037D01*
X180458854Y-98867003D01*
X180461142Y-98865711D01*
X180614022Y-98787815D01*
X180665516Y-98750403D01*
X180792359Y-98658247D01*
X180792361Y-98658244D01*
X180792365Y-98658242D01*
X180948242Y-98502365D01*
X181077815Y-98324022D01*
X181177895Y-98127606D01*
X181246015Y-97917951D01*
X181280500Y-97700222D01*
X181280500Y-97479778D01*
X181246015Y-97262049D01*
X181188931Y-97086360D01*
X181177896Y-97052396D01*
X181177895Y-97052393D01*
X181121211Y-96941147D01*
X181077815Y-96855978D01*
X181022824Y-96780289D01*
X180948247Y-96677641D01*
X180948243Y-96677636D01*
X180792359Y-96521752D01*
X180686465Y-96444817D01*
X180643799Y-96389488D01*
X180637820Y-96319874D01*
X180670425Y-96258079D01*
X180731264Y-96223722D01*
X180759350Y-96220499D01*
X180827871Y-96220499D01*
X180827872Y-96220499D01*
X180887483Y-96214091D01*
X181022331Y-96163796D01*
X181121691Y-96089414D01*
X181187152Y-96064998D01*
X181255425Y-96079849D01*
X181304831Y-96129253D01*
X181320000Y-96188682D01*
X181320000Y-96310181D01*
X181354473Y-96527835D01*
X181422567Y-96737410D01*
X181522611Y-96933756D01*
X181568932Y-96997513D01*
X182196202Y-96370243D01*
X182207470Y-96412297D01*
X182279881Y-96537715D01*
X182382285Y-96640119D01*
X182507703Y-96712530D01*
X182549754Y-96723797D01*
X181922485Y-97351065D01*
X181922485Y-97351066D01*
X181986243Y-97397388D01*
X182137060Y-97474233D01*
X182187856Y-97522207D01*
X182204651Y-97590028D01*
X182182114Y-97656163D01*
X182137061Y-97695202D01*
X181985976Y-97772185D01*
X181807641Y-97901752D01*
X181807636Y-97901756D01*
X181651756Y-98057636D01*
X181651752Y-98057641D01*
X181522187Y-98235974D01*
X181422104Y-98432393D01*
X181422103Y-98432396D01*
X181353985Y-98642047D01*
X181322489Y-98840905D01*
X181319500Y-98859778D01*
X181319500Y-99080222D01*
X181325730Y-99119558D01*
X181353985Y-99297952D01*
X181422103Y-99507603D01*
X181422104Y-99507606D01*
X181464453Y-99590718D01*
X181520829Y-99701361D01*
X181522187Y-99704025D01*
X181651752Y-99882358D01*
X181651756Y-99882363D01*
X181807636Y-100038243D01*
X181807641Y-100038247D01*
X181985976Y-100167814D01*
X182136509Y-100244516D01*
X182187304Y-100292490D01*
X182204099Y-100360311D01*
X182181561Y-100426446D01*
X182136509Y-100465484D01*
X181985976Y-100542185D01*
X181807641Y-100671752D01*
X181807636Y-100671756D01*
X181651756Y-100827636D01*
X181651752Y-100827641D01*
X181522187Y-101005974D01*
X181422104Y-101202393D01*
X181422103Y-101202396D01*
X181353985Y-101412047D01*
X181323592Y-101603942D01*
X181319500Y-101629778D01*
X181319500Y-101850222D01*
X181324175Y-101879737D01*
X181353985Y-102067952D01*
X181422103Y-102277603D01*
X181422104Y-102277606D01*
X181522187Y-102474025D01*
X181651752Y-102652358D01*
X181651756Y-102652363D01*
X181807636Y-102808243D01*
X181807641Y-102808247D01*
X181985976Y-102937814D01*
X182136509Y-103014516D01*
X182187304Y-103062490D01*
X182204099Y-103130311D01*
X182181561Y-103196446D01*
X182136509Y-103235484D01*
X181985976Y-103312185D01*
X181807641Y-103441752D01*
X181807636Y-103441756D01*
X181651756Y-103597636D01*
X181651752Y-103597641D01*
X181522187Y-103775974D01*
X181422104Y-103972393D01*
X181422103Y-103972396D01*
X181353985Y-104182047D01*
X181332688Y-104316510D01*
X181319500Y-104399778D01*
X181319500Y-104620222D01*
X181320334Y-104625485D01*
X181353985Y-104837952D01*
X181422103Y-105047603D01*
X181422104Y-105047606D01*
X181485380Y-105171789D01*
X181499754Y-105200000D01*
X181522187Y-105244025D01*
X181651752Y-105422358D01*
X181651756Y-105422363D01*
X181807636Y-105578243D01*
X181807641Y-105578247D01*
X181963192Y-105691260D01*
X181985978Y-105707815D01*
X182114375Y-105773237D01*
X182182393Y-105807895D01*
X182182396Y-105807896D01*
X182255924Y-105831786D01*
X182392049Y-105876015D01*
X182609778Y-105910500D01*
X182609779Y-105910500D01*
X182830221Y-105910500D01*
X182830222Y-105910500D01*
X183047951Y-105876015D01*
X183257606Y-105807895D01*
X183454022Y-105707815D01*
X183632365Y-105578242D01*
X183788242Y-105422365D01*
X183917815Y-105244022D01*
X184017895Y-105047606D01*
X184086015Y-104837951D01*
X184120500Y-104620222D01*
X184120500Y-104399778D01*
X184086015Y-104182049D01*
X184044963Y-104055701D01*
X184017896Y-103972396D01*
X184017895Y-103972393D01*
X183965869Y-103870288D01*
X183917815Y-103775978D01*
X183892195Y-103740715D01*
X183788247Y-103597641D01*
X183788243Y-103597636D01*
X183632363Y-103441756D01*
X183632358Y-103441752D01*
X183454025Y-103312187D01*
X183454024Y-103312186D01*
X183454022Y-103312185D01*
X183303490Y-103235484D01*
X183252695Y-103187510D01*
X183235900Y-103119689D01*
X183258438Y-103053554D01*
X183303491Y-103014515D01*
X183454022Y-102937815D01*
X183632365Y-102808242D01*
X183788242Y-102652365D01*
X183917815Y-102474022D01*
X184017895Y-102277606D01*
X184086015Y-102067951D01*
X184120500Y-101850222D01*
X184120500Y-101629778D01*
X184086015Y-101412049D01*
X184017895Y-101202394D01*
X184017895Y-101202393D01*
X183983237Y-101134375D01*
X183917815Y-101005978D01*
X183877983Y-100951153D01*
X183788247Y-100827641D01*
X183788243Y-100827636D01*
X183632363Y-100671756D01*
X183632358Y-100671752D01*
X183454025Y-100542187D01*
X183454024Y-100542186D01*
X183454022Y-100542185D01*
X183303490Y-100465484D01*
X183252695Y-100417510D01*
X183235900Y-100349689D01*
X183258438Y-100283554D01*
X183303491Y-100244515D01*
X183311787Y-100240288D01*
X183454022Y-100167815D01*
X183632365Y-100038242D01*
X183788242Y-99882365D01*
X183917815Y-99704022D01*
X184017895Y-99507606D01*
X184086015Y-99297951D01*
X184120500Y-99080222D01*
X184120500Y-98859778D01*
X184086015Y-98642049D01*
X184040627Y-98502358D01*
X184017896Y-98432396D01*
X184017895Y-98432393D01*
X183971072Y-98340500D01*
X183917815Y-98235978D01*
X183884620Y-98190289D01*
X183788247Y-98057641D01*
X183788243Y-98057636D01*
X183632363Y-97901756D01*
X183632358Y-97901752D01*
X183454023Y-97772185D01*
X183302938Y-97695202D01*
X183252143Y-97647228D01*
X183235348Y-97579407D01*
X183257886Y-97513272D01*
X183302940Y-97474233D01*
X183453758Y-97397388D01*
X183517513Y-97351066D01*
X183517514Y-97351066D01*
X182890244Y-96723797D01*
X182932297Y-96712530D01*
X183057715Y-96640119D01*
X183160119Y-96537715D01*
X183232530Y-96412297D01*
X183243797Y-96370244D01*
X183871066Y-96997514D01*
X183871066Y-96997513D01*
X183917386Y-96933760D01*
X184017432Y-96737410D01*
X184085526Y-96527835D01*
X184120000Y-96310181D01*
X184120000Y-96089818D01*
X184085526Y-95872164D01*
X184017432Y-95662589D01*
X183917388Y-95466243D01*
X183871066Y-95402485D01*
X183871065Y-95402485D01*
X183243797Y-96029754D01*
X183232530Y-95987703D01*
X183160119Y-95862285D01*
X183057715Y-95759881D01*
X182932297Y-95687470D01*
X182890243Y-95676201D01*
X183517513Y-95048932D01*
X183453756Y-95002611D01*
X183257410Y-94902567D01*
X183047835Y-94834473D01*
X182830181Y-94800000D01*
X182609819Y-94800000D01*
X182392164Y-94834473D01*
X182182589Y-94902567D01*
X181986233Y-95002616D01*
X181922485Y-95048931D01*
X181922485Y-95048932D01*
X182549755Y-95676202D01*
X182507703Y-95687470D01*
X182382285Y-95759881D01*
X182279881Y-95862285D01*
X182207470Y-95987703D01*
X182196202Y-96029755D01*
X181568932Y-95402485D01*
X181568931Y-95402485D01*
X181522616Y-95466234D01*
X181522613Y-95466239D01*
X181514981Y-95481217D01*
X181467005Y-95532010D01*
X181399183Y-95548803D01*
X181333049Y-95526263D01*
X181289600Y-95471546D01*
X181280499Y-95424921D01*
X181280499Y-93872128D01*
X181274091Y-93812517D01*
X181270969Y-93804147D01*
X181223797Y-93677671D01*
X181223793Y-93677664D01*
X181137547Y-93562455D01*
X181137544Y-93562452D01*
X181022335Y-93476206D01*
X181022328Y-93476202D01*
X180887482Y-93425908D01*
X180887483Y-93425908D01*
X180827883Y-93419501D01*
X180827881Y-93419500D01*
X180827873Y-93419500D01*
X180827864Y-93419500D01*
X178932129Y-93419500D01*
X178932123Y-93419501D01*
X178872516Y-93425908D01*
X178737671Y-93476202D01*
X178737664Y-93476206D01*
X178622455Y-93562452D01*
X178622452Y-93562455D01*
X178536206Y-93677664D01*
X178536202Y-93677671D01*
X178485908Y-93812517D01*
X178479921Y-93868210D01*
X178479501Y-93872123D01*
X178479500Y-93872135D01*
X174429591Y-93872135D01*
X174449737Y-93823497D01*
X174480500Y-93668842D01*
X174480500Y-93511158D01*
X174480500Y-93511155D01*
X174480499Y-93511153D01*
X174474476Y-93480874D01*
X174449737Y-93356503D01*
X174449735Y-93356498D01*
X174389397Y-93210827D01*
X174389390Y-93210814D01*
X174301789Y-93079711D01*
X174301786Y-93079707D01*
X174190292Y-92968213D01*
X174190288Y-92968210D01*
X174059185Y-92880609D01*
X174059172Y-92880602D01*
X173913501Y-92820264D01*
X173913489Y-92820261D01*
X173758845Y-92789500D01*
X173758842Y-92789500D01*
X173601158Y-92789500D01*
X173601155Y-92789500D01*
X173446510Y-92820261D01*
X173446498Y-92820264D01*
X173300827Y-92880602D01*
X173300814Y-92880609D01*
X173169711Y-92968210D01*
X173169707Y-92968213D01*
X173058213Y-93079707D01*
X173058210Y-93079711D01*
X172970609Y-93210814D01*
X172970602Y-93210827D01*
X172910264Y-93356498D01*
X172910261Y-93356510D01*
X172879500Y-93511153D01*
X144730149Y-93511153D01*
X144734001Y-93491789D01*
X144736172Y-93480875D01*
X144736172Y-93480874D01*
X144750500Y-93408844D01*
X144750500Y-93251155D01*
X144750499Y-93251153D01*
X144732788Y-93162116D01*
X144719737Y-93096503D01*
X144693473Y-93033096D01*
X144659397Y-92950827D01*
X144659390Y-92950814D01*
X144571789Y-92819711D01*
X144571786Y-92819707D01*
X144460292Y-92708213D01*
X144460288Y-92708210D01*
X144329185Y-92620609D01*
X144329172Y-92620602D01*
X144183501Y-92560264D01*
X144183489Y-92560261D01*
X144099760Y-92543606D01*
X144037849Y-92511221D01*
X144003275Y-92450505D01*
X144007014Y-92380736D01*
X144047881Y-92324064D01*
X144099760Y-92300372D01*
X144133761Y-92293608D01*
X144203497Y-92279737D01*
X144349179Y-92219394D01*
X144480289Y-92131789D01*
X144591789Y-92020289D01*
X144679394Y-91889179D01*
X144739737Y-91743497D01*
X144770500Y-91588842D01*
X144770500Y-91431158D01*
X144770500Y-91431155D01*
X144770499Y-91431153D01*
X144747096Y-91313501D01*
X144739737Y-91276503D01*
X144735771Y-91266928D01*
X144679397Y-91130827D01*
X144679395Y-91130823D01*
X144679394Y-91130821D01*
X144634717Y-91063957D01*
X144592753Y-91001153D01*
X158159500Y-91001153D01*
X158159500Y-91158846D01*
X158190261Y-91313489D01*
X158190264Y-91313501D01*
X158250602Y-91459172D01*
X158250609Y-91459185D01*
X158338210Y-91590288D01*
X158338213Y-91590292D01*
X158449707Y-91701786D01*
X158449711Y-91701789D01*
X158580814Y-91789390D01*
X158580827Y-91789397D01*
X158726498Y-91849735D01*
X158726503Y-91849737D01*
X158881153Y-91880499D01*
X158881156Y-91880500D01*
X158881158Y-91880500D01*
X159038844Y-91880500D01*
X159038845Y-91880499D01*
X159193497Y-91849737D01*
X159339179Y-91789394D01*
X159470289Y-91701789D01*
X159581789Y-91590289D01*
X159669394Y-91459179D01*
X159729737Y-91313497D01*
X159760500Y-91158842D01*
X159760500Y-91001158D01*
X159760500Y-91001155D01*
X159760499Y-91001153D01*
X159760211Y-90999707D01*
X159729737Y-90846503D01*
X159729735Y-90846498D01*
X159669397Y-90700827D01*
X159669390Y-90700814D01*
X159581789Y-90569711D01*
X159581786Y-90569707D01*
X159470292Y-90458213D01*
X159470288Y-90458210D01*
X159339185Y-90370609D01*
X159339172Y-90370602D01*
X159193501Y-90310264D01*
X159193489Y-90310261D01*
X159038845Y-90279500D01*
X159038842Y-90279500D01*
X158881158Y-90279500D01*
X158881155Y-90279500D01*
X158726510Y-90310261D01*
X158726498Y-90310264D01*
X158580827Y-90370602D01*
X158580814Y-90370609D01*
X158449711Y-90458210D01*
X158449707Y-90458213D01*
X158338213Y-90569707D01*
X158338210Y-90569711D01*
X158250609Y-90700814D01*
X158250602Y-90700827D01*
X158190264Y-90846498D01*
X158190261Y-90846510D01*
X158159500Y-91001153D01*
X144592753Y-91001153D01*
X144591789Y-90999710D01*
X144480292Y-90888213D01*
X144480288Y-90888210D01*
X144349185Y-90800609D01*
X144349172Y-90800602D01*
X144203501Y-90740264D01*
X144203489Y-90740261D01*
X144048845Y-90709500D01*
X144048842Y-90709500D01*
X143891158Y-90709500D01*
X143891155Y-90709500D01*
X143736510Y-90740261D01*
X143736498Y-90740264D01*
X143590827Y-90800602D01*
X143590814Y-90800609D01*
X143459711Y-90888210D01*
X143459707Y-90888213D01*
X143348213Y-90999707D01*
X143348210Y-90999711D01*
X143260609Y-91130814D01*
X143260602Y-91130827D01*
X143200264Y-91276498D01*
X143200261Y-91276510D01*
X143169500Y-91431153D01*
X143169500Y-91588846D01*
X143200261Y-91743489D01*
X143200264Y-91743501D01*
X143260602Y-91889172D01*
X143260609Y-91889185D01*
X143348210Y-92020288D01*
X143348213Y-92020292D01*
X143459707Y-92131786D01*
X143459711Y-92131789D01*
X143590814Y-92219390D01*
X143590827Y-92219397D01*
X143736498Y-92279735D01*
X143736503Y-92279737D01*
X143820241Y-92296393D01*
X143882150Y-92328777D01*
X143916724Y-92389493D01*
X143912985Y-92459262D01*
X143872119Y-92515934D01*
X143820240Y-92539627D01*
X143716508Y-92560261D01*
X143716498Y-92560264D01*
X143570827Y-92620602D01*
X143570814Y-92620609D01*
X143439711Y-92708210D01*
X143439707Y-92708213D01*
X143328213Y-92819707D01*
X143328210Y-92819711D01*
X143240609Y-92950814D01*
X143240602Y-92950827D01*
X143229061Y-92978692D01*
X143185220Y-93033096D01*
X143118926Y-93055161D01*
X143051227Y-93037882D01*
X143003616Y-92986745D01*
X142990500Y-92931240D01*
X142990500Y-92791155D01*
X142990499Y-92791153D01*
X142981530Y-92746064D01*
X142959737Y-92636503D01*
X142922646Y-92546956D01*
X142899397Y-92490827D01*
X142899390Y-92490814D01*
X142811789Y-92359711D01*
X142811786Y-92359707D01*
X142700292Y-92248213D01*
X142700288Y-92248210D01*
X142569185Y-92160609D01*
X142569172Y-92160602D01*
X142423501Y-92100264D01*
X142423489Y-92100261D01*
X142268845Y-92069500D01*
X142268842Y-92069500D01*
X142111158Y-92069500D01*
X142111155Y-92069500D01*
X141956510Y-92100261D01*
X141956498Y-92100264D01*
X141810827Y-92160602D01*
X141810814Y-92160609D01*
X141679711Y-92248210D01*
X141679707Y-92248213D01*
X141568213Y-92359707D01*
X141568210Y-92359711D01*
X141480609Y-92490814D01*
X141480602Y-92490827D01*
X141420264Y-92636498D01*
X141420261Y-92636510D01*
X141389500Y-92791153D01*
X135800554Y-92791153D01*
X135779738Y-92686510D01*
X135779737Y-92686503D01*
X135768120Y-92658456D01*
X135719397Y-92540827D01*
X135719390Y-92540814D01*
X135631789Y-92409711D01*
X135631786Y-92409707D01*
X135520292Y-92298213D01*
X135520288Y-92298210D01*
X135389185Y-92210609D01*
X135389172Y-92210602D01*
X135243501Y-92150264D01*
X135243489Y-92150261D01*
X135088845Y-92119500D01*
X135088842Y-92119500D01*
X134931158Y-92119500D01*
X134931155Y-92119500D01*
X134776510Y-92150261D01*
X134776498Y-92150264D01*
X134630827Y-92210602D01*
X134630814Y-92210609D01*
X134499711Y-92298210D01*
X134499707Y-92298213D01*
X134388213Y-92409707D01*
X134388210Y-92409711D01*
X134300609Y-92540814D01*
X134300602Y-92540827D01*
X134240264Y-92686498D01*
X134240261Y-92686510D01*
X134209500Y-92841153D01*
X130820500Y-92841153D01*
X130820500Y-92816158D01*
X130820500Y-92816155D01*
X130820499Y-92816153D01*
X130815527Y-92791158D01*
X130789737Y-92661503D01*
X130772797Y-92620606D01*
X130729397Y-92515827D01*
X130729390Y-92515814D01*
X130641789Y-92384711D01*
X130641786Y-92384707D01*
X130530292Y-92273213D01*
X130530288Y-92273210D01*
X130399185Y-92185609D01*
X130399172Y-92185602D01*
X130253501Y-92125264D01*
X130253489Y-92125261D01*
X130098845Y-92094500D01*
X130098842Y-92094500D01*
X129941158Y-92094500D01*
X129941155Y-92094500D01*
X129786510Y-92125261D01*
X129786498Y-92125264D01*
X129640827Y-92185602D01*
X129640814Y-92185609D01*
X129509711Y-92273210D01*
X129509707Y-92273213D01*
X129398213Y-92384707D01*
X129398210Y-92384711D01*
X129310609Y-92515814D01*
X129310602Y-92515827D01*
X129250264Y-92661498D01*
X129250261Y-92661510D01*
X129219500Y-92816153D01*
X128104485Y-92816153D01*
X128153497Y-92806404D01*
X128299179Y-92746061D01*
X128299185Y-92746057D01*
X128357693Y-92706964D01*
X128425718Y-92661510D01*
X128430289Y-92658456D01*
X128541789Y-92546956D01*
X128629394Y-92415846D01*
X128689737Y-92270164D01*
X128720500Y-92115509D01*
X128720500Y-91957825D01*
X128720500Y-91957822D01*
X128720499Y-91957820D01*
X128689737Y-91803170D01*
X128684029Y-91789390D01*
X128629397Y-91657494D01*
X128629390Y-91657481D01*
X128541789Y-91526378D01*
X128541786Y-91526374D01*
X128430292Y-91414880D01*
X128430288Y-91414877D01*
X128299185Y-91327276D01*
X128299172Y-91327269D01*
X128153501Y-91266931D01*
X128153489Y-91266928D01*
X127998845Y-91236167D01*
X127998842Y-91236167D01*
X127841158Y-91236167D01*
X127841155Y-91236167D01*
X127686510Y-91266928D01*
X127686498Y-91266931D01*
X127540827Y-91327269D01*
X127540814Y-91327276D01*
X127409711Y-91414877D01*
X127409707Y-91414880D01*
X127298213Y-91526374D01*
X127298210Y-91526378D01*
X127210609Y-91657481D01*
X127210602Y-91657494D01*
X127150264Y-91803165D01*
X127150261Y-91803177D01*
X127119500Y-91957820D01*
X115036547Y-91957820D01*
X115036547Y-87778640D01*
X121335547Y-87778640D01*
X121335547Y-88087583D01*
X121370133Y-88394549D01*
X121370136Y-88394567D01*
X121438878Y-88695747D01*
X121438882Y-88695759D01*
X121540909Y-88987334D01*
X121540915Y-88987348D01*
X121674950Y-89265674D01*
X121715751Y-89330609D01*
X121839312Y-89527255D01*
X121964629Y-89684397D01*
X122012748Y-89744737D01*
X122031927Y-89768786D01*
X122250373Y-89987232D01*
X122491904Y-90179847D01*
X122753482Y-90344207D01*
X123031818Y-90478247D01*
X123031824Y-90478249D01*
X123323399Y-90580276D01*
X123323411Y-90580280D01*
X123624595Y-90649023D01*
X123624601Y-90649023D01*
X123624609Y-90649025D01*
X123829253Y-90672082D01*
X123931576Y-90683611D01*
X123931579Y-90683612D01*
X123931582Y-90683612D01*
X124240515Y-90683612D01*
X124240516Y-90683611D01*
X124397403Y-90665934D01*
X124547484Y-90649025D01*
X124547489Y-90649024D01*
X124547499Y-90649023D01*
X124848683Y-90580280D01*
X125140276Y-90478247D01*
X125418612Y-90344207D01*
X125680190Y-90179847D01*
X125921721Y-89987232D01*
X125947800Y-89961153D01*
X127129500Y-89961153D01*
X127129500Y-90118846D01*
X127160261Y-90273489D01*
X127160264Y-90273501D01*
X127220602Y-90419172D01*
X127220609Y-90419185D01*
X127308210Y-90550288D01*
X127308213Y-90550292D01*
X127419707Y-90661786D01*
X127419711Y-90661789D01*
X127550814Y-90749390D01*
X127550827Y-90749397D01*
X127674466Y-90800609D01*
X127696503Y-90809737D01*
X127851153Y-90840499D01*
X127851156Y-90840500D01*
X127851158Y-90840500D01*
X128008844Y-90840500D01*
X128008845Y-90840499D01*
X128163497Y-90809737D01*
X128309179Y-90749394D01*
X128440289Y-90661789D01*
X128551789Y-90550289D01*
X128639394Y-90419179D01*
X128699737Y-90273497D01*
X128730500Y-90118842D01*
X128730500Y-89961158D01*
X128730500Y-89961155D01*
X128730499Y-89961153D01*
X128701961Y-89817686D01*
X128699737Y-89806503D01*
X128684114Y-89768785D01*
X128639397Y-89660827D01*
X128639390Y-89660814D01*
X128551789Y-89529711D01*
X128551786Y-89529707D01*
X128440292Y-89418213D01*
X128440288Y-89418210D01*
X128312269Y-89332670D01*
X128312266Y-89332668D01*
X128309179Y-89330606D01*
X128256678Y-89308859D01*
X128255967Y-89308555D01*
X128229608Y-89286788D01*
X128202933Y-89265292D01*
X128202689Y-89264559D01*
X128202092Y-89264066D01*
X128191670Y-89231455D01*
X128190702Y-89228547D01*
X143159500Y-89228547D01*
X143159500Y-89386240D01*
X143190261Y-89540883D01*
X143190264Y-89540895D01*
X143250602Y-89686566D01*
X143250609Y-89686579D01*
X143338210Y-89817682D01*
X143338213Y-89817686D01*
X143449707Y-89929180D01*
X143449711Y-89929183D01*
X143580814Y-90016784D01*
X143580827Y-90016791D01*
X143726498Y-90077129D01*
X143726503Y-90077131D01*
X143875331Y-90106735D01*
X143881153Y-90107893D01*
X143881156Y-90107894D01*
X143881158Y-90107894D01*
X144038844Y-90107894D01*
X144038845Y-90107893D01*
X144193497Y-90077131D01*
X144339179Y-90016788D01*
X144470289Y-89929183D01*
X144581789Y-89817683D01*
X144669394Y-89686573D01*
X144729737Y-89540891D01*
X144760500Y-89386236D01*
X144760500Y-89228552D01*
X144760500Y-89228549D01*
X144760499Y-89228547D01*
X144741050Y-89130772D01*
X144729737Y-89073897D01*
X144685371Y-88966786D01*
X144673248Y-88937518D01*
X144669395Y-88928217D01*
X144669390Y-88928208D01*
X144647971Y-88896153D01*
X160374500Y-88896153D01*
X160374500Y-89053846D01*
X160405261Y-89208489D01*
X160405264Y-89208501D01*
X160465602Y-89354172D01*
X160465609Y-89354185D01*
X160553210Y-89485288D01*
X160553213Y-89485292D01*
X160664707Y-89596786D01*
X160664711Y-89596789D01*
X160795814Y-89684390D01*
X160795827Y-89684397D01*
X160941498Y-89744735D01*
X160941503Y-89744737D01*
X161062400Y-89768785D01*
X161096153Y-89775499D01*
X161096156Y-89775500D01*
X161096158Y-89775500D01*
X161253844Y-89775500D01*
X161253845Y-89775499D01*
X161408497Y-89744737D01*
X161521166Y-89698067D01*
X161554172Y-89684397D01*
X161554172Y-89684396D01*
X161554179Y-89684394D01*
X161685289Y-89596789D01*
X161796789Y-89485289D01*
X161884394Y-89354179D01*
X161944737Y-89208497D01*
X161975500Y-89053842D01*
X161975500Y-88896158D01*
X161975500Y-88896155D01*
X161975499Y-88896153D01*
X161967371Y-88855292D01*
X161944737Y-88741503D01*
X161937558Y-88724172D01*
X161884397Y-88595827D01*
X161884390Y-88595814D01*
X161796789Y-88464711D01*
X161796786Y-88464707D01*
X161685292Y-88353213D01*
X161685288Y-88353210D01*
X161554185Y-88265609D01*
X161554172Y-88265602D01*
X161408501Y-88205264D01*
X161408489Y-88205261D01*
X161253845Y-88174500D01*
X161253842Y-88174500D01*
X161096158Y-88174500D01*
X161096155Y-88174500D01*
X160941510Y-88205261D01*
X160941498Y-88205264D01*
X160795827Y-88265602D01*
X160795814Y-88265609D01*
X160664711Y-88353210D01*
X160664707Y-88353213D01*
X160553213Y-88464707D01*
X160553210Y-88464711D01*
X160465609Y-88595814D01*
X160465602Y-88595827D01*
X160405264Y-88741498D01*
X160405261Y-88741510D01*
X160374500Y-88896153D01*
X144647971Y-88896153D01*
X144581789Y-88797105D01*
X144581786Y-88797101D01*
X144470292Y-88685607D01*
X144470288Y-88685604D01*
X144339185Y-88598003D01*
X144339172Y-88597996D01*
X144193501Y-88537658D01*
X144193489Y-88537655D01*
X144038845Y-88506894D01*
X144038842Y-88506894D01*
X143881158Y-88506894D01*
X143881155Y-88506894D01*
X143726510Y-88537655D01*
X143726498Y-88537658D01*
X143580827Y-88597996D01*
X143580814Y-88598003D01*
X143449711Y-88685604D01*
X143449707Y-88685607D01*
X143338213Y-88797101D01*
X143338210Y-88797105D01*
X143250609Y-88928208D01*
X143250602Y-88928221D01*
X143190264Y-89073892D01*
X143190261Y-89073904D01*
X143159500Y-89228547D01*
X128190702Y-89228547D01*
X128180867Y-89198998D01*
X128181058Y-89198248D01*
X128180823Y-89197512D01*
X128189683Y-89164454D01*
X128198146Y-89131299D01*
X128198711Y-89130772D01*
X128198912Y-89130025D01*
X128224239Y-89107004D01*
X128249282Y-89083688D01*
X128250508Y-89083127D01*
X128250616Y-89083030D01*
X128250784Y-89083001D01*
X128257312Y-89080019D01*
X128319179Y-89054394D01*
X128450289Y-88966789D01*
X128561789Y-88855289D01*
X128649394Y-88724179D01*
X128709737Y-88578497D01*
X128740500Y-88423842D01*
X128740500Y-88266158D01*
X128740500Y-88266155D01*
X128740499Y-88266153D01*
X128709738Y-88111510D01*
X128709737Y-88111503D01*
X128699829Y-88087583D01*
X128649397Y-87965827D01*
X128649390Y-87965814D01*
X128561788Y-87834710D01*
X128561787Y-87834708D01*
X128488232Y-87761153D01*
X134209500Y-87761153D01*
X134209500Y-87918846D01*
X134240261Y-88073489D01*
X134240264Y-88073501D01*
X134300602Y-88219172D01*
X134300609Y-88219185D01*
X134388210Y-88350288D01*
X134388213Y-88350292D01*
X134499707Y-88461786D01*
X134499711Y-88461789D01*
X134630814Y-88549390D01*
X134630827Y-88549397D01*
X134748167Y-88598000D01*
X134776503Y-88609737D01*
X134931153Y-88640499D01*
X134931156Y-88640500D01*
X134931158Y-88640500D01*
X135088844Y-88640500D01*
X135088845Y-88640499D01*
X135243497Y-88609737D01*
X135389179Y-88549394D01*
X135520289Y-88461789D01*
X135631789Y-88350289D01*
X135719394Y-88219179D01*
X135779737Y-88073497D01*
X135810500Y-87918842D01*
X135810500Y-87761158D01*
X135810500Y-87761155D01*
X135810499Y-87761153D01*
X135785747Y-87636718D01*
X135779737Y-87606503D01*
X135779735Y-87606498D01*
X135719397Y-87460827D01*
X135719390Y-87460814D01*
X135631789Y-87329711D01*
X135631786Y-87329707D01*
X135520292Y-87218213D01*
X135520288Y-87218210D01*
X135389185Y-87130609D01*
X135389172Y-87130602D01*
X135243501Y-87070264D01*
X135243489Y-87070261D01*
X135088845Y-87039500D01*
X135088842Y-87039500D01*
X134931158Y-87039500D01*
X134931155Y-87039500D01*
X134776510Y-87070261D01*
X134776498Y-87070264D01*
X134630827Y-87130602D01*
X134630814Y-87130609D01*
X134499711Y-87218210D01*
X134499707Y-87218213D01*
X134388213Y-87329707D01*
X134388210Y-87329711D01*
X134300609Y-87460814D01*
X134300602Y-87460827D01*
X134240264Y-87606498D01*
X134240261Y-87606510D01*
X134209500Y-87761153D01*
X128488232Y-87761153D01*
X128450292Y-87723213D01*
X128450288Y-87723210D01*
X128319185Y-87635609D01*
X128319172Y-87635602D01*
X128173501Y-87575264D01*
X128173489Y-87575261D01*
X128018845Y-87544500D01*
X128018842Y-87544500D01*
X127861158Y-87544500D01*
X127861155Y-87544500D01*
X127706510Y-87575261D01*
X127706498Y-87575264D01*
X127560827Y-87635602D01*
X127560814Y-87635609D01*
X127429711Y-87723210D01*
X127429707Y-87723213D01*
X127318213Y-87834707D01*
X127318210Y-87834711D01*
X127230609Y-87965814D01*
X127230602Y-87965827D01*
X127170264Y-88111498D01*
X127170261Y-88111510D01*
X127139500Y-88266153D01*
X127139500Y-88423846D01*
X127170261Y-88578489D01*
X127170264Y-88578501D01*
X127230602Y-88724172D01*
X127230609Y-88724185D01*
X127318210Y-88855288D01*
X127318213Y-88855292D01*
X127429707Y-88966786D01*
X127429711Y-88966789D01*
X127560814Y-89054390D01*
X127560821Y-89054394D01*
X127612664Y-89075868D01*
X127667066Y-89119706D01*
X127689132Y-89186000D01*
X127671854Y-89253699D01*
X127620718Y-89301311D01*
X127612665Y-89304989D01*
X127550820Y-89330606D01*
X127550814Y-89330609D01*
X127419711Y-89418210D01*
X127419707Y-89418213D01*
X127308213Y-89529707D01*
X127308210Y-89529711D01*
X127220609Y-89660814D01*
X127220602Y-89660827D01*
X127160264Y-89806498D01*
X127160261Y-89806510D01*
X127129500Y-89961153D01*
X125947800Y-89961153D01*
X126140167Y-89768786D01*
X126332782Y-89527255D01*
X126497142Y-89265677D01*
X126631182Y-88987341D01*
X126733215Y-88695748D01*
X126801958Y-88394564D01*
X126806618Y-88353211D01*
X126833851Y-88111503D01*
X126836547Y-88087577D01*
X126836547Y-87778647D01*
X126817151Y-87606498D01*
X126801960Y-87471674D01*
X126801957Y-87471656D01*
X126751006Y-87248426D01*
X126733215Y-87170476D01*
X126719262Y-87130602D01*
X126651199Y-86936087D01*
X126631182Y-86878883D01*
X126497142Y-86600547D01*
X126378138Y-86411153D01*
X127139500Y-86411153D01*
X127139500Y-86568846D01*
X127170261Y-86723489D01*
X127170264Y-86723501D01*
X127230602Y-86869172D01*
X127230609Y-86869185D01*
X127318210Y-87000288D01*
X127318213Y-87000292D01*
X127429707Y-87111786D01*
X127429711Y-87111789D01*
X127560814Y-87199390D01*
X127560827Y-87199397D01*
X127679205Y-87248430D01*
X127706503Y-87259737D01*
X127861153Y-87290499D01*
X127861156Y-87290500D01*
X127861158Y-87290500D01*
X128018844Y-87290500D01*
X128018845Y-87290499D01*
X128173497Y-87259737D01*
X128319179Y-87199394D01*
X128450289Y-87111789D01*
X128561789Y-87000289D01*
X128649394Y-86869179D01*
X128709737Y-86723497D01*
X128740500Y-86568842D01*
X128740500Y-86411158D01*
X128740500Y-86411155D01*
X128740499Y-86411153D01*
X128736916Y-86393139D01*
X128709737Y-86256503D01*
X128692310Y-86214429D01*
X128674950Y-86172518D01*
X128657816Y-86131153D01*
X140029500Y-86131153D01*
X140029500Y-86288846D01*
X140060261Y-86443489D01*
X140060264Y-86443501D01*
X140120602Y-86589172D01*
X140120609Y-86589185D01*
X140208210Y-86720288D01*
X140208213Y-86720292D01*
X140319707Y-86831786D01*
X140319711Y-86831789D01*
X140450814Y-86919390D01*
X140450827Y-86919397D01*
X140572254Y-86969693D01*
X140596503Y-86979737D01*
X140741631Y-87008605D01*
X140751153Y-87010499D01*
X140751156Y-87010500D01*
X140751158Y-87010500D01*
X140908844Y-87010500D01*
X140908845Y-87010499D01*
X141063497Y-86979737D01*
X141168890Y-86936082D01*
X143169500Y-86936082D01*
X143169500Y-87093775D01*
X143200261Y-87248418D01*
X143200264Y-87248430D01*
X143260602Y-87394101D01*
X143260609Y-87394114D01*
X143348210Y-87525217D01*
X143348213Y-87525221D01*
X143459707Y-87636715D01*
X143459711Y-87636718D01*
X143590814Y-87724319D01*
X143590827Y-87724326D01*
X143736498Y-87784664D01*
X143736503Y-87784666D01*
X143891153Y-87815428D01*
X143891156Y-87815429D01*
X143891158Y-87815429D01*
X144048844Y-87815429D01*
X144048845Y-87815428D01*
X144203497Y-87784666D01*
X144349179Y-87724323D01*
X144377308Y-87705528D01*
X178549500Y-87705528D01*
X178549500Y-88014471D01*
X178584086Y-88321437D01*
X178584089Y-88321455D01*
X178652831Y-88622635D01*
X178652835Y-88622647D01*
X178754862Y-88914222D01*
X178754868Y-88914236D01*
X178888903Y-89192562D01*
X178888905Y-89192565D01*
X179053265Y-89454143D01*
X179122448Y-89540895D01*
X179238616Y-89686566D01*
X179245880Y-89695674D01*
X179464326Y-89914120D01*
X179705857Y-90106735D01*
X179967435Y-90271095D01*
X180245771Y-90405135D01*
X180285924Y-90419185D01*
X180537352Y-90507164D01*
X180537364Y-90507168D01*
X180838548Y-90575911D01*
X180838554Y-90575911D01*
X180838562Y-90575913D01*
X181043206Y-90598970D01*
X181145529Y-90610499D01*
X181145532Y-90610500D01*
X181145535Y-90610500D01*
X181454468Y-90610500D01*
X181454469Y-90610499D01*
X181611356Y-90592822D01*
X181761437Y-90575913D01*
X181761442Y-90575912D01*
X181761452Y-90575911D01*
X182062636Y-90507168D01*
X182354229Y-90405135D01*
X182632565Y-90271095D01*
X182894143Y-90106735D01*
X183135674Y-89914120D01*
X183354120Y-89695674D01*
X183546735Y-89454143D01*
X183711095Y-89192565D01*
X183845135Y-88914229D01*
X183947168Y-88622636D01*
X184015911Y-88321452D01*
X184022142Y-88266155D01*
X184039567Y-88111498D01*
X184050500Y-88014465D01*
X184050500Y-87705535D01*
X184030183Y-87525217D01*
X184015913Y-87398562D01*
X184015910Y-87398544D01*
X184000198Y-87329707D01*
X183947168Y-87097364D01*
X183945911Y-87093773D01*
X183845137Y-86805777D01*
X183845135Y-86805771D01*
X183711095Y-86527435D01*
X183546735Y-86265857D01*
X183354120Y-86024326D01*
X183135674Y-85805880D01*
X183103981Y-85780606D01*
X183028311Y-85720261D01*
X182894143Y-85613265D01*
X182632565Y-85448905D01*
X182632562Y-85448903D01*
X182354236Y-85314868D01*
X182354222Y-85314862D01*
X182062647Y-85212835D01*
X182062635Y-85212831D01*
X181761455Y-85144089D01*
X181761437Y-85144086D01*
X181454471Y-85109500D01*
X181454465Y-85109500D01*
X181145535Y-85109500D01*
X181145528Y-85109500D01*
X180838562Y-85144086D01*
X180838544Y-85144089D01*
X180537364Y-85212831D01*
X180537352Y-85212835D01*
X180245777Y-85314862D01*
X180245763Y-85314868D01*
X179967437Y-85448903D01*
X179705858Y-85613264D01*
X179464326Y-85805879D01*
X179245879Y-86024326D01*
X179053264Y-86265858D01*
X178888903Y-86527437D01*
X178754868Y-86805763D01*
X178754862Y-86805777D01*
X178652835Y-87097352D01*
X178652831Y-87097364D01*
X178584089Y-87398544D01*
X178584086Y-87398562D01*
X178549500Y-87705528D01*
X144377308Y-87705528D01*
X144480289Y-87636718D01*
X144481405Y-87635602D01*
X144502633Y-87614375D01*
X144591786Y-87525221D01*
X144591789Y-87525218D01*
X144679394Y-87394108D01*
X144739737Y-87248426D01*
X144770500Y-87093771D01*
X144770500Y-86936087D01*
X144770500Y-86936084D01*
X144770499Y-86936082D01*
X144767180Y-86919397D01*
X144739737Y-86781432D01*
X144739735Y-86781427D01*
X144679397Y-86635756D01*
X144679390Y-86635743D01*
X144591789Y-86504640D01*
X144591786Y-86504636D01*
X144480292Y-86393142D01*
X144480288Y-86393139D01*
X144349185Y-86305538D01*
X144349172Y-86305531D01*
X144203501Y-86245193D01*
X144203489Y-86245190D01*
X144048845Y-86214429D01*
X144048842Y-86214429D01*
X143891158Y-86214429D01*
X143891155Y-86214429D01*
X143736510Y-86245190D01*
X143736498Y-86245193D01*
X143590827Y-86305531D01*
X143590814Y-86305538D01*
X143459711Y-86393139D01*
X143459707Y-86393142D01*
X143348213Y-86504636D01*
X143348210Y-86504640D01*
X143260609Y-86635743D01*
X143260602Y-86635756D01*
X143200264Y-86781427D01*
X143200261Y-86781439D01*
X143169500Y-86936082D01*
X141168890Y-86936082D01*
X141209179Y-86919394D01*
X141340289Y-86831789D01*
X141451789Y-86720289D01*
X141539394Y-86589179D01*
X141599737Y-86443497D01*
X141630500Y-86288842D01*
X141630500Y-86131158D01*
X141630500Y-86131155D01*
X141630499Y-86131153D01*
X141626453Y-86110814D01*
X141599737Y-85976503D01*
X141599735Y-85976498D01*
X141539397Y-85830827D01*
X141539390Y-85830814D01*
X141451789Y-85699711D01*
X141451786Y-85699707D01*
X141340292Y-85588213D01*
X141340288Y-85588210D01*
X141209185Y-85500609D01*
X141209172Y-85500602D01*
X141063501Y-85440264D01*
X141063489Y-85440261D01*
X140908845Y-85409500D01*
X140908842Y-85409500D01*
X140751158Y-85409500D01*
X140751155Y-85409500D01*
X140596510Y-85440261D01*
X140596498Y-85440264D01*
X140450827Y-85500602D01*
X140450814Y-85500609D01*
X140319711Y-85588210D01*
X140319707Y-85588213D01*
X140208213Y-85699707D01*
X140208210Y-85699711D01*
X140120609Y-85830814D01*
X140120602Y-85830827D01*
X140060264Y-85976498D01*
X140060261Y-85976510D01*
X140029500Y-86131153D01*
X128657816Y-86131153D01*
X128649397Y-86110827D01*
X128649390Y-86110814D01*
X128561789Y-85979711D01*
X128561786Y-85979707D01*
X128450292Y-85868213D01*
X128450288Y-85868210D01*
X128319185Y-85780609D01*
X128319172Y-85780602D01*
X128173501Y-85720264D01*
X128173489Y-85720261D01*
X128018845Y-85689500D01*
X128018842Y-85689500D01*
X127861158Y-85689500D01*
X127861155Y-85689500D01*
X127706510Y-85720261D01*
X127706498Y-85720264D01*
X127560827Y-85780602D01*
X127560814Y-85780609D01*
X127429711Y-85868210D01*
X127429707Y-85868213D01*
X127318213Y-85979707D01*
X127318210Y-85979711D01*
X127230609Y-86110814D01*
X127230602Y-86110827D01*
X127170264Y-86256498D01*
X127170261Y-86256510D01*
X127139500Y-86411153D01*
X126378138Y-86411153D01*
X126332782Y-86338969D01*
X126140167Y-86097438D01*
X125921721Y-85878992D01*
X125680190Y-85686377D01*
X125418612Y-85522017D01*
X125418609Y-85522015D01*
X125140283Y-85387980D01*
X125140269Y-85387974D01*
X124848694Y-85285947D01*
X124848682Y-85285943D01*
X124547502Y-85217201D01*
X124547484Y-85217198D01*
X124240518Y-85182612D01*
X124240512Y-85182612D01*
X123931582Y-85182612D01*
X123931575Y-85182612D01*
X123624609Y-85217198D01*
X123624591Y-85217201D01*
X123323411Y-85285943D01*
X123323399Y-85285947D01*
X123031824Y-85387974D01*
X123031810Y-85387980D01*
X122753484Y-85522015D01*
X122491905Y-85686376D01*
X122250373Y-85878991D01*
X122031926Y-86097438D01*
X121839311Y-86338970D01*
X121674950Y-86600549D01*
X121540915Y-86878875D01*
X121540909Y-86878889D01*
X121438882Y-87170464D01*
X121438878Y-87170476D01*
X121370136Y-87471656D01*
X121370133Y-87471674D01*
X121335547Y-87778640D01*
X115036547Y-87778640D01*
X115036547Y-84556153D01*
X127169500Y-84556153D01*
X127169500Y-84713846D01*
X127200261Y-84868489D01*
X127200264Y-84868501D01*
X127260602Y-85014172D01*
X127260609Y-85014185D01*
X127348210Y-85145288D01*
X127348213Y-85145292D01*
X127459707Y-85256786D01*
X127459711Y-85256789D01*
X127590814Y-85344390D01*
X127590827Y-85344397D01*
X127736498Y-85404735D01*
X127736503Y-85404737D01*
X127872854Y-85431859D01*
X127891153Y-85435499D01*
X127891156Y-85435500D01*
X127891158Y-85435500D01*
X128048844Y-85435500D01*
X128048845Y-85435499D01*
X128203497Y-85404737D01*
X128349179Y-85344394D01*
X128480289Y-85256789D01*
X128591789Y-85145289D01*
X128679394Y-85014179D01*
X128739737Y-84868497D01*
X128770500Y-84713842D01*
X128770500Y-84556158D01*
X128770500Y-84556155D01*
X128770499Y-84556153D01*
X128765527Y-84531158D01*
X128739737Y-84401503D01*
X128729379Y-84376497D01*
X128679397Y-84255827D01*
X128679390Y-84255814D01*
X128591789Y-84124711D01*
X128591786Y-84124707D01*
X128480292Y-84013213D01*
X128480288Y-84013210D01*
X128349185Y-83925609D01*
X128349172Y-83925602D01*
X128310603Y-83909627D01*
X128203501Y-83865264D01*
X128203489Y-83865261D01*
X128048845Y-83834500D01*
X128048842Y-83834500D01*
X127891158Y-83834500D01*
X127891155Y-83834500D01*
X127736510Y-83865261D01*
X127736498Y-83865264D01*
X127590827Y-83925602D01*
X127590814Y-83925609D01*
X127459711Y-84013210D01*
X127459707Y-84013213D01*
X127348213Y-84124707D01*
X127348210Y-84124711D01*
X127260609Y-84255814D01*
X127260602Y-84255827D01*
X127200264Y-84401498D01*
X127200261Y-84401510D01*
X127169500Y-84556153D01*
X115036547Y-84556153D01*
X115036547Y-83801153D01*
X129159500Y-83801153D01*
X129159500Y-83958846D01*
X129187713Y-84100678D01*
X129190263Y-84113497D01*
X129249212Y-84255814D01*
X129250077Y-84257901D01*
X129257546Y-84327371D01*
X129250078Y-84352804D01*
X129240264Y-84376497D01*
X129240261Y-84376505D01*
X129209500Y-84531153D01*
X129209500Y-84688846D01*
X129240261Y-84843489D01*
X129240264Y-84843501D01*
X129300602Y-84989172D01*
X129300609Y-84989185D01*
X129388210Y-85120288D01*
X129388213Y-85120292D01*
X129499707Y-85231786D01*
X129499711Y-85231789D01*
X129630814Y-85319390D01*
X129630827Y-85319397D01*
X129776498Y-85379735D01*
X129776503Y-85379737D01*
X129902176Y-85404735D01*
X129931153Y-85410499D01*
X129931156Y-85410500D01*
X129931158Y-85410500D01*
X130088844Y-85410500D01*
X130088845Y-85410499D01*
X130243497Y-85379737D01*
X130389179Y-85319394D01*
X130520289Y-85231789D01*
X130631789Y-85120289D01*
X130719394Y-84989179D01*
X130779737Y-84843497D01*
X130810500Y-84688842D01*
X130810500Y-84643618D01*
X143149500Y-84643618D01*
X143149500Y-84801311D01*
X143180261Y-84955954D01*
X143180264Y-84955966D01*
X143240602Y-85101637D01*
X143240609Y-85101650D01*
X143328210Y-85232753D01*
X143328213Y-85232757D01*
X143439707Y-85344251D01*
X143439711Y-85344254D01*
X143570814Y-85431855D01*
X143570827Y-85431862D01*
X143716498Y-85492200D01*
X143716503Y-85492202D01*
X143866382Y-85522015D01*
X143871153Y-85522964D01*
X143871156Y-85522965D01*
X143871158Y-85522965D01*
X144028844Y-85522965D01*
X144028845Y-85522964D01*
X144183497Y-85492202D01*
X144329179Y-85431859D01*
X144460289Y-85344254D01*
X144571789Y-85232754D01*
X144659394Y-85101644D01*
X144666437Y-85084639D01*
X144710276Y-85030236D01*
X144776570Y-85008169D01*
X144844270Y-85025447D01*
X144891881Y-85076582D01*
X144904289Y-85145342D01*
X144903938Y-85148274D01*
X144899501Y-85181976D01*
X144899500Y-85181995D01*
X144899500Y-85418004D01*
X144899501Y-85418020D01*
X144930306Y-85652010D01*
X144991394Y-85879993D01*
X145081714Y-86098045D01*
X145081719Y-86098056D01*
X145141992Y-86202450D01*
X145199727Y-86302450D01*
X145199729Y-86302453D01*
X145199730Y-86302454D01*
X145343406Y-86489697D01*
X145343412Y-86489704D01*
X145510295Y-86656587D01*
X145510302Y-86656593D01*
X145514912Y-86660130D01*
X145697550Y-86800273D01*
X145816887Y-86869172D01*
X145901943Y-86918280D01*
X145901948Y-86918282D01*
X145901951Y-86918284D01*
X146120007Y-87008606D01*
X146347986Y-87069693D01*
X146581989Y-87100500D01*
X146581996Y-87100500D01*
X146818004Y-87100500D01*
X146818011Y-87100500D01*
X147052014Y-87069693D01*
X147279993Y-87008606D01*
X147498049Y-86918284D01*
X147702450Y-86800273D01*
X147889699Y-86656592D01*
X148056592Y-86489699D01*
X148200273Y-86302450D01*
X148318284Y-86098049D01*
X148408606Y-85879993D01*
X148469693Y-85652014D01*
X148483580Y-85546530D01*
X151699500Y-85546530D01*
X151699500Y-85753469D01*
X151739868Y-85956412D01*
X151739870Y-85956420D01*
X151819058Y-86147596D01*
X151934024Y-86319657D01*
X152080342Y-86465975D01*
X152080345Y-86465977D01*
X152252402Y-86580941D01*
X152443580Y-86660130D01*
X152645374Y-86700269D01*
X152646530Y-86700499D01*
X152646534Y-86700500D01*
X152646535Y-86700500D01*
X152853466Y-86700500D01*
X152853467Y-86700499D01*
X153056420Y-86660130D01*
X153247598Y-86580941D01*
X153419655Y-86465977D01*
X153565977Y-86319655D01*
X153680941Y-86147598D01*
X153760130Y-85956420D01*
X153800500Y-85753465D01*
X153800500Y-85546535D01*
X153800499Y-85546530D01*
X154699500Y-85546530D01*
X154699500Y-85753469D01*
X154739868Y-85956412D01*
X154739870Y-85956420D01*
X154819058Y-86147596D01*
X154934024Y-86319657D01*
X155080342Y-86465975D01*
X155080345Y-86465977D01*
X155252402Y-86580941D01*
X155443580Y-86660130D01*
X155645374Y-86700269D01*
X155646530Y-86700499D01*
X155646534Y-86700500D01*
X155646535Y-86700500D01*
X155853466Y-86700500D01*
X155853467Y-86700499D01*
X156056420Y-86660130D01*
X156247598Y-86580941D01*
X156419655Y-86465977D01*
X156565977Y-86319655D01*
X156680941Y-86147598D01*
X156760130Y-85956420D01*
X156800500Y-85753465D01*
X156800500Y-85546535D01*
X156760130Y-85343580D01*
X156680941Y-85152402D01*
X156633897Y-85081995D01*
X166099500Y-85081995D01*
X166099500Y-85318004D01*
X166099501Y-85318020D01*
X166130306Y-85552010D01*
X166191394Y-85779993D01*
X166281714Y-85998045D01*
X166281719Y-85998056D01*
X166339098Y-86097438D01*
X166399727Y-86202450D01*
X166399729Y-86202453D01*
X166399730Y-86202454D01*
X166543406Y-86389697D01*
X166543412Y-86389704D01*
X166710295Y-86556587D01*
X166710302Y-86556593D01*
X166742033Y-86580941D01*
X166897550Y-86700273D01*
X167028918Y-86776118D01*
X167101943Y-86818280D01*
X167101948Y-86818282D01*
X167101951Y-86818284D01*
X167320007Y-86908606D01*
X167547986Y-86969693D01*
X167781989Y-87000500D01*
X167781996Y-87000500D01*
X168018004Y-87000500D01*
X168018011Y-87000500D01*
X168252014Y-86969693D01*
X168479993Y-86908606D01*
X168698049Y-86818284D01*
X168902450Y-86700273D01*
X169089699Y-86556592D01*
X169256592Y-86389699D01*
X169400273Y-86202450D01*
X169518284Y-85998049D01*
X169608606Y-85779993D01*
X169669693Y-85552014D01*
X169700500Y-85318011D01*
X169700500Y-85081989D01*
X169669693Y-84847986D01*
X169608606Y-84620007D01*
X169518284Y-84401951D01*
X169518282Y-84401948D01*
X169518280Y-84401943D01*
X169456259Y-84294521D01*
X169400273Y-84197550D01*
X169325938Y-84100675D01*
X169256593Y-84010302D01*
X169256587Y-84010295D01*
X169089704Y-83843412D01*
X169089697Y-83843406D01*
X168902454Y-83699730D01*
X168902453Y-83699729D01*
X168902450Y-83699727D01*
X168820957Y-83652677D01*
X168698056Y-83581719D01*
X168698045Y-83581714D01*
X168479993Y-83491394D01*
X168252010Y-83430306D01*
X168018020Y-83399501D01*
X168018017Y-83399500D01*
X168018011Y-83399500D01*
X167781989Y-83399500D01*
X167781983Y-83399500D01*
X167781979Y-83399501D01*
X167547989Y-83430306D01*
X167320006Y-83491394D01*
X167101954Y-83581714D01*
X167101943Y-83581719D01*
X166897545Y-83699730D01*
X166710302Y-83843406D01*
X166710295Y-83843412D01*
X166543412Y-84010295D01*
X166543406Y-84010302D01*
X166399730Y-84197545D01*
X166281719Y-84401943D01*
X166281714Y-84401954D01*
X166191394Y-84620006D01*
X166130306Y-84847989D01*
X166099501Y-85081979D01*
X166099500Y-85081995D01*
X156633897Y-85081995D01*
X156565977Y-84980345D01*
X156565975Y-84980342D01*
X156419657Y-84834024D01*
X156254629Y-84723757D01*
X156247598Y-84719059D01*
X156235003Y-84713842D01*
X156056420Y-84639870D01*
X156056412Y-84639868D01*
X155853469Y-84599500D01*
X155853465Y-84599500D01*
X155646535Y-84599500D01*
X155646530Y-84599500D01*
X155443587Y-84639868D01*
X155443579Y-84639870D01*
X155252403Y-84719058D01*
X155080342Y-84834024D01*
X154934024Y-84980342D01*
X154819058Y-85152403D01*
X154739870Y-85343579D01*
X154739868Y-85343587D01*
X154699500Y-85546530D01*
X153800499Y-85546530D01*
X153760130Y-85343580D01*
X153680941Y-85152402D01*
X153565977Y-84980345D01*
X153565975Y-84980342D01*
X153419657Y-84834024D01*
X153254629Y-84723757D01*
X153247598Y-84719059D01*
X153235003Y-84713842D01*
X153056420Y-84639870D01*
X153056412Y-84639868D01*
X152853469Y-84599500D01*
X152853465Y-84599500D01*
X152646535Y-84599500D01*
X152646530Y-84599500D01*
X152443587Y-84639868D01*
X152443579Y-84639870D01*
X152252403Y-84719058D01*
X152080342Y-84834024D01*
X151934024Y-84980342D01*
X151819058Y-85152403D01*
X151739870Y-85343579D01*
X151739868Y-85343587D01*
X151699500Y-85546530D01*
X148483580Y-85546530D01*
X148500500Y-85418011D01*
X148500500Y-85181989D01*
X148469693Y-84947986D01*
X148408606Y-84720007D01*
X148318284Y-84501951D01*
X148318282Y-84501948D01*
X148318280Y-84501943D01*
X148276118Y-84428918D01*
X148200273Y-84297550D01*
X148059048Y-84113502D01*
X148056593Y-84110302D01*
X148056587Y-84110295D01*
X147889704Y-83943412D01*
X147889697Y-83943406D01*
X147702454Y-83799730D01*
X147702453Y-83799729D01*
X147702450Y-83799727D01*
X147620957Y-83752677D01*
X147498056Y-83681719D01*
X147498045Y-83681714D01*
X147279993Y-83591394D01*
X147052014Y-83530307D01*
X147052013Y-83530306D01*
X147052010Y-83530306D01*
X146818020Y-83499501D01*
X146818017Y-83499500D01*
X146818011Y-83499500D01*
X146581989Y-83499500D01*
X146581983Y-83499500D01*
X146581979Y-83499501D01*
X146347989Y-83530306D01*
X146120006Y-83591394D01*
X145901954Y-83681714D01*
X145901943Y-83681719D01*
X145697545Y-83799730D01*
X145510302Y-83943406D01*
X145510295Y-83943412D01*
X145343412Y-84110295D01*
X145343406Y-84110302D01*
X145199730Y-84297545D01*
X145081719Y-84501943D01*
X145081714Y-84501954D01*
X145032816Y-84620006D01*
X144991395Y-84720006D01*
X144989841Y-84723757D01*
X144988568Y-84723229D01*
X144951720Y-84775622D01*
X144887008Y-84801969D01*
X144818325Y-84789147D01*
X144767477Y-84741227D01*
X144750500Y-84678601D01*
X144750500Y-84643620D01*
X144750499Y-84643618D01*
X144728129Y-84531158D01*
X144719737Y-84488968D01*
X144683694Y-84401951D01*
X144659397Y-84343292D01*
X144659390Y-84343279D01*
X144571789Y-84212176D01*
X144571786Y-84212172D01*
X144460292Y-84100678D01*
X144460288Y-84100675D01*
X144329185Y-84013074D01*
X144329172Y-84013067D01*
X144183501Y-83952729D01*
X144183489Y-83952726D01*
X144028845Y-83921965D01*
X144028842Y-83921965D01*
X143871158Y-83921965D01*
X143871155Y-83921965D01*
X143716510Y-83952726D01*
X143716498Y-83952729D01*
X143570827Y-84013067D01*
X143570814Y-84013074D01*
X143439711Y-84100675D01*
X143439707Y-84100678D01*
X143328213Y-84212172D01*
X143328210Y-84212176D01*
X143240609Y-84343279D01*
X143240602Y-84343292D01*
X143180264Y-84488963D01*
X143180261Y-84488975D01*
X143149500Y-84643618D01*
X130810500Y-84643618D01*
X130810500Y-84531158D01*
X130810500Y-84531155D01*
X130810499Y-84531153D01*
X130802107Y-84488963D01*
X130779737Y-84376503D01*
X130719921Y-84232095D01*
X130712453Y-84162627D01*
X130719923Y-84137190D01*
X130729735Y-84113502D01*
X130729735Y-84113501D01*
X130729737Y-84113497D01*
X130760500Y-83958842D01*
X130760500Y-83801158D01*
X130760500Y-83801155D01*
X130760499Y-83801153D01*
X130756647Y-83781786D01*
X130729737Y-83646503D01*
X130729735Y-83646498D01*
X130669397Y-83500827D01*
X130669390Y-83500814D01*
X130581789Y-83369711D01*
X130581786Y-83369707D01*
X130470292Y-83258213D01*
X130470288Y-83258210D01*
X130350545Y-83178200D01*
X130350496Y-83178168D01*
X130339179Y-83170606D01*
X130339172Y-83170602D01*
X130193501Y-83110264D01*
X130193489Y-83110261D01*
X130047155Y-83081153D01*
X131149500Y-83081153D01*
X131149500Y-83238846D01*
X131180261Y-83393489D01*
X131180264Y-83393501D01*
X131240602Y-83539172D01*
X131240609Y-83539185D01*
X131328210Y-83670288D01*
X131328213Y-83670292D01*
X131439707Y-83781786D01*
X131439711Y-83781789D01*
X131570814Y-83869390D01*
X131570827Y-83869397D01*
X131706520Y-83925602D01*
X131716503Y-83929737D01*
X131832076Y-83952726D01*
X131871153Y-83960499D01*
X131871156Y-83960500D01*
X131871158Y-83960500D01*
X132028844Y-83960500D01*
X132028845Y-83960499D01*
X132183497Y-83929737D01*
X132329179Y-83869394D01*
X132460289Y-83781789D01*
X132571789Y-83670289D01*
X132659394Y-83539179D01*
X132719737Y-83393497D01*
X132750500Y-83238842D01*
X132750500Y-83081158D01*
X132750500Y-83081155D01*
X132750499Y-83081153D01*
X132744658Y-83051789D01*
X132719737Y-82926503D01*
X132675285Y-82819185D01*
X132659397Y-82780827D01*
X132659390Y-82780814D01*
X132571789Y-82649711D01*
X132571786Y-82649707D01*
X132460292Y-82538213D01*
X132460288Y-82538210D01*
X132329179Y-82450605D01*
X132183501Y-82390264D01*
X132183489Y-82390261D01*
X132028845Y-82359500D01*
X132028842Y-82359500D01*
X131871158Y-82359500D01*
X131871155Y-82359500D01*
X131716510Y-82390261D01*
X131716498Y-82390264D01*
X131570827Y-82450602D01*
X131570814Y-82450609D01*
X131439711Y-82538210D01*
X131439707Y-82538213D01*
X131328213Y-82649707D01*
X131328210Y-82649711D01*
X131240609Y-82780814D01*
X131240602Y-82780827D01*
X131180264Y-82926498D01*
X131180261Y-82926510D01*
X131149500Y-83081153D01*
X130047155Y-83081153D01*
X130038845Y-83079500D01*
X130038842Y-83079500D01*
X129881158Y-83079500D01*
X129881155Y-83079500D01*
X129726510Y-83110261D01*
X129726498Y-83110264D01*
X129580827Y-83170602D01*
X129580814Y-83170609D01*
X129449711Y-83258210D01*
X129449707Y-83258213D01*
X129338213Y-83369707D01*
X129338210Y-83369711D01*
X129250609Y-83500814D01*
X129250602Y-83500827D01*
X129190264Y-83646498D01*
X129190261Y-83646510D01*
X129159500Y-83801153D01*
X115036547Y-83801153D01*
X115036547Y-80640258D01*
X125629500Y-80640258D01*
X125629500Y-80869741D01*
X125652210Y-81042229D01*
X125659452Y-81097238D01*
X125659453Y-81097240D01*
X125718842Y-81318887D01*
X125806650Y-81530876D01*
X125806656Y-81530888D01*
X125916189Y-81720606D01*
X125921392Y-81729617D01*
X126061081Y-81911661D01*
X126061089Y-81911670D01*
X126223330Y-82073911D01*
X126223338Y-82073918D01*
X126405382Y-82213607D01*
X126405385Y-82213608D01*
X126405388Y-82213611D01*
X126604112Y-82328344D01*
X126604117Y-82328346D01*
X126604123Y-82328349D01*
X126679329Y-82359500D01*
X126816113Y-82416158D01*
X127037762Y-82475548D01*
X127265266Y-82505500D01*
X127265273Y-82505500D01*
X127494727Y-82505500D01*
X127494734Y-82505500D01*
X127722238Y-82475548D01*
X127943887Y-82416158D01*
X128112893Y-82346153D01*
X133139500Y-82346153D01*
X133139500Y-82503846D01*
X133170261Y-82658489D01*
X133170264Y-82658501D01*
X133230602Y-82804172D01*
X133230609Y-82804185D01*
X133318210Y-82935288D01*
X133318213Y-82935292D01*
X133429707Y-83046786D01*
X133429711Y-83046789D01*
X133560814Y-83134390D01*
X133560827Y-83134397D01*
X133706498Y-83194735D01*
X133706503Y-83194737D01*
X133861153Y-83225499D01*
X133861156Y-83225500D01*
X133861158Y-83225500D01*
X134018844Y-83225500D01*
X134018845Y-83225499D01*
X134173497Y-83194737D01*
X134307108Y-83139394D01*
X134319172Y-83134397D01*
X134319172Y-83134396D01*
X134319179Y-83134394D01*
X134450289Y-83046789D01*
X134561789Y-82935289D01*
X134649394Y-82804179D01*
X134709737Y-82658497D01*
X134740500Y-82503842D01*
X134740500Y-82346158D01*
X134740500Y-82346155D01*
X134740499Y-82346153D01*
X135139500Y-82346153D01*
X135139500Y-82503846D01*
X135170261Y-82658489D01*
X135170264Y-82658501D01*
X135230602Y-82804172D01*
X135230609Y-82804185D01*
X135318210Y-82935288D01*
X135318213Y-82935292D01*
X135429707Y-83046786D01*
X135429711Y-83046789D01*
X135560814Y-83134390D01*
X135560827Y-83134397D01*
X135706498Y-83194735D01*
X135706503Y-83194737D01*
X135861153Y-83225499D01*
X135861156Y-83225500D01*
X135861158Y-83225500D01*
X136018844Y-83225500D01*
X136018845Y-83225499D01*
X136173497Y-83194737D01*
X136307108Y-83139394D01*
X136319172Y-83134397D01*
X136319172Y-83134396D01*
X136319179Y-83134394D01*
X136450289Y-83046789D01*
X136561789Y-82935289D01*
X136649394Y-82804179D01*
X136709737Y-82658497D01*
X136740500Y-82503842D01*
X136740500Y-82346158D01*
X136740500Y-82346155D01*
X136740499Y-82346153D01*
X137139500Y-82346153D01*
X137139500Y-82503846D01*
X137170261Y-82658489D01*
X137170264Y-82658501D01*
X137230602Y-82804172D01*
X137230609Y-82804185D01*
X137318210Y-82935288D01*
X137318213Y-82935292D01*
X137429707Y-83046786D01*
X137429711Y-83046789D01*
X137560814Y-83134390D01*
X137560827Y-83134397D01*
X137706498Y-83194735D01*
X137706503Y-83194737D01*
X137861153Y-83225499D01*
X137861156Y-83225500D01*
X137861158Y-83225500D01*
X138018844Y-83225500D01*
X138018845Y-83225499D01*
X138173497Y-83194737D01*
X138307108Y-83139394D01*
X138319172Y-83134397D01*
X138319172Y-83134396D01*
X138319179Y-83134394D01*
X138450289Y-83046789D01*
X138561789Y-82935289D01*
X138649394Y-82804179D01*
X138709737Y-82658497D01*
X138740500Y-82503842D01*
X138740500Y-82361153D01*
X139139500Y-82361153D01*
X139139500Y-82518846D01*
X139170261Y-82673489D01*
X139170264Y-82673501D01*
X139230602Y-82819172D01*
X139230609Y-82819185D01*
X139318210Y-82950288D01*
X139318213Y-82950292D01*
X139429707Y-83061786D01*
X139429711Y-83061789D01*
X139560814Y-83149390D01*
X139560827Y-83149397D01*
X139682363Y-83199738D01*
X139706503Y-83209737D01*
X139852823Y-83238842D01*
X139861153Y-83240499D01*
X139861156Y-83240500D01*
X139861158Y-83240500D01*
X140018844Y-83240500D01*
X140018845Y-83240499D01*
X140173497Y-83209737D01*
X140319179Y-83149394D01*
X140450289Y-83061789D01*
X140561789Y-82950289D01*
X140649394Y-82819179D01*
X140709737Y-82673497D01*
X140740500Y-82518842D01*
X140740500Y-82361158D01*
X140740500Y-82361157D01*
X140740500Y-82361155D01*
X140740499Y-82361154D01*
X140737516Y-82346158D01*
X140737515Y-82346153D01*
X141139500Y-82346153D01*
X141139500Y-82503846D01*
X141170261Y-82658489D01*
X141170264Y-82658501D01*
X141230602Y-82804172D01*
X141230609Y-82804185D01*
X141318210Y-82935288D01*
X141318213Y-82935292D01*
X141429707Y-83046786D01*
X141429711Y-83046789D01*
X141560814Y-83134390D01*
X141560827Y-83134397D01*
X141706498Y-83194735D01*
X141706503Y-83194737D01*
X141861153Y-83225499D01*
X141861156Y-83225500D01*
X141861158Y-83225500D01*
X142018844Y-83225500D01*
X142018845Y-83225499D01*
X142173497Y-83194737D01*
X142307108Y-83139394D01*
X142319172Y-83134397D01*
X142319172Y-83134396D01*
X142319179Y-83134394D01*
X142450289Y-83046789D01*
X142561789Y-82935289D01*
X142649394Y-82804179D01*
X142709737Y-82658497D01*
X142740500Y-82503842D01*
X142740500Y-82351153D01*
X143139500Y-82351153D01*
X143139500Y-82508846D01*
X143170261Y-82663489D01*
X143170264Y-82663501D01*
X143230602Y-82809172D01*
X143230609Y-82809185D01*
X143318210Y-82940288D01*
X143318213Y-82940292D01*
X143429707Y-83051786D01*
X143429711Y-83051789D01*
X143560814Y-83139390D01*
X143560827Y-83139397D01*
X143694427Y-83194735D01*
X143706503Y-83199737D01*
X143861153Y-83230499D01*
X143861156Y-83230500D01*
X143861158Y-83230500D01*
X144018844Y-83230500D01*
X144018845Y-83230499D01*
X144173497Y-83199737D01*
X144286166Y-83153067D01*
X144319172Y-83139397D01*
X144319172Y-83139396D01*
X144319179Y-83139394D01*
X144450289Y-83051789D01*
X144561789Y-82940289D01*
X144649394Y-82809179D01*
X144709737Y-82663497D01*
X144740500Y-82508842D01*
X144740500Y-82351158D01*
X144740500Y-82351155D01*
X144740499Y-82351153D01*
X144713139Y-82213607D01*
X144709737Y-82196503D01*
X144694040Y-82158607D01*
X144649397Y-82050827D01*
X144649390Y-82050814D01*
X144561789Y-81919711D01*
X144561786Y-81919707D01*
X144450292Y-81808213D01*
X144450288Y-81808210D01*
X144319185Y-81720609D01*
X144319172Y-81720602D01*
X144173501Y-81660264D01*
X144173489Y-81660261D01*
X144018845Y-81629500D01*
X144018842Y-81629500D01*
X143861158Y-81629500D01*
X143861155Y-81629500D01*
X143706510Y-81660261D01*
X143706498Y-81660264D01*
X143560827Y-81720602D01*
X143560814Y-81720609D01*
X143429711Y-81808210D01*
X143429707Y-81808213D01*
X143318213Y-81919707D01*
X143318210Y-81919711D01*
X143230609Y-82050814D01*
X143230602Y-82050827D01*
X143170264Y-82196498D01*
X143170261Y-82196510D01*
X143139500Y-82351153D01*
X142740500Y-82351153D01*
X142740500Y-82346158D01*
X142740500Y-82346155D01*
X142740499Y-82346153D01*
X142709737Y-82191503D01*
X142696111Y-82158607D01*
X142649397Y-82045827D01*
X142649390Y-82045814D01*
X142561789Y-81914711D01*
X142561786Y-81914707D01*
X142450292Y-81803213D01*
X142450288Y-81803210D01*
X142319185Y-81715609D01*
X142319172Y-81715602D01*
X142173501Y-81655264D01*
X142173489Y-81655261D01*
X142018845Y-81624500D01*
X142018842Y-81624500D01*
X141861158Y-81624500D01*
X141861155Y-81624500D01*
X141706510Y-81655261D01*
X141706498Y-81655264D01*
X141560827Y-81715602D01*
X141560814Y-81715609D01*
X141429711Y-81803210D01*
X141429707Y-81803213D01*
X141318213Y-81914707D01*
X141318210Y-81914711D01*
X141230609Y-82045814D01*
X141230602Y-82045827D01*
X141170264Y-82191498D01*
X141170261Y-82191510D01*
X141139500Y-82346153D01*
X140737515Y-82346153D01*
X140709737Y-82206503D01*
X140689898Y-82158607D01*
X140649397Y-82060827D01*
X140649390Y-82060814D01*
X140561789Y-81929711D01*
X140561786Y-81929707D01*
X140450292Y-81818213D01*
X140450288Y-81818210D01*
X140319185Y-81730609D01*
X140319172Y-81730602D01*
X140173501Y-81670264D01*
X140173489Y-81670261D01*
X140018845Y-81639500D01*
X140018842Y-81639500D01*
X139861158Y-81639500D01*
X139861155Y-81639500D01*
X139706510Y-81670261D01*
X139706498Y-81670264D01*
X139560827Y-81730602D01*
X139560814Y-81730609D01*
X139429711Y-81818210D01*
X139429707Y-81818213D01*
X139318213Y-81929707D01*
X139318210Y-81929711D01*
X139230609Y-82060814D01*
X139230602Y-82060827D01*
X139170264Y-82206498D01*
X139170261Y-82206510D01*
X139139500Y-82361153D01*
X138740500Y-82361153D01*
X138740500Y-82346158D01*
X138740500Y-82346155D01*
X138740499Y-82346153D01*
X138709737Y-82191503D01*
X138696111Y-82158607D01*
X138649397Y-82045827D01*
X138649390Y-82045814D01*
X138561789Y-81914711D01*
X138561786Y-81914707D01*
X138450292Y-81803213D01*
X138450288Y-81803210D01*
X138319185Y-81715609D01*
X138319172Y-81715602D01*
X138173501Y-81655264D01*
X138173489Y-81655261D01*
X138018845Y-81624500D01*
X138018842Y-81624500D01*
X137861158Y-81624500D01*
X137861155Y-81624500D01*
X137706510Y-81655261D01*
X137706498Y-81655264D01*
X137560827Y-81715602D01*
X137560814Y-81715609D01*
X137429711Y-81803210D01*
X137429707Y-81803213D01*
X137318213Y-81914707D01*
X137318210Y-81914711D01*
X137230609Y-82045814D01*
X137230602Y-82045827D01*
X137170264Y-82191498D01*
X137170261Y-82191510D01*
X137139500Y-82346153D01*
X136740499Y-82346153D01*
X136709737Y-82191503D01*
X136696111Y-82158607D01*
X136649397Y-82045827D01*
X136649390Y-82045814D01*
X136561789Y-81914711D01*
X136561786Y-81914707D01*
X136450292Y-81803213D01*
X136450288Y-81803210D01*
X136319185Y-81715609D01*
X136319172Y-81715602D01*
X136173501Y-81655264D01*
X136173489Y-81655261D01*
X136018845Y-81624500D01*
X136018842Y-81624500D01*
X135861158Y-81624500D01*
X135861155Y-81624500D01*
X135706510Y-81655261D01*
X135706498Y-81655264D01*
X135560827Y-81715602D01*
X135560814Y-81715609D01*
X135429711Y-81803210D01*
X135429707Y-81803213D01*
X135318213Y-81914707D01*
X135318210Y-81914711D01*
X135230609Y-82045814D01*
X135230602Y-82045827D01*
X135170264Y-82191498D01*
X135170261Y-82191510D01*
X135139500Y-82346153D01*
X134740499Y-82346153D01*
X134709737Y-82191503D01*
X134696111Y-82158607D01*
X134649397Y-82045827D01*
X134649390Y-82045814D01*
X134561789Y-81914711D01*
X134561786Y-81914707D01*
X134450292Y-81803213D01*
X134450288Y-81803210D01*
X134319185Y-81715609D01*
X134319172Y-81715602D01*
X134173501Y-81655264D01*
X134173489Y-81655261D01*
X134018845Y-81624500D01*
X134018842Y-81624500D01*
X133861158Y-81624500D01*
X133861155Y-81624500D01*
X133706510Y-81655261D01*
X133706498Y-81655264D01*
X133560827Y-81715602D01*
X133560814Y-81715609D01*
X133429711Y-81803210D01*
X133429707Y-81803213D01*
X133318213Y-81914707D01*
X133318210Y-81914711D01*
X133230609Y-82045814D01*
X133230602Y-82045827D01*
X133170264Y-82191498D01*
X133170261Y-82191510D01*
X133139500Y-82346153D01*
X128112893Y-82346153D01*
X128155888Y-82328344D01*
X128354612Y-82213611D01*
X128536661Y-82073919D01*
X128536665Y-82073914D01*
X128536670Y-82073911D01*
X128698911Y-81911670D01*
X128698914Y-81911665D01*
X128698919Y-81911661D01*
X128838611Y-81729612D01*
X128953344Y-81530888D01*
X129041158Y-81318887D01*
X129100548Y-81097238D01*
X129130500Y-80869734D01*
X129130500Y-80640266D01*
X129127720Y-80619154D01*
X129124856Y-80597392D01*
X129123258Y-80585258D01*
X174739500Y-80585258D01*
X174739500Y-80814741D01*
X174764446Y-81004215D01*
X174769452Y-81042238D01*
X174769453Y-81042240D01*
X174828842Y-81263887D01*
X174916650Y-81475876D01*
X174916656Y-81475888D01*
X175023103Y-81660261D01*
X175031392Y-81674617D01*
X175171081Y-81856661D01*
X175171089Y-81856670D01*
X175333330Y-82018911D01*
X175333338Y-82018918D01*
X175515382Y-82158607D01*
X175515385Y-82158608D01*
X175515388Y-82158611D01*
X175714112Y-82273344D01*
X175714117Y-82273346D01*
X175714123Y-82273349D01*
X175805480Y-82311190D01*
X175926113Y-82361158D01*
X176147762Y-82420548D01*
X176375266Y-82450500D01*
X176375273Y-82450500D01*
X176604727Y-82450500D01*
X176604734Y-82450500D01*
X176832238Y-82420548D01*
X177053887Y-82361158D01*
X177265888Y-82273344D01*
X177464612Y-82158611D01*
X177646661Y-82018919D01*
X177646665Y-82018914D01*
X177646670Y-82018911D01*
X177808911Y-81856670D01*
X177808914Y-81856665D01*
X177808919Y-81856661D01*
X177948611Y-81674612D01*
X178063344Y-81475888D01*
X178151158Y-81263887D01*
X178210548Y-81042238D01*
X178240500Y-80814734D01*
X178240500Y-80585266D01*
X178210548Y-80357762D01*
X178151158Y-80136113D01*
X178086663Y-79980409D01*
X178063349Y-79924123D01*
X178063346Y-79924117D01*
X178063344Y-79924112D01*
X177948611Y-79725388D01*
X177948608Y-79725385D01*
X177948607Y-79725382D01*
X177808918Y-79543338D01*
X177808911Y-79543330D01*
X177646670Y-79381089D01*
X177646661Y-79381081D01*
X177464617Y-79241392D01*
X177265890Y-79126657D01*
X177265876Y-79126650D01*
X177053887Y-79038842D01*
X177037499Y-79034451D01*
X176832238Y-78979452D01*
X176794215Y-78974446D01*
X176604741Y-78949500D01*
X176604734Y-78949500D01*
X176375266Y-78949500D01*
X176375258Y-78949500D01*
X176158715Y-78978009D01*
X176147762Y-78979452D01*
X176054281Y-79004500D01*
X175926112Y-79038842D01*
X175714123Y-79126650D01*
X175714109Y-79126657D01*
X175515382Y-79241392D01*
X175333338Y-79381081D01*
X175171081Y-79543338D01*
X175031392Y-79725382D01*
X174916657Y-79924109D01*
X174916650Y-79924123D01*
X174828842Y-80136112D01*
X174769453Y-80357759D01*
X174769451Y-80357770D01*
X174739500Y-80585258D01*
X129123258Y-80585258D01*
X129116329Y-80532628D01*
X129100548Y-80412762D01*
X129041158Y-80191113D01*
X128976271Y-80034463D01*
X128953349Y-79979123D01*
X128953346Y-79979117D01*
X128953344Y-79979112D01*
X128838611Y-79780388D01*
X128838608Y-79780385D01*
X128838607Y-79780382D01*
X128698918Y-79598338D01*
X128698911Y-79598330D01*
X128536670Y-79436089D01*
X128536661Y-79436081D01*
X128354617Y-79296392D01*
X128155890Y-79181657D01*
X128155876Y-79181650D01*
X127943887Y-79093842D01*
X127722238Y-79034452D01*
X127684215Y-79029446D01*
X127494741Y-79004500D01*
X127494734Y-79004500D01*
X127265266Y-79004500D01*
X127265258Y-79004500D01*
X127048715Y-79033009D01*
X127037762Y-79034452D01*
X126944076Y-79059554D01*
X126816112Y-79093842D01*
X126604123Y-79181650D01*
X126604109Y-79181657D01*
X126405382Y-79296392D01*
X126223338Y-79436081D01*
X126061081Y-79598338D01*
X125921392Y-79780382D01*
X125806657Y-79979109D01*
X125806650Y-79979123D01*
X125718842Y-80191112D01*
X125659453Y-80412759D01*
X125659451Y-80412770D01*
X125629500Y-80640258D01*
X115036547Y-80640258D01*
X115036547Y-79985817D01*
X115036665Y-79980409D01*
X115039424Y-79917220D01*
X115053432Y-79596338D01*
X115054371Y-79585608D01*
X115104196Y-79207145D01*
X115106073Y-79196504D01*
X115188693Y-78823829D01*
X115191485Y-78813409D01*
X115306274Y-78449345D01*
X115309972Y-78439188D01*
X115456045Y-78086534D01*
X115460604Y-78076757D01*
X115636871Y-77738153D01*
X115642265Y-77728812D01*
X115847362Y-77406876D01*
X115853558Y-77398027D01*
X116085937Y-77095185D01*
X116092866Y-77086926D01*
X116350769Y-76805475D01*
X116358396Y-76797848D01*
X116639837Y-76539957D01*
X116648121Y-76533008D01*
X116950960Y-76300633D01*
X116959788Y-76294451D01*
X117281733Y-76089353D01*
X117291084Y-76083953D01*
X117629697Y-75907685D01*
X117639441Y-75903141D01*
X117992141Y-75757051D01*
X118002285Y-75753360D01*
X118366344Y-75638574D01*
X118376753Y-75635785D01*
X118749445Y-75553165D01*
X118760071Y-75551291D01*
X119138518Y-75501471D01*
X119149287Y-75500529D01*
X119534109Y-75483731D01*
X119539549Y-75483614D01*
X185878387Y-75534916D01*
G37*
%TD.AperFunction*%
%TD*%
M02*
