%TF.GenerationSoftware,KiCad,Pcbnew,9.0.7*%
%TF.CreationDate,2026-01-30T16:00:42+01:00*%
%TF.ProjectId,icncconv,69636e63-636f-46e7-962e-6b696361645f,rev?*%
%TF.SameCoordinates,Original*%
%TF.FileFunction,Legend,Top*%
%TF.FilePolarity,Positive*%
%FSLAX46Y46*%
G04 Gerber Fmt 4.6, Leading zero omitted, Abs format (unit mm)*
G04 Created by KiCad (PCBNEW 9.0.7) date 2026-01-30 16:00:42*
%MOMM*%
%LPD*%
G01*
G04 APERTURE LIST*
G04 Aperture macros list*
%AMRoundRect*
0 Rectangle with rounded corners*
0 $1 Rounding radius*
0 $2 $3 $4 $5 $6 $7 $8 $9 X,Y pos of 4 corners*
0 Add a 4 corners polygon primitive as box body*
4,1,4,$2,$3,$4,$5,$6,$7,$8,$9,$2,$3,0*
0 Add four circle primitives for the rounded corners*
1,1,$1+$1,$2,$3*
1,1,$1+$1,$4,$5*
1,1,$1+$1,$6,$7*
1,1,$1+$1,$8,$9*
0 Add four rect primitives between the rounded corners*
20,1,$1+$1,$2,$3,$4,$5,0*
20,1,$1+$1,$4,$5,$6,$7,0*
20,1,$1+$1,$6,$7,$8,$9,0*
20,1,$1+$1,$8,$9,$2,$3,0*%
G04 Aperture macros list end*
%ADD10C,0.150000*%
%ADD11C,0.120000*%
%ADD12C,0.250000*%
%ADD13C,0.300000*%
%ADD14C,0.500000*%
%ADD15RoundRect,0.112500X-0.112500X0.187500X-0.112500X-0.187500X0.112500X-0.187500X0.112500X0.187500X0*%
%ADD16RoundRect,0.237500X-0.250000X-0.237500X0.250000X-0.237500X0.250000X0.237500X-0.250000X0.237500X0*%
%ADD17RoundRect,0.237500X0.250000X0.237500X-0.250000X0.237500X-0.250000X-0.237500X0.250000X-0.237500X0*%
%ADD18RoundRect,0.237500X0.300000X0.237500X-0.300000X0.237500X-0.300000X-0.237500X0.300000X-0.237500X0*%
%ADD19RoundRect,0.237500X0.237500X-0.300000X0.237500X0.300000X-0.237500X0.300000X-0.237500X-0.300000X0*%
%ADD20RoundRect,0.237500X-0.237500X0.300000X-0.237500X-0.300000X0.237500X-0.300000X0.237500X0.300000X0*%
%ADD21RoundRect,0.237500X-0.300000X-0.237500X0.300000X-0.237500X0.300000X0.237500X-0.300000X0.237500X0*%
%ADD22R,1.000000X0.500000*%
%ADD23R,0.650000X0.900000*%
%ADD24R,1.500000X1.000000*%
%ADD25RoundRect,0.112500X-0.187500X-0.112500X0.187500X-0.112500X0.187500X0.112500X-0.187500X0.112500X0*%
%ADD26C,3.200000*%
%ADD27C,6.400000*%
%ADD28R,0.900000X0.900000*%
%ADD29R,0.900000X1.250000*%
%ADD30C,1.100000*%
%ADD31R,1.200000X1.200000*%
%ADD32R,1.600000X1.500000*%
%ADD33O,0.600000X1.970000*%
%ADD34RoundRect,0.100000X0.100000X-0.637500X0.100000X0.637500X-0.100000X0.637500X-0.100000X-0.637500X0*%
%ADD35C,1.800000*%
%ADD36R,1.800000X1.800000*%
%ADD37C,4.500000*%
%ADD38C,2.600000*%
G04 APERTURE END LIST*
D10*
X162218095Y-110062438D02*
X162122857Y-110014819D01*
X162122857Y-110014819D02*
X161980000Y-110014819D01*
X161980000Y-110014819D02*
X161837143Y-110062438D01*
X161837143Y-110062438D02*
X161741905Y-110157676D01*
X161741905Y-110157676D02*
X161694286Y-110252914D01*
X161694286Y-110252914D02*
X161646667Y-110443390D01*
X161646667Y-110443390D02*
X161646667Y-110586247D01*
X161646667Y-110586247D02*
X161694286Y-110776723D01*
X161694286Y-110776723D02*
X161741905Y-110871961D01*
X161741905Y-110871961D02*
X161837143Y-110967200D01*
X161837143Y-110967200D02*
X161980000Y-111014819D01*
X161980000Y-111014819D02*
X162075238Y-111014819D01*
X162075238Y-111014819D02*
X162218095Y-110967200D01*
X162218095Y-110967200D02*
X162265714Y-110919580D01*
X162265714Y-110919580D02*
X162265714Y-110586247D01*
X162265714Y-110586247D02*
X162075238Y-110586247D01*
X162694286Y-111014819D02*
X162694286Y-110014819D01*
X162694286Y-110014819D02*
X163265714Y-111014819D01*
X163265714Y-111014819D02*
X163265714Y-110014819D01*
X163741905Y-111014819D02*
X163741905Y-110014819D01*
X163741905Y-110014819D02*
X163980000Y-110014819D01*
X163980000Y-110014819D02*
X164122857Y-110062438D01*
X164122857Y-110062438D02*
X164218095Y-110157676D01*
X164218095Y-110157676D02*
X164265714Y-110252914D01*
X164265714Y-110252914D02*
X164313333Y-110443390D01*
X164313333Y-110443390D02*
X164313333Y-110586247D01*
X164313333Y-110586247D02*
X164265714Y-110776723D01*
X164265714Y-110776723D02*
X164218095Y-110871961D01*
X164218095Y-110871961D02*
X164122857Y-110967200D01*
X164122857Y-110967200D02*
X163980000Y-111014819D01*
X163980000Y-111014819D02*
X163741905Y-111014819D01*
X148695200Y-119040475D02*
X148742819Y-118897618D01*
X148742819Y-118897618D02*
X148742819Y-118659523D01*
X148742819Y-118659523D02*
X148695200Y-118564285D01*
X148695200Y-118564285D02*
X148647580Y-118516666D01*
X148647580Y-118516666D02*
X148552342Y-118469047D01*
X148552342Y-118469047D02*
X148457104Y-118469047D01*
X148457104Y-118469047D02*
X148361866Y-118516666D01*
X148361866Y-118516666D02*
X148314247Y-118564285D01*
X148314247Y-118564285D02*
X148266628Y-118659523D01*
X148266628Y-118659523D02*
X148219009Y-118849999D01*
X148219009Y-118849999D02*
X148171390Y-118945237D01*
X148171390Y-118945237D02*
X148123771Y-118992856D01*
X148123771Y-118992856D02*
X148028533Y-119040475D01*
X148028533Y-119040475D02*
X147933295Y-119040475D01*
X147933295Y-119040475D02*
X147838057Y-118992856D01*
X147838057Y-118992856D02*
X147790438Y-118945237D01*
X147790438Y-118945237D02*
X147742819Y-118849999D01*
X147742819Y-118849999D02*
X147742819Y-118611904D01*
X147742819Y-118611904D02*
X147790438Y-118469047D01*
X147790438Y-117516666D02*
X147742819Y-117611904D01*
X147742819Y-117611904D02*
X147742819Y-117754761D01*
X147742819Y-117754761D02*
X147790438Y-117897618D01*
X147790438Y-117897618D02*
X147885676Y-117992856D01*
X147885676Y-117992856D02*
X147980914Y-118040475D01*
X147980914Y-118040475D02*
X148171390Y-118088094D01*
X148171390Y-118088094D02*
X148314247Y-118088094D01*
X148314247Y-118088094D02*
X148504723Y-118040475D01*
X148504723Y-118040475D02*
X148599961Y-117992856D01*
X148599961Y-117992856D02*
X148695200Y-117897618D01*
X148695200Y-117897618D02*
X148742819Y-117754761D01*
X148742819Y-117754761D02*
X148742819Y-117659523D01*
X148742819Y-117659523D02*
X148695200Y-117516666D01*
X148695200Y-117516666D02*
X148647580Y-117469047D01*
X148647580Y-117469047D02*
X148314247Y-117469047D01*
X148314247Y-117469047D02*
X148314247Y-117659523D01*
X147742819Y-116849999D02*
X147742819Y-116754761D01*
X147742819Y-116754761D02*
X147790438Y-116659523D01*
X147790438Y-116659523D02*
X147838057Y-116611904D01*
X147838057Y-116611904D02*
X147933295Y-116564285D01*
X147933295Y-116564285D02*
X148123771Y-116516666D01*
X148123771Y-116516666D02*
X148361866Y-116516666D01*
X148361866Y-116516666D02*
X148552342Y-116564285D01*
X148552342Y-116564285D02*
X148647580Y-116611904D01*
X148647580Y-116611904D02*
X148695200Y-116659523D01*
X148695200Y-116659523D02*
X148742819Y-116754761D01*
X148742819Y-116754761D02*
X148742819Y-116849999D01*
X148742819Y-116849999D02*
X148695200Y-116945237D01*
X148695200Y-116945237D02*
X148647580Y-116992856D01*
X148647580Y-116992856D02*
X148552342Y-117040475D01*
X148552342Y-117040475D02*
X148361866Y-117088094D01*
X148361866Y-117088094D02*
X148123771Y-117088094D01*
X148123771Y-117088094D02*
X147933295Y-117040475D01*
X147933295Y-117040475D02*
X147838057Y-116992856D01*
X147838057Y-116992856D02*
X147790438Y-116945237D01*
X147790438Y-116945237D02*
X147742819Y-116849999D01*
X161984286Y-113163866D02*
X162746191Y-113163866D01*
X162365238Y-113544819D02*
X162365238Y-112782914D01*
X163698571Y-112544819D02*
X163222381Y-112544819D01*
X163222381Y-112544819D02*
X163174762Y-113021009D01*
X163174762Y-113021009D02*
X163222381Y-112973390D01*
X163222381Y-112973390D02*
X163317619Y-112925771D01*
X163317619Y-112925771D02*
X163555714Y-112925771D01*
X163555714Y-112925771D02*
X163650952Y-112973390D01*
X163650952Y-112973390D02*
X163698571Y-113021009D01*
X163698571Y-113021009D02*
X163746190Y-113116247D01*
X163746190Y-113116247D02*
X163746190Y-113354342D01*
X163746190Y-113354342D02*
X163698571Y-113449580D01*
X163698571Y-113449580D02*
X163650952Y-113497200D01*
X163650952Y-113497200D02*
X163555714Y-113544819D01*
X163555714Y-113544819D02*
X163317619Y-113544819D01*
X163317619Y-113544819D02*
X163222381Y-113497200D01*
X163222381Y-113497200D02*
X163174762Y-113449580D01*
X164031905Y-112544819D02*
X164365238Y-113544819D01*
X164365238Y-113544819D02*
X164698571Y-112544819D01*
X154433819Y-118421428D02*
X153957628Y-118754761D01*
X154433819Y-118992856D02*
X153433819Y-118992856D01*
X153433819Y-118992856D02*
X153433819Y-118611904D01*
X153433819Y-118611904D02*
X153481438Y-118516666D01*
X153481438Y-118516666D02*
X153529057Y-118469047D01*
X153529057Y-118469047D02*
X153624295Y-118421428D01*
X153624295Y-118421428D02*
X153767152Y-118421428D01*
X153767152Y-118421428D02*
X153862390Y-118469047D01*
X153862390Y-118469047D02*
X153910009Y-118516666D01*
X153910009Y-118516666D02*
X153957628Y-118611904D01*
X153957628Y-118611904D02*
X153957628Y-118992856D01*
X153433819Y-117802380D02*
X153433819Y-117611904D01*
X153433819Y-117611904D02*
X153481438Y-117516666D01*
X153481438Y-117516666D02*
X153576676Y-117421428D01*
X153576676Y-117421428D02*
X153767152Y-117373809D01*
X153767152Y-117373809D02*
X154100485Y-117373809D01*
X154100485Y-117373809D02*
X154290961Y-117421428D01*
X154290961Y-117421428D02*
X154386200Y-117516666D01*
X154386200Y-117516666D02*
X154433819Y-117611904D01*
X154433819Y-117611904D02*
X154433819Y-117802380D01*
X154433819Y-117802380D02*
X154386200Y-117897618D01*
X154386200Y-117897618D02*
X154290961Y-117992856D01*
X154290961Y-117992856D02*
X154100485Y-118040475D01*
X154100485Y-118040475D02*
X153767152Y-118040475D01*
X153767152Y-118040475D02*
X153576676Y-117992856D01*
X153576676Y-117992856D02*
X153481438Y-117897618D01*
X153481438Y-117897618D02*
X153433819Y-117802380D01*
X153433819Y-117088094D02*
X153433819Y-116516666D01*
X154433819Y-116802380D02*
X153433819Y-116802380D01*
X157616700Y-119040475D02*
X157664319Y-118897618D01*
X157664319Y-118897618D02*
X157664319Y-118659523D01*
X157664319Y-118659523D02*
X157616700Y-118564285D01*
X157616700Y-118564285D02*
X157569080Y-118516666D01*
X157569080Y-118516666D02*
X157473842Y-118469047D01*
X157473842Y-118469047D02*
X157378604Y-118469047D01*
X157378604Y-118469047D02*
X157283366Y-118516666D01*
X157283366Y-118516666D02*
X157235747Y-118564285D01*
X157235747Y-118564285D02*
X157188128Y-118659523D01*
X157188128Y-118659523D02*
X157140509Y-118849999D01*
X157140509Y-118849999D02*
X157092890Y-118945237D01*
X157092890Y-118945237D02*
X157045271Y-118992856D01*
X157045271Y-118992856D02*
X156950033Y-119040475D01*
X156950033Y-119040475D02*
X156854795Y-119040475D01*
X156854795Y-119040475D02*
X156759557Y-118992856D01*
X156759557Y-118992856D02*
X156711938Y-118945237D01*
X156711938Y-118945237D02*
X156664319Y-118849999D01*
X156664319Y-118849999D02*
X156664319Y-118611904D01*
X156664319Y-118611904D02*
X156711938Y-118469047D01*
X157140509Y-117707142D02*
X157140509Y-118040475D01*
X157664319Y-118040475D02*
X156664319Y-118040475D01*
X156664319Y-118040475D02*
X156664319Y-117564285D01*
X157664319Y-116659523D02*
X157664319Y-117230951D01*
X157664319Y-116945237D02*
X156664319Y-116945237D01*
X156664319Y-116945237D02*
X156807176Y-117040475D01*
X156807176Y-117040475D02*
X156902414Y-117135713D01*
X156902414Y-117135713D02*
X156950033Y-117230951D01*
X145464700Y-119040475D02*
X145512319Y-118897618D01*
X145512319Y-118897618D02*
X145512319Y-118659523D01*
X145512319Y-118659523D02*
X145464700Y-118564285D01*
X145464700Y-118564285D02*
X145417080Y-118516666D01*
X145417080Y-118516666D02*
X145321842Y-118469047D01*
X145321842Y-118469047D02*
X145226604Y-118469047D01*
X145226604Y-118469047D02*
X145131366Y-118516666D01*
X145131366Y-118516666D02*
X145083747Y-118564285D01*
X145083747Y-118564285D02*
X145036128Y-118659523D01*
X145036128Y-118659523D02*
X144988509Y-118849999D01*
X144988509Y-118849999D02*
X144940890Y-118945237D01*
X144940890Y-118945237D02*
X144893271Y-118992856D01*
X144893271Y-118992856D02*
X144798033Y-119040475D01*
X144798033Y-119040475D02*
X144702795Y-119040475D01*
X144702795Y-119040475D02*
X144607557Y-118992856D01*
X144607557Y-118992856D02*
X144559938Y-118945237D01*
X144559938Y-118945237D02*
X144512319Y-118849999D01*
X144512319Y-118849999D02*
X144512319Y-118611904D01*
X144512319Y-118611904D02*
X144559938Y-118469047D01*
X144559938Y-117516666D02*
X144512319Y-117611904D01*
X144512319Y-117611904D02*
X144512319Y-117754761D01*
X144512319Y-117754761D02*
X144559938Y-117897618D01*
X144559938Y-117897618D02*
X144655176Y-117992856D01*
X144655176Y-117992856D02*
X144750414Y-118040475D01*
X144750414Y-118040475D02*
X144940890Y-118088094D01*
X144940890Y-118088094D02*
X145083747Y-118088094D01*
X145083747Y-118088094D02*
X145274223Y-118040475D01*
X145274223Y-118040475D02*
X145369461Y-117992856D01*
X145369461Y-117992856D02*
X145464700Y-117897618D01*
X145464700Y-117897618D02*
X145512319Y-117754761D01*
X145512319Y-117754761D02*
X145512319Y-117659523D01*
X145512319Y-117659523D02*
X145464700Y-117516666D01*
X145464700Y-117516666D02*
X145417080Y-117469047D01*
X145417080Y-117469047D02*
X145083747Y-117469047D01*
X145083747Y-117469047D02*
X145083747Y-117659523D01*
X145512319Y-116516666D02*
X145512319Y-117088094D01*
X145512319Y-116802380D02*
X144512319Y-116802380D01*
X144512319Y-116802380D02*
X144655176Y-116897618D01*
X144655176Y-116897618D02*
X144750414Y-116992856D01*
X144750414Y-116992856D02*
X144798033Y-117088094D01*
X160847200Y-119040475D02*
X160894819Y-118897618D01*
X160894819Y-118897618D02*
X160894819Y-118659523D01*
X160894819Y-118659523D02*
X160847200Y-118564285D01*
X160847200Y-118564285D02*
X160799580Y-118516666D01*
X160799580Y-118516666D02*
X160704342Y-118469047D01*
X160704342Y-118469047D02*
X160609104Y-118469047D01*
X160609104Y-118469047D02*
X160513866Y-118516666D01*
X160513866Y-118516666D02*
X160466247Y-118564285D01*
X160466247Y-118564285D02*
X160418628Y-118659523D01*
X160418628Y-118659523D02*
X160371009Y-118849999D01*
X160371009Y-118849999D02*
X160323390Y-118945237D01*
X160323390Y-118945237D02*
X160275771Y-118992856D01*
X160275771Y-118992856D02*
X160180533Y-119040475D01*
X160180533Y-119040475D02*
X160085295Y-119040475D01*
X160085295Y-119040475D02*
X159990057Y-118992856D01*
X159990057Y-118992856D02*
X159942438Y-118945237D01*
X159942438Y-118945237D02*
X159894819Y-118849999D01*
X159894819Y-118849999D02*
X159894819Y-118611904D01*
X159894819Y-118611904D02*
X159942438Y-118469047D01*
X160371009Y-117707142D02*
X160371009Y-118040475D01*
X160894819Y-118040475D02*
X159894819Y-118040475D01*
X159894819Y-118040475D02*
X159894819Y-117564285D01*
X159894819Y-116992856D02*
X159894819Y-116897618D01*
X159894819Y-116897618D02*
X159942438Y-116802380D01*
X159942438Y-116802380D02*
X159990057Y-116754761D01*
X159990057Y-116754761D02*
X160085295Y-116707142D01*
X160085295Y-116707142D02*
X160275771Y-116659523D01*
X160275771Y-116659523D02*
X160513866Y-116659523D01*
X160513866Y-116659523D02*
X160704342Y-116707142D01*
X160704342Y-116707142D02*
X160799580Y-116754761D01*
X160799580Y-116754761D02*
X160847200Y-116802380D01*
X160847200Y-116802380D02*
X160894819Y-116897618D01*
X160894819Y-116897618D02*
X160894819Y-116992856D01*
X160894819Y-116992856D02*
X160847200Y-117088094D01*
X160847200Y-117088094D02*
X160799580Y-117135713D01*
X160799580Y-117135713D02*
X160704342Y-117183332D01*
X160704342Y-117183332D02*
X160513866Y-117230951D01*
X160513866Y-117230951D02*
X160275771Y-117230951D01*
X160275771Y-117230951D02*
X160085295Y-117183332D01*
X160085295Y-117183332D02*
X159990057Y-117135713D01*
X159990057Y-117135713D02*
X159942438Y-117088094D01*
X159942438Y-117088094D02*
X159894819Y-116992856D01*
X137188095Y-92700057D02*
X137235714Y-92652438D01*
X137235714Y-92652438D02*
X137330952Y-92604819D01*
X137330952Y-92604819D02*
X137569047Y-92604819D01*
X137569047Y-92604819D02*
X137664285Y-92652438D01*
X137664285Y-92652438D02*
X137711904Y-92700057D01*
X137711904Y-92700057D02*
X137759523Y-92795295D01*
X137759523Y-92795295D02*
X137759523Y-92890533D01*
X137759523Y-92890533D02*
X137711904Y-93033390D01*
X137711904Y-93033390D02*
X137140476Y-93604819D01*
X137140476Y-93604819D02*
X137759523Y-93604819D01*
X138664285Y-92604819D02*
X138188095Y-92604819D01*
X138188095Y-92604819D02*
X138140476Y-93081009D01*
X138140476Y-93081009D02*
X138188095Y-93033390D01*
X138188095Y-93033390D02*
X138283333Y-92985771D01*
X138283333Y-92985771D02*
X138521428Y-92985771D01*
X138521428Y-92985771D02*
X138616666Y-93033390D01*
X138616666Y-93033390D02*
X138664285Y-93081009D01*
X138664285Y-93081009D02*
X138711904Y-93176247D01*
X138711904Y-93176247D02*
X138711904Y-93414342D01*
X138711904Y-93414342D02*
X138664285Y-93509580D01*
X138664285Y-93509580D02*
X138616666Y-93557200D01*
X138616666Y-93557200D02*
X138521428Y-93604819D01*
X138521428Y-93604819D02*
X138283333Y-93604819D01*
X138283333Y-93604819D02*
X138188095Y-93557200D01*
X138188095Y-93557200D02*
X138140476Y-93509580D01*
X139140476Y-93604819D02*
X139140476Y-92604819D01*
X139711904Y-93604819D02*
X139283333Y-93033390D01*
X139711904Y-92604819D02*
X139140476Y-93176247D01*
X130474819Y-107750594D02*
X129474819Y-107750594D01*
X129474819Y-107750594D02*
X129474819Y-107512499D01*
X129474819Y-107512499D02*
X129522438Y-107369642D01*
X129522438Y-107369642D02*
X129617676Y-107274404D01*
X129617676Y-107274404D02*
X129712914Y-107226785D01*
X129712914Y-107226785D02*
X129903390Y-107179166D01*
X129903390Y-107179166D02*
X130046247Y-107179166D01*
X130046247Y-107179166D02*
X130236723Y-107226785D01*
X130236723Y-107226785D02*
X130331961Y-107274404D01*
X130331961Y-107274404D02*
X130427200Y-107369642D01*
X130427200Y-107369642D02*
X130474819Y-107512499D01*
X130474819Y-107512499D02*
X130474819Y-107750594D01*
X130474819Y-106226785D02*
X130474819Y-106798213D01*
X130474819Y-106512499D02*
X129474819Y-106512499D01*
X129474819Y-106512499D02*
X129617676Y-106607737D01*
X129617676Y-106607737D02*
X129712914Y-106702975D01*
X129712914Y-106702975D02*
X129760533Y-106798213D01*
X132815833Y-105189819D02*
X132482500Y-104713628D01*
X132244405Y-105189819D02*
X132244405Y-104189819D01*
X132244405Y-104189819D02*
X132625357Y-104189819D01*
X132625357Y-104189819D02*
X132720595Y-104237438D01*
X132720595Y-104237438D02*
X132768214Y-104285057D01*
X132768214Y-104285057D02*
X132815833Y-104380295D01*
X132815833Y-104380295D02*
X132815833Y-104523152D01*
X132815833Y-104523152D02*
X132768214Y-104618390D01*
X132768214Y-104618390D02*
X132720595Y-104666009D01*
X132720595Y-104666009D02*
X132625357Y-104713628D01*
X132625357Y-104713628D02*
X132244405Y-104713628D01*
X133672976Y-104523152D02*
X133672976Y-105189819D01*
X133434881Y-104142200D02*
X133196786Y-104856485D01*
X133196786Y-104856485D02*
X133815833Y-104856485D01*
X132815833Y-97909819D02*
X132482500Y-97433628D01*
X132244405Y-97909819D02*
X132244405Y-96909819D01*
X132244405Y-96909819D02*
X132625357Y-96909819D01*
X132625357Y-96909819D02*
X132720595Y-96957438D01*
X132720595Y-96957438D02*
X132768214Y-97005057D01*
X132768214Y-97005057D02*
X132815833Y-97100295D01*
X132815833Y-97100295D02*
X132815833Y-97243152D01*
X132815833Y-97243152D02*
X132768214Y-97338390D01*
X132768214Y-97338390D02*
X132720595Y-97386009D01*
X132720595Y-97386009D02*
X132625357Y-97433628D01*
X132625357Y-97433628D02*
X132244405Y-97433628D01*
X133387262Y-97338390D02*
X133292024Y-97290771D01*
X133292024Y-97290771D02*
X133244405Y-97243152D01*
X133244405Y-97243152D02*
X133196786Y-97147914D01*
X133196786Y-97147914D02*
X133196786Y-97100295D01*
X133196786Y-97100295D02*
X133244405Y-97005057D01*
X133244405Y-97005057D02*
X133292024Y-96957438D01*
X133292024Y-96957438D02*
X133387262Y-96909819D01*
X133387262Y-96909819D02*
X133577738Y-96909819D01*
X133577738Y-96909819D02*
X133672976Y-96957438D01*
X133672976Y-96957438D02*
X133720595Y-97005057D01*
X133720595Y-97005057D02*
X133768214Y-97100295D01*
X133768214Y-97100295D02*
X133768214Y-97147914D01*
X133768214Y-97147914D02*
X133720595Y-97243152D01*
X133720595Y-97243152D02*
X133672976Y-97290771D01*
X133672976Y-97290771D02*
X133577738Y-97338390D01*
X133577738Y-97338390D02*
X133387262Y-97338390D01*
X133387262Y-97338390D02*
X133292024Y-97386009D01*
X133292024Y-97386009D02*
X133244405Y-97433628D01*
X133244405Y-97433628D02*
X133196786Y-97528866D01*
X133196786Y-97528866D02*
X133196786Y-97719342D01*
X133196786Y-97719342D02*
X133244405Y-97814580D01*
X133244405Y-97814580D02*
X133292024Y-97862200D01*
X133292024Y-97862200D02*
X133387262Y-97909819D01*
X133387262Y-97909819D02*
X133577738Y-97909819D01*
X133577738Y-97909819D02*
X133672976Y-97862200D01*
X133672976Y-97862200D02*
X133720595Y-97814580D01*
X133720595Y-97814580D02*
X133768214Y-97719342D01*
X133768214Y-97719342D02*
X133768214Y-97528866D01*
X133768214Y-97528866D02*
X133720595Y-97433628D01*
X133720595Y-97433628D02*
X133672976Y-97386009D01*
X133672976Y-97386009D02*
X133577738Y-97338390D01*
X136855833Y-95049819D02*
X136522500Y-94573628D01*
X136284405Y-95049819D02*
X136284405Y-94049819D01*
X136284405Y-94049819D02*
X136665357Y-94049819D01*
X136665357Y-94049819D02*
X136760595Y-94097438D01*
X136760595Y-94097438D02*
X136808214Y-94145057D01*
X136808214Y-94145057D02*
X136855833Y-94240295D01*
X136855833Y-94240295D02*
X136855833Y-94383152D01*
X136855833Y-94383152D02*
X136808214Y-94478390D01*
X136808214Y-94478390D02*
X136760595Y-94526009D01*
X136760595Y-94526009D02*
X136665357Y-94573628D01*
X136665357Y-94573628D02*
X136284405Y-94573628D01*
X137808214Y-95049819D02*
X137236786Y-95049819D01*
X137522500Y-95049819D02*
X137522500Y-94049819D01*
X137522500Y-94049819D02*
X137427262Y-94192676D01*
X137427262Y-94192676D02*
X137332024Y-94287914D01*
X137332024Y-94287914D02*
X137236786Y-94335533D01*
X136379642Y-88779819D02*
X136046309Y-88303628D01*
X135808214Y-88779819D02*
X135808214Y-87779819D01*
X135808214Y-87779819D02*
X136189166Y-87779819D01*
X136189166Y-87779819D02*
X136284404Y-87827438D01*
X136284404Y-87827438D02*
X136332023Y-87875057D01*
X136332023Y-87875057D02*
X136379642Y-87970295D01*
X136379642Y-87970295D02*
X136379642Y-88113152D01*
X136379642Y-88113152D02*
X136332023Y-88208390D01*
X136332023Y-88208390D02*
X136284404Y-88256009D01*
X136284404Y-88256009D02*
X136189166Y-88303628D01*
X136189166Y-88303628D02*
X135808214Y-88303628D01*
X137332023Y-88779819D02*
X136760595Y-88779819D01*
X137046309Y-88779819D02*
X137046309Y-87779819D01*
X137046309Y-87779819D02*
X136951071Y-87922676D01*
X136951071Y-87922676D02*
X136855833Y-88017914D01*
X136855833Y-88017914D02*
X136760595Y-88065533D01*
X137712976Y-87875057D02*
X137760595Y-87827438D01*
X137760595Y-87827438D02*
X137855833Y-87779819D01*
X137855833Y-87779819D02*
X138093928Y-87779819D01*
X138093928Y-87779819D02*
X138189166Y-87827438D01*
X138189166Y-87827438D02*
X138236785Y-87875057D01*
X138236785Y-87875057D02*
X138284404Y-87970295D01*
X138284404Y-87970295D02*
X138284404Y-88065533D01*
X138284404Y-88065533D02*
X138236785Y-88208390D01*
X138236785Y-88208390D02*
X137665357Y-88779819D01*
X137665357Y-88779819D02*
X138284404Y-88779819D01*
X132805833Y-106079819D02*
X132472500Y-105603628D01*
X132234405Y-106079819D02*
X132234405Y-105079819D01*
X132234405Y-105079819D02*
X132615357Y-105079819D01*
X132615357Y-105079819D02*
X132710595Y-105127438D01*
X132710595Y-105127438D02*
X132758214Y-105175057D01*
X132758214Y-105175057D02*
X132805833Y-105270295D01*
X132805833Y-105270295D02*
X132805833Y-105413152D01*
X132805833Y-105413152D02*
X132758214Y-105508390D01*
X132758214Y-105508390D02*
X132710595Y-105556009D01*
X132710595Y-105556009D02*
X132615357Y-105603628D01*
X132615357Y-105603628D02*
X132234405Y-105603628D01*
X133139167Y-105079819D02*
X133758214Y-105079819D01*
X133758214Y-105079819D02*
X133424881Y-105460771D01*
X133424881Y-105460771D02*
X133567738Y-105460771D01*
X133567738Y-105460771D02*
X133662976Y-105508390D01*
X133662976Y-105508390D02*
X133710595Y-105556009D01*
X133710595Y-105556009D02*
X133758214Y-105651247D01*
X133758214Y-105651247D02*
X133758214Y-105889342D01*
X133758214Y-105889342D02*
X133710595Y-105984580D01*
X133710595Y-105984580D02*
X133662976Y-106032200D01*
X133662976Y-106032200D02*
X133567738Y-106079819D01*
X133567738Y-106079819D02*
X133282024Y-106079819D01*
X133282024Y-106079819D02*
X133186786Y-106032200D01*
X133186786Y-106032200D02*
X133139167Y-105984580D01*
X141777142Y-115159819D02*
X141443809Y-114683628D01*
X141205714Y-115159819D02*
X141205714Y-114159819D01*
X141205714Y-114159819D02*
X141586666Y-114159819D01*
X141586666Y-114159819D02*
X141681904Y-114207438D01*
X141681904Y-114207438D02*
X141729523Y-114255057D01*
X141729523Y-114255057D02*
X141777142Y-114350295D01*
X141777142Y-114350295D02*
X141777142Y-114493152D01*
X141777142Y-114493152D02*
X141729523Y-114588390D01*
X141729523Y-114588390D02*
X141681904Y-114636009D01*
X141681904Y-114636009D02*
X141586666Y-114683628D01*
X141586666Y-114683628D02*
X141205714Y-114683628D01*
X142729523Y-115159819D02*
X142158095Y-115159819D01*
X142443809Y-115159819D02*
X142443809Y-114159819D01*
X142443809Y-114159819D02*
X142348571Y-114302676D01*
X142348571Y-114302676D02*
X142253333Y-114397914D01*
X142253333Y-114397914D02*
X142158095Y-114445533D01*
X143586666Y-114493152D02*
X143586666Y-115159819D01*
X143348571Y-114112200D02*
X143110476Y-114826485D01*
X143110476Y-114826485D02*
X143729523Y-114826485D01*
X136379642Y-97029819D02*
X136046309Y-96553628D01*
X135808214Y-97029819D02*
X135808214Y-96029819D01*
X135808214Y-96029819D02*
X136189166Y-96029819D01*
X136189166Y-96029819D02*
X136284404Y-96077438D01*
X136284404Y-96077438D02*
X136332023Y-96125057D01*
X136332023Y-96125057D02*
X136379642Y-96220295D01*
X136379642Y-96220295D02*
X136379642Y-96363152D01*
X136379642Y-96363152D02*
X136332023Y-96458390D01*
X136332023Y-96458390D02*
X136284404Y-96506009D01*
X136284404Y-96506009D02*
X136189166Y-96553628D01*
X136189166Y-96553628D02*
X135808214Y-96553628D01*
X137332023Y-97029819D02*
X136760595Y-97029819D01*
X137046309Y-97029819D02*
X137046309Y-96029819D01*
X137046309Y-96029819D02*
X136951071Y-96172676D01*
X136951071Y-96172676D02*
X136855833Y-96267914D01*
X136855833Y-96267914D02*
X136760595Y-96315533D01*
X138284404Y-97029819D02*
X137712976Y-97029819D01*
X137998690Y-97029819D02*
X137998690Y-96029819D01*
X137998690Y-96029819D02*
X137903452Y-96172676D01*
X137903452Y-96172676D02*
X137808214Y-96267914D01*
X137808214Y-96267914D02*
X137712976Y-96315533D01*
X168107142Y-117524819D02*
X167773809Y-117048628D01*
X167535714Y-117524819D02*
X167535714Y-116524819D01*
X167535714Y-116524819D02*
X167916666Y-116524819D01*
X167916666Y-116524819D02*
X168011904Y-116572438D01*
X168011904Y-116572438D02*
X168059523Y-116620057D01*
X168059523Y-116620057D02*
X168107142Y-116715295D01*
X168107142Y-116715295D02*
X168107142Y-116858152D01*
X168107142Y-116858152D02*
X168059523Y-116953390D01*
X168059523Y-116953390D02*
X168011904Y-117001009D01*
X168011904Y-117001009D02*
X167916666Y-117048628D01*
X167916666Y-117048628D02*
X167535714Y-117048628D01*
X169059523Y-117524819D02*
X168488095Y-117524819D01*
X168773809Y-117524819D02*
X168773809Y-116524819D01*
X168773809Y-116524819D02*
X168678571Y-116667676D01*
X168678571Y-116667676D02*
X168583333Y-116762914D01*
X168583333Y-116762914D02*
X168488095Y-116810533D01*
X169678571Y-116524819D02*
X169773809Y-116524819D01*
X169773809Y-116524819D02*
X169869047Y-116572438D01*
X169869047Y-116572438D02*
X169916666Y-116620057D01*
X169916666Y-116620057D02*
X169964285Y-116715295D01*
X169964285Y-116715295D02*
X170011904Y-116905771D01*
X170011904Y-116905771D02*
X170011904Y-117143866D01*
X170011904Y-117143866D02*
X169964285Y-117334342D01*
X169964285Y-117334342D02*
X169916666Y-117429580D01*
X169916666Y-117429580D02*
X169869047Y-117477200D01*
X169869047Y-117477200D02*
X169773809Y-117524819D01*
X169773809Y-117524819D02*
X169678571Y-117524819D01*
X169678571Y-117524819D02*
X169583333Y-117477200D01*
X169583333Y-117477200D02*
X169535714Y-117429580D01*
X169535714Y-117429580D02*
X169488095Y-117334342D01*
X169488095Y-117334342D02*
X169440476Y-117143866D01*
X169440476Y-117143866D02*
X169440476Y-116905771D01*
X169440476Y-116905771D02*
X169488095Y-116715295D01*
X169488095Y-116715295D02*
X169535714Y-116620057D01*
X169535714Y-116620057D02*
X169583333Y-116572438D01*
X169583333Y-116572438D02*
X169678571Y-116524819D01*
X132815833Y-97029819D02*
X132482500Y-96553628D01*
X132244405Y-97029819D02*
X132244405Y-96029819D01*
X132244405Y-96029819D02*
X132625357Y-96029819D01*
X132625357Y-96029819D02*
X132720595Y-96077438D01*
X132720595Y-96077438D02*
X132768214Y-96125057D01*
X132768214Y-96125057D02*
X132815833Y-96220295D01*
X132815833Y-96220295D02*
X132815833Y-96363152D01*
X132815833Y-96363152D02*
X132768214Y-96458390D01*
X132768214Y-96458390D02*
X132720595Y-96506009D01*
X132720595Y-96506009D02*
X132625357Y-96553628D01*
X132625357Y-96553628D02*
X132244405Y-96553628D01*
X133292024Y-97029819D02*
X133482500Y-97029819D01*
X133482500Y-97029819D02*
X133577738Y-96982200D01*
X133577738Y-96982200D02*
X133625357Y-96934580D01*
X133625357Y-96934580D02*
X133720595Y-96791723D01*
X133720595Y-96791723D02*
X133768214Y-96601247D01*
X133768214Y-96601247D02*
X133768214Y-96220295D01*
X133768214Y-96220295D02*
X133720595Y-96125057D01*
X133720595Y-96125057D02*
X133672976Y-96077438D01*
X133672976Y-96077438D02*
X133577738Y-96029819D01*
X133577738Y-96029819D02*
X133387262Y-96029819D01*
X133387262Y-96029819D02*
X133292024Y-96077438D01*
X133292024Y-96077438D02*
X133244405Y-96125057D01*
X133244405Y-96125057D02*
X133196786Y-96220295D01*
X133196786Y-96220295D02*
X133196786Y-96458390D01*
X133196786Y-96458390D02*
X133244405Y-96553628D01*
X133244405Y-96553628D02*
X133292024Y-96601247D01*
X133292024Y-96601247D02*
X133387262Y-96648866D01*
X133387262Y-96648866D02*
X133577738Y-96648866D01*
X133577738Y-96648866D02*
X133672976Y-96601247D01*
X133672976Y-96601247D02*
X133720595Y-96553628D01*
X133720595Y-96553628D02*
X133768214Y-96458390D01*
X132815833Y-88789819D02*
X132482500Y-88313628D01*
X132244405Y-88789819D02*
X132244405Y-87789819D01*
X132244405Y-87789819D02*
X132625357Y-87789819D01*
X132625357Y-87789819D02*
X132720595Y-87837438D01*
X132720595Y-87837438D02*
X132768214Y-87885057D01*
X132768214Y-87885057D02*
X132815833Y-87980295D01*
X132815833Y-87980295D02*
X132815833Y-88123152D01*
X132815833Y-88123152D02*
X132768214Y-88218390D01*
X132768214Y-88218390D02*
X132720595Y-88266009D01*
X132720595Y-88266009D02*
X132625357Y-88313628D01*
X132625357Y-88313628D02*
X132244405Y-88313628D01*
X133149167Y-87789819D02*
X133815833Y-87789819D01*
X133815833Y-87789819D02*
X133387262Y-88789819D01*
X132813333Y-89649819D02*
X132480000Y-89173628D01*
X132241905Y-89649819D02*
X132241905Y-88649819D01*
X132241905Y-88649819D02*
X132622857Y-88649819D01*
X132622857Y-88649819D02*
X132718095Y-88697438D01*
X132718095Y-88697438D02*
X132765714Y-88745057D01*
X132765714Y-88745057D02*
X132813333Y-88840295D01*
X132813333Y-88840295D02*
X132813333Y-88983152D01*
X132813333Y-88983152D02*
X132765714Y-89078390D01*
X132765714Y-89078390D02*
X132718095Y-89126009D01*
X132718095Y-89126009D02*
X132622857Y-89173628D01*
X132622857Y-89173628D02*
X132241905Y-89173628D01*
X133670476Y-88649819D02*
X133480000Y-88649819D01*
X133480000Y-88649819D02*
X133384762Y-88697438D01*
X133384762Y-88697438D02*
X133337143Y-88745057D01*
X133337143Y-88745057D02*
X133241905Y-88887914D01*
X133241905Y-88887914D02*
X133194286Y-89078390D01*
X133194286Y-89078390D02*
X133194286Y-89459342D01*
X133194286Y-89459342D02*
X133241905Y-89554580D01*
X133241905Y-89554580D02*
X133289524Y-89602200D01*
X133289524Y-89602200D02*
X133384762Y-89649819D01*
X133384762Y-89649819D02*
X133575238Y-89649819D01*
X133575238Y-89649819D02*
X133670476Y-89602200D01*
X133670476Y-89602200D02*
X133718095Y-89554580D01*
X133718095Y-89554580D02*
X133765714Y-89459342D01*
X133765714Y-89459342D02*
X133765714Y-89221247D01*
X133765714Y-89221247D02*
X133718095Y-89126009D01*
X133718095Y-89126009D02*
X133670476Y-89078390D01*
X133670476Y-89078390D02*
X133575238Y-89030771D01*
X133575238Y-89030771D02*
X133384762Y-89030771D01*
X133384762Y-89030771D02*
X133289524Y-89078390D01*
X133289524Y-89078390D02*
X133241905Y-89126009D01*
X133241905Y-89126009D02*
X133194286Y-89221247D01*
X136868333Y-86779819D02*
X136535000Y-86303628D01*
X136296905Y-86779819D02*
X136296905Y-85779819D01*
X136296905Y-85779819D02*
X136677857Y-85779819D01*
X136677857Y-85779819D02*
X136773095Y-85827438D01*
X136773095Y-85827438D02*
X136820714Y-85875057D01*
X136820714Y-85875057D02*
X136868333Y-85970295D01*
X136868333Y-85970295D02*
X136868333Y-86113152D01*
X136868333Y-86113152D02*
X136820714Y-86208390D01*
X136820714Y-86208390D02*
X136773095Y-86256009D01*
X136773095Y-86256009D02*
X136677857Y-86303628D01*
X136677857Y-86303628D02*
X136296905Y-86303628D01*
X137773095Y-85779819D02*
X137296905Y-85779819D01*
X137296905Y-85779819D02*
X137249286Y-86256009D01*
X137249286Y-86256009D02*
X137296905Y-86208390D01*
X137296905Y-86208390D02*
X137392143Y-86160771D01*
X137392143Y-86160771D02*
X137630238Y-86160771D01*
X137630238Y-86160771D02*
X137725476Y-86208390D01*
X137725476Y-86208390D02*
X137773095Y-86256009D01*
X137773095Y-86256009D02*
X137820714Y-86351247D01*
X137820714Y-86351247D02*
X137820714Y-86589342D01*
X137820714Y-86589342D02*
X137773095Y-86684580D01*
X137773095Y-86684580D02*
X137725476Y-86732200D01*
X137725476Y-86732200D02*
X137630238Y-86779819D01*
X137630238Y-86779819D02*
X137392143Y-86779819D01*
X137392143Y-86779819D02*
X137296905Y-86732200D01*
X137296905Y-86732200D02*
X137249286Y-86684580D01*
X136855833Y-103219819D02*
X136522500Y-102743628D01*
X136284405Y-103219819D02*
X136284405Y-102219819D01*
X136284405Y-102219819D02*
X136665357Y-102219819D01*
X136665357Y-102219819D02*
X136760595Y-102267438D01*
X136760595Y-102267438D02*
X136808214Y-102315057D01*
X136808214Y-102315057D02*
X136855833Y-102410295D01*
X136855833Y-102410295D02*
X136855833Y-102553152D01*
X136855833Y-102553152D02*
X136808214Y-102648390D01*
X136808214Y-102648390D02*
X136760595Y-102696009D01*
X136760595Y-102696009D02*
X136665357Y-102743628D01*
X136665357Y-102743628D02*
X136284405Y-102743628D01*
X137236786Y-102315057D02*
X137284405Y-102267438D01*
X137284405Y-102267438D02*
X137379643Y-102219819D01*
X137379643Y-102219819D02*
X137617738Y-102219819D01*
X137617738Y-102219819D02*
X137712976Y-102267438D01*
X137712976Y-102267438D02*
X137760595Y-102315057D01*
X137760595Y-102315057D02*
X137808214Y-102410295D01*
X137808214Y-102410295D02*
X137808214Y-102505533D01*
X137808214Y-102505533D02*
X137760595Y-102648390D01*
X137760595Y-102648390D02*
X137189167Y-103219819D01*
X137189167Y-103219819D02*
X137808214Y-103219819D01*
X168114642Y-121619580D02*
X168067023Y-121667200D01*
X168067023Y-121667200D02*
X167924166Y-121714819D01*
X167924166Y-121714819D02*
X167828928Y-121714819D01*
X167828928Y-121714819D02*
X167686071Y-121667200D01*
X167686071Y-121667200D02*
X167590833Y-121571961D01*
X167590833Y-121571961D02*
X167543214Y-121476723D01*
X167543214Y-121476723D02*
X167495595Y-121286247D01*
X167495595Y-121286247D02*
X167495595Y-121143390D01*
X167495595Y-121143390D02*
X167543214Y-120952914D01*
X167543214Y-120952914D02*
X167590833Y-120857676D01*
X167590833Y-120857676D02*
X167686071Y-120762438D01*
X167686071Y-120762438D02*
X167828928Y-120714819D01*
X167828928Y-120714819D02*
X167924166Y-120714819D01*
X167924166Y-120714819D02*
X168067023Y-120762438D01*
X168067023Y-120762438D02*
X168114642Y-120810057D01*
X169067023Y-121714819D02*
X168495595Y-121714819D01*
X168781309Y-121714819D02*
X168781309Y-120714819D01*
X168781309Y-120714819D02*
X168686071Y-120857676D01*
X168686071Y-120857676D02*
X168590833Y-120952914D01*
X168590833Y-120952914D02*
X168495595Y-121000533D01*
X169400357Y-120714819D02*
X170067023Y-120714819D01*
X170067023Y-120714819D02*
X169638452Y-121714819D01*
X141119580Y-91180357D02*
X141167200Y-91227976D01*
X141167200Y-91227976D02*
X141214819Y-91370833D01*
X141214819Y-91370833D02*
X141214819Y-91466071D01*
X141214819Y-91466071D02*
X141167200Y-91608928D01*
X141167200Y-91608928D02*
X141071961Y-91704166D01*
X141071961Y-91704166D02*
X140976723Y-91751785D01*
X140976723Y-91751785D02*
X140786247Y-91799404D01*
X140786247Y-91799404D02*
X140643390Y-91799404D01*
X140643390Y-91799404D02*
X140452914Y-91751785D01*
X140452914Y-91751785D02*
X140357676Y-91704166D01*
X140357676Y-91704166D02*
X140262438Y-91608928D01*
X140262438Y-91608928D02*
X140214819Y-91466071D01*
X140214819Y-91466071D02*
X140214819Y-91370833D01*
X140214819Y-91370833D02*
X140262438Y-91227976D01*
X140262438Y-91227976D02*
X140310057Y-91180357D01*
X141214819Y-90227976D02*
X141214819Y-90799404D01*
X141214819Y-90513690D02*
X140214819Y-90513690D01*
X140214819Y-90513690D02*
X140357676Y-90608928D01*
X140357676Y-90608928D02*
X140452914Y-90704166D01*
X140452914Y-90704166D02*
X140500533Y-90799404D01*
X140214819Y-89370833D02*
X140214819Y-89561309D01*
X140214819Y-89561309D02*
X140262438Y-89656547D01*
X140262438Y-89656547D02*
X140310057Y-89704166D01*
X140310057Y-89704166D02*
X140452914Y-89799404D01*
X140452914Y-89799404D02*
X140643390Y-89847023D01*
X140643390Y-89847023D02*
X141024342Y-89847023D01*
X141024342Y-89847023D02*
X141119580Y-89799404D01*
X141119580Y-89799404D02*
X141167200Y-89751785D01*
X141167200Y-89751785D02*
X141214819Y-89656547D01*
X141214819Y-89656547D02*
X141214819Y-89466071D01*
X141214819Y-89466071D02*
X141167200Y-89370833D01*
X141167200Y-89370833D02*
X141119580Y-89323214D01*
X141119580Y-89323214D02*
X141024342Y-89275595D01*
X141024342Y-89275595D02*
X140786247Y-89275595D01*
X140786247Y-89275595D02*
X140691009Y-89323214D01*
X140691009Y-89323214D02*
X140643390Y-89370833D01*
X140643390Y-89370833D02*
X140595771Y-89466071D01*
X140595771Y-89466071D02*
X140595771Y-89656547D01*
X140595771Y-89656547D02*
X140643390Y-89751785D01*
X140643390Y-89751785D02*
X140691009Y-89799404D01*
X140691009Y-89799404D02*
X140786247Y-89847023D01*
X141659580Y-89425357D02*
X141707200Y-89472976D01*
X141707200Y-89472976D02*
X141754819Y-89615833D01*
X141754819Y-89615833D02*
X141754819Y-89711071D01*
X141754819Y-89711071D02*
X141707200Y-89853928D01*
X141707200Y-89853928D02*
X141611961Y-89949166D01*
X141611961Y-89949166D02*
X141516723Y-89996785D01*
X141516723Y-89996785D02*
X141326247Y-90044404D01*
X141326247Y-90044404D02*
X141183390Y-90044404D01*
X141183390Y-90044404D02*
X140992914Y-89996785D01*
X140992914Y-89996785D02*
X140897676Y-89949166D01*
X140897676Y-89949166D02*
X140802438Y-89853928D01*
X140802438Y-89853928D02*
X140754819Y-89711071D01*
X140754819Y-89711071D02*
X140754819Y-89615833D01*
X140754819Y-89615833D02*
X140802438Y-89472976D01*
X140802438Y-89472976D02*
X140850057Y-89425357D01*
X141754819Y-88472976D02*
X141754819Y-89044404D01*
X141754819Y-88758690D02*
X140754819Y-88758690D01*
X140754819Y-88758690D02*
X140897676Y-88853928D01*
X140897676Y-88853928D02*
X140992914Y-88949166D01*
X140992914Y-88949166D02*
X141040533Y-89044404D01*
X140754819Y-87568214D02*
X140754819Y-88044404D01*
X140754819Y-88044404D02*
X141231009Y-88092023D01*
X141231009Y-88092023D02*
X141183390Y-88044404D01*
X141183390Y-88044404D02*
X141135771Y-87949166D01*
X141135771Y-87949166D02*
X141135771Y-87711071D01*
X141135771Y-87711071D02*
X141183390Y-87615833D01*
X141183390Y-87615833D02*
X141231009Y-87568214D01*
X141231009Y-87568214D02*
X141326247Y-87520595D01*
X141326247Y-87520595D02*
X141564342Y-87520595D01*
X141564342Y-87520595D02*
X141659580Y-87568214D01*
X141659580Y-87568214D02*
X141707200Y-87615833D01*
X141707200Y-87615833D02*
X141754819Y-87711071D01*
X141754819Y-87711071D02*
X141754819Y-87949166D01*
X141754819Y-87949166D02*
X141707200Y-88044404D01*
X141707200Y-88044404D02*
X141659580Y-88092023D01*
X141119580Y-87695357D02*
X141167200Y-87742976D01*
X141167200Y-87742976D02*
X141214819Y-87885833D01*
X141214819Y-87885833D02*
X141214819Y-87981071D01*
X141214819Y-87981071D02*
X141167200Y-88123928D01*
X141167200Y-88123928D02*
X141071961Y-88219166D01*
X141071961Y-88219166D02*
X140976723Y-88266785D01*
X140976723Y-88266785D02*
X140786247Y-88314404D01*
X140786247Y-88314404D02*
X140643390Y-88314404D01*
X140643390Y-88314404D02*
X140452914Y-88266785D01*
X140452914Y-88266785D02*
X140357676Y-88219166D01*
X140357676Y-88219166D02*
X140262438Y-88123928D01*
X140262438Y-88123928D02*
X140214819Y-87981071D01*
X140214819Y-87981071D02*
X140214819Y-87885833D01*
X140214819Y-87885833D02*
X140262438Y-87742976D01*
X140262438Y-87742976D02*
X140310057Y-87695357D01*
X141214819Y-86742976D02*
X141214819Y-87314404D01*
X141214819Y-87028690D02*
X140214819Y-87028690D01*
X140214819Y-87028690D02*
X140357676Y-87123928D01*
X140357676Y-87123928D02*
X140452914Y-87219166D01*
X140452914Y-87219166D02*
X140500533Y-87314404D01*
X140548152Y-85885833D02*
X141214819Y-85885833D01*
X140167200Y-86123928D02*
X140881485Y-86362023D01*
X140881485Y-86362023D02*
X140881485Y-85742976D01*
X138879580Y-110312857D02*
X138927200Y-110360476D01*
X138927200Y-110360476D02*
X138974819Y-110503333D01*
X138974819Y-110503333D02*
X138974819Y-110598571D01*
X138974819Y-110598571D02*
X138927200Y-110741428D01*
X138927200Y-110741428D02*
X138831961Y-110836666D01*
X138831961Y-110836666D02*
X138736723Y-110884285D01*
X138736723Y-110884285D02*
X138546247Y-110931904D01*
X138546247Y-110931904D02*
X138403390Y-110931904D01*
X138403390Y-110931904D02*
X138212914Y-110884285D01*
X138212914Y-110884285D02*
X138117676Y-110836666D01*
X138117676Y-110836666D02*
X138022438Y-110741428D01*
X138022438Y-110741428D02*
X137974819Y-110598571D01*
X137974819Y-110598571D02*
X137974819Y-110503333D01*
X137974819Y-110503333D02*
X138022438Y-110360476D01*
X138022438Y-110360476D02*
X138070057Y-110312857D01*
X138974819Y-109360476D02*
X138974819Y-109931904D01*
X138974819Y-109646190D02*
X137974819Y-109646190D01*
X137974819Y-109646190D02*
X138117676Y-109741428D01*
X138117676Y-109741428D02*
X138212914Y-109836666D01*
X138212914Y-109836666D02*
X138260533Y-109931904D01*
X137974819Y-109027142D02*
X137974819Y-108408095D01*
X137974819Y-108408095D02*
X138355771Y-108741428D01*
X138355771Y-108741428D02*
X138355771Y-108598571D01*
X138355771Y-108598571D02*
X138403390Y-108503333D01*
X138403390Y-108503333D02*
X138451009Y-108455714D01*
X138451009Y-108455714D02*
X138546247Y-108408095D01*
X138546247Y-108408095D02*
X138784342Y-108408095D01*
X138784342Y-108408095D02*
X138879580Y-108455714D01*
X138879580Y-108455714D02*
X138927200Y-108503333D01*
X138927200Y-108503333D02*
X138974819Y-108598571D01*
X138974819Y-108598571D02*
X138974819Y-108884285D01*
X138974819Y-108884285D02*
X138927200Y-108979523D01*
X138927200Y-108979523D02*
X138879580Y-109027142D01*
X141659580Y-105840357D02*
X141707200Y-105887976D01*
X141707200Y-105887976D02*
X141754819Y-106030833D01*
X141754819Y-106030833D02*
X141754819Y-106126071D01*
X141754819Y-106126071D02*
X141707200Y-106268928D01*
X141707200Y-106268928D02*
X141611961Y-106364166D01*
X141611961Y-106364166D02*
X141516723Y-106411785D01*
X141516723Y-106411785D02*
X141326247Y-106459404D01*
X141326247Y-106459404D02*
X141183390Y-106459404D01*
X141183390Y-106459404D02*
X140992914Y-106411785D01*
X140992914Y-106411785D02*
X140897676Y-106364166D01*
X140897676Y-106364166D02*
X140802438Y-106268928D01*
X140802438Y-106268928D02*
X140754819Y-106126071D01*
X140754819Y-106126071D02*
X140754819Y-106030833D01*
X140754819Y-106030833D02*
X140802438Y-105887976D01*
X140802438Y-105887976D02*
X140850057Y-105840357D01*
X141754819Y-104887976D02*
X141754819Y-105459404D01*
X141754819Y-105173690D02*
X140754819Y-105173690D01*
X140754819Y-105173690D02*
X140897676Y-105268928D01*
X140897676Y-105268928D02*
X140992914Y-105364166D01*
X140992914Y-105364166D02*
X141040533Y-105459404D01*
X140850057Y-104507023D02*
X140802438Y-104459404D01*
X140802438Y-104459404D02*
X140754819Y-104364166D01*
X140754819Y-104364166D02*
X140754819Y-104126071D01*
X140754819Y-104126071D02*
X140802438Y-104030833D01*
X140802438Y-104030833D02*
X140850057Y-103983214D01*
X140850057Y-103983214D02*
X140945295Y-103935595D01*
X140945295Y-103935595D02*
X141040533Y-103935595D01*
X141040533Y-103935595D02*
X141183390Y-103983214D01*
X141183390Y-103983214D02*
X141754819Y-104554642D01*
X141754819Y-104554642D02*
X141754819Y-103935595D01*
X141109580Y-104135357D02*
X141157200Y-104182976D01*
X141157200Y-104182976D02*
X141204819Y-104325833D01*
X141204819Y-104325833D02*
X141204819Y-104421071D01*
X141204819Y-104421071D02*
X141157200Y-104563928D01*
X141157200Y-104563928D02*
X141061961Y-104659166D01*
X141061961Y-104659166D02*
X140966723Y-104706785D01*
X140966723Y-104706785D02*
X140776247Y-104754404D01*
X140776247Y-104754404D02*
X140633390Y-104754404D01*
X140633390Y-104754404D02*
X140442914Y-104706785D01*
X140442914Y-104706785D02*
X140347676Y-104659166D01*
X140347676Y-104659166D02*
X140252438Y-104563928D01*
X140252438Y-104563928D02*
X140204819Y-104421071D01*
X140204819Y-104421071D02*
X140204819Y-104325833D01*
X140204819Y-104325833D02*
X140252438Y-104182976D01*
X140252438Y-104182976D02*
X140300057Y-104135357D01*
X141204819Y-103182976D02*
X141204819Y-103754404D01*
X141204819Y-103468690D02*
X140204819Y-103468690D01*
X140204819Y-103468690D02*
X140347676Y-103563928D01*
X140347676Y-103563928D02*
X140442914Y-103659166D01*
X140442914Y-103659166D02*
X140490533Y-103754404D01*
X141204819Y-102230595D02*
X141204819Y-102802023D01*
X141204819Y-102516309D02*
X140204819Y-102516309D01*
X140204819Y-102516309D02*
X140347676Y-102611547D01*
X140347676Y-102611547D02*
X140442914Y-102706785D01*
X140442914Y-102706785D02*
X140490533Y-102802023D01*
X141109580Y-99380357D02*
X141157200Y-99427976D01*
X141157200Y-99427976D02*
X141204819Y-99570833D01*
X141204819Y-99570833D02*
X141204819Y-99666071D01*
X141204819Y-99666071D02*
X141157200Y-99808928D01*
X141157200Y-99808928D02*
X141061961Y-99904166D01*
X141061961Y-99904166D02*
X140966723Y-99951785D01*
X140966723Y-99951785D02*
X140776247Y-99999404D01*
X140776247Y-99999404D02*
X140633390Y-99999404D01*
X140633390Y-99999404D02*
X140442914Y-99951785D01*
X140442914Y-99951785D02*
X140347676Y-99904166D01*
X140347676Y-99904166D02*
X140252438Y-99808928D01*
X140252438Y-99808928D02*
X140204819Y-99666071D01*
X140204819Y-99666071D02*
X140204819Y-99570833D01*
X140204819Y-99570833D02*
X140252438Y-99427976D01*
X140252438Y-99427976D02*
X140300057Y-99380357D01*
X141204819Y-98427976D02*
X141204819Y-98999404D01*
X141204819Y-98713690D02*
X140204819Y-98713690D01*
X140204819Y-98713690D02*
X140347676Y-98808928D01*
X140347676Y-98808928D02*
X140442914Y-98904166D01*
X140442914Y-98904166D02*
X140490533Y-98999404D01*
X140204819Y-97808928D02*
X140204819Y-97713690D01*
X140204819Y-97713690D02*
X140252438Y-97618452D01*
X140252438Y-97618452D02*
X140300057Y-97570833D01*
X140300057Y-97570833D02*
X140395295Y-97523214D01*
X140395295Y-97523214D02*
X140585771Y-97475595D01*
X140585771Y-97475595D02*
X140823866Y-97475595D01*
X140823866Y-97475595D02*
X141014342Y-97523214D01*
X141014342Y-97523214D02*
X141109580Y-97570833D01*
X141109580Y-97570833D02*
X141157200Y-97618452D01*
X141157200Y-97618452D02*
X141204819Y-97713690D01*
X141204819Y-97713690D02*
X141204819Y-97808928D01*
X141204819Y-97808928D02*
X141157200Y-97904166D01*
X141157200Y-97904166D02*
X141109580Y-97951785D01*
X141109580Y-97951785D02*
X141014342Y-97999404D01*
X141014342Y-97999404D02*
X140823866Y-98047023D01*
X140823866Y-98047023D02*
X140585771Y-98047023D01*
X140585771Y-98047023D02*
X140395295Y-97999404D01*
X140395295Y-97999404D02*
X140300057Y-97951785D01*
X140300057Y-97951785D02*
X140252438Y-97904166D01*
X140252438Y-97904166D02*
X140204819Y-97808928D01*
X141659580Y-97171666D02*
X141707200Y-97219285D01*
X141707200Y-97219285D02*
X141754819Y-97362142D01*
X141754819Y-97362142D02*
X141754819Y-97457380D01*
X141754819Y-97457380D02*
X141707200Y-97600237D01*
X141707200Y-97600237D02*
X141611961Y-97695475D01*
X141611961Y-97695475D02*
X141516723Y-97743094D01*
X141516723Y-97743094D02*
X141326247Y-97790713D01*
X141326247Y-97790713D02*
X141183390Y-97790713D01*
X141183390Y-97790713D02*
X140992914Y-97743094D01*
X140992914Y-97743094D02*
X140897676Y-97695475D01*
X140897676Y-97695475D02*
X140802438Y-97600237D01*
X140802438Y-97600237D02*
X140754819Y-97457380D01*
X140754819Y-97457380D02*
X140754819Y-97362142D01*
X140754819Y-97362142D02*
X140802438Y-97219285D01*
X140802438Y-97219285D02*
X140850057Y-97171666D01*
X141754819Y-96695475D02*
X141754819Y-96504999D01*
X141754819Y-96504999D02*
X141707200Y-96409761D01*
X141707200Y-96409761D02*
X141659580Y-96362142D01*
X141659580Y-96362142D02*
X141516723Y-96266904D01*
X141516723Y-96266904D02*
X141326247Y-96219285D01*
X141326247Y-96219285D02*
X140945295Y-96219285D01*
X140945295Y-96219285D02*
X140850057Y-96266904D01*
X140850057Y-96266904D02*
X140802438Y-96314523D01*
X140802438Y-96314523D02*
X140754819Y-96409761D01*
X140754819Y-96409761D02*
X140754819Y-96600237D01*
X140754819Y-96600237D02*
X140802438Y-96695475D01*
X140802438Y-96695475D02*
X140850057Y-96743094D01*
X140850057Y-96743094D02*
X140945295Y-96790713D01*
X140945295Y-96790713D02*
X141183390Y-96790713D01*
X141183390Y-96790713D02*
X141278628Y-96743094D01*
X141278628Y-96743094D02*
X141326247Y-96695475D01*
X141326247Y-96695475D02*
X141373866Y-96600237D01*
X141373866Y-96600237D02*
X141373866Y-96409761D01*
X141373866Y-96409761D02*
X141326247Y-96314523D01*
X141326247Y-96314523D02*
X141278628Y-96266904D01*
X141278628Y-96266904D02*
X141183390Y-96219285D01*
X141109580Y-95449166D02*
X141157200Y-95496785D01*
X141157200Y-95496785D02*
X141204819Y-95639642D01*
X141204819Y-95639642D02*
X141204819Y-95734880D01*
X141204819Y-95734880D02*
X141157200Y-95877737D01*
X141157200Y-95877737D02*
X141061961Y-95972975D01*
X141061961Y-95972975D02*
X140966723Y-96020594D01*
X140966723Y-96020594D02*
X140776247Y-96068213D01*
X140776247Y-96068213D02*
X140633390Y-96068213D01*
X140633390Y-96068213D02*
X140442914Y-96020594D01*
X140442914Y-96020594D02*
X140347676Y-95972975D01*
X140347676Y-95972975D02*
X140252438Y-95877737D01*
X140252438Y-95877737D02*
X140204819Y-95734880D01*
X140204819Y-95734880D02*
X140204819Y-95639642D01*
X140204819Y-95639642D02*
X140252438Y-95496785D01*
X140252438Y-95496785D02*
X140300057Y-95449166D01*
X140633390Y-94877737D02*
X140585771Y-94972975D01*
X140585771Y-94972975D02*
X140538152Y-95020594D01*
X140538152Y-95020594D02*
X140442914Y-95068213D01*
X140442914Y-95068213D02*
X140395295Y-95068213D01*
X140395295Y-95068213D02*
X140300057Y-95020594D01*
X140300057Y-95020594D02*
X140252438Y-94972975D01*
X140252438Y-94972975D02*
X140204819Y-94877737D01*
X140204819Y-94877737D02*
X140204819Y-94687261D01*
X140204819Y-94687261D02*
X140252438Y-94592023D01*
X140252438Y-94592023D02*
X140300057Y-94544404D01*
X140300057Y-94544404D02*
X140395295Y-94496785D01*
X140395295Y-94496785D02*
X140442914Y-94496785D01*
X140442914Y-94496785D02*
X140538152Y-94544404D01*
X140538152Y-94544404D02*
X140585771Y-94592023D01*
X140585771Y-94592023D02*
X140633390Y-94687261D01*
X140633390Y-94687261D02*
X140633390Y-94877737D01*
X140633390Y-94877737D02*
X140681009Y-94972975D01*
X140681009Y-94972975D02*
X140728628Y-95020594D01*
X140728628Y-95020594D02*
X140823866Y-95068213D01*
X140823866Y-95068213D02*
X141014342Y-95068213D01*
X141014342Y-95068213D02*
X141109580Y-95020594D01*
X141109580Y-95020594D02*
X141157200Y-94972975D01*
X141157200Y-94972975D02*
X141204819Y-94877737D01*
X141204819Y-94877737D02*
X141204819Y-94687261D01*
X141204819Y-94687261D02*
X141157200Y-94592023D01*
X141157200Y-94592023D02*
X141109580Y-94544404D01*
X141109580Y-94544404D02*
X141014342Y-94496785D01*
X141014342Y-94496785D02*
X140823866Y-94496785D01*
X140823866Y-94496785D02*
X140728628Y-94544404D01*
X140728628Y-94544404D02*
X140681009Y-94592023D01*
X140681009Y-94592023D02*
X140633390Y-94687261D01*
X155520833Y-93429580D02*
X155473214Y-93477200D01*
X155473214Y-93477200D02*
X155330357Y-93524819D01*
X155330357Y-93524819D02*
X155235119Y-93524819D01*
X155235119Y-93524819D02*
X155092262Y-93477200D01*
X155092262Y-93477200D02*
X154997024Y-93381961D01*
X154997024Y-93381961D02*
X154949405Y-93286723D01*
X154949405Y-93286723D02*
X154901786Y-93096247D01*
X154901786Y-93096247D02*
X154901786Y-92953390D01*
X154901786Y-92953390D02*
X154949405Y-92762914D01*
X154949405Y-92762914D02*
X154997024Y-92667676D01*
X154997024Y-92667676D02*
X155092262Y-92572438D01*
X155092262Y-92572438D02*
X155235119Y-92524819D01*
X155235119Y-92524819D02*
X155330357Y-92524819D01*
X155330357Y-92524819D02*
X155473214Y-92572438D01*
X155473214Y-92572438D02*
X155520833Y-92620057D01*
X155854167Y-92524819D02*
X156520833Y-92524819D01*
X156520833Y-92524819D02*
X156092262Y-93524819D01*
X155520833Y-89429580D02*
X155473214Y-89477200D01*
X155473214Y-89477200D02*
X155330357Y-89524819D01*
X155330357Y-89524819D02*
X155235119Y-89524819D01*
X155235119Y-89524819D02*
X155092262Y-89477200D01*
X155092262Y-89477200D02*
X154997024Y-89381961D01*
X154997024Y-89381961D02*
X154949405Y-89286723D01*
X154949405Y-89286723D02*
X154901786Y-89096247D01*
X154901786Y-89096247D02*
X154901786Y-88953390D01*
X154901786Y-88953390D02*
X154949405Y-88762914D01*
X154949405Y-88762914D02*
X154997024Y-88667676D01*
X154997024Y-88667676D02*
X155092262Y-88572438D01*
X155092262Y-88572438D02*
X155235119Y-88524819D01*
X155235119Y-88524819D02*
X155330357Y-88524819D01*
X155330357Y-88524819D02*
X155473214Y-88572438D01*
X155473214Y-88572438D02*
X155520833Y-88620057D01*
X156377976Y-88524819D02*
X156187500Y-88524819D01*
X156187500Y-88524819D02*
X156092262Y-88572438D01*
X156092262Y-88572438D02*
X156044643Y-88620057D01*
X156044643Y-88620057D02*
X155949405Y-88762914D01*
X155949405Y-88762914D02*
X155901786Y-88953390D01*
X155901786Y-88953390D02*
X155901786Y-89334342D01*
X155901786Y-89334342D02*
X155949405Y-89429580D01*
X155949405Y-89429580D02*
X155997024Y-89477200D01*
X155997024Y-89477200D02*
X156092262Y-89524819D01*
X156092262Y-89524819D02*
X156282738Y-89524819D01*
X156282738Y-89524819D02*
X156377976Y-89477200D01*
X156377976Y-89477200D02*
X156425595Y-89429580D01*
X156425595Y-89429580D02*
X156473214Y-89334342D01*
X156473214Y-89334342D02*
X156473214Y-89096247D01*
X156473214Y-89096247D02*
X156425595Y-89001009D01*
X156425595Y-89001009D02*
X156377976Y-88953390D01*
X156377976Y-88953390D02*
X156282738Y-88905771D01*
X156282738Y-88905771D02*
X156092262Y-88905771D01*
X156092262Y-88905771D02*
X155997024Y-88953390D01*
X155997024Y-88953390D02*
X155949405Y-89001009D01*
X155949405Y-89001009D02*
X155901786Y-89096247D01*
X166163880Y-109040016D02*
X166211500Y-109087635D01*
X166211500Y-109087635D02*
X166259119Y-109230492D01*
X166259119Y-109230492D02*
X166259119Y-109325730D01*
X166259119Y-109325730D02*
X166211500Y-109468587D01*
X166211500Y-109468587D02*
X166116261Y-109563825D01*
X166116261Y-109563825D02*
X166021023Y-109611444D01*
X166021023Y-109611444D02*
X165830547Y-109659063D01*
X165830547Y-109659063D02*
X165687690Y-109659063D01*
X165687690Y-109659063D02*
X165497214Y-109611444D01*
X165497214Y-109611444D02*
X165401976Y-109563825D01*
X165401976Y-109563825D02*
X165306738Y-109468587D01*
X165306738Y-109468587D02*
X165259119Y-109325730D01*
X165259119Y-109325730D02*
X165259119Y-109230492D01*
X165259119Y-109230492D02*
X165306738Y-109087635D01*
X165306738Y-109087635D02*
X165354357Y-109040016D01*
X165259119Y-108135254D02*
X165259119Y-108611444D01*
X165259119Y-108611444D02*
X165735309Y-108659063D01*
X165735309Y-108659063D02*
X165687690Y-108611444D01*
X165687690Y-108611444D02*
X165640071Y-108516206D01*
X165640071Y-108516206D02*
X165640071Y-108278111D01*
X165640071Y-108278111D02*
X165687690Y-108182873D01*
X165687690Y-108182873D02*
X165735309Y-108135254D01*
X165735309Y-108135254D02*
X165830547Y-108087635D01*
X165830547Y-108087635D02*
X166068642Y-108087635D01*
X166068642Y-108087635D02*
X166163880Y-108135254D01*
X166163880Y-108135254D02*
X166211500Y-108182873D01*
X166211500Y-108182873D02*
X166259119Y-108278111D01*
X166259119Y-108278111D02*
X166259119Y-108516206D01*
X166259119Y-108516206D02*
X166211500Y-108611444D01*
X166211500Y-108611444D02*
X166163880Y-108659063D01*
X150773333Y-92289580D02*
X150725714Y-92337200D01*
X150725714Y-92337200D02*
X150582857Y-92384819D01*
X150582857Y-92384819D02*
X150487619Y-92384819D01*
X150487619Y-92384819D02*
X150344762Y-92337200D01*
X150344762Y-92337200D02*
X150249524Y-92241961D01*
X150249524Y-92241961D02*
X150201905Y-92146723D01*
X150201905Y-92146723D02*
X150154286Y-91956247D01*
X150154286Y-91956247D02*
X150154286Y-91813390D01*
X150154286Y-91813390D02*
X150201905Y-91622914D01*
X150201905Y-91622914D02*
X150249524Y-91527676D01*
X150249524Y-91527676D02*
X150344762Y-91432438D01*
X150344762Y-91432438D02*
X150487619Y-91384819D01*
X150487619Y-91384819D02*
X150582857Y-91384819D01*
X150582857Y-91384819D02*
X150725714Y-91432438D01*
X150725714Y-91432438D02*
X150773333Y-91480057D01*
X151630476Y-91718152D02*
X151630476Y-92384819D01*
X151392381Y-91337200D02*
X151154286Y-92051485D01*
X151154286Y-92051485D02*
X151773333Y-92051485D01*
X150773333Y-96289580D02*
X150725714Y-96337200D01*
X150725714Y-96337200D02*
X150582857Y-96384819D01*
X150582857Y-96384819D02*
X150487619Y-96384819D01*
X150487619Y-96384819D02*
X150344762Y-96337200D01*
X150344762Y-96337200D02*
X150249524Y-96241961D01*
X150249524Y-96241961D02*
X150201905Y-96146723D01*
X150201905Y-96146723D02*
X150154286Y-95956247D01*
X150154286Y-95956247D02*
X150154286Y-95813390D01*
X150154286Y-95813390D02*
X150201905Y-95622914D01*
X150201905Y-95622914D02*
X150249524Y-95527676D01*
X150249524Y-95527676D02*
X150344762Y-95432438D01*
X150344762Y-95432438D02*
X150487619Y-95384819D01*
X150487619Y-95384819D02*
X150582857Y-95384819D01*
X150582857Y-95384819D02*
X150725714Y-95432438D01*
X150725714Y-95432438D02*
X150773333Y-95480057D01*
X151106667Y-95384819D02*
X151725714Y-95384819D01*
X151725714Y-95384819D02*
X151392381Y-95765771D01*
X151392381Y-95765771D02*
X151535238Y-95765771D01*
X151535238Y-95765771D02*
X151630476Y-95813390D01*
X151630476Y-95813390D02*
X151678095Y-95861009D01*
X151678095Y-95861009D02*
X151725714Y-95956247D01*
X151725714Y-95956247D02*
X151725714Y-96194342D01*
X151725714Y-96194342D02*
X151678095Y-96289580D01*
X151678095Y-96289580D02*
X151630476Y-96337200D01*
X151630476Y-96337200D02*
X151535238Y-96384819D01*
X151535238Y-96384819D02*
X151249524Y-96384819D01*
X151249524Y-96384819D02*
X151154286Y-96337200D01*
X151154286Y-96337200D02*
X151106667Y-96289580D01*
X128919580Y-112541666D02*
X128967200Y-112589285D01*
X128967200Y-112589285D02*
X129014819Y-112732142D01*
X129014819Y-112732142D02*
X129014819Y-112827380D01*
X129014819Y-112827380D02*
X128967200Y-112970237D01*
X128967200Y-112970237D02*
X128871961Y-113065475D01*
X128871961Y-113065475D02*
X128776723Y-113113094D01*
X128776723Y-113113094D02*
X128586247Y-113160713D01*
X128586247Y-113160713D02*
X128443390Y-113160713D01*
X128443390Y-113160713D02*
X128252914Y-113113094D01*
X128252914Y-113113094D02*
X128157676Y-113065475D01*
X128157676Y-113065475D02*
X128062438Y-112970237D01*
X128062438Y-112970237D02*
X128014819Y-112827380D01*
X128014819Y-112827380D02*
X128014819Y-112732142D01*
X128014819Y-112732142D02*
X128062438Y-112589285D01*
X128062438Y-112589285D02*
X128110057Y-112541666D01*
X128110057Y-112160713D02*
X128062438Y-112113094D01*
X128062438Y-112113094D02*
X128014819Y-112017856D01*
X128014819Y-112017856D02*
X128014819Y-111779761D01*
X128014819Y-111779761D02*
X128062438Y-111684523D01*
X128062438Y-111684523D02*
X128110057Y-111636904D01*
X128110057Y-111636904D02*
X128205295Y-111589285D01*
X128205295Y-111589285D02*
X128300533Y-111589285D01*
X128300533Y-111589285D02*
X128443390Y-111636904D01*
X128443390Y-111636904D02*
X129014819Y-112208332D01*
X129014819Y-112208332D02*
X129014819Y-111589285D01*
X152923080Y-112216666D02*
X152970700Y-112264285D01*
X152970700Y-112264285D02*
X153018319Y-112407142D01*
X153018319Y-112407142D02*
X153018319Y-112502380D01*
X153018319Y-112502380D02*
X152970700Y-112645237D01*
X152970700Y-112645237D02*
X152875461Y-112740475D01*
X152875461Y-112740475D02*
X152780223Y-112788094D01*
X152780223Y-112788094D02*
X152589747Y-112835713D01*
X152589747Y-112835713D02*
X152446890Y-112835713D01*
X152446890Y-112835713D02*
X152256414Y-112788094D01*
X152256414Y-112788094D02*
X152161176Y-112740475D01*
X152161176Y-112740475D02*
X152065938Y-112645237D01*
X152065938Y-112645237D02*
X152018319Y-112502380D01*
X152018319Y-112502380D02*
X152018319Y-112407142D01*
X152018319Y-112407142D02*
X152065938Y-112264285D01*
X152065938Y-112264285D02*
X152113557Y-112216666D01*
X153018319Y-111264285D02*
X153018319Y-111835713D01*
X153018319Y-111549999D02*
X152018319Y-111549999D01*
X152018319Y-111549999D02*
X152161176Y-111645237D01*
X152161176Y-111645237D02*
X152256414Y-111740475D01*
X152256414Y-111740475D02*
X152304033Y-111835713D01*
X135025714Y-118019819D02*
X135025714Y-117019819D01*
X135025714Y-117019819D02*
X135263809Y-117019819D01*
X135263809Y-117019819D02*
X135406666Y-117067438D01*
X135406666Y-117067438D02*
X135501904Y-117162676D01*
X135501904Y-117162676D02*
X135549523Y-117257914D01*
X135549523Y-117257914D02*
X135597142Y-117448390D01*
X135597142Y-117448390D02*
X135597142Y-117591247D01*
X135597142Y-117591247D02*
X135549523Y-117781723D01*
X135549523Y-117781723D02*
X135501904Y-117876961D01*
X135501904Y-117876961D02*
X135406666Y-117972200D01*
X135406666Y-117972200D02*
X135263809Y-118019819D01*
X135263809Y-118019819D02*
X135025714Y-118019819D01*
X136549523Y-118019819D02*
X135978095Y-118019819D01*
X136263809Y-118019819D02*
X136263809Y-117019819D01*
X136263809Y-117019819D02*
X136168571Y-117162676D01*
X136168571Y-117162676D02*
X136073333Y-117257914D01*
X136073333Y-117257914D02*
X135978095Y-117305533D01*
X136882857Y-117019819D02*
X137501904Y-117019819D01*
X137501904Y-117019819D02*
X137168571Y-117400771D01*
X137168571Y-117400771D02*
X137311428Y-117400771D01*
X137311428Y-117400771D02*
X137406666Y-117448390D01*
X137406666Y-117448390D02*
X137454285Y-117496009D01*
X137454285Y-117496009D02*
X137501904Y-117591247D01*
X137501904Y-117591247D02*
X137501904Y-117829342D01*
X137501904Y-117829342D02*
X137454285Y-117924580D01*
X137454285Y-117924580D02*
X137406666Y-117972200D01*
X137406666Y-117972200D02*
X137311428Y-118019819D01*
X137311428Y-118019819D02*
X137025714Y-118019819D01*
X137025714Y-118019819D02*
X136930476Y-117972200D01*
X136930476Y-117972200D02*
X136882857Y-117924580D01*
X174999405Y-96756819D02*
X174999405Y-95756819D01*
X174999405Y-95756819D02*
X175237500Y-95756819D01*
X175237500Y-95756819D02*
X175380357Y-95804438D01*
X175380357Y-95804438D02*
X175475595Y-95899676D01*
X175475595Y-95899676D02*
X175523214Y-95994914D01*
X175523214Y-95994914D02*
X175570833Y-96185390D01*
X175570833Y-96185390D02*
X175570833Y-96328247D01*
X175570833Y-96328247D02*
X175523214Y-96518723D01*
X175523214Y-96518723D02*
X175475595Y-96613961D01*
X175475595Y-96613961D02*
X175380357Y-96709200D01*
X175380357Y-96709200D02*
X175237500Y-96756819D01*
X175237500Y-96756819D02*
X174999405Y-96756819D01*
X176142262Y-96185390D02*
X176047024Y-96137771D01*
X176047024Y-96137771D02*
X175999405Y-96090152D01*
X175999405Y-96090152D02*
X175951786Y-95994914D01*
X175951786Y-95994914D02*
X175951786Y-95947295D01*
X175951786Y-95947295D02*
X175999405Y-95852057D01*
X175999405Y-95852057D02*
X176047024Y-95804438D01*
X176047024Y-95804438D02*
X176142262Y-95756819D01*
X176142262Y-95756819D02*
X176332738Y-95756819D01*
X176332738Y-95756819D02*
X176427976Y-95804438D01*
X176427976Y-95804438D02*
X176475595Y-95852057D01*
X176475595Y-95852057D02*
X176523214Y-95947295D01*
X176523214Y-95947295D02*
X176523214Y-95994914D01*
X176523214Y-95994914D02*
X176475595Y-96090152D01*
X176475595Y-96090152D02*
X176427976Y-96137771D01*
X176427976Y-96137771D02*
X176332738Y-96185390D01*
X176332738Y-96185390D02*
X176142262Y-96185390D01*
X176142262Y-96185390D02*
X176047024Y-96233009D01*
X176047024Y-96233009D02*
X175999405Y-96280628D01*
X175999405Y-96280628D02*
X175951786Y-96375866D01*
X175951786Y-96375866D02*
X175951786Y-96566342D01*
X175951786Y-96566342D02*
X175999405Y-96661580D01*
X175999405Y-96661580D02*
X176047024Y-96709200D01*
X176047024Y-96709200D02*
X176142262Y-96756819D01*
X176142262Y-96756819D02*
X176332738Y-96756819D01*
X176332738Y-96756819D02*
X176427976Y-96709200D01*
X176427976Y-96709200D02*
X176475595Y-96661580D01*
X176475595Y-96661580D02*
X176523214Y-96566342D01*
X176523214Y-96566342D02*
X176523214Y-96375866D01*
X176523214Y-96375866D02*
X176475595Y-96280628D01*
X176475595Y-96280628D02*
X176427976Y-96233009D01*
X176427976Y-96233009D02*
X176332738Y-96185390D01*
X175021905Y-94054819D02*
X175021905Y-93054819D01*
X175021905Y-93054819D02*
X175260000Y-93054819D01*
X175260000Y-93054819D02*
X175402857Y-93102438D01*
X175402857Y-93102438D02*
X175498095Y-93197676D01*
X175498095Y-93197676D02*
X175545714Y-93292914D01*
X175545714Y-93292914D02*
X175593333Y-93483390D01*
X175593333Y-93483390D02*
X175593333Y-93626247D01*
X175593333Y-93626247D02*
X175545714Y-93816723D01*
X175545714Y-93816723D02*
X175498095Y-93911961D01*
X175498095Y-93911961D02*
X175402857Y-94007200D01*
X175402857Y-94007200D02*
X175260000Y-94054819D01*
X175260000Y-94054819D02*
X175021905Y-94054819D01*
X175926667Y-93054819D02*
X176593333Y-93054819D01*
X176593333Y-93054819D02*
X176164762Y-94054819D01*
X175728095Y-116124819D02*
X175728095Y-115124819D01*
X175728095Y-115601009D02*
X176299523Y-115601009D01*
X176299523Y-116124819D02*
X176299523Y-115124819D01*
X177251904Y-115124819D02*
X176775714Y-115124819D01*
X176775714Y-115124819D02*
X176728095Y-115601009D01*
X176728095Y-115601009D02*
X176775714Y-115553390D01*
X176775714Y-115553390D02*
X176870952Y-115505771D01*
X176870952Y-115505771D02*
X177109047Y-115505771D01*
X177109047Y-115505771D02*
X177204285Y-115553390D01*
X177204285Y-115553390D02*
X177251904Y-115601009D01*
X177251904Y-115601009D02*
X177299523Y-115696247D01*
X177299523Y-115696247D02*
X177299523Y-115934342D01*
X177299523Y-115934342D02*
X177251904Y-116029580D01*
X177251904Y-116029580D02*
X177204285Y-116077200D01*
X177204285Y-116077200D02*
X177109047Y-116124819D01*
X177109047Y-116124819D02*
X176870952Y-116124819D01*
X176870952Y-116124819D02*
X176775714Y-116077200D01*
X176775714Y-116077200D02*
X176728095Y-116029580D01*
X152916667Y-82257200D02*
X153059524Y-82304819D01*
X153059524Y-82304819D02*
X153297619Y-82304819D01*
X153297619Y-82304819D02*
X153392857Y-82257200D01*
X153392857Y-82257200D02*
X153440476Y-82209580D01*
X153440476Y-82209580D02*
X153488095Y-82114342D01*
X153488095Y-82114342D02*
X153488095Y-82019104D01*
X153488095Y-82019104D02*
X153440476Y-81923866D01*
X153440476Y-81923866D02*
X153392857Y-81876247D01*
X153392857Y-81876247D02*
X153297619Y-81828628D01*
X153297619Y-81828628D02*
X153107143Y-81781009D01*
X153107143Y-81781009D02*
X153011905Y-81733390D01*
X153011905Y-81733390D02*
X152964286Y-81685771D01*
X152964286Y-81685771D02*
X152916667Y-81590533D01*
X152916667Y-81590533D02*
X152916667Y-81495295D01*
X152916667Y-81495295D02*
X152964286Y-81400057D01*
X152964286Y-81400057D02*
X153011905Y-81352438D01*
X153011905Y-81352438D02*
X153107143Y-81304819D01*
X153107143Y-81304819D02*
X153345238Y-81304819D01*
X153345238Y-81304819D02*
X153488095Y-81352438D01*
X153821429Y-81304819D02*
X154059524Y-82304819D01*
X154059524Y-82304819D02*
X154250000Y-81590533D01*
X154250000Y-81590533D02*
X154440476Y-82304819D01*
X154440476Y-82304819D02*
X154678572Y-81304819D01*
X155583333Y-82304819D02*
X155011905Y-82304819D01*
X155297619Y-82304819D02*
X155297619Y-81304819D01*
X155297619Y-81304819D02*
X155202381Y-81447676D01*
X155202381Y-81447676D02*
X155107143Y-81542914D01*
X155107143Y-81542914D02*
X155011905Y-81590533D01*
X174555714Y-107706819D02*
X174555714Y-106706819D01*
X174555714Y-106706819D02*
X174793809Y-106706819D01*
X174793809Y-106706819D02*
X174936666Y-106754438D01*
X174936666Y-106754438D02*
X175031904Y-106849676D01*
X175031904Y-106849676D02*
X175079523Y-106944914D01*
X175079523Y-106944914D02*
X175127142Y-107135390D01*
X175127142Y-107135390D02*
X175127142Y-107278247D01*
X175127142Y-107278247D02*
X175079523Y-107468723D01*
X175079523Y-107468723D02*
X175031904Y-107563961D01*
X175031904Y-107563961D02*
X174936666Y-107659200D01*
X174936666Y-107659200D02*
X174793809Y-107706819D01*
X174793809Y-107706819D02*
X174555714Y-107706819D01*
X176079523Y-107706819D02*
X175508095Y-107706819D01*
X175793809Y-107706819D02*
X175793809Y-106706819D01*
X175793809Y-106706819D02*
X175698571Y-106849676D01*
X175698571Y-106849676D02*
X175603333Y-106944914D01*
X175603333Y-106944914D02*
X175508095Y-106992533D01*
X176460476Y-106802057D02*
X176508095Y-106754438D01*
X176508095Y-106754438D02*
X176603333Y-106706819D01*
X176603333Y-106706819D02*
X176841428Y-106706819D01*
X176841428Y-106706819D02*
X176936666Y-106754438D01*
X176936666Y-106754438D02*
X176984285Y-106802057D01*
X176984285Y-106802057D02*
X177031904Y-106897295D01*
X177031904Y-106897295D02*
X177031904Y-106992533D01*
X177031904Y-106992533D02*
X176984285Y-107135390D01*
X176984285Y-107135390D02*
X176412857Y-107706819D01*
X176412857Y-107706819D02*
X177031904Y-107706819D01*
X174533214Y-105004819D02*
X174533214Y-104004819D01*
X174533214Y-104004819D02*
X174771309Y-104004819D01*
X174771309Y-104004819D02*
X174914166Y-104052438D01*
X174914166Y-104052438D02*
X175009404Y-104147676D01*
X175009404Y-104147676D02*
X175057023Y-104242914D01*
X175057023Y-104242914D02*
X175104642Y-104433390D01*
X175104642Y-104433390D02*
X175104642Y-104576247D01*
X175104642Y-104576247D02*
X175057023Y-104766723D01*
X175057023Y-104766723D02*
X175009404Y-104861961D01*
X175009404Y-104861961D02*
X174914166Y-104957200D01*
X174914166Y-104957200D02*
X174771309Y-105004819D01*
X174771309Y-105004819D02*
X174533214Y-105004819D01*
X176057023Y-105004819D02*
X175485595Y-105004819D01*
X175771309Y-105004819D02*
X175771309Y-104004819D01*
X175771309Y-104004819D02*
X175676071Y-104147676D01*
X175676071Y-104147676D02*
X175580833Y-104242914D01*
X175580833Y-104242914D02*
X175485595Y-104290533D01*
X177009404Y-105004819D02*
X176437976Y-105004819D01*
X176723690Y-105004819D02*
X176723690Y-104004819D01*
X176723690Y-104004819D02*
X176628452Y-104147676D01*
X176628452Y-104147676D02*
X176533214Y-104242914D01*
X176533214Y-104242914D02*
X176437976Y-104290533D01*
X174545714Y-99804819D02*
X174545714Y-98804819D01*
X174545714Y-98804819D02*
X174783809Y-98804819D01*
X174783809Y-98804819D02*
X174926666Y-98852438D01*
X174926666Y-98852438D02*
X175021904Y-98947676D01*
X175021904Y-98947676D02*
X175069523Y-99042914D01*
X175069523Y-99042914D02*
X175117142Y-99233390D01*
X175117142Y-99233390D02*
X175117142Y-99376247D01*
X175117142Y-99376247D02*
X175069523Y-99566723D01*
X175069523Y-99566723D02*
X175021904Y-99661961D01*
X175021904Y-99661961D02*
X174926666Y-99757200D01*
X174926666Y-99757200D02*
X174783809Y-99804819D01*
X174783809Y-99804819D02*
X174545714Y-99804819D01*
X176069523Y-99804819D02*
X175498095Y-99804819D01*
X175783809Y-99804819D02*
X175783809Y-98804819D01*
X175783809Y-98804819D02*
X175688571Y-98947676D01*
X175688571Y-98947676D02*
X175593333Y-99042914D01*
X175593333Y-99042914D02*
X175498095Y-99090533D01*
X176688571Y-98804819D02*
X176783809Y-98804819D01*
X176783809Y-98804819D02*
X176879047Y-98852438D01*
X176879047Y-98852438D02*
X176926666Y-98900057D01*
X176926666Y-98900057D02*
X176974285Y-98995295D01*
X176974285Y-98995295D02*
X177021904Y-99185771D01*
X177021904Y-99185771D02*
X177021904Y-99423866D01*
X177021904Y-99423866D02*
X176974285Y-99614342D01*
X176974285Y-99614342D02*
X176926666Y-99709580D01*
X176926666Y-99709580D02*
X176879047Y-99757200D01*
X176879047Y-99757200D02*
X176783809Y-99804819D01*
X176783809Y-99804819D02*
X176688571Y-99804819D01*
X176688571Y-99804819D02*
X176593333Y-99757200D01*
X176593333Y-99757200D02*
X176545714Y-99709580D01*
X176545714Y-99709580D02*
X176498095Y-99614342D01*
X176498095Y-99614342D02*
X176450476Y-99423866D01*
X176450476Y-99423866D02*
X176450476Y-99185771D01*
X176450476Y-99185771D02*
X176498095Y-98995295D01*
X176498095Y-98995295D02*
X176545714Y-98900057D01*
X176545714Y-98900057D02*
X176593333Y-98852438D01*
X176593333Y-98852438D02*
X176688571Y-98804819D01*
X175021905Y-102506819D02*
X175021905Y-101506819D01*
X175021905Y-101506819D02*
X175260000Y-101506819D01*
X175260000Y-101506819D02*
X175402857Y-101554438D01*
X175402857Y-101554438D02*
X175498095Y-101649676D01*
X175498095Y-101649676D02*
X175545714Y-101744914D01*
X175545714Y-101744914D02*
X175593333Y-101935390D01*
X175593333Y-101935390D02*
X175593333Y-102078247D01*
X175593333Y-102078247D02*
X175545714Y-102268723D01*
X175545714Y-102268723D02*
X175498095Y-102363961D01*
X175498095Y-102363961D02*
X175402857Y-102459200D01*
X175402857Y-102459200D02*
X175260000Y-102506819D01*
X175260000Y-102506819D02*
X175021905Y-102506819D01*
X176069524Y-102506819D02*
X176260000Y-102506819D01*
X176260000Y-102506819D02*
X176355238Y-102459200D01*
X176355238Y-102459200D02*
X176402857Y-102411580D01*
X176402857Y-102411580D02*
X176498095Y-102268723D01*
X176498095Y-102268723D02*
X176545714Y-102078247D01*
X176545714Y-102078247D02*
X176545714Y-101697295D01*
X176545714Y-101697295D02*
X176498095Y-101602057D01*
X176498095Y-101602057D02*
X176450476Y-101554438D01*
X176450476Y-101554438D02*
X176355238Y-101506819D01*
X176355238Y-101506819D02*
X176164762Y-101506819D01*
X176164762Y-101506819D02*
X176069524Y-101554438D01*
X176069524Y-101554438D02*
X176021905Y-101602057D01*
X176021905Y-101602057D02*
X175974286Y-101697295D01*
X175974286Y-101697295D02*
X175974286Y-101935390D01*
X175974286Y-101935390D02*
X176021905Y-102030628D01*
X176021905Y-102030628D02*
X176069524Y-102078247D01*
X176069524Y-102078247D02*
X176164762Y-102125866D01*
X176164762Y-102125866D02*
X176355238Y-102125866D01*
X176355238Y-102125866D02*
X176450476Y-102078247D01*
X176450476Y-102078247D02*
X176498095Y-102030628D01*
X176498095Y-102030628D02*
X176545714Y-101935390D01*
X133458069Y-95893094D02*
X132458069Y-95893094D01*
X132458069Y-95893094D02*
X132458069Y-95654999D01*
X132458069Y-95654999D02*
X132505688Y-95512142D01*
X132505688Y-95512142D02*
X132600926Y-95416904D01*
X132600926Y-95416904D02*
X132696164Y-95369285D01*
X132696164Y-95369285D02*
X132886640Y-95321666D01*
X132886640Y-95321666D02*
X133029497Y-95321666D01*
X133029497Y-95321666D02*
X133219973Y-95369285D01*
X133219973Y-95369285D02*
X133315211Y-95416904D01*
X133315211Y-95416904D02*
X133410450Y-95512142D01*
X133410450Y-95512142D02*
X133458069Y-95654999D01*
X133458069Y-95654999D02*
X133458069Y-95893094D01*
X132458069Y-94464523D02*
X132458069Y-94654999D01*
X132458069Y-94654999D02*
X132505688Y-94750237D01*
X132505688Y-94750237D02*
X132553307Y-94797856D01*
X132553307Y-94797856D02*
X132696164Y-94893094D01*
X132696164Y-94893094D02*
X132886640Y-94940713D01*
X132886640Y-94940713D02*
X133267592Y-94940713D01*
X133267592Y-94940713D02*
X133362830Y-94893094D01*
X133362830Y-94893094D02*
X133410450Y-94845475D01*
X133410450Y-94845475D02*
X133458069Y-94750237D01*
X133458069Y-94750237D02*
X133458069Y-94559761D01*
X133458069Y-94559761D02*
X133410450Y-94464523D01*
X133410450Y-94464523D02*
X133362830Y-94416904D01*
X133362830Y-94416904D02*
X133267592Y-94369285D01*
X133267592Y-94369285D02*
X133029497Y-94369285D01*
X133029497Y-94369285D02*
X132934259Y-94416904D01*
X132934259Y-94416904D02*
X132886640Y-94464523D01*
X132886640Y-94464523D02*
X132839021Y-94559761D01*
X132839021Y-94559761D02*
X132839021Y-94750237D01*
X132839021Y-94750237D02*
X132886640Y-94845475D01*
X132886640Y-94845475D02*
X132934259Y-94893094D01*
X132934259Y-94893094D02*
X133029497Y-94940713D01*
X133458069Y-99613094D02*
X132458069Y-99613094D01*
X132458069Y-99613094D02*
X132458069Y-99374999D01*
X132458069Y-99374999D02*
X132505688Y-99232142D01*
X132505688Y-99232142D02*
X132600926Y-99136904D01*
X132600926Y-99136904D02*
X132696164Y-99089285D01*
X132696164Y-99089285D02*
X132886640Y-99041666D01*
X132886640Y-99041666D02*
X133029497Y-99041666D01*
X133029497Y-99041666D02*
X133219973Y-99089285D01*
X133219973Y-99089285D02*
X133315211Y-99136904D01*
X133315211Y-99136904D02*
X133410450Y-99232142D01*
X133410450Y-99232142D02*
X133458069Y-99374999D01*
X133458069Y-99374999D02*
X133458069Y-99613094D01*
X132458069Y-98136904D02*
X132458069Y-98613094D01*
X132458069Y-98613094D02*
X132934259Y-98660713D01*
X132934259Y-98660713D02*
X132886640Y-98613094D01*
X132886640Y-98613094D02*
X132839021Y-98517856D01*
X132839021Y-98517856D02*
X132839021Y-98279761D01*
X132839021Y-98279761D02*
X132886640Y-98184523D01*
X132886640Y-98184523D02*
X132934259Y-98136904D01*
X132934259Y-98136904D02*
X133029497Y-98089285D01*
X133029497Y-98089285D02*
X133267592Y-98089285D01*
X133267592Y-98089285D02*
X133362830Y-98136904D01*
X133362830Y-98136904D02*
X133410450Y-98184523D01*
X133410450Y-98184523D02*
X133458069Y-98279761D01*
X133458069Y-98279761D02*
X133458069Y-98517856D01*
X133458069Y-98517856D02*
X133410450Y-98613094D01*
X133410450Y-98613094D02*
X133362830Y-98660713D01*
X132714819Y-86083094D02*
X131714819Y-86083094D01*
X131714819Y-86083094D02*
X131714819Y-85844999D01*
X131714819Y-85844999D02*
X131762438Y-85702142D01*
X131762438Y-85702142D02*
X131857676Y-85606904D01*
X131857676Y-85606904D02*
X131952914Y-85559285D01*
X131952914Y-85559285D02*
X132143390Y-85511666D01*
X132143390Y-85511666D02*
X132286247Y-85511666D01*
X132286247Y-85511666D02*
X132476723Y-85559285D01*
X132476723Y-85559285D02*
X132571961Y-85606904D01*
X132571961Y-85606904D02*
X132667200Y-85702142D01*
X132667200Y-85702142D02*
X132714819Y-85844999D01*
X132714819Y-85844999D02*
X132714819Y-86083094D01*
X132048152Y-84654523D02*
X132714819Y-84654523D01*
X131667200Y-84892618D02*
X132381485Y-85130713D01*
X132381485Y-85130713D02*
X132381485Y-84511666D01*
X133448069Y-91383094D02*
X132448069Y-91383094D01*
X132448069Y-91383094D02*
X132448069Y-91144999D01*
X132448069Y-91144999D02*
X132495688Y-91002142D01*
X132495688Y-91002142D02*
X132590926Y-90906904D01*
X132590926Y-90906904D02*
X132686164Y-90859285D01*
X132686164Y-90859285D02*
X132876640Y-90811666D01*
X132876640Y-90811666D02*
X133019497Y-90811666D01*
X133019497Y-90811666D02*
X133209973Y-90859285D01*
X133209973Y-90859285D02*
X133305211Y-90906904D01*
X133305211Y-90906904D02*
X133400450Y-91002142D01*
X133400450Y-91002142D02*
X133448069Y-91144999D01*
X133448069Y-91144999D02*
X133448069Y-91383094D01*
X132448069Y-90478332D02*
X132448069Y-89859285D01*
X132448069Y-89859285D02*
X132829021Y-90192618D01*
X132829021Y-90192618D02*
X132829021Y-90049761D01*
X132829021Y-90049761D02*
X132876640Y-89954523D01*
X132876640Y-89954523D02*
X132924259Y-89906904D01*
X132924259Y-89906904D02*
X133019497Y-89859285D01*
X133019497Y-89859285D02*
X133257592Y-89859285D01*
X133257592Y-89859285D02*
X133352830Y-89906904D01*
X133352830Y-89906904D02*
X133400450Y-89954523D01*
X133400450Y-89954523D02*
X133448069Y-90049761D01*
X133448069Y-90049761D02*
X133448069Y-90335475D01*
X133448069Y-90335475D02*
X133400450Y-90430713D01*
X133400450Y-90430713D02*
X133352830Y-90478332D01*
X130474819Y-104040594D02*
X129474819Y-104040594D01*
X129474819Y-104040594D02*
X129474819Y-103802499D01*
X129474819Y-103802499D02*
X129522438Y-103659642D01*
X129522438Y-103659642D02*
X129617676Y-103564404D01*
X129617676Y-103564404D02*
X129712914Y-103516785D01*
X129712914Y-103516785D02*
X129903390Y-103469166D01*
X129903390Y-103469166D02*
X130046247Y-103469166D01*
X130046247Y-103469166D02*
X130236723Y-103516785D01*
X130236723Y-103516785D02*
X130331961Y-103564404D01*
X130331961Y-103564404D02*
X130427200Y-103659642D01*
X130427200Y-103659642D02*
X130474819Y-103802499D01*
X130474819Y-103802499D02*
X130474819Y-104040594D01*
X129570057Y-103088213D02*
X129522438Y-103040594D01*
X129522438Y-103040594D02*
X129474819Y-102945356D01*
X129474819Y-102945356D02*
X129474819Y-102707261D01*
X129474819Y-102707261D02*
X129522438Y-102612023D01*
X129522438Y-102612023D02*
X129570057Y-102564404D01*
X129570057Y-102564404D02*
X129665295Y-102516785D01*
X129665295Y-102516785D02*
X129760533Y-102516785D01*
X129760533Y-102516785D02*
X129903390Y-102564404D01*
X129903390Y-102564404D02*
X130474819Y-103135832D01*
X130474819Y-103135832D02*
X130474819Y-102516785D01*
X162714761Y-89624819D02*
X162381428Y-89148628D01*
X162143333Y-89624819D02*
X162143333Y-88624819D01*
X162143333Y-88624819D02*
X162524285Y-88624819D01*
X162524285Y-88624819D02*
X162619523Y-88672438D01*
X162619523Y-88672438D02*
X162667142Y-88720057D01*
X162667142Y-88720057D02*
X162714761Y-88815295D01*
X162714761Y-88815295D02*
X162714761Y-88958152D01*
X162714761Y-88958152D02*
X162667142Y-89053390D01*
X162667142Y-89053390D02*
X162619523Y-89101009D01*
X162619523Y-89101009D02*
X162524285Y-89148628D01*
X162524285Y-89148628D02*
X162143333Y-89148628D01*
X163000476Y-88624819D02*
X163333809Y-89624819D01*
X163333809Y-89624819D02*
X163667142Y-88624819D01*
X163905238Y-88624819D02*
X164524285Y-88624819D01*
X164524285Y-88624819D02*
X164190952Y-89005771D01*
X164190952Y-89005771D02*
X164333809Y-89005771D01*
X164333809Y-89005771D02*
X164429047Y-89053390D01*
X164429047Y-89053390D02*
X164476666Y-89101009D01*
X164476666Y-89101009D02*
X164524285Y-89196247D01*
X164524285Y-89196247D02*
X164524285Y-89434342D01*
X164524285Y-89434342D02*
X164476666Y-89529580D01*
X164476666Y-89529580D02*
X164429047Y-89577200D01*
X164429047Y-89577200D02*
X164333809Y-89624819D01*
X164333809Y-89624819D02*
X164048095Y-89624819D01*
X164048095Y-89624819D02*
X163952857Y-89577200D01*
X163952857Y-89577200D02*
X163905238Y-89529580D01*
X160978095Y-101144819D02*
X160978095Y-101954342D01*
X160978095Y-101954342D02*
X161025714Y-102049580D01*
X161025714Y-102049580D02*
X161073333Y-102097200D01*
X161073333Y-102097200D02*
X161168571Y-102144819D01*
X161168571Y-102144819D02*
X161359047Y-102144819D01*
X161359047Y-102144819D02*
X161454285Y-102097200D01*
X161454285Y-102097200D02*
X161501904Y-102049580D01*
X161501904Y-102049580D02*
X161549523Y-101954342D01*
X161549523Y-101954342D02*
X161549523Y-101144819D01*
X161978095Y-101240057D02*
X162025714Y-101192438D01*
X162025714Y-101192438D02*
X162120952Y-101144819D01*
X162120952Y-101144819D02*
X162359047Y-101144819D01*
X162359047Y-101144819D02*
X162454285Y-101192438D01*
X162454285Y-101192438D02*
X162501904Y-101240057D01*
X162501904Y-101240057D02*
X162549523Y-101335295D01*
X162549523Y-101335295D02*
X162549523Y-101430533D01*
X162549523Y-101430533D02*
X162501904Y-101573390D01*
X162501904Y-101573390D02*
X161930476Y-102144819D01*
X161930476Y-102144819D02*
X162549523Y-102144819D01*
X146679819Y-102099404D02*
X147489342Y-102099404D01*
X147489342Y-102099404D02*
X147584580Y-102051785D01*
X147584580Y-102051785D02*
X147632200Y-102004166D01*
X147632200Y-102004166D02*
X147679819Y-101908928D01*
X147679819Y-101908928D02*
X147679819Y-101718452D01*
X147679819Y-101718452D02*
X147632200Y-101623214D01*
X147632200Y-101623214D02*
X147584580Y-101575595D01*
X147584580Y-101575595D02*
X147489342Y-101527976D01*
X147489342Y-101527976D02*
X146679819Y-101527976D01*
X147679819Y-100527976D02*
X147679819Y-101099404D01*
X147679819Y-100813690D02*
X146679819Y-100813690D01*
X146679819Y-100813690D02*
X146822676Y-100908928D01*
X146822676Y-100908928D02*
X146917914Y-101004166D01*
X146917914Y-101004166D02*
X146965533Y-101099404D01*
X123490866Y-84116445D02*
X124205151Y-84116445D01*
X124205151Y-84116445D02*
X124348008Y-84164064D01*
X124348008Y-84164064D02*
X124443247Y-84259302D01*
X124443247Y-84259302D02*
X124490866Y-84402159D01*
X124490866Y-84402159D02*
X124490866Y-84497397D01*
X124490866Y-83116445D02*
X124490866Y-83687873D01*
X124490866Y-83402159D02*
X123490866Y-83402159D01*
X123490866Y-83402159D02*
X123633723Y-83497397D01*
X123633723Y-83497397D02*
X123728961Y-83592635D01*
X123728961Y-83592635D02*
X123776580Y-83687873D01*
X166638095Y-82254819D02*
X167209523Y-82254819D01*
X166923809Y-83254819D02*
X166923809Y-82254819D01*
X167542857Y-83254819D02*
X167542857Y-82254819D01*
X167542857Y-82254819D02*
X167923809Y-82254819D01*
X167923809Y-82254819D02*
X168019047Y-82302438D01*
X168019047Y-82302438D02*
X168066666Y-82350057D01*
X168066666Y-82350057D02*
X168114285Y-82445295D01*
X168114285Y-82445295D02*
X168114285Y-82588152D01*
X168114285Y-82588152D02*
X168066666Y-82683390D01*
X168066666Y-82683390D02*
X168019047Y-82731009D01*
X168019047Y-82731009D02*
X167923809Y-82778628D01*
X167923809Y-82778628D02*
X167542857Y-82778628D01*
X169066666Y-83254819D02*
X168495238Y-83254819D01*
X168780952Y-83254819D02*
X168780952Y-82254819D01*
X168780952Y-82254819D02*
X168685714Y-82397676D01*
X168685714Y-82397676D02*
X168590476Y-82492914D01*
X168590476Y-82492914D02*
X168495238Y-82540533D01*
X145438095Y-82354819D02*
X146009523Y-82354819D01*
X145723809Y-83354819D02*
X145723809Y-82354819D01*
X146342857Y-83354819D02*
X146342857Y-82354819D01*
X146342857Y-82354819D02*
X146723809Y-82354819D01*
X146723809Y-82354819D02*
X146819047Y-82402438D01*
X146819047Y-82402438D02*
X146866666Y-82450057D01*
X146866666Y-82450057D02*
X146914285Y-82545295D01*
X146914285Y-82545295D02*
X146914285Y-82688152D01*
X146914285Y-82688152D02*
X146866666Y-82783390D01*
X146866666Y-82783390D02*
X146819047Y-82831009D01*
X146819047Y-82831009D02*
X146723809Y-82878628D01*
X146723809Y-82878628D02*
X146342857Y-82878628D01*
X147295238Y-82450057D02*
X147342857Y-82402438D01*
X147342857Y-82402438D02*
X147438095Y-82354819D01*
X147438095Y-82354819D02*
X147676190Y-82354819D01*
X147676190Y-82354819D02*
X147771428Y-82402438D01*
X147771428Y-82402438D02*
X147819047Y-82450057D01*
X147819047Y-82450057D02*
X147866666Y-82545295D01*
X147866666Y-82545295D02*
X147866666Y-82640533D01*
X147866666Y-82640533D02*
X147819047Y-82783390D01*
X147819047Y-82783390D02*
X147247619Y-83354819D01*
X147247619Y-83354819D02*
X147866666Y-83354819D01*
X180944819Y-83923333D02*
X181659104Y-83923333D01*
X181659104Y-83923333D02*
X181801961Y-83970952D01*
X181801961Y-83970952D02*
X181897200Y-84066190D01*
X181897200Y-84066190D02*
X181944819Y-84209047D01*
X181944819Y-84209047D02*
X181944819Y-84304285D01*
X180944819Y-83542380D02*
X180944819Y-82923333D01*
X180944819Y-82923333D02*
X181325771Y-83256666D01*
X181325771Y-83256666D02*
X181325771Y-83113809D01*
X181325771Y-83113809D02*
X181373390Y-83018571D01*
X181373390Y-83018571D02*
X181421009Y-82970952D01*
X181421009Y-82970952D02*
X181516247Y-82923333D01*
X181516247Y-82923333D02*
X181754342Y-82923333D01*
X181754342Y-82923333D02*
X181849580Y-82970952D01*
X181849580Y-82970952D02*
X181897200Y-83018571D01*
X181897200Y-83018571D02*
X181944819Y-83113809D01*
X181944819Y-83113809D02*
X181944819Y-83399523D01*
X181944819Y-83399523D02*
X181897200Y-83494761D01*
X181897200Y-83494761D02*
X181849580Y-83542380D01*
X136379642Y-105189819D02*
X136046309Y-104713628D01*
X135808214Y-105189819D02*
X135808214Y-104189819D01*
X135808214Y-104189819D02*
X136189166Y-104189819D01*
X136189166Y-104189819D02*
X136284404Y-104237438D01*
X136284404Y-104237438D02*
X136332023Y-104285057D01*
X136332023Y-104285057D02*
X136379642Y-104380295D01*
X136379642Y-104380295D02*
X136379642Y-104523152D01*
X136379642Y-104523152D02*
X136332023Y-104618390D01*
X136332023Y-104618390D02*
X136284404Y-104666009D01*
X136284404Y-104666009D02*
X136189166Y-104713628D01*
X136189166Y-104713628D02*
X135808214Y-104713628D01*
X137332023Y-105189819D02*
X136760595Y-105189819D01*
X137046309Y-105189819D02*
X137046309Y-104189819D01*
X137046309Y-104189819D02*
X136951071Y-104332676D01*
X136951071Y-104332676D02*
X136855833Y-104427914D01*
X136855833Y-104427914D02*
X136760595Y-104475533D01*
X137665357Y-104189819D02*
X138284404Y-104189819D01*
X138284404Y-104189819D02*
X137951071Y-104570771D01*
X137951071Y-104570771D02*
X138093928Y-104570771D01*
X138093928Y-104570771D02*
X138189166Y-104618390D01*
X138189166Y-104618390D02*
X138236785Y-104666009D01*
X138236785Y-104666009D02*
X138284404Y-104761247D01*
X138284404Y-104761247D02*
X138284404Y-104999342D01*
X138284404Y-104999342D02*
X138236785Y-105094580D01*
X138236785Y-105094580D02*
X138189166Y-105142200D01*
X138189166Y-105142200D02*
X138093928Y-105189819D01*
X138093928Y-105189819D02*
X137808214Y-105189819D01*
X137808214Y-105189819D02*
X137712976Y-105142200D01*
X137712976Y-105142200D02*
X137665357Y-105094580D01*
D11*
%TO.C,D1*%
X129170000Y-105425000D02*
X129170000Y-108085000D01*
X130870000Y-105425000D02*
X130870000Y-108085000D01*
X130870000Y-105425000D02*
X129170000Y-105425000D01*
%TO.C,R4*%
X132727776Y-106687500D02*
X133237224Y-106687500D01*
X132727776Y-105642500D02*
X133237224Y-105642500D01*
%TO.C,R8*%
X133237224Y-95502500D02*
X132727776Y-95502500D01*
X133237224Y-96547500D02*
X132727776Y-96547500D01*
%TO.C,R1*%
X136767776Y-96547500D02*
X137277224Y-96547500D01*
X136767776Y-95502500D02*
X137277224Y-95502500D01*
%TO.C,R12*%
X136767776Y-90277500D02*
X137277224Y-90277500D01*
X136767776Y-89232500D02*
X137277224Y-89232500D01*
%TO.C,R3*%
X133237224Y-103672500D02*
X132727776Y-103672500D01*
X133237224Y-104717500D02*
X132727776Y-104717500D01*
%TO.C,R14*%
X142165276Y-115612500D02*
X142674724Y-115612500D01*
X142165276Y-116657500D02*
X142674724Y-116657500D01*
%TO.C,R11*%
X136767776Y-97482500D02*
X137277224Y-97482500D01*
X136767776Y-98527500D02*
X137277224Y-98527500D01*
%TO.C,R10*%
X169004724Y-116162500D02*
X168495276Y-116162500D01*
X169004724Y-115117500D02*
X168495276Y-115117500D01*
%TO.C,R9*%
X132727776Y-97482500D02*
X133237224Y-97482500D01*
X132727776Y-98527500D02*
X133237224Y-98527500D01*
%TO.C,R7*%
X132727776Y-89242500D02*
X133237224Y-89242500D01*
X132727776Y-90287500D02*
X133237224Y-90287500D01*
%TO.C,R6*%
X133234724Y-88287500D02*
X132725276Y-88287500D01*
X133234724Y-87242500D02*
X132725276Y-87242500D01*
%TO.C,R5*%
X136780276Y-87232500D02*
X137289724Y-87232500D01*
X136780276Y-88277500D02*
X137289724Y-88277500D01*
%TO.C,R2*%
X136767776Y-103672500D02*
X137277224Y-103672500D01*
X136767776Y-104717500D02*
X137277224Y-104717500D01*
%TO.C,C17*%
X168903767Y-120340000D02*
X168611233Y-120340000D01*
X168903767Y-119320000D02*
X168611233Y-119320000D01*
%TO.C,C16*%
X141680000Y-90683767D02*
X141680000Y-90391233D01*
X142700000Y-90683767D02*
X142700000Y-90391233D01*
%TO.C,C15*%
X140380000Y-88636233D02*
X140380000Y-88928767D01*
X139360000Y-88636233D02*
X139360000Y-88928767D01*
%TO.C,C14*%
X141680000Y-87198767D02*
X141680000Y-86906233D01*
X142700000Y-87198767D02*
X142700000Y-86906233D01*
%TO.C,C13*%
X141670000Y-107063767D02*
X141670000Y-106771233D01*
X142690000Y-107063767D02*
X142690000Y-106771233D01*
%TO.C,C12*%
X140380000Y-105051233D02*
X140380000Y-105343767D01*
X139360000Y-105051233D02*
X139360000Y-105343767D01*
%TO.C,C11*%
X141670000Y-103638767D02*
X141670000Y-103346233D01*
X142690000Y-103638767D02*
X142690000Y-103346233D01*
%TO.C,C10*%
X141670000Y-98883767D02*
X141670000Y-98591233D01*
X142690000Y-98883767D02*
X142690000Y-98591233D01*
%TO.C,C9*%
X140380000Y-96858733D02*
X140380000Y-97151267D01*
X139360000Y-96858733D02*
X139360000Y-97151267D01*
%TO.C,C8*%
X141670000Y-95428767D02*
X141670000Y-95136233D01*
X142690000Y-95428767D02*
X142690000Y-95136233D01*
%TO.C,C7*%
X155541233Y-93990000D02*
X155833767Y-93990000D01*
X155541233Y-95010000D02*
X155833767Y-95010000D01*
%TO.C,C6*%
X155541233Y-89990000D02*
X155833767Y-89990000D01*
X155541233Y-91010000D02*
X155833767Y-91010000D01*
%TO.C,C5*%
X166724300Y-109019617D02*
X166724300Y-108727083D01*
X167744300Y-109019617D02*
X167744300Y-108727083D01*
%TO.C,C4*%
X151086267Y-91010000D02*
X150793733Y-91010000D01*
X151086267Y-89990000D02*
X150793733Y-89990000D01*
%TO.C,C3*%
X151086267Y-95010000D02*
X150793733Y-95010000D01*
X151086267Y-93990000D02*
X150793733Y-93990000D01*
%TO.C,C2*%
X129480000Y-112521267D02*
X129480000Y-112228733D01*
X130500000Y-112521267D02*
X130500000Y-112228733D01*
%TO.C,C1*%
X151643500Y-111903733D02*
X151643500Y-112196267D01*
X150623500Y-111903733D02*
X150623500Y-112196267D01*
D12*
%TO.C,D13*%
X135810000Y-115415000D02*
G75*
G02*
X137627454Y-115410103I910000J-470000D01*
G01*
D11*
%TO.C,JP5*%
X161500000Y-113160000D02*
X161800000Y-112860000D01*
X161800000Y-113460000D02*
X161800000Y-112860000D01*
X161500000Y-113160000D02*
X161800000Y-113460000D01*
X161300000Y-113910000D02*
X159300000Y-113910000D01*
X161300000Y-109810000D02*
X161300000Y-113910000D01*
X159300000Y-109810000D02*
X161300000Y-109810000D01*
X159300000Y-113910000D02*
X159300000Y-109810000D01*
%TO.C,D8*%
X174150000Y-95452000D02*
X174150000Y-97152000D01*
X174150000Y-95452000D02*
X176810000Y-95452000D01*
X174150000Y-97152000D02*
X176810000Y-97152000D01*
%TO.C,D7*%
X174150000Y-92750000D02*
X174150000Y-94450000D01*
X174150000Y-92750000D02*
X176810000Y-92750000D01*
X174150000Y-94450000D02*
X176810000Y-94450000D01*
D12*
%TO.C,SW1*%
X150950000Y-85220000D02*
X150950000Y-86070000D01*
X151280000Y-84260000D02*
X151130000Y-84260000D01*
X154280000Y-84260000D02*
X152620000Y-84260000D01*
X155780000Y-84260000D02*
X155620000Y-84260000D01*
X157370000Y-84260000D02*
X157120000Y-84260000D01*
X157550000Y-86070000D02*
X157550000Y-85220000D01*
X151130000Y-87010000D02*
X157370000Y-87010000D01*
D11*
%TO.C,D12*%
X174160000Y-106402000D02*
X174160000Y-108102000D01*
X174160000Y-106402000D02*
X176820000Y-106402000D01*
X174160000Y-108102000D02*
X176820000Y-108102000D01*
%TO.C,D11*%
X174160000Y-103700000D02*
X174160000Y-105400000D01*
X174160000Y-103700000D02*
X176820000Y-103700000D01*
X174160000Y-105400000D02*
X176820000Y-105400000D01*
%TO.C,D10*%
X174150000Y-98500000D02*
X174150000Y-100200000D01*
X174150000Y-98500000D02*
X176810000Y-98500000D01*
X174150000Y-100200000D02*
X176810000Y-100200000D01*
%TO.C,D9*%
X174150000Y-101202000D02*
X174150000Y-102902000D01*
X174150000Y-101202000D02*
X176810000Y-101202000D01*
X174150000Y-102902000D02*
X176810000Y-102902000D01*
%TO.C,D6*%
X130880000Y-93545000D02*
X129180000Y-93545000D01*
X130880000Y-93545000D02*
X130880000Y-96205000D01*
X129180000Y-93545000D02*
X129180000Y-96205000D01*
%TO.C,D5*%
X130880000Y-97265000D02*
X129180000Y-97265000D01*
X130880000Y-97265000D02*
X130880000Y-99925000D01*
X129180000Y-97265000D02*
X129180000Y-99925000D01*
%TO.C,D4*%
X130862500Y-85285000D02*
X129162500Y-85285000D01*
X130862500Y-85285000D02*
X130862500Y-87945000D01*
X129162500Y-85285000D02*
X129162500Y-87945000D01*
%TO.C,D3*%
X130870000Y-89035000D02*
X129170000Y-89035000D01*
X130870000Y-89035000D02*
X130870000Y-91695000D01*
X129170000Y-89035000D02*
X129170000Y-91695000D01*
%TO.C,D2*%
X130870000Y-101715000D02*
X129170000Y-101715000D01*
X130870000Y-101715000D02*
X130870000Y-104375000D01*
X129170000Y-101715000D02*
X129170000Y-104375000D01*
D12*
%TO.C,RV3*%
X161990000Y-87805000D02*
X162240000Y-87805000D01*
X160590000Y-83995000D02*
X160590000Y-86735000D01*
X163150000Y-83995000D02*
X163640000Y-83995000D01*
X163640000Y-83995000D02*
X163640000Y-86735000D01*
X160590000Y-83995000D02*
X161090000Y-83995000D01*
X162640000Y-85975000D02*
G75*
G02*
X161600000Y-85975000I-520000J0D01*
G01*
X161600000Y-85975000D02*
G75*
G02*
X162640000Y-85975000I520000J0D01*
G01*
X160220000Y-87885000D02*
G75*
G02*
X159960000Y-87885000I-130000J0D01*
G01*
X159960000Y-87885000D02*
G75*
G02*
X160220000Y-87885000I130000J0D01*
G01*
D10*
%TO.C,U2*%
X172900000Y-103179750D02*
X162840000Y-103179750D01*
X172900000Y-100139750D02*
X172900000Y-103179750D01*
X162840000Y-103179750D02*
X162840000Y-100139750D01*
X162840000Y-100139750D02*
X172900000Y-100139750D01*
D13*
X173230000Y-98989750D02*
G75*
G02*
X172930000Y-98989750I-150000J0D01*
G01*
X172930000Y-98989750D02*
G75*
G02*
X173230000Y-98989750I150000J0D01*
G01*
X172470000Y-100889750D02*
G75*
G02*
X172170000Y-100889750I-150000J0D01*
G01*
X172170000Y-100889750D02*
G75*
G02*
X172470000Y-100889750I150000J0D01*
G01*
D11*
%TO.C,U1*%
X148040000Y-103647500D02*
X148040000Y-99027500D01*
X154810000Y-99027500D02*
X154810000Y-103647500D01*
X148735000Y-105527500D02*
X148255000Y-105527500D01*
X148495000Y-105197500D01*
X148735000Y-105527500D01*
G36*
X148735000Y-105527500D02*
G01*
X148255000Y-105527500D01*
X148495000Y-105197500D01*
X148735000Y-105527500D01*
G37*
%TO.C,JP1*%
X146257500Y-113170000D02*
X146557500Y-112870000D01*
X146557500Y-113470000D02*
X146557500Y-112870000D01*
X146257500Y-113170000D02*
X146557500Y-113470000D01*
X146057500Y-113920000D02*
X144057500Y-113920000D01*
X146057500Y-109820000D02*
X146057500Y-113920000D01*
X144057500Y-109820000D02*
X146057500Y-109820000D01*
X144057500Y-113920000D02*
X144057500Y-109820000D01*
D12*
%TO.C,J1*%
X109786047Y-89933112D02*
X114586047Y-89933112D01*
X109786047Y-85933112D02*
X114586047Y-85933112D01*
X109786047Y-85933112D02*
X109786047Y-89933112D01*
X114586047Y-87953112D02*
X109786047Y-87953112D01*
X109786047Y-114933112D02*
X114586047Y-114933112D01*
X109786047Y-110933112D02*
X114586047Y-110933112D01*
X109786047Y-110933112D02*
X109786047Y-114933112D01*
X109786047Y-108593112D02*
X108686047Y-108593112D01*
X109786047Y-92263112D02*
X108686047Y-92263112D01*
X108686047Y-92263112D02*
X108686047Y-108593112D01*
X109786047Y-108593112D02*
X114586047Y-108593112D01*
X114586047Y-112953112D02*
X109786047Y-112953112D01*
X114586047Y-87933112D02*
X109786047Y-87933112D01*
X114586047Y-87953112D02*
X114586047Y-87933112D01*
X109786047Y-92263112D02*
X114586047Y-92263112D01*
X114586047Y-115833112D02*
X114586047Y-85023112D01*
X114586047Y-84973112D02*
X126906047Y-84973112D01*
X126906047Y-84973112D02*
X126906047Y-115833112D01*
X126906047Y-115833112D02*
X114586047Y-115833112D01*
D11*
%TO.C,JP3*%
X158409500Y-113170000D02*
X158709500Y-112870000D01*
X158709500Y-113470000D02*
X158709500Y-112870000D01*
X158409500Y-113170000D02*
X158709500Y-113470000D01*
X158209500Y-113920000D02*
X156209500Y-113920000D01*
X158209500Y-109820000D02*
X158209500Y-113920000D01*
X156209500Y-109820000D02*
X158209500Y-109820000D01*
X156209500Y-113920000D02*
X156209500Y-109820000D01*
%TO.C,JP4*%
X155179000Y-113170000D02*
X155479000Y-112870000D01*
X155479000Y-113470000D02*
X155479000Y-112870000D01*
X155179000Y-113170000D02*
X155479000Y-113470000D01*
X154979000Y-113920000D02*
X152979000Y-113920000D01*
X154979000Y-109820000D02*
X154979000Y-113920000D01*
X152979000Y-109820000D02*
X154979000Y-109820000D01*
X152979000Y-113920000D02*
X152979000Y-109820000D01*
%TO.C,JP2*%
X149488000Y-113170000D02*
X149788000Y-112870000D01*
X149788000Y-113470000D02*
X149788000Y-112870000D01*
X149488000Y-113170000D02*
X149788000Y-113470000D01*
X149288000Y-113920000D02*
X147288000Y-113920000D01*
X149288000Y-109820000D02*
X149288000Y-113920000D01*
X147288000Y-109820000D02*
X149288000Y-109820000D01*
X147288000Y-113920000D02*
X147288000Y-109820000D01*
%TO.C,TP1*%
X169500781Y-85200000D02*
G75*
G02*
X166299219Y-85200000I-1600781J0D01*
G01*
X166299219Y-85200000D02*
G75*
G02*
X169500781Y-85200000I1600781J0D01*
G01*
%TO.C,TP2*%
X148300781Y-85300000D02*
G75*
G02*
X145099219Y-85300000I-1600781J0D01*
G01*
X145099219Y-85300000D02*
G75*
G02*
X148300781Y-85300000I1600781J0D01*
G01*
D12*
%TO.C,J3*%
X195600000Y-110860000D02*
X190800000Y-110860000D01*
X195600000Y-114860000D02*
X190800000Y-114860000D01*
X195600000Y-114860000D02*
X195600000Y-110860000D01*
X190800000Y-112840000D02*
X195600000Y-112840000D01*
X195600000Y-85860000D02*
X190800000Y-85860000D01*
X195600000Y-89860000D02*
X190800000Y-89860000D01*
X195600000Y-89860000D02*
X195600000Y-85860000D01*
X195600000Y-92200000D02*
X196700000Y-92200000D01*
X195600000Y-108530000D02*
X196700000Y-108530000D01*
X196700000Y-108530000D02*
X196700000Y-92200000D01*
X195600000Y-92200000D02*
X190800000Y-92200000D01*
X190800000Y-87840000D02*
X195600000Y-87840000D01*
X190800000Y-112860000D02*
X195600000Y-112860000D01*
X190800000Y-112840000D02*
X190800000Y-112860000D01*
X195600000Y-108530000D02*
X190800000Y-108530000D01*
X190800000Y-84960000D02*
X190800000Y-115770000D01*
X190800000Y-115820000D02*
X178480000Y-115820000D01*
X178480000Y-115820000D02*
X178480000Y-84960000D01*
X178480000Y-84960000D02*
X190800000Y-84960000D01*
D11*
%TO.C,R13*%
X136767776Y-105642500D02*
X137277224Y-105642500D01*
X136767776Y-106687500D02*
X137277224Y-106687500D01*
%TD*%
%LPC*%
D14*
X127930000Y-97430000D02*
X127930000Y-101960397D01*
X127850000Y-103310000D02*
X127850000Y-108990000D01*
X127930000Y-89909948D02*
X127930000Y-96320000D01*
X143970000Y-105770000D02*
X143970000Y-108990000D01*
X143950000Y-104660000D02*
X143950000Y-97630000D01*
X143960000Y-96480000D02*
X143960000Y-93280000D01*
X142050000Y-74150000D02*
X142050000Y-79670000D01*
X143960000Y-91560000D02*
X143960000Y-82410000D01*
X133940000Y-82415000D02*
X143960000Y-82410000D01*
X127930000Y-84609974D02*
X133940000Y-82415000D01*
X127930000Y-84609974D02*
X127930000Y-88400026D01*
X127880000Y-108990000D02*
X143970000Y-108990000D01*
D15*
%TO.C,D1*%
X130020000Y-108085000D03*
X130020000Y-105985000D03*
%TD*%
D16*
%TO.C,R4*%
X133895000Y-106165000D03*
X132070000Y-106165000D03*
%TD*%
D17*
%TO.C,R8*%
X132070000Y-96025000D03*
X133895000Y-96025000D03*
%TD*%
D16*
%TO.C,R1*%
X137935000Y-96025000D03*
X136110000Y-96025000D03*
%TD*%
%TO.C,R12*%
X137935000Y-89755000D03*
X136110000Y-89755000D03*
%TD*%
D17*
%TO.C,R3*%
X132070000Y-104195000D03*
X133895000Y-104195000D03*
%TD*%
D16*
%TO.C,R14*%
X141507500Y-116135000D03*
X143332500Y-116135000D03*
%TD*%
%TO.C,R11*%
X136110000Y-98005000D03*
X137935000Y-98005000D03*
%TD*%
D17*
%TO.C,R10*%
X169662500Y-115640000D03*
X167837500Y-115640000D03*
%TD*%
D16*
%TO.C,R9*%
X132070000Y-98005000D03*
X133895000Y-98005000D03*
%TD*%
%TO.C,R7*%
X132070000Y-89765000D03*
X133895000Y-89765000D03*
%TD*%
D17*
%TO.C,R6*%
X133892500Y-87765000D03*
X132067500Y-87765000D03*
%TD*%
D16*
%TO.C,R5*%
X136122500Y-87755000D03*
X137947500Y-87755000D03*
%TD*%
%TO.C,R2*%
X136110000Y-104195000D03*
X137935000Y-104195000D03*
%TD*%
D18*
%TO.C,C17*%
X169620000Y-119830000D03*
X167895000Y-119830000D03*
%TD*%
D19*
%TO.C,C16*%
X142190000Y-91400000D03*
X142190000Y-89675000D03*
%TD*%
D20*
%TO.C,C15*%
X139870000Y-87920000D03*
X139870000Y-89645000D03*
%TD*%
D19*
%TO.C,C14*%
X142190000Y-87915000D03*
X142190000Y-86190000D03*
%TD*%
%TO.C,C13*%
X142180000Y-107780000D03*
X142180000Y-106055000D03*
%TD*%
D20*
%TO.C,C12*%
X139870000Y-104335000D03*
X139870000Y-106060000D03*
%TD*%
D19*
%TO.C,C11*%
X142180000Y-104355000D03*
X142180000Y-102630000D03*
%TD*%
%TO.C,C10*%
X142180000Y-99600000D03*
X142180000Y-97875000D03*
%TD*%
D20*
%TO.C,C9*%
X139870000Y-96142500D03*
X139870000Y-97867500D03*
%TD*%
D19*
%TO.C,C8*%
X142180000Y-96145000D03*
X142180000Y-94420000D03*
%TD*%
D21*
%TO.C,C7*%
X154825000Y-94500000D03*
X156550000Y-94500000D03*
%TD*%
%TO.C,C6*%
X154825000Y-90500000D03*
X156550000Y-90500000D03*
%TD*%
D19*
%TO.C,C5*%
X167234300Y-109735850D03*
X167234300Y-108010850D03*
%TD*%
D18*
%TO.C,C4*%
X151802500Y-90500000D03*
X150077500Y-90500000D03*
%TD*%
%TO.C,C3*%
X151802500Y-94500000D03*
X150077500Y-94500000D03*
%TD*%
D19*
%TO.C,C2*%
X129990000Y-113237500D03*
X129990000Y-111512500D03*
%TD*%
D20*
%TO.C,C1*%
X151133500Y-111187500D03*
X151133500Y-112912500D03*
%TD*%
D22*
%TO.C,D13*%
X136720000Y-116505000D03*
D23*
X135420000Y-116125000D03*
X138020000Y-116125000D03*
%TD*%
D24*
%TO.C,JP5*%
X160300000Y-110560000D03*
X160300000Y-111860000D03*
X160300000Y-113160000D03*
%TD*%
D25*
%TO.C,D8*%
X174710000Y-96302000D03*
X176810000Y-96302000D03*
%TD*%
%TO.C,D7*%
X174710000Y-93600000D03*
X176810000Y-93600000D03*
%TD*%
D26*
%TO.C,H2*%
X176490000Y-80700000D03*
%TD*%
D27*
%TO.C,H5*%
X176490000Y-119820000D03*
%TD*%
D28*
%TO.C,SW1*%
X150450000Y-86750000D03*
X158050000Y-86750000D03*
X150450000Y-84550000D03*
X158050000Y-84550000D03*
D29*
X154950000Y-83570000D03*
X156450000Y-83570000D03*
X151950000Y-83570000D03*
D30*
X155750000Y-85650000D03*
X152750000Y-85650000D03*
%TD*%
D25*
%TO.C,D12*%
X174720000Y-107252000D03*
X176820000Y-107252000D03*
%TD*%
%TO.C,D11*%
X174720000Y-104550000D03*
X176820000Y-104550000D03*
%TD*%
%TO.C,D10*%
X174710000Y-99350000D03*
X176810000Y-99350000D03*
%TD*%
%TO.C,D9*%
X174710000Y-102052000D03*
X176810000Y-102052000D03*
%TD*%
D15*
%TO.C,D6*%
X130030000Y-94105000D03*
X130030000Y-96205000D03*
%TD*%
%TO.C,D5*%
X130030000Y-97825000D03*
X130030000Y-99925000D03*
%TD*%
%TO.C,D4*%
X130012500Y-85845000D03*
X130012500Y-87945000D03*
%TD*%
%TO.C,D3*%
X130020000Y-89595000D03*
X130020000Y-91695000D03*
%TD*%
%TO.C,D2*%
X130020000Y-102275000D03*
X130020000Y-104375000D03*
%TD*%
D31*
%TO.C,RV3*%
X161170000Y-87575000D03*
X163070000Y-87575000D03*
D32*
X162120000Y-84375000D03*
%TD*%
D33*
%TO.C,U2*%
X172320000Y-98919750D03*
X171050000Y-98919750D03*
X169780000Y-98919750D03*
X168500000Y-98919750D03*
X167240000Y-98919750D03*
X165970000Y-98919750D03*
X164700000Y-98919750D03*
X163430000Y-98919750D03*
X163430000Y-104399750D03*
X164700000Y-104399750D03*
X165970000Y-104399750D03*
X167240000Y-104399750D03*
X168500000Y-104399750D03*
X169780000Y-104399750D03*
X171050000Y-104399750D03*
X172320000Y-104399750D03*
%TD*%
D26*
%TO.C,H1*%
X127380000Y-80755000D03*
%TD*%
D34*
%TO.C,U1*%
X148500000Y-104200000D03*
X149150000Y-104200000D03*
X149800000Y-104200000D03*
X150450000Y-104200000D03*
X151100000Y-104200000D03*
X151750000Y-104200000D03*
X152400000Y-104200000D03*
X153050000Y-104200000D03*
X153700000Y-104200000D03*
X154350000Y-104200000D03*
X154350000Y-98475000D03*
X153700000Y-98475000D03*
X153050000Y-98475000D03*
X152400000Y-98475000D03*
X151750000Y-98475000D03*
X151100000Y-98475000D03*
X150450000Y-98475000D03*
X149800000Y-98475000D03*
X149150000Y-98475000D03*
X148500000Y-98475000D03*
%TD*%
D24*
%TO.C,JP1*%
X145057500Y-110570000D03*
X145057500Y-111870000D03*
X145057500Y-113170000D03*
%TD*%
D35*
%TO.C,J1*%
X125506047Y-100433112D03*
X125506047Y-94893112D03*
X125506047Y-97663112D03*
X125506047Y-103203112D03*
D36*
X125506047Y-105973112D03*
D35*
X122666047Y-96283112D03*
X122666047Y-99053112D03*
X122666047Y-101823112D03*
X122666047Y-104593112D03*
D37*
X124086047Y-87933112D03*
X124086047Y-112933112D03*
%TD*%
D24*
%TO.C,JP3*%
X157209500Y-110570000D03*
X157209500Y-111870000D03*
X157209500Y-113170000D03*
%TD*%
%TO.C,JP4*%
X153979000Y-110570000D03*
X153979000Y-111870000D03*
X153979000Y-113170000D03*
%TD*%
%TO.C,JP2*%
X148288000Y-110570000D03*
X148288000Y-111870000D03*
X148288000Y-113170000D03*
%TD*%
D38*
%TO.C,TP1*%
X167900000Y-85200000D03*
%TD*%
D26*
%TO.C,H3*%
X127380000Y-119875000D03*
%TD*%
D38*
%TO.C,TP2*%
X146700000Y-85300000D03*
%TD*%
D35*
%TO.C,J3*%
X179880000Y-100360000D03*
X179880000Y-105900000D03*
X179880000Y-103130000D03*
X179880000Y-97590000D03*
D36*
X179880000Y-94820000D03*
D35*
X182720000Y-104510000D03*
X182720000Y-101740000D03*
X182720000Y-98970000D03*
X182720000Y-96200000D03*
D37*
X181300000Y-112860000D03*
X181300000Y-87860000D03*
%TD*%
D16*
%TO.C,R13*%
X136110000Y-106165000D03*
X137935000Y-106165000D03*
%TD*%
%LPD*%
M02*
