%TF.GenerationSoftware,KiCad,Pcbnew,9.0.7*%
%TF.CreationDate,2026-01-30T16:00:42+01:00*%
%TF.ProjectId,icncconv,69636e63-636f-46e7-962e-6b696361645f,rev?*%
%TF.SameCoordinates,Original*%
%TF.FileFunction,Copper,L4,Bot*%
%TF.FilePolarity,Positive*%
%FSLAX46Y46*%
G04 Gerber Fmt 4.6, Leading zero omitted, Abs format (unit mm)*
G04 Created by KiCad (PCBNEW 9.0.7) date 2026-01-30 16:00:42*
%MOMM*%
%LPD*%
G01*
G04 APERTURE LIST*
%TA.AperFunction,ComponentPad*%
%ADD10C,6.400000*%
%TD*%
%TA.AperFunction,ComponentPad*%
%ADD11C,1.100000*%
%TD*%
%TA.AperFunction,ComponentPad*%
%ADD12C,1.800000*%
%TD*%
%TA.AperFunction,ComponentPad*%
%ADD13R,1.800000X1.800000*%
%TD*%
%TA.AperFunction,ComponentPad*%
%ADD14C,4.500000*%
%TD*%
%TA.AperFunction,ComponentPad*%
%ADD15C,2.600000*%
%TD*%
%TA.AperFunction,ViaPad*%
%ADD16C,0.250000*%
%TD*%
%TA.AperFunction,ViaPad*%
%ADD17C,0.600000*%
%TD*%
%TA.AperFunction,Conductor*%
%ADD18C,0.200000*%
%TD*%
G04 APERTURE END LIST*
D10*
%TO.P,H5,1,1*%
%TO.N,GNDS*%
X176490000Y-119820000D03*
%TD*%
D11*
%TO.P,SW1,*%
%TO.N,*%
X155750000Y-85650000D03*
X152750000Y-85650000D03*
%TD*%
D12*
%TO.P,J1,3,Pin_3*%
%TO.N,COS+*%
X125506047Y-100433112D03*
%TO.P,J1,5,Pin_5*%
%TO.N,SIN+*%
X125506047Y-94893112D03*
%TO.P,J1,4,Pin_4*%
%TO.N,SIN-*%
X125506047Y-97663112D03*
%TO.P,J1,2,Pin_2*%
%TO.N,COS-*%
X125506047Y-103203112D03*
D13*
%TO.P,J1,1,Pin_1*%
%TO.N,GND*%
X125506047Y-105973112D03*
D12*
%TO.P,J1,9,Pin_9*%
%TO.N,IDX+*%
X122666047Y-96283112D03*
%TO.P,J1,8,Pin_8*%
%TO.N,IDX-*%
X122666047Y-99053112D03*
%TO.P,J1,7,Pin_7*%
%TO.N,SHIELD*%
X122666047Y-101823112D03*
%TO.P,J1,6,Pin_6*%
%TO.N,+5V*%
X122666047Y-104593112D03*
D14*
%TO.P,J1,10,Pin_10*%
%TO.N,GNDS*%
X124086047Y-87933112D03*
%TO.P,J1,11,Pin_11*%
X124086047Y-112933112D03*
%TD*%
D15*
%TO.P,TP1,1,1*%
%TO.N,Net-(RV3-Pad2)*%
X167900000Y-85200000D03*
%TD*%
%TO.P,TP2,1,1*%
%TO.N,GND*%
X146700000Y-85300000D03*
%TD*%
D12*
%TO.P,J3,3,Pin_3*%
%TO.N,A-*%
X179880000Y-100360000D03*
%TO.P,J3,5,Pin_5*%
%TO.N,Z-*%
X179880000Y-105900000D03*
%TO.P,J3,4,Pin_4*%
%TO.N,B+*%
X179880000Y-103130000D03*
%TO.P,J3,2,Pin_2*%
%TO.N,A+*%
X179880000Y-97590000D03*
D13*
%TO.P,J3,1,Pin_1*%
%TO.N,GND*%
X179880000Y-94820000D03*
D12*
%TO.P,J3,9,Pin_9*%
%TO.N,Z+*%
X182720000Y-104510000D03*
%TO.P,J3,8,Pin_8*%
%TO.N,B-*%
X182720000Y-101740000D03*
%TO.P,J3,7,Pin_7*%
%TO.N,SHIELD*%
X182720000Y-98970000D03*
%TO.P,J3,6,Pin_6*%
%TO.N,+5V*%
X182720000Y-96200000D03*
D14*
%TO.P,J3,10,Pin_10*%
%TO.N,GNDS*%
X181300000Y-112860000D03*
%TO.P,J3,11,Pin_11*%
X181300000Y-87860000D03*
%TD*%
D16*
%TO.N,GND*%
X127940000Y-96330000D03*
X127940000Y-99720000D03*
X127940000Y-97440000D03*
X127940000Y-102000000D03*
X127930000Y-89890000D03*
X127920000Y-92036667D03*
X127920000Y-94183333D03*
X127850000Y-103280000D03*
X127840000Y-105186667D03*
X127850000Y-107093333D03*
X127940000Y-86490000D03*
X129960000Y-83880000D03*
X143940000Y-82430000D03*
X143950000Y-85040000D03*
X143970000Y-87380000D03*
X143960142Y-91599858D03*
X143950000Y-93250000D03*
X143950000Y-96520000D03*
X143940000Y-97580000D03*
X143960000Y-99946667D03*
X143960000Y-102313333D03*
X143940000Y-104680000D03*
X143970000Y-105760000D03*
D17*
X140830000Y-86210000D03*
X142180000Y-101030000D03*
X140820000Y-107760000D03*
X142190000Y-92870000D03*
X130020000Y-101110000D03*
%TO.N,ICNV_VREF*%
X135010000Y-87840000D03*
X135010000Y-92920000D03*
X135010000Y-101030000D03*
X135020000Y-107890000D03*
%TO.N,GND*%
X136720000Y-117555000D03*
%TO.N,+5V*%
X134250000Y-116115000D03*
%TO.N,GND*%
X145960000Y-116135000D03*
D16*
X139940000Y-82440000D03*
X143960000Y-89620000D03*
X141940000Y-82425000D03*
X137940000Y-82425000D03*
X135940000Y-82425000D03*
X133940000Y-82425000D03*
X131950000Y-83160000D03*
X127970000Y-84635000D03*
X127940000Y-88345000D03*
D17*
X131550000Y-108070000D03*
D16*
X127870000Y-109000000D03*
X131897500Y-109000000D03*
X135925000Y-109000000D03*
X139952500Y-109000000D03*
X143980000Y-109000000D03*
D17*
%TO.N,+5V*%
X153910000Y-96720000D03*
D16*
%TO.N,GND*%
X130010000Y-84565000D03*
D17*
X130020000Y-92895000D03*
X160300000Y-108990000D03*
X167810000Y-117730000D03*
X173680000Y-93590000D03*
X173670000Y-96231750D03*
X173750000Y-99350000D03*
X173550000Y-102070000D03*
X173550000Y-104550000D03*
X173490000Y-107300000D03*
%TO.N,+5V*%
X172330000Y-106100000D03*
%TO.N,GND*%
X148288000Y-109000000D03*
X151090000Y-114700000D03*
X153979000Y-109000000D03*
X154900000Y-105800000D03*
X157967500Y-94490000D03*
X157209500Y-109000000D03*
X162492300Y-98919750D03*
X161175000Y-88975000D03*
X165675000Y-110440000D03*
X145057500Y-109000000D03*
%TO.N,ICNV_VREF*%
X158960000Y-91080000D03*
X151130000Y-109110000D03*
%TO.N,+5V*%
X148288000Y-114700000D03*
X153100000Y-90500000D03*
X153979000Y-114700000D03*
X165600000Y-107310000D03*
X168492300Y-97472550D03*
%TD*%
D18*
%TO.N,ICNV_VREF*%
X135010000Y-92920000D02*
X135010000Y-87840000D01*
X135010000Y-101030000D02*
X135010000Y-92920000D01*
X135120000Y-101040000D02*
X135110000Y-101030000D01*
X135020000Y-107890000D02*
X135020000Y-101040000D01*
X135629000Y-108399000D02*
X135120000Y-107890000D01*
X137396000Y-108399000D02*
X135629000Y-108399000D01*
X150419000Y-108399000D02*
X137396000Y-108399000D01*
X150615000Y-108595000D02*
X151130000Y-109110000D01*
X150615000Y-108595000D02*
X150419000Y-108399000D01*
X158960000Y-102830000D02*
X158960000Y-91080000D01*
X152680000Y-109110000D02*
X158960000Y-102830000D01*
X151130000Y-109110000D02*
X152680000Y-109110000D01*
%TD*%
M02*
