%TF.GenerationSoftware,KiCad,Pcbnew,9.0.7*%
%TF.CreationDate,2026-02-04T08:31:01+01:00*%
%TF.ProjectId,icncconv,69636e63-636f-46e7-962e-6b696361645f,rev?*%
%TF.SameCoordinates,Original*%
%TF.FileFunction,Copper,L2,Inr*%
%TF.FilePolarity,Positive*%
%FSLAX46Y46*%
G04 Gerber Fmt 4.6, Leading zero omitted, Abs format (unit mm)*
G04 Created by KiCad (PCBNEW 9.0.7) date 2026-02-04 08:31:01*
%MOMM*%
%LPD*%
G01*
G04 APERTURE LIST*
%TA.AperFunction,ComponentPad*%
%ADD10C,1.100000*%
%TD*%
%TA.AperFunction,ComponentPad*%
%ADD11R,1.800000X1.800000*%
%TD*%
%TA.AperFunction,ComponentPad*%
%ADD12C,1.800000*%
%TD*%
%TA.AperFunction,ComponentPad*%
%ADD13C,4.500000*%
%TD*%
%TA.AperFunction,ComponentPad*%
%ADD14C,2.600000*%
%TD*%
%TA.AperFunction,ComponentPad*%
%ADD15C,6.400000*%
%TD*%
%TA.AperFunction,ViaPad*%
%ADD16C,0.600000*%
%TD*%
G04 APERTURE END LIST*
D10*
%TO.N,*%
%TO.C,SW1*%
X152750000Y-85650000D03*
X155750000Y-85650000D03*
%TD*%
D11*
%TO.N,GND*%
%TO.C,J1*%
X125506047Y-105973112D03*
D12*
%TO.N,COS-*%
X125506047Y-103203112D03*
%TO.N,COS+*%
X125506047Y-100433112D03*
%TO.N,SIN-*%
X125506047Y-97663112D03*
%TO.N,SIN+*%
X125506047Y-94893112D03*
%TO.N,+5V*%
X122666047Y-104593112D03*
%TO.N,SHIELD*%
X122666047Y-101823112D03*
%TO.N,IDX-*%
X122666047Y-99053112D03*
%TO.N,IDX+*%
X122666047Y-96283112D03*
D13*
%TO.N,GNDS*%
X124086047Y-87933112D03*
X124086047Y-112933112D03*
%TD*%
D14*
%TO.N,Net-(RV3-Pad2)*%
%TO.C,TP1*%
X167900000Y-85200000D03*
%TD*%
%TO.N,GND*%
%TO.C,TP2*%
X146700000Y-85300000D03*
%TD*%
D15*
%TO.N,GNDS*%
%TO.C,H5*%
X176490000Y-119820000D03*
%TD*%
D11*
%TO.N,GND*%
%TO.C,J3*%
X179880000Y-94820000D03*
D12*
%TO.N,A+*%
X179880000Y-97590000D03*
%TO.N,A-*%
X179880000Y-100360000D03*
%TO.N,B+*%
X179880000Y-103130000D03*
%TO.N,Z-*%
X179880000Y-105900000D03*
%TO.N,+5V*%
X182720000Y-96200000D03*
%TO.N,SHIELD*%
X182720000Y-98970000D03*
%TO.N,B-*%
X182720000Y-101740000D03*
%TO.N,Z+*%
X182720000Y-104510000D03*
D13*
%TO.N,GNDS*%
X181300000Y-112860000D03*
X181300000Y-87860000D03*
%TD*%
D16*
%TO.N,GND*%
X127940000Y-88345000D03*
X127940000Y-86490000D03*
X127970000Y-84635000D03*
X130010000Y-84610000D03*
X129960000Y-83880000D03*
X131950000Y-83160000D03*
X133940000Y-82425000D03*
X135940000Y-82425000D03*
X137940000Y-82425000D03*
X139940000Y-82440000D03*
X141940000Y-82425000D03*
X143940000Y-82430000D03*
X143950000Y-84722465D03*
X143970000Y-87014929D03*
X143960000Y-89307394D03*
X143970000Y-91510000D03*
X143950000Y-93330000D03*
X143960000Y-96430000D03*
X143950000Y-97680000D03*
X143960000Y-99946667D03*
X143960000Y-102313333D03*
X143950000Y-104600000D03*
X143970000Y-105820000D03*
X127930000Y-90040000D03*
X127920000Y-92036667D03*
X127920000Y-94183333D03*
X127930000Y-96270000D03*
X128040000Y-97540000D03*
X128050000Y-99730000D03*
X128040000Y-101910000D03*
X127680000Y-103360000D03*
X127670000Y-105210000D03*
X127680000Y-107080000D03*
X127700000Y-108950000D03*
X131897500Y-109000000D03*
X135925000Y-109000000D03*
X139952500Y-109000000D03*
X143950000Y-108950000D03*
X173550000Y-102070000D03*
X145960000Y-116135000D03*
X148288000Y-109000000D03*
X131550000Y-108070000D03*
X140820000Y-107760000D03*
X130020000Y-101110000D03*
X151090000Y-114700000D03*
X153979000Y-109000000D03*
X160300000Y-108990000D03*
X136720000Y-117555000D03*
X140830000Y-86210000D03*
X154900000Y-105800000D03*
X173550000Y-104550000D03*
X142190000Y-92870000D03*
X157967500Y-94490000D03*
X157209500Y-109000000D03*
X162492300Y-98919750D03*
X173670000Y-96231750D03*
X173680000Y-93590000D03*
X173750000Y-99350000D03*
X161175000Y-88975000D03*
X130020000Y-92895000D03*
X173490000Y-107300000D03*
X165550000Y-109050000D03*
X142180000Y-101030000D03*
X167810000Y-117730000D03*
X145057500Y-109000000D03*
%TO.N,ICNV_VREF*%
X135010000Y-92920000D03*
X158960000Y-91080000D03*
X135010000Y-101030000D03*
X135020000Y-107890000D03*
X151130000Y-109110000D03*
X135010000Y-87840000D03*
%TO.N,+5V*%
X148288000Y-114700000D03*
X153910000Y-96720000D03*
X134250000Y-116115000D03*
X172330000Y-106100000D03*
X153100000Y-90500000D03*
X153979000Y-114700000D03*
X165600000Y-107310000D03*
X168492300Y-97472550D03*
%TD*%
%TA.AperFunction,Conductor*%
%TO.N,GND*%
G36*
X185878387Y-75534916D02*
G01*
X185878577Y-75534967D01*
X185941870Y-75534966D01*
X185947180Y-75535084D01*
X186331244Y-75551849D01*
X186341978Y-75552789D01*
X186720451Y-75602614D01*
X186731070Y-75604486D01*
X187103770Y-75687108D01*
X187114185Y-75689899D01*
X187478243Y-75804684D01*
X187488386Y-75808375D01*
X187841082Y-75954462D01*
X187850842Y-75959014D01*
X188090837Y-76083946D01*
X188189442Y-76135276D01*
X188198810Y-76140685D01*
X188520734Y-76345770D01*
X188529596Y-76351975D01*
X188832422Y-76584338D01*
X188840709Y-76591291D01*
X189122138Y-76849170D01*
X189129787Y-76856819D01*
X189387669Y-77138245D01*
X189394622Y-77146532D01*
X189626987Y-77449350D01*
X189633192Y-77458211D01*
X189838284Y-77780138D01*
X189843693Y-77789506D01*
X190019950Y-78128086D01*
X190024522Y-78137891D01*
X190170595Y-78490536D01*
X190174295Y-78500701D01*
X190289082Y-78864751D01*
X190291881Y-78875199D01*
X190374497Y-79247841D01*
X190376376Y-79258495D01*
X190426202Y-79636936D01*
X190427144Y-79647710D01*
X190443848Y-80030208D01*
X190443966Y-80035618D01*
X190443966Y-119968573D01*
X190443965Y-119968577D01*
X190443965Y-119981755D01*
X190443965Y-119998748D01*
X190443965Y-120031764D01*
X190443847Y-120037172D01*
X190427083Y-120421220D01*
X190426140Y-120431997D01*
X190376320Y-120810429D01*
X190374442Y-120821082D01*
X190291827Y-121193745D01*
X190289027Y-121204194D01*
X190174248Y-121568231D01*
X190170548Y-121578396D01*
X190024479Y-121931040D01*
X190019907Y-121940845D01*
X189843659Y-122279416D01*
X189838251Y-122288784D01*
X189633157Y-122610719D01*
X189626952Y-122619580D01*
X189394592Y-122922398D01*
X189387638Y-122930685D01*
X189129759Y-123212110D01*
X189122110Y-123219759D01*
X188840685Y-123477638D01*
X188832398Y-123484592D01*
X188529580Y-123716952D01*
X188520719Y-123723157D01*
X188198784Y-123928251D01*
X188189416Y-123933659D01*
X187850845Y-124109907D01*
X187841040Y-124114479D01*
X187488396Y-124260548D01*
X187478231Y-124264248D01*
X187114194Y-124379027D01*
X187103745Y-124381827D01*
X186731082Y-124464442D01*
X186720429Y-124466320D01*
X186341997Y-124516140D01*
X186331219Y-124517083D01*
X185947225Y-124533844D01*
X185941722Y-124533962D01*
X119610299Y-124482668D01*
X119610296Y-124482668D01*
X119602125Y-124482661D01*
X119601934Y-124482611D01*
X119538638Y-124482611D01*
X119538630Y-124482608D01*
X119533330Y-124482493D01*
X119522450Y-124482018D01*
X119149287Y-124465729D01*
X119138511Y-124464786D01*
X118760079Y-124414968D01*
X118749426Y-124413090D01*
X118376759Y-124330475D01*
X118366309Y-124327675D01*
X118002268Y-124212896D01*
X117992113Y-124209200D01*
X117639440Y-124063122D01*
X117629657Y-124058560D01*
X117291070Y-123882305D01*
X117281702Y-123876896D01*
X116959778Y-123671811D01*
X116950916Y-123665606D01*
X116648089Y-123433242D01*
X116639802Y-123426289D01*
X116626314Y-123413930D01*
X116358373Y-123168410D01*
X116350724Y-123160761D01*
X116201450Y-122997859D01*
X116092838Y-122879331D01*
X116085906Y-122871070D01*
X115853515Y-122568216D01*
X115847322Y-122559370D01*
X115746424Y-122400994D01*
X115642227Y-122237439D01*
X115636820Y-122228073D01*
X115460564Y-121889493D01*
X115455992Y-121879689D01*
X115338295Y-121595546D01*
X115309917Y-121527036D01*
X115306220Y-121516878D01*
X115191433Y-121152828D01*
X115188640Y-121142402D01*
X115106015Y-120769713D01*
X115104142Y-120759086D01*
X115054315Y-120380620D01*
X115053375Y-120369882D01*
X115037074Y-119996544D01*
X115036665Y-119987164D01*
X115036547Y-119981755D01*
X115036547Y-119760258D01*
X125629500Y-119760258D01*
X125629500Y-119989741D01*
X125635745Y-120037172D01*
X125659452Y-120217238D01*
X125700347Y-120369863D01*
X125718842Y-120438887D01*
X125806650Y-120650876D01*
X125806657Y-120650890D01*
X125921392Y-120849617D01*
X126061081Y-121031661D01*
X126061089Y-121031670D01*
X126223330Y-121193911D01*
X126223338Y-121193918D01*
X126405382Y-121333607D01*
X126405385Y-121333608D01*
X126405388Y-121333611D01*
X126604112Y-121448344D01*
X126604117Y-121448346D01*
X126604123Y-121448349D01*
X126695480Y-121486190D01*
X126816113Y-121536158D01*
X127037762Y-121595548D01*
X127265266Y-121625500D01*
X127265273Y-121625500D01*
X127494727Y-121625500D01*
X127494734Y-121625500D01*
X127722238Y-121595548D01*
X127943887Y-121536158D01*
X128155888Y-121448344D01*
X128354612Y-121333611D01*
X128536661Y-121193919D01*
X128536665Y-121193914D01*
X128536670Y-121193911D01*
X128698911Y-121031670D01*
X128698914Y-121031665D01*
X128698919Y-121031661D01*
X128838611Y-120849612D01*
X128953344Y-120650888D01*
X129041158Y-120438887D01*
X129100548Y-120217238D01*
X129130500Y-119989734D01*
X129130500Y-119760266D01*
X129114430Y-119638206D01*
X172789500Y-119638206D01*
X172789500Y-120001794D01*
X172800337Y-120111829D01*
X172825137Y-120363630D01*
X172896064Y-120720212D01*
X172896067Y-120720223D01*
X173001614Y-121068165D01*
X173140754Y-121404078D01*
X173140756Y-121404083D01*
X173312140Y-121724720D01*
X173312144Y-121724727D01*
X173312147Y-121724732D01*
X173419030Y-121884694D01*
X173514140Y-122027035D01*
X173514150Y-122027049D01*
X173744807Y-122308106D01*
X174001893Y-122565192D01*
X174001898Y-122565196D01*
X174001899Y-122565197D01*
X174282956Y-122795854D01*
X174585268Y-122997853D01*
X174585277Y-122997858D01*
X174585279Y-122997859D01*
X174905916Y-123169243D01*
X174905918Y-123169243D01*
X174905924Y-123169247D01*
X175241836Y-123308386D01*
X175589767Y-123413930D01*
X175589773Y-123413931D01*
X175589776Y-123413932D01*
X175589787Y-123413935D01*
X175910051Y-123477638D01*
X175946369Y-123484862D01*
X176308206Y-123520500D01*
X176308209Y-123520500D01*
X176671791Y-123520500D01*
X176671794Y-123520500D01*
X177033631Y-123484862D01*
X177103045Y-123471054D01*
X177390212Y-123413935D01*
X177390223Y-123413932D01*
X177390223Y-123413931D01*
X177390233Y-123413930D01*
X177738164Y-123308386D01*
X178074076Y-123169247D01*
X178394732Y-122997853D01*
X178697044Y-122795854D01*
X178978101Y-122565197D01*
X179235197Y-122308101D01*
X179465854Y-122027044D01*
X179667853Y-121724732D01*
X179839247Y-121404076D01*
X179978386Y-121068164D01*
X180083930Y-120720233D01*
X180083932Y-120720223D01*
X180083935Y-120720212D01*
X180154862Y-120363630D01*
X180169280Y-120217240D01*
X180190500Y-120001794D01*
X180190500Y-119638206D01*
X180154862Y-119276369D01*
X180119604Y-119099112D01*
X180083935Y-118919787D01*
X180083932Y-118919776D01*
X180083931Y-118919773D01*
X180083930Y-118919767D01*
X179978386Y-118571836D01*
X179839247Y-118235924D01*
X179795699Y-118154452D01*
X179667859Y-117915279D01*
X179667858Y-117915277D01*
X179667853Y-117915268D01*
X179465854Y-117612956D01*
X179235197Y-117331899D01*
X179235196Y-117331898D01*
X179235192Y-117331893D01*
X178978106Y-117074807D01*
X178697049Y-116844150D01*
X178697048Y-116844149D01*
X178697044Y-116844146D01*
X178394732Y-116642147D01*
X178394727Y-116642144D01*
X178394720Y-116642140D01*
X178074083Y-116470756D01*
X178074078Y-116470754D01*
X177738165Y-116331614D01*
X177390223Y-116226067D01*
X177390212Y-116226064D01*
X177033630Y-116155137D01*
X176761111Y-116128296D01*
X176671794Y-116119500D01*
X176308206Y-116119500D01*
X176225679Y-116127628D01*
X175946369Y-116155137D01*
X175589787Y-116226064D01*
X175589776Y-116226067D01*
X175241834Y-116331614D01*
X174905921Y-116470754D01*
X174905916Y-116470756D01*
X174585279Y-116642140D01*
X174585261Y-116642151D01*
X174282964Y-116844140D01*
X174282950Y-116844150D01*
X174001893Y-117074807D01*
X173744807Y-117331893D01*
X173514150Y-117612950D01*
X173514140Y-117612964D01*
X173312151Y-117915261D01*
X173312140Y-117915279D01*
X173140756Y-118235916D01*
X173140754Y-118235921D01*
X173001614Y-118571834D01*
X172896067Y-118919776D01*
X172896064Y-118919787D01*
X172825137Y-119276369D01*
X172799886Y-119532759D01*
X172789500Y-119638206D01*
X129114430Y-119638206D01*
X129100548Y-119532762D01*
X129041158Y-119311113D01*
X128953344Y-119099112D01*
X128838611Y-118900388D01*
X128838608Y-118900385D01*
X128838607Y-118900382D01*
X128698918Y-118718338D01*
X128698911Y-118718330D01*
X128536670Y-118556089D01*
X128536661Y-118556081D01*
X128354617Y-118416392D01*
X128155890Y-118301657D01*
X128155876Y-118301650D01*
X127943887Y-118213842D01*
X127722238Y-118154452D01*
X127684215Y-118149446D01*
X127494741Y-118124500D01*
X127494734Y-118124500D01*
X127265266Y-118124500D01*
X127265258Y-118124500D01*
X127048715Y-118153009D01*
X127037762Y-118154452D01*
X126944076Y-118179554D01*
X126816112Y-118213842D01*
X126604123Y-118301650D01*
X126604109Y-118301657D01*
X126405382Y-118416392D01*
X126223338Y-118556081D01*
X126061081Y-118718338D01*
X125921392Y-118900382D01*
X125806657Y-119099109D01*
X125806650Y-119099123D01*
X125718842Y-119311112D01*
X125659453Y-119532759D01*
X125659451Y-119532770D01*
X125629500Y-119760258D01*
X115036547Y-119760258D01*
X115036547Y-116036153D01*
X133449500Y-116036153D01*
X133449500Y-116193846D01*
X133480261Y-116348489D01*
X133480264Y-116348501D01*
X133540602Y-116494172D01*
X133540609Y-116494185D01*
X133628210Y-116625288D01*
X133628213Y-116625292D01*
X133739707Y-116736786D01*
X133739711Y-116736789D01*
X133870814Y-116824390D01*
X133870827Y-116824397D01*
X134016498Y-116884735D01*
X134016503Y-116884737D01*
X134171153Y-116915499D01*
X134171156Y-116915500D01*
X134171158Y-116915500D01*
X134328844Y-116915500D01*
X134328845Y-116915499D01*
X134483497Y-116884737D01*
X134629179Y-116824394D01*
X134760289Y-116736789D01*
X134871789Y-116625289D01*
X134959394Y-116494179D01*
X135019737Y-116348497D01*
X135050500Y-116193842D01*
X135050500Y-116036158D01*
X135050500Y-116036155D01*
X135050499Y-116036153D01*
X135019738Y-115881510D01*
X135019737Y-115881503D01*
X135019735Y-115881498D01*
X134959397Y-115735827D01*
X134959390Y-115735814D01*
X134871789Y-115604711D01*
X134871786Y-115604707D01*
X134760292Y-115493213D01*
X134760288Y-115493210D01*
X134629185Y-115405609D01*
X134629172Y-115405602D01*
X134483501Y-115345264D01*
X134483489Y-115345261D01*
X134328845Y-115314500D01*
X134328842Y-115314500D01*
X134171158Y-115314500D01*
X134171155Y-115314500D01*
X134016510Y-115345261D01*
X134016498Y-115345264D01*
X133870827Y-115405602D01*
X133870814Y-115405609D01*
X133739711Y-115493210D01*
X133739707Y-115493213D01*
X133628213Y-115604707D01*
X133628210Y-115604711D01*
X133540609Y-115735814D01*
X133540602Y-115735827D01*
X133480264Y-115881498D01*
X133480261Y-115881510D01*
X133449500Y-116036153D01*
X115036547Y-116036153D01*
X115036547Y-112778640D01*
X121335547Y-112778640D01*
X121335547Y-113087583D01*
X121370133Y-113394549D01*
X121370136Y-113394567D01*
X121438878Y-113695747D01*
X121438882Y-113695759D01*
X121540909Y-113987334D01*
X121540915Y-113987348D01*
X121674950Y-114265674D01*
X121674952Y-114265677D01*
X121839312Y-114527255D01*
X122031927Y-114768786D01*
X122250373Y-114987232D01*
X122491904Y-115179847D01*
X122753482Y-115344207D01*
X123031818Y-115478247D01*
X123095413Y-115500500D01*
X123323399Y-115580276D01*
X123323411Y-115580280D01*
X123624595Y-115649023D01*
X123624601Y-115649023D01*
X123624609Y-115649025D01*
X123829253Y-115672082D01*
X123931576Y-115683611D01*
X123931579Y-115683612D01*
X123931582Y-115683612D01*
X124240515Y-115683612D01*
X124240516Y-115683611D01*
X124397403Y-115665934D01*
X124547484Y-115649025D01*
X124547489Y-115649024D01*
X124547499Y-115649023D01*
X124848683Y-115580280D01*
X125140276Y-115478247D01*
X125418612Y-115344207D01*
X125680190Y-115179847D01*
X125921721Y-114987232D01*
X126140167Y-114768786D01*
X126257901Y-114621153D01*
X147487500Y-114621153D01*
X147487500Y-114778846D01*
X147518261Y-114933489D01*
X147518264Y-114933501D01*
X147578602Y-115079172D01*
X147578609Y-115079185D01*
X147666210Y-115210288D01*
X147666213Y-115210292D01*
X147777707Y-115321786D01*
X147777711Y-115321789D01*
X147908814Y-115409390D01*
X147908827Y-115409397D01*
X148054498Y-115469735D01*
X148054503Y-115469737D01*
X148209153Y-115500499D01*
X148209156Y-115500500D01*
X148209158Y-115500500D01*
X148366844Y-115500500D01*
X148366845Y-115500499D01*
X148521497Y-115469737D01*
X148667179Y-115409394D01*
X148798289Y-115321789D01*
X148909789Y-115210289D01*
X148997394Y-115079179D01*
X149057737Y-114933497D01*
X149088500Y-114778842D01*
X149088500Y-114621158D01*
X149088500Y-114621155D01*
X149088499Y-114621153D01*
X153178500Y-114621153D01*
X153178500Y-114778846D01*
X153209261Y-114933489D01*
X153209264Y-114933501D01*
X153269602Y-115079172D01*
X153269609Y-115079185D01*
X153357210Y-115210288D01*
X153357213Y-115210292D01*
X153468707Y-115321786D01*
X153468711Y-115321789D01*
X153599814Y-115409390D01*
X153599827Y-115409397D01*
X153745498Y-115469735D01*
X153745503Y-115469737D01*
X153900153Y-115500499D01*
X153900156Y-115500500D01*
X153900158Y-115500500D01*
X154057844Y-115500500D01*
X154057845Y-115500499D01*
X154212497Y-115469737D01*
X154358179Y-115409394D01*
X154489289Y-115321789D01*
X154600789Y-115210289D01*
X154688394Y-115079179D01*
X154748737Y-114933497D01*
X154779500Y-114778842D01*
X154779500Y-114621158D01*
X154779500Y-114621155D01*
X154779499Y-114621153D01*
X154748737Y-114466503D01*
X154743617Y-114454141D01*
X154688397Y-114320827D01*
X154688390Y-114320814D01*
X154600789Y-114189711D01*
X154600786Y-114189707D01*
X154489292Y-114078213D01*
X154489288Y-114078210D01*
X154358185Y-113990609D01*
X154358172Y-113990602D01*
X154212501Y-113930264D01*
X154212489Y-113930261D01*
X154057845Y-113899500D01*
X154057842Y-113899500D01*
X153900158Y-113899500D01*
X153900155Y-113899500D01*
X153745510Y-113930261D01*
X153745498Y-113930264D01*
X153599827Y-113990602D01*
X153599814Y-113990609D01*
X153468711Y-114078210D01*
X153468707Y-114078213D01*
X153357213Y-114189707D01*
X153357210Y-114189711D01*
X153269609Y-114320814D01*
X153269602Y-114320827D01*
X153209264Y-114466498D01*
X153209261Y-114466510D01*
X153178500Y-114621153D01*
X149088499Y-114621153D01*
X149057737Y-114466503D01*
X149052617Y-114454141D01*
X148997397Y-114320827D01*
X148997390Y-114320814D01*
X148909789Y-114189711D01*
X148909786Y-114189707D01*
X148798292Y-114078213D01*
X148798288Y-114078210D01*
X148667185Y-113990609D01*
X148667172Y-113990602D01*
X148521501Y-113930264D01*
X148521489Y-113930261D01*
X148366845Y-113899500D01*
X148366842Y-113899500D01*
X148209158Y-113899500D01*
X148209155Y-113899500D01*
X148054510Y-113930261D01*
X148054498Y-113930264D01*
X147908827Y-113990602D01*
X147908814Y-113990609D01*
X147777711Y-114078210D01*
X147777707Y-114078213D01*
X147666213Y-114189707D01*
X147666210Y-114189711D01*
X147578609Y-114320814D01*
X147578602Y-114320827D01*
X147518264Y-114466498D01*
X147518261Y-114466510D01*
X147487500Y-114621153D01*
X126257901Y-114621153D01*
X126332782Y-114527255D01*
X126497142Y-114265677D01*
X126631182Y-113987341D01*
X126733215Y-113695748D01*
X126801958Y-113394564D01*
X126810196Y-113321455D01*
X126836546Y-113087583D01*
X126836547Y-113087579D01*
X126836547Y-112778644D01*
X126836546Y-112778642D01*
X126829482Y-112715940D01*
X126829482Y-112715939D01*
X126828309Y-112705528D01*
X178549500Y-112705528D01*
X178549500Y-113014471D01*
X178584086Y-113321437D01*
X178584089Y-113321455D01*
X178652831Y-113622635D01*
X178652835Y-113622647D01*
X178754862Y-113914222D01*
X178754868Y-113914236D01*
X178888903Y-114192562D01*
X178888905Y-114192565D01*
X179053265Y-114454143D01*
X179245880Y-114695674D01*
X179464326Y-114914120D01*
X179705857Y-115106735D01*
X179967435Y-115271095D01*
X180245771Y-115405135D01*
X180257951Y-115409397D01*
X180537352Y-115507164D01*
X180537364Y-115507168D01*
X180838548Y-115575911D01*
X180838554Y-115575911D01*
X180838562Y-115575913D01*
X181043206Y-115598970D01*
X181145529Y-115610499D01*
X181145532Y-115610500D01*
X181145535Y-115610500D01*
X181454468Y-115610500D01*
X181454469Y-115610499D01*
X181611356Y-115592822D01*
X181761437Y-115575913D01*
X181761442Y-115575912D01*
X181761452Y-115575911D01*
X182062636Y-115507168D01*
X182354229Y-115405135D01*
X182632565Y-115271095D01*
X182894143Y-115106735D01*
X183135674Y-114914120D01*
X183354120Y-114695674D01*
X183546735Y-114454143D01*
X183711095Y-114192565D01*
X183845135Y-113914229D01*
X183947168Y-113622636D01*
X184015911Y-113321452D01*
X184050500Y-113014465D01*
X184050500Y-112705535D01*
X184038970Y-112603206D01*
X184015913Y-112398562D01*
X184015910Y-112398544D01*
X183947168Y-112097364D01*
X183947164Y-112097352D01*
X183845137Y-111805777D01*
X183845135Y-111805771D01*
X183711095Y-111527435D01*
X183546735Y-111265857D01*
X183354120Y-111024326D01*
X183135674Y-110805880D01*
X182894143Y-110613265D01*
X182632565Y-110448905D01*
X182632562Y-110448903D01*
X182354236Y-110314868D01*
X182354222Y-110314862D01*
X182062647Y-110212835D01*
X182062635Y-110212831D01*
X181761455Y-110144089D01*
X181761437Y-110144086D01*
X181454471Y-110109500D01*
X181454465Y-110109500D01*
X181145535Y-110109500D01*
X181145528Y-110109500D01*
X180838562Y-110144086D01*
X180838544Y-110144089D01*
X180537364Y-110212831D01*
X180537352Y-110212835D01*
X180245777Y-110314862D01*
X180245763Y-110314868D01*
X179967437Y-110448903D01*
X179705858Y-110613264D01*
X179464326Y-110805879D01*
X179245879Y-111024326D01*
X179053264Y-111265858D01*
X178888903Y-111527437D01*
X178754868Y-111805763D01*
X178754862Y-111805777D01*
X178652835Y-112097352D01*
X178652831Y-112097364D01*
X178584089Y-112398544D01*
X178584086Y-112398562D01*
X178549500Y-112705528D01*
X126828309Y-112705528D01*
X126801960Y-112471674D01*
X126801957Y-112471656D01*
X126733215Y-112170476D01*
X126733211Y-112170464D01*
X126631184Y-111878889D01*
X126631182Y-111878883D01*
X126497142Y-111600547D01*
X126332782Y-111338969D01*
X126140167Y-111097438D01*
X125921721Y-110878992D01*
X125680190Y-110686377D01*
X125418612Y-110522017D01*
X125418609Y-110522015D01*
X125140283Y-110387980D01*
X125140269Y-110387974D01*
X124848694Y-110285947D01*
X124848682Y-110285943D01*
X124547502Y-110217201D01*
X124547484Y-110217198D01*
X124240518Y-110182612D01*
X124240512Y-110182612D01*
X123931582Y-110182612D01*
X123931575Y-110182612D01*
X123624609Y-110217198D01*
X123624591Y-110217201D01*
X123323411Y-110285943D01*
X123323399Y-110285947D01*
X123031824Y-110387974D01*
X123031810Y-110387980D01*
X122753484Y-110522015D01*
X122491905Y-110686376D01*
X122250373Y-110878991D01*
X122031926Y-111097438D01*
X121839311Y-111338970D01*
X121674950Y-111600549D01*
X121540915Y-111878875D01*
X121540909Y-111878889D01*
X121438882Y-112170464D01*
X121438878Y-112170476D01*
X121370136Y-112471656D01*
X121370133Y-112471674D01*
X121335547Y-112778640D01*
X115036547Y-112778640D01*
X115036547Y-109031153D01*
X150329500Y-109031153D01*
X150329500Y-109188846D01*
X150360261Y-109343489D01*
X150360264Y-109343501D01*
X150420602Y-109489172D01*
X150420609Y-109489185D01*
X150508210Y-109620288D01*
X150508213Y-109620292D01*
X150619707Y-109731786D01*
X150619711Y-109731789D01*
X150750814Y-109819390D01*
X150750827Y-109819397D01*
X150896498Y-109879735D01*
X150896503Y-109879737D01*
X151051153Y-109910499D01*
X151051156Y-109910500D01*
X151051158Y-109910500D01*
X151208844Y-109910500D01*
X151208845Y-109910499D01*
X151363497Y-109879737D01*
X151509179Y-109819394D01*
X151640289Y-109731789D01*
X151751789Y-109620289D01*
X151839394Y-109489179D01*
X151899737Y-109343497D01*
X151930500Y-109188842D01*
X151930500Y-109031158D01*
X151930500Y-109031155D01*
X151930499Y-109031153D01*
X151899738Y-108876510D01*
X151899737Y-108876503D01*
X151899735Y-108876498D01*
X151839397Y-108730827D01*
X151839390Y-108730814D01*
X151751789Y-108599711D01*
X151751786Y-108599707D01*
X151640292Y-108488213D01*
X151640288Y-108488210D01*
X151509185Y-108400609D01*
X151509172Y-108400602D01*
X151363501Y-108340264D01*
X151363489Y-108340261D01*
X151208845Y-108309500D01*
X151208842Y-108309500D01*
X151051158Y-108309500D01*
X151051155Y-108309500D01*
X150896510Y-108340261D01*
X150896498Y-108340264D01*
X150750827Y-108400602D01*
X150750814Y-108400609D01*
X150619711Y-108488210D01*
X150619707Y-108488213D01*
X150508213Y-108599707D01*
X150508210Y-108599711D01*
X150420609Y-108730814D01*
X150420602Y-108730827D01*
X150360264Y-108876498D01*
X150360261Y-108876510D01*
X150329500Y-109031153D01*
X115036547Y-109031153D01*
X115036547Y-107811153D01*
X134219500Y-107811153D01*
X134219500Y-107968846D01*
X134250261Y-108123489D01*
X134250264Y-108123501D01*
X134310602Y-108269172D01*
X134310609Y-108269185D01*
X134398210Y-108400288D01*
X134398213Y-108400292D01*
X134509707Y-108511786D01*
X134509711Y-108511789D01*
X134640814Y-108599390D01*
X134640827Y-108599397D01*
X134786498Y-108659735D01*
X134786503Y-108659737D01*
X134941153Y-108690499D01*
X134941156Y-108690500D01*
X134941158Y-108690500D01*
X135098844Y-108690500D01*
X135098845Y-108690499D01*
X135253497Y-108659737D01*
X135398414Y-108599711D01*
X135399172Y-108599397D01*
X135399172Y-108599396D01*
X135399179Y-108599394D01*
X135530289Y-108511789D01*
X135641789Y-108400289D01*
X135729394Y-108269179D01*
X135789737Y-108123497D01*
X135820500Y-107968842D01*
X135820500Y-107811158D01*
X135820500Y-107811155D01*
X135820499Y-107811153D01*
X135796238Y-107689185D01*
X135789737Y-107656503D01*
X135789735Y-107656498D01*
X135729397Y-107510827D01*
X135729390Y-107510814D01*
X135641789Y-107379711D01*
X135641786Y-107379707D01*
X135530292Y-107268213D01*
X135530288Y-107268210D01*
X135474829Y-107231153D01*
X164799500Y-107231153D01*
X164799500Y-107388846D01*
X164830261Y-107543489D01*
X164830264Y-107543501D01*
X164890602Y-107689172D01*
X164890609Y-107689185D01*
X164978210Y-107820288D01*
X164978213Y-107820292D01*
X165089707Y-107931786D01*
X165089711Y-107931789D01*
X165220814Y-108019390D01*
X165220827Y-108019397D01*
X165366498Y-108079735D01*
X165366503Y-108079737D01*
X165521153Y-108110499D01*
X165521156Y-108110500D01*
X165521158Y-108110500D01*
X165678844Y-108110500D01*
X165678845Y-108110499D01*
X165833497Y-108079737D01*
X165979179Y-108019394D01*
X166110289Y-107931789D01*
X166221789Y-107820289D01*
X166309394Y-107689179D01*
X166369737Y-107543497D01*
X166400500Y-107388842D01*
X166400500Y-107231158D01*
X166400500Y-107231155D01*
X166400499Y-107231153D01*
X166393884Y-107197896D01*
X166369737Y-107076503D01*
X166329965Y-106980484D01*
X166309397Y-106930827D01*
X166309390Y-106930814D01*
X166221789Y-106799711D01*
X166221786Y-106799707D01*
X166110292Y-106688213D01*
X166110288Y-106688210D01*
X165979185Y-106600609D01*
X165979172Y-106600602D01*
X165833501Y-106540264D01*
X165833489Y-106540261D01*
X165678845Y-106509500D01*
X165678842Y-106509500D01*
X165521158Y-106509500D01*
X165521155Y-106509500D01*
X165366510Y-106540261D01*
X165366498Y-106540264D01*
X165220827Y-106600602D01*
X165220814Y-106600609D01*
X165089711Y-106688210D01*
X165089707Y-106688213D01*
X164978213Y-106799707D01*
X164978210Y-106799711D01*
X164890609Y-106930814D01*
X164890602Y-106930827D01*
X164830264Y-107076498D01*
X164830261Y-107076510D01*
X164799500Y-107231153D01*
X135474829Y-107231153D01*
X135399185Y-107180609D01*
X135399172Y-107180602D01*
X135253501Y-107120264D01*
X135253489Y-107120261D01*
X135098845Y-107089500D01*
X135098842Y-107089500D01*
X134941158Y-107089500D01*
X134941155Y-107089500D01*
X134786510Y-107120261D01*
X134786498Y-107120264D01*
X134640827Y-107180602D01*
X134640814Y-107180609D01*
X134509711Y-107268210D01*
X134509707Y-107268213D01*
X134398213Y-107379707D01*
X134398210Y-107379711D01*
X134310609Y-107510814D01*
X134310602Y-107510827D01*
X134250264Y-107656498D01*
X134250261Y-107656510D01*
X134219500Y-107811153D01*
X115036547Y-107811153D01*
X115036547Y-96172890D01*
X121265547Y-96172890D01*
X121265547Y-96393333D01*
X121300032Y-96611064D01*
X121368150Y-96820715D01*
X121368151Y-96820718D01*
X121423369Y-96929086D01*
X121440270Y-96962257D01*
X121468234Y-97017137D01*
X121597799Y-97195470D01*
X121597803Y-97195475D01*
X121753683Y-97351355D01*
X121753688Y-97351359D01*
X121932023Y-97480926D01*
X122082556Y-97557628D01*
X122133351Y-97605602D01*
X122150146Y-97673423D01*
X122127608Y-97739558D01*
X122082556Y-97778596D01*
X121932023Y-97855297D01*
X121753688Y-97984864D01*
X121753683Y-97984868D01*
X121597803Y-98140748D01*
X121597799Y-98140753D01*
X121468234Y-98319086D01*
X121368151Y-98515505D01*
X121368150Y-98515508D01*
X121300032Y-98725159D01*
X121265547Y-98942890D01*
X121265547Y-99163333D01*
X121300032Y-99381064D01*
X121368150Y-99590715D01*
X121368151Y-99590718D01*
X121468234Y-99787137D01*
X121597799Y-99965470D01*
X121597803Y-99965475D01*
X121753683Y-100121355D01*
X121753688Y-100121359D01*
X121932023Y-100250926D01*
X122082556Y-100327628D01*
X122133351Y-100375602D01*
X122150146Y-100443423D01*
X122127608Y-100509558D01*
X122082556Y-100548596D01*
X121932023Y-100625297D01*
X121753688Y-100754864D01*
X121753683Y-100754868D01*
X121597803Y-100910748D01*
X121597799Y-100910753D01*
X121468234Y-101089086D01*
X121368151Y-101285505D01*
X121368150Y-101285508D01*
X121300032Y-101495159D01*
X121265547Y-101712890D01*
X121265547Y-101933333D01*
X121300032Y-102151064D01*
X121368150Y-102360715D01*
X121368151Y-102360718D01*
X121468234Y-102557137D01*
X121597799Y-102735470D01*
X121597803Y-102735475D01*
X121753683Y-102891355D01*
X121753688Y-102891359D01*
X121932023Y-103020926D01*
X122082556Y-103097628D01*
X122133351Y-103145602D01*
X122150146Y-103213423D01*
X122127608Y-103279558D01*
X122082556Y-103318596D01*
X121932023Y-103395297D01*
X121753688Y-103524864D01*
X121753683Y-103524868D01*
X121597803Y-103680748D01*
X121597799Y-103680753D01*
X121468234Y-103859086D01*
X121368151Y-104055505D01*
X121368150Y-104055508D01*
X121300032Y-104265159D01*
X121265547Y-104482890D01*
X121265547Y-104703333D01*
X121300032Y-104921064D01*
X121368150Y-105130715D01*
X121368151Y-105130718D01*
X121425884Y-105244022D01*
X121460532Y-105312023D01*
X121468234Y-105327137D01*
X121597799Y-105505470D01*
X121597803Y-105505475D01*
X121753683Y-105661355D01*
X121753688Y-105661359D01*
X121835540Y-105720827D01*
X121932025Y-105790927D01*
X122060422Y-105856349D01*
X122128440Y-105891007D01*
X122128443Y-105891008D01*
X122188435Y-105910500D01*
X122338096Y-105959127D01*
X122555825Y-105993612D01*
X122555826Y-105993612D01*
X122776268Y-105993612D01*
X122776269Y-105993612D01*
X122993998Y-105959127D01*
X123143659Y-105910500D01*
X123184794Y-105897135D01*
X123203650Y-105891008D01*
X123203653Y-105891007D01*
X123233078Y-105876014D01*
X123400069Y-105790927D01*
X123578412Y-105661354D01*
X123734289Y-105505477D01*
X123863862Y-105327134D01*
X123871562Y-105312021D01*
X123919535Y-105261226D01*
X123987356Y-105244430D01*
X124053491Y-105266966D01*
X124096943Y-105321681D01*
X124106047Y-105368316D01*
X124106047Y-105723112D01*
X125015285Y-105723112D01*
X124993517Y-105760815D01*
X124956035Y-105900702D01*
X124956035Y-106045522D01*
X124993517Y-106185409D01*
X125015285Y-106223112D01*
X124106047Y-106223112D01*
X124106047Y-106920956D01*
X124112448Y-106980484D01*
X124112450Y-106980491D01*
X124162692Y-107115198D01*
X124162696Y-107115205D01*
X124248856Y-107230299D01*
X124248859Y-107230302D01*
X124363953Y-107316462D01*
X124363960Y-107316466D01*
X124498667Y-107366708D01*
X124498674Y-107366710D01*
X124558202Y-107373111D01*
X124558219Y-107373112D01*
X125256047Y-107373112D01*
X125256047Y-106463873D01*
X125293750Y-106485642D01*
X125433637Y-106523124D01*
X125578457Y-106523124D01*
X125718344Y-106485642D01*
X125756047Y-106463873D01*
X125756047Y-107373112D01*
X126453875Y-107373112D01*
X126453891Y-107373111D01*
X126513419Y-107366710D01*
X126513426Y-107366708D01*
X126648133Y-107316466D01*
X126648140Y-107316462D01*
X126763234Y-107230302D01*
X126763237Y-107230299D01*
X126849397Y-107115205D01*
X126849401Y-107115198D01*
X126899643Y-106980491D01*
X126899645Y-106980484D01*
X126906046Y-106920956D01*
X126906047Y-106920939D01*
X126906047Y-106223112D01*
X125996809Y-106223112D01*
X126018577Y-106185409D01*
X126056059Y-106045522D01*
X126056059Y-106021153D01*
X171529500Y-106021153D01*
X171529500Y-106178846D01*
X171560261Y-106333489D01*
X171560264Y-106333501D01*
X171620602Y-106479172D01*
X171620609Y-106479185D01*
X171708210Y-106610288D01*
X171708213Y-106610292D01*
X171819707Y-106721786D01*
X171819711Y-106721789D01*
X171950814Y-106809390D01*
X171950827Y-106809397D01*
X172096498Y-106869735D01*
X172096503Y-106869737D01*
X172251153Y-106900499D01*
X172251156Y-106900500D01*
X172251158Y-106900500D01*
X172408844Y-106900500D01*
X172408845Y-106900499D01*
X172563497Y-106869737D01*
X172676166Y-106823067D01*
X172709172Y-106809397D01*
X172709172Y-106809396D01*
X172709179Y-106809394D01*
X172840289Y-106721789D01*
X172951789Y-106610289D01*
X173039394Y-106479179D01*
X173099737Y-106333497D01*
X173130500Y-106178842D01*
X173130500Y-106021158D01*
X173130500Y-106021155D01*
X173130499Y-106021153D01*
X173118161Y-105959126D01*
X173099737Y-105866503D01*
X173099735Y-105866498D01*
X173039397Y-105720827D01*
X173039390Y-105720814D01*
X172951789Y-105589711D01*
X172951786Y-105589707D01*
X172840292Y-105478213D01*
X172840288Y-105478210D01*
X172709185Y-105390609D01*
X172709172Y-105390602D01*
X172563501Y-105330264D01*
X172563489Y-105330261D01*
X172408845Y-105299500D01*
X172408842Y-105299500D01*
X172251158Y-105299500D01*
X172251155Y-105299500D01*
X172096510Y-105330261D01*
X172096498Y-105330264D01*
X171950827Y-105390602D01*
X171950814Y-105390609D01*
X171819711Y-105478210D01*
X171819707Y-105478213D01*
X171708213Y-105589707D01*
X171708210Y-105589711D01*
X171620609Y-105720814D01*
X171620602Y-105720827D01*
X171560264Y-105866498D01*
X171560261Y-105866510D01*
X171529500Y-106021153D01*
X126056059Y-106021153D01*
X126056059Y-105900702D01*
X126018577Y-105760815D01*
X125996809Y-105723112D01*
X126906047Y-105723112D01*
X126906047Y-105025284D01*
X126906046Y-105025267D01*
X126899645Y-104965739D01*
X126899643Y-104965732D01*
X126849401Y-104831025D01*
X126849397Y-104831018D01*
X126763237Y-104715924D01*
X126763234Y-104715921D01*
X126648140Y-104629761D01*
X126648133Y-104629757D01*
X126513426Y-104579515D01*
X126513419Y-104579513D01*
X126453891Y-104573112D01*
X126384710Y-104573112D01*
X126317671Y-104553427D01*
X126271916Y-104500623D01*
X126261972Y-104431465D01*
X126290997Y-104367909D01*
X126311822Y-104348795D01*
X126418412Y-104271354D01*
X126574289Y-104115477D01*
X126703862Y-103937134D01*
X126803942Y-103740718D01*
X126872062Y-103531063D01*
X126906547Y-103313334D01*
X126906547Y-103092890D01*
X126872062Y-102875161D01*
X126803942Y-102665506D01*
X126803942Y-102665505D01*
X126766689Y-102592393D01*
X126703862Y-102469090D01*
X126687307Y-102446304D01*
X126574294Y-102290753D01*
X126574290Y-102290748D01*
X126418410Y-102134868D01*
X126418405Y-102134864D01*
X126240072Y-102005299D01*
X126240071Y-102005298D01*
X126240069Y-102005297D01*
X126089537Y-101928596D01*
X126038742Y-101880622D01*
X126021947Y-101812801D01*
X126044485Y-101746666D01*
X126089538Y-101707627D01*
X126240069Y-101630927D01*
X126418412Y-101501354D01*
X126574289Y-101345477D01*
X126703862Y-101167134D01*
X126803942Y-100970718D01*
X126803944Y-100970712D01*
X126810299Y-100951153D01*
X134209500Y-100951153D01*
X134209500Y-101108846D01*
X134240261Y-101263489D01*
X134240264Y-101263501D01*
X134300602Y-101409172D01*
X134300609Y-101409185D01*
X134388210Y-101540288D01*
X134388213Y-101540292D01*
X134499707Y-101651786D01*
X134499711Y-101651789D01*
X134630814Y-101739390D01*
X134630827Y-101739397D01*
X134690189Y-101763985D01*
X134776503Y-101799737D01*
X134895580Y-101823423D01*
X134931153Y-101830499D01*
X134931156Y-101830500D01*
X134931158Y-101830500D01*
X135088844Y-101830500D01*
X135088845Y-101830499D01*
X135243497Y-101799737D01*
X135389179Y-101739394D01*
X135520289Y-101651789D01*
X135631789Y-101540289D01*
X135719394Y-101409179D01*
X135779737Y-101263497D01*
X135810500Y-101108842D01*
X135810500Y-100951158D01*
X135810500Y-100951155D01*
X135810499Y-100951153D01*
X135799847Y-100897603D01*
X135779737Y-100796503D01*
X135765058Y-100761064D01*
X135719397Y-100650827D01*
X135719390Y-100650814D01*
X135631789Y-100519711D01*
X135631786Y-100519707D01*
X135520292Y-100408213D01*
X135520288Y-100408210D01*
X135389185Y-100320609D01*
X135389172Y-100320602D01*
X135243501Y-100260264D01*
X135243489Y-100260261D01*
X135088845Y-100229500D01*
X135088842Y-100229500D01*
X134931158Y-100229500D01*
X134931155Y-100229500D01*
X134776510Y-100260261D01*
X134776498Y-100260264D01*
X134630827Y-100320602D01*
X134630814Y-100320609D01*
X134499711Y-100408210D01*
X134499707Y-100408213D01*
X134388213Y-100519707D01*
X134388210Y-100519711D01*
X134300609Y-100650814D01*
X134300602Y-100650827D01*
X134240264Y-100796498D01*
X134240261Y-100796510D01*
X134209500Y-100951153D01*
X126810299Y-100951153D01*
X126824727Y-100906749D01*
X126824727Y-100906748D01*
X126850432Y-100827635D01*
X126872062Y-100761063D01*
X126906547Y-100543334D01*
X126906547Y-100322890D01*
X126872062Y-100105161D01*
X126803942Y-99895506D01*
X126803942Y-99895505D01*
X126766689Y-99822393D01*
X126703862Y-99699090D01*
X126687307Y-99676304D01*
X126574294Y-99520753D01*
X126574290Y-99520748D01*
X126418410Y-99364868D01*
X126418405Y-99364864D01*
X126240072Y-99235299D01*
X126240071Y-99235298D01*
X126240069Y-99235297D01*
X126089537Y-99158596D01*
X126038742Y-99110622D01*
X126021947Y-99042801D01*
X126044485Y-98976666D01*
X126089538Y-98937627D01*
X126240069Y-98860927D01*
X126418412Y-98731354D01*
X126574289Y-98575477D01*
X126703862Y-98397134D01*
X126803942Y-98200718D01*
X126872062Y-97991063D01*
X126906547Y-97773334D01*
X126906547Y-97552890D01*
X126872062Y-97335161D01*
X126803942Y-97125506D01*
X126803942Y-97125505D01*
X126766689Y-97052393D01*
X126703862Y-96929090D01*
X126687307Y-96906304D01*
X126574294Y-96750753D01*
X126574290Y-96750748D01*
X126464695Y-96641153D01*
X153109500Y-96641153D01*
X153109500Y-96798846D01*
X153140261Y-96953489D01*
X153140264Y-96953501D01*
X153200602Y-97099172D01*
X153200609Y-97099185D01*
X153288210Y-97230288D01*
X153288213Y-97230292D01*
X153399707Y-97341786D01*
X153399711Y-97341789D01*
X153530814Y-97429390D01*
X153530827Y-97429397D01*
X153676498Y-97489735D01*
X153676503Y-97489737D01*
X153831153Y-97520499D01*
X153831156Y-97520500D01*
X153831158Y-97520500D01*
X153988844Y-97520500D01*
X153988845Y-97520499D01*
X154143497Y-97489737D01*
X154289179Y-97429394D01*
X154342594Y-97393703D01*
X167691800Y-97393703D01*
X167691800Y-97551396D01*
X167722561Y-97706039D01*
X167722564Y-97706051D01*
X167782902Y-97851722D01*
X167782909Y-97851735D01*
X167870510Y-97982838D01*
X167870513Y-97982842D01*
X167982007Y-98094336D01*
X167982011Y-98094339D01*
X168113114Y-98181940D01*
X168113127Y-98181947D01*
X168258798Y-98242285D01*
X168258803Y-98242287D01*
X168413453Y-98273049D01*
X168413456Y-98273050D01*
X168413458Y-98273050D01*
X168571144Y-98273050D01*
X168571145Y-98273049D01*
X168725797Y-98242287D01*
X168871479Y-98181944D01*
X169002589Y-98094339D01*
X169114089Y-97982839D01*
X169201694Y-97851729D01*
X169262037Y-97706047D01*
X169292800Y-97551392D01*
X169292800Y-97479778D01*
X178479500Y-97479778D01*
X178479500Y-97700221D01*
X178513985Y-97917952D01*
X178582103Y-98127603D01*
X178582104Y-98127606D01*
X178682187Y-98324025D01*
X178811752Y-98502358D01*
X178811756Y-98502363D01*
X178967636Y-98658243D01*
X178967641Y-98658247D01*
X179145976Y-98787814D01*
X179296509Y-98864516D01*
X179347304Y-98912490D01*
X179364099Y-98980311D01*
X179341561Y-99046446D01*
X179296509Y-99085484D01*
X179145976Y-99162185D01*
X178967641Y-99291752D01*
X178967636Y-99291756D01*
X178811756Y-99447636D01*
X178811752Y-99447641D01*
X178682187Y-99625974D01*
X178582104Y-99822393D01*
X178582103Y-99822396D01*
X178513985Y-100032047D01*
X178479500Y-100249778D01*
X178479500Y-100470221D01*
X178513985Y-100687952D01*
X178582103Y-100897603D01*
X178582104Y-100897606D01*
X178682187Y-101094025D01*
X178811752Y-101272358D01*
X178811756Y-101272363D01*
X178967636Y-101428243D01*
X178967641Y-101428247D01*
X179145976Y-101557814D01*
X179296509Y-101634516D01*
X179347304Y-101682490D01*
X179364099Y-101750311D01*
X179341561Y-101816446D01*
X179296509Y-101855484D01*
X179145976Y-101932185D01*
X178967641Y-102061752D01*
X178967636Y-102061756D01*
X178811756Y-102217636D01*
X178811752Y-102217641D01*
X178682187Y-102395974D01*
X178582104Y-102592393D01*
X178582103Y-102592396D01*
X178513985Y-102802047D01*
X178479500Y-103019778D01*
X178479500Y-103240221D01*
X178513985Y-103457952D01*
X178582103Y-103667603D01*
X178582104Y-103667606D01*
X178682187Y-103864025D01*
X178811752Y-104042358D01*
X178811756Y-104042363D01*
X178967636Y-104198243D01*
X178967641Y-104198247D01*
X179145976Y-104327814D01*
X179296509Y-104404516D01*
X179347304Y-104452490D01*
X179364099Y-104520311D01*
X179341561Y-104586446D01*
X179296509Y-104625484D01*
X179145976Y-104702185D01*
X178967641Y-104831752D01*
X178967636Y-104831756D01*
X178811756Y-104987636D01*
X178811752Y-104987641D01*
X178682187Y-105165974D01*
X178582104Y-105362393D01*
X178582103Y-105362396D01*
X178513985Y-105572047D01*
X178479500Y-105789778D01*
X178479500Y-106010221D01*
X178513985Y-106227952D01*
X178582103Y-106437603D01*
X178582104Y-106437606D01*
X178618737Y-106509500D01*
X178670092Y-106610289D01*
X178682187Y-106634025D01*
X178811752Y-106812358D01*
X178811756Y-106812363D01*
X178967636Y-106968243D01*
X178967641Y-106968247D01*
X178984494Y-106980491D01*
X179145978Y-107097815D01*
X179274375Y-107163237D01*
X179342393Y-107197895D01*
X179342396Y-107197896D01*
X179442125Y-107230299D01*
X179552049Y-107266015D01*
X179769778Y-107300500D01*
X179769779Y-107300500D01*
X179990221Y-107300500D01*
X179990222Y-107300500D01*
X180207951Y-107266015D01*
X180417606Y-107197895D01*
X180614022Y-107097815D01*
X180792365Y-106968242D01*
X180948242Y-106812365D01*
X181077815Y-106634022D01*
X181177895Y-106437606D01*
X181246015Y-106227951D01*
X181280500Y-106010222D01*
X181280500Y-105789778D01*
X181246015Y-105572049D01*
X181197619Y-105423100D01*
X181177896Y-105362396D01*
X181177895Y-105362393D01*
X181126347Y-105261226D01*
X181077815Y-105165978D01*
X181052195Y-105130715D01*
X180948247Y-104987641D01*
X180948243Y-104987636D01*
X180792363Y-104831756D01*
X180792358Y-104831752D01*
X180614025Y-104702187D01*
X180614024Y-104702186D01*
X180614022Y-104702185D01*
X180463490Y-104625484D01*
X180412695Y-104577510D01*
X180395900Y-104509689D01*
X180418438Y-104443554D01*
X180463491Y-104404515D01*
X180614022Y-104327815D01*
X180792365Y-104198242D01*
X180948242Y-104042365D01*
X181077815Y-103864022D01*
X181177895Y-103667606D01*
X181246015Y-103457951D01*
X181280500Y-103240222D01*
X181280500Y-103019778D01*
X181246015Y-102802049D01*
X181201650Y-102665505D01*
X181177896Y-102592396D01*
X181177895Y-102592393D01*
X181117582Y-102474025D01*
X181077815Y-102395978D01*
X181001365Y-102290753D01*
X180948247Y-102217641D01*
X180948243Y-102217636D01*
X180792363Y-102061756D01*
X180792358Y-102061752D01*
X180614025Y-101932187D01*
X180614024Y-101932186D01*
X180614022Y-101932185D01*
X180463490Y-101855484D01*
X180412695Y-101807510D01*
X180395900Y-101739689D01*
X180418438Y-101673554D01*
X180463491Y-101634515D01*
X180472788Y-101629778D01*
X180614022Y-101557815D01*
X180792365Y-101428242D01*
X180948242Y-101272365D01*
X181077815Y-101094022D01*
X181177895Y-100897606D01*
X181246015Y-100687951D01*
X181280500Y-100470222D01*
X181280500Y-100249778D01*
X181246015Y-100032049D01*
X181201650Y-99895505D01*
X181177896Y-99822396D01*
X181177895Y-99822393D01*
X181117582Y-99704025D01*
X181077815Y-99625978D01*
X181001365Y-99520753D01*
X180948247Y-99447641D01*
X180948243Y-99447636D01*
X180792363Y-99291756D01*
X180792358Y-99291752D01*
X180614025Y-99162187D01*
X180614024Y-99162186D01*
X180614022Y-99162185D01*
X180463490Y-99085484D01*
X180412695Y-99037510D01*
X180395900Y-98969689D01*
X180418438Y-98903554D01*
X180463491Y-98864515D01*
X180472788Y-98859778D01*
X180614022Y-98787815D01*
X180792365Y-98658242D01*
X180948242Y-98502365D01*
X181077815Y-98324022D01*
X181177895Y-98127606D01*
X181246015Y-97917951D01*
X181280500Y-97700222D01*
X181280500Y-97479778D01*
X181246015Y-97262049D01*
X181201650Y-97125505D01*
X181177896Y-97052396D01*
X181177895Y-97052393D01*
X181117582Y-96934025D01*
X181077815Y-96855978D01*
X181052195Y-96820715D01*
X180948247Y-96677641D01*
X180948243Y-96677636D01*
X180792365Y-96521758D01*
X180714655Y-96465299D01*
X180685777Y-96444317D01*
X180643112Y-96388989D01*
X180637133Y-96319376D01*
X180669738Y-96257580D01*
X180730577Y-96223223D01*
X180758663Y-96220000D01*
X180827828Y-96220000D01*
X180827844Y-96219999D01*
X180887372Y-96213598D01*
X180887379Y-96213596D01*
X181022086Y-96163354D01*
X181022093Y-96163350D01*
X181121189Y-96089167D01*
X181186653Y-96064749D01*
X181254926Y-96079600D01*
X181304332Y-96129005D01*
X181319500Y-96188433D01*
X181319500Y-96310222D01*
X181324347Y-96340827D01*
X181353985Y-96527952D01*
X181422103Y-96737603D01*
X181422104Y-96737606D01*
X181522187Y-96934025D01*
X181651752Y-97112358D01*
X181651756Y-97112363D01*
X181807636Y-97268243D01*
X181807641Y-97268247D01*
X181985976Y-97397814D01*
X182136509Y-97474516D01*
X182187304Y-97522490D01*
X182204099Y-97590311D01*
X182181561Y-97656446D01*
X182136509Y-97695484D01*
X181985976Y-97772185D01*
X181807641Y-97901752D01*
X181807636Y-97901756D01*
X181651756Y-98057636D01*
X181651752Y-98057641D01*
X181522187Y-98235974D01*
X181422104Y-98432393D01*
X181422103Y-98432396D01*
X181353985Y-98642047D01*
X181330898Y-98787812D01*
X181319500Y-98859778D01*
X181319500Y-99080222D01*
X181320334Y-99085485D01*
X181353985Y-99297952D01*
X181422103Y-99507603D01*
X181422104Y-99507606D01*
X181522187Y-99704025D01*
X181651752Y-99882358D01*
X181651756Y-99882363D01*
X181807636Y-100038243D01*
X181807641Y-100038247D01*
X181985976Y-100167814D01*
X182136509Y-100244516D01*
X182187304Y-100292490D01*
X182204099Y-100360311D01*
X182181561Y-100426446D01*
X182136509Y-100465484D01*
X181985976Y-100542185D01*
X181807641Y-100671752D01*
X181807636Y-100671756D01*
X181651756Y-100827636D01*
X181651752Y-100827641D01*
X181522187Y-101005974D01*
X181422104Y-101202393D01*
X181422103Y-101202396D01*
X181353985Y-101412047D01*
X181333674Y-101540288D01*
X181319500Y-101629778D01*
X181319500Y-101850222D01*
X181320334Y-101855485D01*
X181353985Y-102067952D01*
X181422103Y-102277603D01*
X181422104Y-102277606D01*
X181522187Y-102474025D01*
X181651752Y-102652358D01*
X181651756Y-102652363D01*
X181807636Y-102808243D01*
X181807641Y-102808247D01*
X181985976Y-102937814D01*
X182136509Y-103014516D01*
X182187304Y-103062490D01*
X182204099Y-103130311D01*
X182181561Y-103196446D01*
X182136509Y-103235484D01*
X181985976Y-103312185D01*
X181807641Y-103441752D01*
X181807636Y-103441756D01*
X181651756Y-103597636D01*
X181651752Y-103597641D01*
X181522187Y-103775974D01*
X181422104Y-103972393D01*
X181422103Y-103972396D01*
X181353985Y-104182047D01*
X181339840Y-104271354D01*
X181319500Y-104399778D01*
X181319500Y-104620222D01*
X181334275Y-104713510D01*
X181353985Y-104837952D01*
X181422103Y-105047603D01*
X181422104Y-105047606D01*
X181522187Y-105244025D01*
X181651752Y-105422358D01*
X181651756Y-105422363D01*
X181807636Y-105578243D01*
X181807641Y-105578247D01*
X181922031Y-105661355D01*
X181985978Y-105707815D01*
X182114375Y-105773237D01*
X182182393Y-105807895D01*
X182182396Y-105807896D01*
X182287221Y-105841955D01*
X182392049Y-105876015D01*
X182609778Y-105910500D01*
X182609779Y-105910500D01*
X182830221Y-105910500D01*
X182830222Y-105910500D01*
X183047951Y-105876015D01*
X183257606Y-105807895D01*
X183454022Y-105707815D01*
X183632365Y-105578242D01*
X183788242Y-105422365D01*
X183917815Y-105244022D01*
X184017895Y-105047606D01*
X184086015Y-104837951D01*
X184120500Y-104620222D01*
X184120500Y-104399778D01*
X184086015Y-104182049D01*
X184017895Y-103972394D01*
X184017895Y-103972393D01*
X183983237Y-103904375D01*
X183917815Y-103775978D01*
X183892195Y-103740715D01*
X183788247Y-103597641D01*
X183788243Y-103597636D01*
X183632363Y-103441756D01*
X183632358Y-103441752D01*
X183454025Y-103312187D01*
X183454024Y-103312186D01*
X183454022Y-103312185D01*
X183303490Y-103235484D01*
X183252695Y-103187510D01*
X183235900Y-103119689D01*
X183258438Y-103053554D01*
X183303491Y-103014515D01*
X183454022Y-102937815D01*
X183632365Y-102808242D01*
X183788242Y-102652365D01*
X183917815Y-102474022D01*
X184017895Y-102277606D01*
X184086015Y-102067951D01*
X184120500Y-101850222D01*
X184120500Y-101629778D01*
X184086015Y-101412049D01*
X184017895Y-101202394D01*
X184017895Y-101202393D01*
X183970227Y-101108842D01*
X183917815Y-101005978D01*
X183877983Y-100951153D01*
X183788247Y-100827641D01*
X183788243Y-100827636D01*
X183632363Y-100671756D01*
X183632358Y-100671752D01*
X183454025Y-100542187D01*
X183454024Y-100542186D01*
X183454022Y-100542185D01*
X183303490Y-100465484D01*
X183252695Y-100417510D01*
X183235900Y-100349689D01*
X183258438Y-100283554D01*
X183303491Y-100244515D01*
X183454022Y-100167815D01*
X183632365Y-100038242D01*
X183788242Y-99882365D01*
X183917815Y-99704022D01*
X184017895Y-99507606D01*
X184086015Y-99297951D01*
X184120500Y-99080222D01*
X184120500Y-98859778D01*
X184086015Y-98642049D01*
X184017895Y-98432394D01*
X184017895Y-98432393D01*
X183983237Y-98364375D01*
X183917815Y-98235978D01*
X183892195Y-98200715D01*
X183788247Y-98057641D01*
X183788243Y-98057636D01*
X183632363Y-97901756D01*
X183632358Y-97901752D01*
X183454025Y-97772187D01*
X183454024Y-97772186D01*
X183454022Y-97772185D01*
X183303490Y-97695484D01*
X183252695Y-97647510D01*
X183235900Y-97579689D01*
X183258438Y-97513554D01*
X183303491Y-97474515D01*
X183454022Y-97397815D01*
X183632365Y-97268242D01*
X183788242Y-97112365D01*
X183917815Y-96934022D01*
X184017895Y-96737606D01*
X184086015Y-96527951D01*
X184120500Y-96310222D01*
X184120500Y-96089778D01*
X184086015Y-95872049D01*
X184017895Y-95662394D01*
X184017895Y-95662393D01*
X183960161Y-95549086D01*
X183917815Y-95465978D01*
X183887894Y-95424795D01*
X183788247Y-95287641D01*
X183788243Y-95287636D01*
X183632363Y-95131756D01*
X183632358Y-95131752D01*
X183454025Y-95002187D01*
X183454024Y-95002186D01*
X183454022Y-95002185D01*
X183391096Y-94970122D01*
X183257606Y-94902104D01*
X183257603Y-94902103D01*
X183047952Y-94833985D01*
X182939086Y-94816742D01*
X182830222Y-94799500D01*
X182609778Y-94799500D01*
X182537201Y-94810995D01*
X182392047Y-94833985D01*
X182182396Y-94902103D01*
X182182393Y-94902104D01*
X181985974Y-95002187D01*
X181807641Y-95131752D01*
X181807636Y-95131756D01*
X181651756Y-95287636D01*
X181651752Y-95287641D01*
X181522185Y-95465976D01*
X181514484Y-95481091D01*
X181466510Y-95531886D01*
X181398688Y-95548681D01*
X181332554Y-95526143D01*
X181289103Y-95471428D01*
X181280000Y-95424795D01*
X181280000Y-95070000D01*
X180370762Y-95070000D01*
X180392530Y-95032297D01*
X180430012Y-94892410D01*
X180430012Y-94747590D01*
X180392530Y-94607703D01*
X180370762Y-94570000D01*
X181280000Y-94570000D01*
X181280000Y-93872172D01*
X181279999Y-93872155D01*
X181273598Y-93812627D01*
X181273596Y-93812620D01*
X181223354Y-93677913D01*
X181223350Y-93677906D01*
X181137190Y-93562812D01*
X181137187Y-93562809D01*
X181022093Y-93476649D01*
X181022086Y-93476645D01*
X180887379Y-93426403D01*
X180887372Y-93426401D01*
X180827844Y-93420000D01*
X180130000Y-93420000D01*
X180130000Y-94329238D01*
X180092297Y-94307470D01*
X179952410Y-94269988D01*
X179807590Y-94269988D01*
X179667703Y-94307470D01*
X179630000Y-94329238D01*
X179630000Y-93420000D01*
X178932155Y-93420000D01*
X178872627Y-93426401D01*
X178872620Y-93426403D01*
X178737913Y-93476645D01*
X178737906Y-93476649D01*
X178622812Y-93562809D01*
X178622809Y-93562812D01*
X178536649Y-93677906D01*
X178536645Y-93677913D01*
X178486403Y-93812620D01*
X178486401Y-93812627D01*
X178480000Y-93872155D01*
X178480000Y-94570000D01*
X179389238Y-94570000D01*
X179367470Y-94607703D01*
X179329988Y-94747590D01*
X179329988Y-94892410D01*
X179367470Y-95032297D01*
X179389238Y-95070000D01*
X178480000Y-95070000D01*
X178480000Y-95767844D01*
X178486401Y-95827372D01*
X178486403Y-95827379D01*
X178536645Y-95962086D01*
X178536649Y-95962093D01*
X178622809Y-96077187D01*
X178622812Y-96077190D01*
X178737906Y-96163350D01*
X178737913Y-96163354D01*
X178872620Y-96213596D01*
X178872627Y-96213598D01*
X178932155Y-96219999D01*
X178932172Y-96220000D01*
X179001337Y-96220000D01*
X179068376Y-96239685D01*
X179114131Y-96292489D01*
X179124075Y-96361647D01*
X179095050Y-96425203D01*
X179074224Y-96444316D01*
X179045345Y-96465299D01*
X178967634Y-96521758D01*
X178811756Y-96677636D01*
X178811752Y-96677641D01*
X178682187Y-96855974D01*
X178582104Y-97052393D01*
X178582103Y-97052396D01*
X178513985Y-97262047D01*
X178479500Y-97479778D01*
X169292800Y-97479778D01*
X169292800Y-97393708D01*
X169292800Y-97393705D01*
X169292799Y-97393703D01*
X169284375Y-97351354D01*
X169262037Y-97239053D01*
X169258407Y-97230289D01*
X169201697Y-97093377D01*
X169201690Y-97093364D01*
X169114089Y-96962261D01*
X169114086Y-96962257D01*
X169002592Y-96850763D01*
X169002588Y-96850760D01*
X168871485Y-96763159D01*
X168871472Y-96763152D01*
X168725801Y-96702814D01*
X168725789Y-96702811D01*
X168571145Y-96672050D01*
X168571142Y-96672050D01*
X168413458Y-96672050D01*
X168413455Y-96672050D01*
X168258810Y-96702811D01*
X168258798Y-96702814D01*
X168113127Y-96763152D01*
X168113114Y-96763159D01*
X167982011Y-96850760D01*
X167982007Y-96850763D01*
X167870513Y-96962257D01*
X167870510Y-96962261D01*
X167782909Y-97093364D01*
X167782902Y-97093377D01*
X167722564Y-97239048D01*
X167722561Y-97239060D01*
X167691800Y-97393703D01*
X154342594Y-97393703D01*
X154420289Y-97341789D01*
X154426919Y-97335159D01*
X154462144Y-97299935D01*
X154531786Y-97230292D01*
X154531789Y-97230289D01*
X154619394Y-97099179D01*
X154679737Y-96953497D01*
X154710500Y-96798842D01*
X154710500Y-96641158D01*
X154710500Y-96641155D01*
X154710499Y-96641153D01*
X154701291Y-96594864D01*
X154679737Y-96486503D01*
X154654346Y-96425203D01*
X154619397Y-96340827D01*
X154619390Y-96340814D01*
X154531789Y-96209711D01*
X154531786Y-96209707D01*
X154420292Y-96098213D01*
X154420288Y-96098210D01*
X154289185Y-96010609D01*
X154289172Y-96010602D01*
X154143501Y-95950264D01*
X154143489Y-95950261D01*
X153988845Y-95919500D01*
X153988842Y-95919500D01*
X153831158Y-95919500D01*
X153831155Y-95919500D01*
X153676510Y-95950261D01*
X153676498Y-95950264D01*
X153530827Y-96010602D01*
X153530814Y-96010609D01*
X153399711Y-96098210D01*
X153399707Y-96098213D01*
X153288213Y-96209707D01*
X153288210Y-96209711D01*
X153200609Y-96340814D01*
X153200602Y-96340827D01*
X153140264Y-96486498D01*
X153140261Y-96486510D01*
X153109500Y-96641153D01*
X126464695Y-96641153D01*
X126418410Y-96594868D01*
X126418405Y-96594864D01*
X126240072Y-96465299D01*
X126240071Y-96465298D01*
X126240069Y-96465297D01*
X126089537Y-96388596D01*
X126038742Y-96340622D01*
X126021947Y-96272801D01*
X126044485Y-96206666D01*
X126089538Y-96167627D01*
X126097932Y-96163350D01*
X126240069Y-96090927D01*
X126418412Y-95961354D01*
X126574289Y-95805477D01*
X126703862Y-95627134D01*
X126803942Y-95430718D01*
X126872062Y-95221063D01*
X126906547Y-95003334D01*
X126906547Y-94782890D01*
X126872062Y-94565161D01*
X126803942Y-94355506D01*
X126803942Y-94355505D01*
X126760368Y-94269988D01*
X126703862Y-94159090D01*
X126687307Y-94136304D01*
X126574294Y-93980753D01*
X126574290Y-93980748D01*
X126418410Y-93824868D01*
X126418405Y-93824864D01*
X126240072Y-93695299D01*
X126240071Y-93695298D01*
X126240069Y-93695297D01*
X126177143Y-93663234D01*
X126043653Y-93595216D01*
X126043650Y-93595215D01*
X125833999Y-93527097D01*
X125725133Y-93509854D01*
X125616269Y-93492612D01*
X125395825Y-93492612D01*
X125323248Y-93504107D01*
X125178094Y-93527097D01*
X124968443Y-93595215D01*
X124968440Y-93595216D01*
X124772021Y-93695299D01*
X124593688Y-93824864D01*
X124593683Y-93824868D01*
X124437803Y-93980748D01*
X124437799Y-93980753D01*
X124308234Y-94159086D01*
X124208151Y-94355505D01*
X124208150Y-94355508D01*
X124140032Y-94565159D01*
X124105547Y-94782890D01*
X124105547Y-95003333D01*
X124140032Y-95221064D01*
X124208150Y-95430715D01*
X124208151Y-95430718D01*
X124308234Y-95627137D01*
X124437799Y-95805470D01*
X124437803Y-95805475D01*
X124593683Y-95961355D01*
X124593688Y-95961359D01*
X124772023Y-96090926D01*
X124922556Y-96167628D01*
X124973351Y-96215602D01*
X124990146Y-96283423D01*
X124967608Y-96349558D01*
X124922556Y-96388596D01*
X124772023Y-96465297D01*
X124593688Y-96594864D01*
X124593683Y-96594868D01*
X124437803Y-96750748D01*
X124437799Y-96750753D01*
X124308234Y-96929086D01*
X124208151Y-97125505D01*
X124208150Y-97125508D01*
X124140032Y-97335159D01*
X124125107Y-97429394D01*
X124105547Y-97552890D01*
X124105547Y-97773334D01*
X124117964Y-97851729D01*
X124140032Y-97991064D01*
X124208150Y-98200715D01*
X124208151Y-98200718D01*
X124308234Y-98397137D01*
X124437799Y-98575470D01*
X124437803Y-98575475D01*
X124593683Y-98731355D01*
X124593688Y-98731359D01*
X124772023Y-98860926D01*
X124922556Y-98937628D01*
X124973351Y-98985602D01*
X124990146Y-99053423D01*
X124967608Y-99119558D01*
X124922556Y-99158596D01*
X124772023Y-99235297D01*
X124593688Y-99364864D01*
X124593683Y-99364868D01*
X124437803Y-99520748D01*
X124437799Y-99520753D01*
X124308234Y-99699086D01*
X124208151Y-99895505D01*
X124208150Y-99895508D01*
X124140032Y-100105159D01*
X124117960Y-100244515D01*
X124105547Y-100322890D01*
X124105547Y-100543334D01*
X124106381Y-100548597D01*
X124140032Y-100761064D01*
X124208150Y-100970715D01*
X124208151Y-100970718D01*
X124268464Y-101089086D01*
X124278532Y-101108846D01*
X124308234Y-101167137D01*
X124437799Y-101345470D01*
X124437803Y-101345475D01*
X124593683Y-101501355D01*
X124593688Y-101501359D01*
X124772023Y-101630926D01*
X124922556Y-101707628D01*
X124973351Y-101755602D01*
X124990146Y-101823423D01*
X124967608Y-101889558D01*
X124922556Y-101928596D01*
X124772023Y-102005297D01*
X124593688Y-102134864D01*
X124593683Y-102134868D01*
X124437803Y-102290748D01*
X124437799Y-102290753D01*
X124308234Y-102469086D01*
X124208151Y-102665505D01*
X124208150Y-102665508D01*
X124140032Y-102875159D01*
X124117960Y-103014515D01*
X124105547Y-103092890D01*
X124105547Y-103313334D01*
X124106381Y-103318597D01*
X124140032Y-103531064D01*
X124208150Y-103740715D01*
X124208151Y-103740718D01*
X124308234Y-103937137D01*
X124437799Y-104115470D01*
X124437803Y-104115475D01*
X124437805Y-104115477D01*
X124593682Y-104271354D01*
X124700269Y-104348794D01*
X124742935Y-104404123D01*
X124748914Y-104473736D01*
X124716309Y-104535532D01*
X124655470Y-104569889D01*
X124627384Y-104573112D01*
X124558202Y-104573112D01*
X124498674Y-104579513D01*
X124498667Y-104579515D01*
X124363960Y-104629757D01*
X124363957Y-104629759D01*
X124264858Y-104703945D01*
X124199394Y-104728362D01*
X124131121Y-104713510D01*
X124081715Y-104664105D01*
X124066547Y-104604678D01*
X124066547Y-104482890D01*
X124058402Y-104431465D01*
X124032062Y-104265161D01*
X123998002Y-104160333D01*
X123963943Y-104055508D01*
X123963942Y-104055505D01*
X123903629Y-103937137D01*
X123863862Y-103859090D01*
X123803475Y-103775974D01*
X123734294Y-103680753D01*
X123734290Y-103680748D01*
X123578410Y-103524868D01*
X123578405Y-103524864D01*
X123400072Y-103395299D01*
X123400071Y-103395298D01*
X123400069Y-103395297D01*
X123249537Y-103318596D01*
X123198742Y-103270622D01*
X123181947Y-103202801D01*
X123204485Y-103136666D01*
X123249538Y-103097627D01*
X123258835Y-103092890D01*
X123400069Y-103020927D01*
X123578412Y-102891354D01*
X123734289Y-102735477D01*
X123863862Y-102557134D01*
X123963942Y-102360718D01*
X124032062Y-102151063D01*
X124066547Y-101933334D01*
X124066547Y-101712890D01*
X124032062Y-101495161D01*
X123998002Y-101390333D01*
X123963943Y-101285508D01*
X123963942Y-101285505D01*
X123903629Y-101167137D01*
X123863862Y-101089090D01*
X123803475Y-101005974D01*
X123734294Y-100910753D01*
X123734290Y-100910748D01*
X123578410Y-100754868D01*
X123578405Y-100754864D01*
X123400072Y-100625299D01*
X123400071Y-100625298D01*
X123400069Y-100625297D01*
X123249537Y-100548596D01*
X123198742Y-100500622D01*
X123181947Y-100432801D01*
X123204485Y-100366666D01*
X123249538Y-100327627D01*
X123258835Y-100322890D01*
X123400069Y-100250927D01*
X123578412Y-100121354D01*
X123734289Y-99965477D01*
X123863862Y-99787134D01*
X123963942Y-99590718D01*
X124032062Y-99381063D01*
X124066547Y-99163334D01*
X124066547Y-98942890D01*
X124032062Y-98725161D01*
X123998002Y-98620333D01*
X123963943Y-98515508D01*
X123963942Y-98515505D01*
X123903629Y-98397137D01*
X123863862Y-98319090D01*
X123830412Y-98273050D01*
X123734294Y-98140753D01*
X123734290Y-98140748D01*
X123578410Y-97984868D01*
X123578405Y-97984864D01*
X123400072Y-97855299D01*
X123400071Y-97855298D01*
X123400069Y-97855297D01*
X123249537Y-97778596D01*
X123198742Y-97730622D01*
X123181947Y-97662801D01*
X123204485Y-97596666D01*
X123249538Y-97557627D01*
X123261775Y-97551392D01*
X123400069Y-97480927D01*
X123578412Y-97351354D01*
X123734289Y-97195477D01*
X123863862Y-97017134D01*
X123963942Y-96820718D01*
X124032062Y-96611063D01*
X124066547Y-96393334D01*
X124066547Y-96172890D01*
X124032062Y-95955161D01*
X123990544Y-95827379D01*
X123963943Y-95745508D01*
X123963942Y-95745505D01*
X123903629Y-95627137D01*
X123863862Y-95549090D01*
X123803475Y-95465974D01*
X123734294Y-95370753D01*
X123734290Y-95370748D01*
X123578410Y-95214868D01*
X123578405Y-95214864D01*
X123400072Y-95085299D01*
X123400071Y-95085298D01*
X123400069Y-95085297D01*
X123296052Y-95032297D01*
X123203653Y-94985216D01*
X123203650Y-94985215D01*
X122993999Y-94917097D01*
X122838131Y-94892410D01*
X122776269Y-94882612D01*
X122555825Y-94882612D01*
X122493963Y-94892410D01*
X122338094Y-94917097D01*
X122128443Y-94985215D01*
X122128440Y-94985216D01*
X121932021Y-95085299D01*
X121753688Y-95214864D01*
X121753683Y-95214868D01*
X121597803Y-95370748D01*
X121597799Y-95370753D01*
X121468234Y-95549086D01*
X121368151Y-95745505D01*
X121368150Y-95745508D01*
X121300032Y-95955159D01*
X121265547Y-96172890D01*
X115036547Y-96172890D01*
X115036547Y-92841153D01*
X134209500Y-92841153D01*
X134209500Y-92998846D01*
X134240261Y-93153489D01*
X134240264Y-93153501D01*
X134300602Y-93299172D01*
X134300609Y-93299185D01*
X134388210Y-93430288D01*
X134388213Y-93430292D01*
X134499707Y-93541786D01*
X134499711Y-93541789D01*
X134630814Y-93629390D01*
X134630827Y-93629397D01*
X134747940Y-93677906D01*
X134776503Y-93689737D01*
X134931153Y-93720499D01*
X134931156Y-93720500D01*
X134931158Y-93720500D01*
X135088844Y-93720500D01*
X135088845Y-93720499D01*
X135243497Y-93689737D01*
X135389179Y-93629394D01*
X135520289Y-93541789D01*
X135631789Y-93430289D01*
X135719394Y-93299179D01*
X135779737Y-93153497D01*
X135810500Y-92998842D01*
X135810500Y-92841158D01*
X135810500Y-92841155D01*
X135810499Y-92841153D01*
X135779738Y-92686510D01*
X135779737Y-92686503D01*
X135779735Y-92686498D01*
X135719397Y-92540827D01*
X135719390Y-92540814D01*
X135631789Y-92409711D01*
X135631786Y-92409707D01*
X135520292Y-92298213D01*
X135520288Y-92298210D01*
X135389185Y-92210609D01*
X135389172Y-92210602D01*
X135243501Y-92150264D01*
X135243489Y-92150261D01*
X135088845Y-92119500D01*
X135088842Y-92119500D01*
X134931158Y-92119500D01*
X134931155Y-92119500D01*
X134776510Y-92150261D01*
X134776498Y-92150264D01*
X134630827Y-92210602D01*
X134630814Y-92210609D01*
X134499711Y-92298210D01*
X134499707Y-92298213D01*
X134388213Y-92409707D01*
X134388210Y-92409711D01*
X134300609Y-92540814D01*
X134300602Y-92540827D01*
X134240264Y-92686498D01*
X134240261Y-92686510D01*
X134209500Y-92841153D01*
X115036547Y-92841153D01*
X115036547Y-87778640D01*
X121335547Y-87778640D01*
X121335547Y-88087583D01*
X121370133Y-88394549D01*
X121370136Y-88394567D01*
X121438878Y-88695747D01*
X121438882Y-88695759D01*
X121540909Y-88987334D01*
X121540915Y-88987348D01*
X121674950Y-89265674D01*
X121674952Y-89265677D01*
X121839312Y-89527255D01*
X122031927Y-89768786D01*
X122250373Y-89987232D01*
X122491904Y-90179847D01*
X122753482Y-90344207D01*
X123031818Y-90478247D01*
X123031824Y-90478249D01*
X123323399Y-90580276D01*
X123323411Y-90580280D01*
X123624595Y-90649023D01*
X123624601Y-90649023D01*
X123624609Y-90649025D01*
X123829253Y-90672082D01*
X123931576Y-90683611D01*
X123931579Y-90683612D01*
X123931582Y-90683612D01*
X124240515Y-90683612D01*
X124240516Y-90683611D01*
X124397403Y-90665934D01*
X124547484Y-90649025D01*
X124547489Y-90649024D01*
X124547499Y-90649023D01*
X124848683Y-90580280D01*
X125140276Y-90478247D01*
X125258833Y-90421153D01*
X152299500Y-90421153D01*
X152299500Y-90578846D01*
X152330261Y-90733489D01*
X152330264Y-90733501D01*
X152390602Y-90879172D01*
X152390609Y-90879185D01*
X152478210Y-91010288D01*
X152478213Y-91010292D01*
X152589707Y-91121786D01*
X152589711Y-91121789D01*
X152720814Y-91209390D01*
X152720827Y-91209397D01*
X152866498Y-91269735D01*
X152866503Y-91269737D01*
X153021153Y-91300499D01*
X153021156Y-91300500D01*
X153021158Y-91300500D01*
X153178844Y-91300500D01*
X153178845Y-91300499D01*
X153333497Y-91269737D01*
X153479179Y-91209394D01*
X153610289Y-91121789D01*
X153721789Y-91010289D01*
X153727893Y-91001153D01*
X158159500Y-91001153D01*
X158159500Y-91158846D01*
X158190261Y-91313489D01*
X158190264Y-91313501D01*
X158250602Y-91459172D01*
X158250609Y-91459185D01*
X158338210Y-91590288D01*
X158338213Y-91590292D01*
X158449707Y-91701786D01*
X158449711Y-91701789D01*
X158580814Y-91789390D01*
X158580827Y-91789397D01*
X158726498Y-91849735D01*
X158726503Y-91849737D01*
X158881153Y-91880499D01*
X158881156Y-91880500D01*
X158881158Y-91880500D01*
X159038844Y-91880500D01*
X159038845Y-91880499D01*
X159193497Y-91849737D01*
X159339179Y-91789394D01*
X159470289Y-91701789D01*
X159581789Y-91590289D01*
X159669394Y-91459179D01*
X159729737Y-91313497D01*
X159760500Y-91158842D01*
X159760500Y-91001158D01*
X159760500Y-91001155D01*
X159760499Y-91001153D01*
X159736238Y-90879185D01*
X159729737Y-90846503D01*
X159729735Y-90846498D01*
X159669397Y-90700827D01*
X159669390Y-90700814D01*
X159581789Y-90569711D01*
X159581786Y-90569707D01*
X159470292Y-90458213D01*
X159470288Y-90458210D01*
X159339185Y-90370609D01*
X159339172Y-90370602D01*
X159193501Y-90310264D01*
X159193489Y-90310261D01*
X159038845Y-90279500D01*
X159038842Y-90279500D01*
X158881158Y-90279500D01*
X158881155Y-90279500D01*
X158726510Y-90310261D01*
X158726498Y-90310264D01*
X158580827Y-90370602D01*
X158580814Y-90370609D01*
X158449711Y-90458210D01*
X158449707Y-90458213D01*
X158338213Y-90569707D01*
X158338210Y-90569711D01*
X158250609Y-90700814D01*
X158250602Y-90700827D01*
X158190264Y-90846498D01*
X158190261Y-90846510D01*
X158159500Y-91001153D01*
X153727893Y-91001153D01*
X153748108Y-90970898D01*
X153777993Y-90926175D01*
X153809390Y-90879185D01*
X153809390Y-90879184D01*
X153809394Y-90879179D01*
X153869737Y-90733497D01*
X153900500Y-90578842D01*
X153900500Y-90421158D01*
X153900500Y-90421155D01*
X153900499Y-90421153D01*
X153890445Y-90370609D01*
X153869737Y-90266503D01*
X153869735Y-90266498D01*
X153809397Y-90120827D01*
X153809390Y-90120814D01*
X153721789Y-89989711D01*
X153721786Y-89989707D01*
X153610292Y-89878213D01*
X153610288Y-89878210D01*
X153479185Y-89790609D01*
X153479172Y-89790602D01*
X153333501Y-89730264D01*
X153333489Y-89730261D01*
X153178845Y-89699500D01*
X153178842Y-89699500D01*
X153021158Y-89699500D01*
X153021155Y-89699500D01*
X152866510Y-89730261D01*
X152866498Y-89730264D01*
X152720827Y-89790602D01*
X152720814Y-89790609D01*
X152589711Y-89878210D01*
X152589707Y-89878213D01*
X152478213Y-89989707D01*
X152478210Y-89989711D01*
X152390609Y-90120814D01*
X152390602Y-90120827D01*
X152330264Y-90266498D01*
X152330261Y-90266510D01*
X152299500Y-90421153D01*
X125258833Y-90421153D01*
X125418612Y-90344207D01*
X125456222Y-90320575D01*
X125472935Y-90310074D01*
X125472938Y-90310072D01*
X125521593Y-90279500D01*
X125680190Y-90179847D01*
X125921721Y-89987232D01*
X126140167Y-89768786D01*
X126332782Y-89527255D01*
X126497142Y-89265677D01*
X126631182Y-88987341D01*
X126733215Y-88695748D01*
X126801958Y-88394564D01*
X126810196Y-88321455D01*
X126836546Y-88087583D01*
X126836547Y-88087579D01*
X126836547Y-87778650D01*
X126835454Y-87768948D01*
X126835454Y-87768945D01*
X126834576Y-87761153D01*
X134209500Y-87761153D01*
X134209500Y-87918846D01*
X134240261Y-88073489D01*
X134240264Y-88073501D01*
X134300602Y-88219172D01*
X134300609Y-88219185D01*
X134388210Y-88350288D01*
X134388213Y-88350292D01*
X134499707Y-88461786D01*
X134499711Y-88461789D01*
X134630814Y-88549390D01*
X134630827Y-88549397D01*
X134776498Y-88609735D01*
X134776503Y-88609737D01*
X134931153Y-88640499D01*
X134931156Y-88640500D01*
X134931158Y-88640500D01*
X135088844Y-88640500D01*
X135088845Y-88640499D01*
X135243497Y-88609737D01*
X135389179Y-88549394D01*
X135520289Y-88461789D01*
X135631789Y-88350289D01*
X135719394Y-88219179D01*
X135779737Y-88073497D01*
X135810500Y-87918842D01*
X135810500Y-87761158D01*
X135799434Y-87705528D01*
X178549500Y-87705528D01*
X178549500Y-88014471D01*
X178584086Y-88321437D01*
X178584089Y-88321455D01*
X178652831Y-88622635D01*
X178652835Y-88622647D01*
X178754862Y-88914222D01*
X178754868Y-88914236D01*
X178888903Y-89192562D01*
X178888905Y-89192565D01*
X179053265Y-89454143D01*
X179245880Y-89695674D01*
X179464326Y-89914120D01*
X179705857Y-90106735D01*
X179967435Y-90271095D01*
X180245771Y-90405135D01*
X180291562Y-90421158D01*
X180537352Y-90507164D01*
X180537364Y-90507168D01*
X180838548Y-90575911D01*
X180838554Y-90575911D01*
X180838562Y-90575913D01*
X181043206Y-90598970D01*
X181145529Y-90610499D01*
X181145532Y-90610500D01*
X181145535Y-90610500D01*
X181454468Y-90610500D01*
X181454469Y-90610499D01*
X181611356Y-90592822D01*
X181761437Y-90575913D01*
X181761442Y-90575912D01*
X181761452Y-90575911D01*
X182062636Y-90507168D01*
X182354229Y-90405135D01*
X182632565Y-90271095D01*
X182894143Y-90106735D01*
X183135674Y-89914120D01*
X183354120Y-89695674D01*
X183546735Y-89454143D01*
X183711095Y-89192565D01*
X183845135Y-88914229D01*
X183947168Y-88622636D01*
X184015911Y-88321452D01*
X184050500Y-88014465D01*
X184050500Y-87705535D01*
X184038970Y-87603206D01*
X184015913Y-87398562D01*
X184015910Y-87398544D01*
X184000198Y-87329707D01*
X183947168Y-87097364D01*
X183926920Y-87039500D01*
X183845137Y-86805777D01*
X183845135Y-86805771D01*
X183711095Y-86527435D01*
X183546735Y-86265857D01*
X183354120Y-86024326D01*
X183135674Y-85805880D01*
X182894143Y-85613265D01*
X182632565Y-85448905D01*
X182632562Y-85448903D01*
X182354236Y-85314868D01*
X182354222Y-85314862D01*
X182062647Y-85212835D01*
X182062635Y-85212831D01*
X181761455Y-85144089D01*
X181761437Y-85144086D01*
X181454471Y-85109500D01*
X181454465Y-85109500D01*
X181145535Y-85109500D01*
X181145528Y-85109500D01*
X180838562Y-85144086D01*
X180838544Y-85144089D01*
X180537364Y-85212831D01*
X180537352Y-85212835D01*
X180245777Y-85314862D01*
X180245763Y-85314868D01*
X179967437Y-85448903D01*
X179705858Y-85613264D01*
X179464326Y-85805879D01*
X179245879Y-86024326D01*
X179053264Y-86265858D01*
X178888903Y-86527437D01*
X178754868Y-86805763D01*
X178754862Y-86805777D01*
X178652835Y-87097352D01*
X178652831Y-87097364D01*
X178584089Y-87398544D01*
X178584086Y-87398562D01*
X178549500Y-87705528D01*
X135799434Y-87705528D01*
X135779738Y-87606510D01*
X135779737Y-87606503D01*
X135779735Y-87606498D01*
X135719397Y-87460827D01*
X135719390Y-87460814D01*
X135631789Y-87329711D01*
X135631786Y-87329707D01*
X135520292Y-87218213D01*
X135520288Y-87218210D01*
X135389185Y-87130609D01*
X135389172Y-87130602D01*
X135243501Y-87070264D01*
X135243489Y-87070261D01*
X135088845Y-87039500D01*
X135088842Y-87039500D01*
X134931158Y-87039500D01*
X134931155Y-87039500D01*
X134776510Y-87070261D01*
X134776498Y-87070264D01*
X134630827Y-87130602D01*
X134630814Y-87130609D01*
X134499711Y-87218210D01*
X134499707Y-87218213D01*
X134388213Y-87329707D01*
X134388210Y-87329711D01*
X134300609Y-87460814D01*
X134300602Y-87460827D01*
X134240264Y-87606498D01*
X134240261Y-87606510D01*
X134209500Y-87761153D01*
X126834576Y-87761153D01*
X126817151Y-87606503D01*
X126801958Y-87471660D01*
X126733215Y-87170476D01*
X126719262Y-87130602D01*
X126644812Y-86917834D01*
X126631182Y-86878883D01*
X126545166Y-86700269D01*
X126497145Y-86600552D01*
X126412585Y-86465975D01*
X126332782Y-86338969D01*
X126140167Y-86097438D01*
X125921721Y-85878992D01*
X125680190Y-85686377D01*
X125422177Y-85524257D01*
X125418609Y-85522015D01*
X125140283Y-85387980D01*
X125140269Y-85387974D01*
X124874577Y-85295004D01*
X124848694Y-85285947D01*
X124848682Y-85285943D01*
X124547502Y-85217201D01*
X124547484Y-85217198D01*
X124240518Y-85182612D01*
X124240512Y-85182612D01*
X123931582Y-85182612D01*
X123931575Y-85182612D01*
X123624609Y-85217198D01*
X123624591Y-85217201D01*
X123323411Y-85285943D01*
X123323399Y-85285947D01*
X123031824Y-85387974D01*
X123031810Y-85387980D01*
X122753484Y-85522015D01*
X122491905Y-85686376D01*
X122250373Y-85878991D01*
X122031926Y-86097438D01*
X121839311Y-86338970D01*
X121674950Y-86600549D01*
X121540915Y-86878875D01*
X121540909Y-86878889D01*
X121438882Y-87170464D01*
X121438878Y-87170476D01*
X121370136Y-87471656D01*
X121370133Y-87471674D01*
X121335547Y-87778640D01*
X115036547Y-87778640D01*
X115036547Y-85182014D01*
X144900000Y-85182014D01*
X144900000Y-85417985D01*
X144930799Y-85651914D01*
X144991870Y-85879837D01*
X145082160Y-86097819D01*
X145082165Y-86097828D01*
X145200144Y-86302171D01*
X145200145Y-86302172D01*
X145262721Y-86383723D01*
X146098958Y-85547487D01*
X146123978Y-85607890D01*
X146195112Y-85714351D01*
X146285649Y-85804888D01*
X146392110Y-85876022D01*
X146452511Y-85901041D01*
X145616275Y-86737277D01*
X145697827Y-86799854D01*
X145697828Y-86799855D01*
X145902171Y-86917834D01*
X145902180Y-86917839D01*
X146120163Y-87008129D01*
X146120161Y-87008129D01*
X146348085Y-87069200D01*
X146582014Y-87099999D01*
X146582029Y-87100000D01*
X146817971Y-87100000D01*
X146817985Y-87099999D01*
X147051914Y-87069200D01*
X147279837Y-87008129D01*
X147497819Y-86917839D01*
X147497828Y-86917834D01*
X147702181Y-86799850D01*
X147783723Y-86737279D01*
X147783723Y-86737276D01*
X146947487Y-85901041D01*
X147007890Y-85876022D01*
X147114351Y-85804888D01*
X147204888Y-85714351D01*
X147276022Y-85607890D01*
X147301041Y-85547488D01*
X148137276Y-86383723D01*
X148137279Y-86383723D01*
X148199850Y-86302181D01*
X148317834Y-86097828D01*
X148317839Y-86097819D01*
X148408129Y-85879837D01*
X148469200Y-85651914D01*
X148483075Y-85546530D01*
X151699500Y-85546530D01*
X151699500Y-85753469D01*
X151739868Y-85956412D01*
X151739870Y-85956420D01*
X151819058Y-86147596D01*
X151934024Y-86319657D01*
X152080342Y-86465975D01*
X152080345Y-86465977D01*
X152252402Y-86580941D01*
X152443580Y-86660130D01*
X152645374Y-86700269D01*
X152646530Y-86700499D01*
X152646534Y-86700500D01*
X152646535Y-86700500D01*
X152853466Y-86700500D01*
X152853467Y-86700499D01*
X153056420Y-86660130D01*
X153247598Y-86580941D01*
X153419655Y-86465977D01*
X153565977Y-86319655D01*
X153680941Y-86147598D01*
X153760130Y-85956420D01*
X153800500Y-85753465D01*
X153800500Y-85546535D01*
X153800499Y-85546530D01*
X154699500Y-85546530D01*
X154699500Y-85753469D01*
X154739868Y-85956412D01*
X154739870Y-85956420D01*
X154819058Y-86147596D01*
X154934024Y-86319657D01*
X155080342Y-86465975D01*
X155080345Y-86465977D01*
X155252402Y-86580941D01*
X155443580Y-86660130D01*
X155645374Y-86700269D01*
X155646530Y-86700499D01*
X155646534Y-86700500D01*
X155646535Y-86700500D01*
X155853466Y-86700500D01*
X155853467Y-86700499D01*
X156056420Y-86660130D01*
X156247598Y-86580941D01*
X156419655Y-86465977D01*
X156565977Y-86319655D01*
X156680941Y-86147598D01*
X156760130Y-85956420D01*
X156800500Y-85753465D01*
X156800500Y-85546535D01*
X156760130Y-85343580D01*
X156680941Y-85152402D01*
X156633897Y-85081995D01*
X166099500Y-85081995D01*
X166099500Y-85318004D01*
X166099501Y-85318020D01*
X166130306Y-85552010D01*
X166191394Y-85779993D01*
X166281714Y-85998045D01*
X166281719Y-85998056D01*
X166339098Y-86097438D01*
X166399727Y-86202450D01*
X166399729Y-86202453D01*
X166399730Y-86202454D01*
X166543406Y-86389697D01*
X166543412Y-86389704D01*
X166710295Y-86556587D01*
X166710301Y-86556592D01*
X166897550Y-86700273D01*
X167028918Y-86776118D01*
X167101943Y-86818280D01*
X167101948Y-86818282D01*
X167101951Y-86818284D01*
X167320007Y-86908606D01*
X167547986Y-86969693D01*
X167781989Y-87000500D01*
X167781996Y-87000500D01*
X168018004Y-87000500D01*
X168018011Y-87000500D01*
X168252014Y-86969693D01*
X168479993Y-86908606D01*
X168698049Y-86818284D01*
X168902450Y-86700273D01*
X169089699Y-86556592D01*
X169256592Y-86389699D01*
X169400273Y-86202450D01*
X169518284Y-85998049D01*
X169608606Y-85779993D01*
X169669693Y-85552014D01*
X169700500Y-85318011D01*
X169700500Y-85081989D01*
X169669693Y-84847986D01*
X169608606Y-84620007D01*
X169518284Y-84401951D01*
X169518282Y-84401948D01*
X169518280Y-84401943D01*
X169476118Y-84328918D01*
X169400273Y-84197550D01*
X169256592Y-84010301D01*
X169256587Y-84010295D01*
X169089704Y-83843412D01*
X169089697Y-83843406D01*
X168902454Y-83699730D01*
X168902453Y-83699729D01*
X168902450Y-83699727D01*
X168820957Y-83652677D01*
X168698056Y-83581719D01*
X168698045Y-83581714D01*
X168479993Y-83491394D01*
X168252010Y-83430306D01*
X168018020Y-83399501D01*
X168018017Y-83399500D01*
X168018011Y-83399500D01*
X167781989Y-83399500D01*
X167781983Y-83399500D01*
X167781979Y-83399501D01*
X167547989Y-83430306D01*
X167320006Y-83491394D01*
X167101954Y-83581714D01*
X167101943Y-83581719D01*
X166897545Y-83699730D01*
X166710302Y-83843406D01*
X166710295Y-83843412D01*
X166543412Y-84010295D01*
X166543406Y-84010302D01*
X166399730Y-84197545D01*
X166281719Y-84401943D01*
X166281714Y-84401954D01*
X166191394Y-84620006D01*
X166130306Y-84847989D01*
X166099501Y-85081979D01*
X166099500Y-85081995D01*
X156633897Y-85081995D01*
X156565977Y-84980345D01*
X156565975Y-84980342D01*
X156419657Y-84834024D01*
X156333626Y-84776541D01*
X156247598Y-84719059D01*
X156056420Y-84639870D01*
X156056412Y-84639868D01*
X155853469Y-84599500D01*
X155853465Y-84599500D01*
X155646535Y-84599500D01*
X155646530Y-84599500D01*
X155443587Y-84639868D01*
X155443579Y-84639870D01*
X155252403Y-84719058D01*
X155080342Y-84834024D01*
X154934024Y-84980342D01*
X154819058Y-85152403D01*
X154739870Y-85343579D01*
X154739868Y-85343587D01*
X154699500Y-85546530D01*
X153800499Y-85546530D01*
X153760130Y-85343580D01*
X153680941Y-85152402D01*
X153565977Y-84980345D01*
X153565975Y-84980342D01*
X153419657Y-84834024D01*
X153333626Y-84776541D01*
X153247598Y-84719059D01*
X153056420Y-84639870D01*
X153056412Y-84639868D01*
X152853469Y-84599500D01*
X152853465Y-84599500D01*
X152646535Y-84599500D01*
X152646530Y-84599500D01*
X152443587Y-84639868D01*
X152443579Y-84639870D01*
X152252403Y-84719058D01*
X152080342Y-84834024D01*
X151934024Y-84980342D01*
X151819058Y-85152403D01*
X151739870Y-85343579D01*
X151739868Y-85343587D01*
X151699500Y-85546530D01*
X148483075Y-85546530D01*
X148486008Y-85524257D01*
X148486008Y-85524256D01*
X148499998Y-85417987D01*
X148500000Y-85417971D01*
X148500000Y-85182028D01*
X148499999Y-85182014D01*
X148469200Y-84948085D01*
X148408129Y-84720162D01*
X148317839Y-84502180D01*
X148317834Y-84502171D01*
X148199855Y-84297828D01*
X148199854Y-84297827D01*
X148137277Y-84216275D01*
X147301041Y-85052511D01*
X147276022Y-84992110D01*
X147204888Y-84885649D01*
X147114351Y-84795112D01*
X147007890Y-84723978D01*
X146947488Y-84698958D01*
X147783723Y-83862721D01*
X147702172Y-83800145D01*
X147702171Y-83800144D01*
X147497828Y-83682165D01*
X147497819Y-83682160D01*
X147279836Y-83591870D01*
X147279838Y-83591870D01*
X147051914Y-83530799D01*
X146817985Y-83500000D01*
X146582014Y-83500000D01*
X146348085Y-83530799D01*
X146120162Y-83591870D01*
X145902180Y-83682160D01*
X145902171Y-83682165D01*
X145697828Y-83800144D01*
X145697818Y-83800150D01*
X145616275Y-83862720D01*
X145616275Y-83862721D01*
X146452512Y-84698958D01*
X146392110Y-84723978D01*
X146285649Y-84795112D01*
X146195112Y-84885649D01*
X146123978Y-84992110D01*
X146098958Y-85052512D01*
X145262721Y-84216275D01*
X145262720Y-84216275D01*
X145200150Y-84297818D01*
X145200144Y-84297828D01*
X145082165Y-84502171D01*
X145082160Y-84502180D01*
X144991870Y-84720162D01*
X144930799Y-84948085D01*
X144900000Y-85182014D01*
X115036547Y-85182014D01*
X115036547Y-80640258D01*
X125629500Y-80640258D01*
X125629500Y-80869741D01*
X125652210Y-81042229D01*
X125659452Y-81097238D01*
X125659453Y-81097240D01*
X125718842Y-81318887D01*
X125806650Y-81530876D01*
X125806657Y-81530890D01*
X125921392Y-81729617D01*
X126061081Y-81911661D01*
X126061089Y-81911670D01*
X126223330Y-82073911D01*
X126223338Y-82073918D01*
X126405382Y-82213607D01*
X126405385Y-82213608D01*
X126405388Y-82213611D01*
X126604112Y-82328344D01*
X126604117Y-82328346D01*
X126604123Y-82328349D01*
X126683329Y-82361157D01*
X126816113Y-82416158D01*
X127037762Y-82475548D01*
X127265266Y-82505500D01*
X127265273Y-82505500D01*
X127494727Y-82505500D01*
X127494734Y-82505500D01*
X127722238Y-82475548D01*
X127943887Y-82416158D01*
X128155888Y-82328344D01*
X128354612Y-82213611D01*
X128536661Y-82073919D01*
X128536665Y-82073914D01*
X128536670Y-82073911D01*
X128698911Y-81911670D01*
X128698914Y-81911665D01*
X128698919Y-81911661D01*
X128838611Y-81729612D01*
X128953344Y-81530888D01*
X129041158Y-81318887D01*
X129100548Y-81097238D01*
X129130500Y-80869734D01*
X129130500Y-80640266D01*
X129127720Y-80619154D01*
X129124856Y-80597392D01*
X129123258Y-80585258D01*
X174739500Y-80585258D01*
X174739500Y-80814741D01*
X174764446Y-81004215D01*
X174769452Y-81042238D01*
X174769453Y-81042240D01*
X174828842Y-81263887D01*
X174916650Y-81475876D01*
X174916657Y-81475890D01*
X175031392Y-81674617D01*
X175171081Y-81856661D01*
X175171089Y-81856670D01*
X175333330Y-82018911D01*
X175333338Y-82018918D01*
X175515382Y-82158607D01*
X175515385Y-82158608D01*
X175515388Y-82158611D01*
X175714112Y-82273344D01*
X175714117Y-82273346D01*
X175714123Y-82273349D01*
X175805480Y-82311190D01*
X175926113Y-82361158D01*
X176147762Y-82420548D01*
X176375266Y-82450500D01*
X176375273Y-82450500D01*
X176604727Y-82450500D01*
X176604734Y-82450500D01*
X176832238Y-82420548D01*
X177053887Y-82361158D01*
X177265888Y-82273344D01*
X177464612Y-82158611D01*
X177646661Y-82018919D01*
X177646665Y-82018914D01*
X177646670Y-82018911D01*
X177808911Y-81856670D01*
X177808914Y-81856665D01*
X177808919Y-81856661D01*
X177948611Y-81674612D01*
X178063344Y-81475888D01*
X178151158Y-81263887D01*
X178210548Y-81042238D01*
X178240500Y-80814734D01*
X178240500Y-80585266D01*
X178210548Y-80357762D01*
X178151158Y-80136113D01*
X178086663Y-79980409D01*
X178063349Y-79924123D01*
X178063346Y-79924117D01*
X178063344Y-79924112D01*
X177948611Y-79725388D01*
X177948608Y-79725385D01*
X177948607Y-79725382D01*
X177808918Y-79543338D01*
X177808911Y-79543330D01*
X177646670Y-79381089D01*
X177646661Y-79381081D01*
X177464617Y-79241392D01*
X177265890Y-79126657D01*
X177265876Y-79126650D01*
X177053887Y-79038842D01*
X177037499Y-79034451D01*
X176832238Y-78979452D01*
X176794215Y-78974446D01*
X176604741Y-78949500D01*
X176604734Y-78949500D01*
X176375266Y-78949500D01*
X176375258Y-78949500D01*
X176158715Y-78978009D01*
X176147762Y-78979452D01*
X176054281Y-79004500D01*
X175926112Y-79038842D01*
X175714123Y-79126650D01*
X175714109Y-79126657D01*
X175515382Y-79241392D01*
X175333338Y-79381081D01*
X175171081Y-79543338D01*
X175031392Y-79725382D01*
X174916657Y-79924109D01*
X174916650Y-79924123D01*
X174828842Y-80136112D01*
X174769453Y-80357759D01*
X174769451Y-80357770D01*
X174739500Y-80585258D01*
X129123258Y-80585258D01*
X129116329Y-80532628D01*
X129100548Y-80412762D01*
X129041158Y-80191113D01*
X128976271Y-80034463D01*
X128953349Y-79979123D01*
X128953346Y-79979117D01*
X128953344Y-79979112D01*
X128838611Y-79780388D01*
X128838608Y-79780385D01*
X128838607Y-79780382D01*
X128698918Y-79598338D01*
X128698911Y-79598330D01*
X128536670Y-79436089D01*
X128536661Y-79436081D01*
X128354617Y-79296392D01*
X128155890Y-79181657D01*
X128155876Y-79181650D01*
X127943887Y-79093842D01*
X127722238Y-79034452D01*
X127684215Y-79029446D01*
X127494741Y-79004500D01*
X127494734Y-79004500D01*
X127265266Y-79004500D01*
X127265258Y-79004500D01*
X127048715Y-79033009D01*
X127037762Y-79034452D01*
X126944076Y-79059554D01*
X126816112Y-79093842D01*
X126604123Y-79181650D01*
X126604109Y-79181657D01*
X126405382Y-79296392D01*
X126223338Y-79436081D01*
X126061081Y-79598338D01*
X125921392Y-79780382D01*
X125806657Y-79979109D01*
X125806650Y-79979123D01*
X125718842Y-80191112D01*
X125659453Y-80412759D01*
X125659451Y-80412770D01*
X125629500Y-80640258D01*
X115036547Y-80640258D01*
X115036547Y-79985817D01*
X115036665Y-79980409D01*
X115039424Y-79917220D01*
X115053432Y-79596338D01*
X115054371Y-79585608D01*
X115104196Y-79207145D01*
X115106073Y-79196504D01*
X115188693Y-78823829D01*
X115191485Y-78813409D01*
X115306274Y-78449345D01*
X115309972Y-78439188D01*
X115456045Y-78086534D01*
X115460604Y-78076757D01*
X115636871Y-77738153D01*
X115642265Y-77728812D01*
X115847362Y-77406876D01*
X115853558Y-77398027D01*
X116085937Y-77095185D01*
X116092866Y-77086926D01*
X116350769Y-76805475D01*
X116358396Y-76797848D01*
X116639837Y-76539957D01*
X116648121Y-76533008D01*
X116950960Y-76300633D01*
X116959788Y-76294451D01*
X117281733Y-76089353D01*
X117291084Y-76083953D01*
X117629697Y-75907685D01*
X117639441Y-75903141D01*
X117992141Y-75757051D01*
X118002285Y-75753360D01*
X118366344Y-75638574D01*
X118376753Y-75635785D01*
X118749445Y-75553165D01*
X118760071Y-75551291D01*
X119138518Y-75501471D01*
X119149287Y-75500529D01*
X119534109Y-75483731D01*
X119539549Y-75483614D01*
X185878387Y-75534916D01*
G37*
%TD.AperFunction*%
%TD*%
M02*
