M48
; DRILL file {KiCad 9.0.7} date 2026-01-30T16:00:42+0100
; FORMAT={-:-/ absolute / inch / decimal}
; #@! TF.CreationDate,2026-01-30T16:00:42+01:00
; #@! TF.GenerationSoftware,Kicad,Pcbnew,9.0.7
; #@! TF.FileFunction,Plated,1,4,PTH
FMAT,2
INCH
; #@! TA.AperFunction,Plated,PTH,ViaDrill
T1C0.0059
; #@! TA.AperFunction,Plated,PTH,ViaDrill
T2C0.0118
; #@! TA.AperFunction,Plated,PTH,ComponentDrill
T3C0.0433
; #@! TA.AperFunction,Plated,PTH,ComponentDrill
T4C0.0433
; #@! TA.AperFunction,Plated,PTH,ComponentDrill
T5C0.0512
; #@! TA.AperFunction,Plated,PTH,ComponentDrill
T6C0.1260
; #@! TA.AperFunction,Plated,PTH,ComponentDrill
T7C0.1260
%
G90
G05
T1
X5.0331Y-4.1412
X5.0335Y-4.0661
X5.0335Y-4.2163
X5.0343Y-4.2913
X5.0362Y-3.6235
X5.0362Y-3.708
X5.0366Y-3.539
X5.037Y-3.4051
X5.037Y-3.4781
X5.037Y-3.7925
X5.037Y-3.8362
X5.037Y-3.926
X5.037Y-4.0157
X5.0382Y-3.3321
X5.1165Y-3.3024
X5.1185Y-3.3293
X5.1928Y-4.2913
X5.1949Y-3.274
X5.2732Y-3.2451
X5.3514Y-4.2913
X5.352Y-3.2451
X5.4307Y-3.2451
X5.5094Y-3.2457
X5.5099Y-4.2913
X5.5882Y-3.2451
X5.6669Y-3.2453
X5.6669Y-3.8417
X5.6669Y-4.1213
X5.6673Y-3.348
X5.6673Y-3.6713
X5.6673Y-3.8
X5.6677Y-3.5283
X5.6677Y-3.9349
X5.6677Y-4.0281
X5.6677Y-3.6063
X5.6681Y-3.4402
X5.6681Y-4.1638
X5.6685Y-4.2913
T2
X5.1189Y-3.6573
X5.1189Y-3.9807
X5.1791Y-4.2547
X5.2854Y-4.5715
X5.3154Y-3.4583
X5.3154Y-3.6583
X5.3154Y-3.9776
X5.3157Y-4.2476
X5.3827Y-4.6281
X5.5441Y-4.2425
X5.5445Y-3.3941
X5.5976Y-3.9776
X5.598Y-3.6563
X5.7109Y-4.2913
X5.7465Y-4.5722
X5.8381Y-4.2913
X5.8381Y-4.5157
X5.9484Y-4.5157
X5.95Y-4.2957
X6.0276Y-3.563
X6.0594Y-3.8079
X6.0622Y-4.2913
X6.0622Y-4.5157
X6.0984Y-4.1654
X6.1894Y-4.2913
X6.2192Y-3.7201
X6.2583Y-3.5858
X6.311Y-4.2909
X6.3455Y-3.503
X6.3973Y-3.8945
X6.5197Y-4.2248
X6.5226Y-4.348
X6.6067Y-4.635
X6.6336Y-3.8375
X6.7846Y-4.1772
X6.8303Y-4.2244
X6.8327Y-4.0185
X6.8327Y-4.1161
X6.8374Y-3.7887
X6.8378Y-3.6846
X6.8406Y-3.9114
T3
X6.0138Y-3.372
X6.1319Y-3.372
T4
X4.8294Y-3.7907
X4.8294Y-3.8997
X4.8294Y-4.0088
X4.8294Y-4.1178
X4.9412Y-3.7359
X4.9412Y-3.845
X4.9412Y-3.9541
X4.9412Y-4.0631
X4.9412Y-4.1722
X7.0819Y-3.7331
X7.0819Y-3.8421
X7.0819Y-3.9512
X7.0819Y-4.0602
X7.0819Y-4.1693
X7.1937Y-3.7874
X7.1937Y-3.8965
X7.1937Y-4.0055
X7.1937Y-4.1146
T5
X5.7756Y-3.3583
X6.6102Y-3.3543
T6
X4.8853Y-3.4619
X4.8853Y-4.4462
X7.1378Y-3.4591
X7.1378Y-4.4433
T7
X6.9484Y-4.7173
M30
