%TF.GenerationSoftware,KiCad,Pcbnew,9.0.7*%
%TF.CreationDate,2026-01-30T16:00:42+01:00*%
%TF.ProjectId,icncconv,69636e63-636f-46e7-962e-6b696361645f,rev?*%
%TF.SameCoordinates,Original*%
%TF.FileFunction,Soldermask,Top*%
%TF.FilePolarity,Negative*%
%FSLAX46Y46*%
G04 Gerber Fmt 4.6, Leading zero omitted, Abs format (unit mm)*
G04 Created by KiCad (PCBNEW 9.0.7) date 2026-01-30 16:00:42*
%MOMM*%
%LPD*%
G01*
G04 APERTURE LIST*
G04 Aperture macros list*
%AMRoundRect*
0 Rectangle with rounded corners*
0 $1 Rounding radius*
0 $2 $3 $4 $5 $6 $7 $8 $9 X,Y pos of 4 corners*
0 Add a 4 corners polygon primitive as box body*
4,1,4,$2,$3,$4,$5,$6,$7,$8,$9,$2,$3,0*
0 Add four circle primitives for the rounded corners*
1,1,$1+$1,$2,$3*
1,1,$1+$1,$4,$5*
1,1,$1+$1,$6,$7*
1,1,$1+$1,$8,$9*
0 Add four rect primitives between the rounded corners*
20,1,$1+$1,$2,$3,$4,$5,0*
20,1,$1+$1,$4,$5,$6,$7,0*
20,1,$1+$1,$6,$7,$8,$9,0*
20,1,$1+$1,$8,$9,$2,$3,0*%
G04 Aperture macros list end*
%ADD10C,0.500000*%
%ADD11RoundRect,0.112500X-0.112500X0.187500X-0.112500X-0.187500X0.112500X-0.187500X0.112500X0.187500X0*%
%ADD12RoundRect,0.237500X-0.250000X-0.237500X0.250000X-0.237500X0.250000X0.237500X-0.250000X0.237500X0*%
%ADD13RoundRect,0.237500X0.250000X0.237500X-0.250000X0.237500X-0.250000X-0.237500X0.250000X-0.237500X0*%
%ADD14RoundRect,0.237500X0.300000X0.237500X-0.300000X0.237500X-0.300000X-0.237500X0.300000X-0.237500X0*%
%ADD15RoundRect,0.237500X0.237500X-0.300000X0.237500X0.300000X-0.237500X0.300000X-0.237500X-0.300000X0*%
%ADD16RoundRect,0.237500X-0.237500X0.300000X-0.237500X-0.300000X0.237500X-0.300000X0.237500X0.300000X0*%
%ADD17RoundRect,0.237500X-0.300000X-0.237500X0.300000X-0.237500X0.300000X0.237500X-0.300000X0.237500X0*%
%ADD18R,1.000000X0.500000*%
%ADD19R,0.650000X0.900000*%
%ADD20R,1.500000X1.000000*%
%ADD21RoundRect,0.112500X-0.187500X-0.112500X0.187500X-0.112500X0.187500X0.112500X-0.187500X0.112500X0*%
%ADD22C,6.400000*%
%ADD23R,0.900000X0.900000*%
%ADD24R,0.900000X1.250000*%
%ADD25C,1.100000*%
%ADD26R,1.200000X1.200000*%
%ADD27R,1.600000X1.500000*%
%ADD28O,0.600000X1.970000*%
%ADD29RoundRect,0.100000X0.100000X-0.637500X0.100000X0.637500X-0.100000X0.637500X-0.100000X-0.637500X0*%
%ADD30C,1.800000*%
%ADD31R,1.800000X1.800000*%
%ADD32C,4.500000*%
%ADD33C,2.600000*%
G04 APERTURE END LIST*
D10*
X127930000Y-97430000D02*
X127930000Y-101960397D01*
X127850000Y-103310000D02*
X127850000Y-108990000D01*
X127930000Y-89909948D02*
X127930000Y-96320000D01*
X143970000Y-105770000D02*
X143970000Y-108990000D01*
X143950000Y-104660000D02*
X143950000Y-97630000D01*
X143960000Y-96480000D02*
X143960000Y-93280000D01*
X142050000Y-74150000D02*
X142050000Y-79670000D01*
X143960000Y-91560000D02*
X143960000Y-82410000D01*
X133940000Y-82415000D02*
X143960000Y-82410000D01*
X127930000Y-84609974D02*
X133940000Y-82415000D01*
X127930000Y-84609974D02*
X127930000Y-88400026D01*
X127880000Y-108990000D02*
X143970000Y-108990000D01*
D11*
%TO.C,D1*%
X130020000Y-108085000D03*
X130020000Y-105985000D03*
%TD*%
D12*
%TO.C,R4*%
X133895000Y-106165000D03*
X132070000Y-106165000D03*
%TD*%
D13*
%TO.C,R8*%
X132070000Y-96025000D03*
X133895000Y-96025000D03*
%TD*%
D12*
%TO.C,R1*%
X137935000Y-96025000D03*
X136110000Y-96025000D03*
%TD*%
%TO.C,R12*%
X137935000Y-89755000D03*
X136110000Y-89755000D03*
%TD*%
D13*
%TO.C,R3*%
X132070000Y-104195000D03*
X133895000Y-104195000D03*
%TD*%
D12*
%TO.C,R14*%
X141507500Y-116135000D03*
X143332500Y-116135000D03*
%TD*%
%TO.C,R11*%
X136110000Y-98005000D03*
X137935000Y-98005000D03*
%TD*%
D13*
%TO.C,R10*%
X169662500Y-115640000D03*
X167837500Y-115640000D03*
%TD*%
D12*
%TO.C,R9*%
X132070000Y-98005000D03*
X133895000Y-98005000D03*
%TD*%
%TO.C,R7*%
X132070000Y-89765000D03*
X133895000Y-89765000D03*
%TD*%
D13*
%TO.C,R6*%
X133892500Y-87765000D03*
X132067500Y-87765000D03*
%TD*%
D12*
%TO.C,R5*%
X136122500Y-87755000D03*
X137947500Y-87755000D03*
%TD*%
%TO.C,R2*%
X136110000Y-104195000D03*
X137935000Y-104195000D03*
%TD*%
D14*
%TO.C,C17*%
X169620000Y-119830000D03*
X167895000Y-119830000D03*
%TD*%
D15*
%TO.C,C16*%
X142190000Y-91400000D03*
X142190000Y-89675000D03*
%TD*%
D16*
%TO.C,C15*%
X139870000Y-87920000D03*
X139870000Y-89645000D03*
%TD*%
D15*
%TO.C,C14*%
X142190000Y-87915000D03*
X142190000Y-86190000D03*
%TD*%
%TO.C,C13*%
X142180000Y-107780000D03*
X142180000Y-106055000D03*
%TD*%
D16*
%TO.C,C12*%
X139870000Y-104335000D03*
X139870000Y-106060000D03*
%TD*%
D15*
%TO.C,C11*%
X142180000Y-104355000D03*
X142180000Y-102630000D03*
%TD*%
%TO.C,C10*%
X142180000Y-99600000D03*
X142180000Y-97875000D03*
%TD*%
D16*
%TO.C,C9*%
X139870000Y-96142500D03*
X139870000Y-97867500D03*
%TD*%
D15*
%TO.C,C8*%
X142180000Y-96145000D03*
X142180000Y-94420000D03*
%TD*%
D17*
%TO.C,C7*%
X154825000Y-94500000D03*
X156550000Y-94500000D03*
%TD*%
%TO.C,C6*%
X154825000Y-90500000D03*
X156550000Y-90500000D03*
%TD*%
D15*
%TO.C,C5*%
X167234300Y-109735850D03*
X167234300Y-108010850D03*
%TD*%
D14*
%TO.C,C4*%
X151802500Y-90500000D03*
X150077500Y-90500000D03*
%TD*%
%TO.C,C3*%
X151802500Y-94500000D03*
X150077500Y-94500000D03*
%TD*%
D15*
%TO.C,C2*%
X129990000Y-113237500D03*
X129990000Y-111512500D03*
%TD*%
D16*
%TO.C,C1*%
X151133500Y-111187500D03*
X151133500Y-112912500D03*
%TD*%
D18*
%TO.C,D13*%
X136720000Y-116505000D03*
D19*
X135420000Y-116125000D03*
X138020000Y-116125000D03*
%TD*%
D20*
%TO.C,JP5*%
X160300000Y-110560000D03*
X160300000Y-111860000D03*
X160300000Y-113160000D03*
%TD*%
D21*
%TO.C,D8*%
X174710000Y-96302000D03*
X176810000Y-96302000D03*
%TD*%
%TO.C,D7*%
X174710000Y-93600000D03*
X176810000Y-93600000D03*
%TD*%
D22*
%TO.C,H5*%
X176490000Y-119820000D03*
%TD*%
D23*
%TO.C,SW1*%
X150450000Y-86750000D03*
X158050000Y-86750000D03*
X150450000Y-84550000D03*
X158050000Y-84550000D03*
D24*
X154950000Y-83570000D03*
X156450000Y-83570000D03*
X151950000Y-83570000D03*
D25*
X155750000Y-85650000D03*
X152750000Y-85650000D03*
%TD*%
D21*
%TO.C,D12*%
X174720000Y-107252000D03*
X176820000Y-107252000D03*
%TD*%
%TO.C,D11*%
X174720000Y-104550000D03*
X176820000Y-104550000D03*
%TD*%
%TO.C,D10*%
X174710000Y-99350000D03*
X176810000Y-99350000D03*
%TD*%
%TO.C,D9*%
X174710000Y-102052000D03*
X176810000Y-102052000D03*
%TD*%
D11*
%TO.C,D6*%
X130030000Y-94105000D03*
X130030000Y-96205000D03*
%TD*%
%TO.C,D5*%
X130030000Y-97825000D03*
X130030000Y-99925000D03*
%TD*%
%TO.C,D4*%
X130012500Y-85845000D03*
X130012500Y-87945000D03*
%TD*%
%TO.C,D3*%
X130020000Y-89595000D03*
X130020000Y-91695000D03*
%TD*%
%TO.C,D2*%
X130020000Y-102275000D03*
X130020000Y-104375000D03*
%TD*%
D26*
%TO.C,RV3*%
X161170000Y-87575000D03*
X163070000Y-87575000D03*
D27*
X162120000Y-84375000D03*
%TD*%
D28*
%TO.C,U2*%
X172320000Y-98919750D03*
X171050000Y-98919750D03*
X169780000Y-98919750D03*
X168500000Y-98919750D03*
X167240000Y-98919750D03*
X165970000Y-98919750D03*
X164700000Y-98919750D03*
X163430000Y-98919750D03*
X163430000Y-104399750D03*
X164700000Y-104399750D03*
X165970000Y-104399750D03*
X167240000Y-104399750D03*
X168500000Y-104399750D03*
X169780000Y-104399750D03*
X171050000Y-104399750D03*
X172320000Y-104399750D03*
%TD*%
D29*
%TO.C,U1*%
X148500000Y-104200000D03*
X149150000Y-104200000D03*
X149800000Y-104200000D03*
X150450000Y-104200000D03*
X151100000Y-104200000D03*
X151750000Y-104200000D03*
X152400000Y-104200000D03*
X153050000Y-104200000D03*
X153700000Y-104200000D03*
X154350000Y-104200000D03*
X154350000Y-98475000D03*
X153700000Y-98475000D03*
X153050000Y-98475000D03*
X152400000Y-98475000D03*
X151750000Y-98475000D03*
X151100000Y-98475000D03*
X150450000Y-98475000D03*
X149800000Y-98475000D03*
X149150000Y-98475000D03*
X148500000Y-98475000D03*
%TD*%
D20*
%TO.C,JP1*%
X145057500Y-110570000D03*
X145057500Y-111870000D03*
X145057500Y-113170000D03*
%TD*%
D30*
%TO.C,J1*%
X125506047Y-100433112D03*
X125506047Y-94893112D03*
X125506047Y-97663112D03*
X125506047Y-103203112D03*
D31*
X125506047Y-105973112D03*
D30*
X122666047Y-96283112D03*
X122666047Y-99053112D03*
X122666047Y-101823112D03*
X122666047Y-104593112D03*
D32*
X124086047Y-87933112D03*
X124086047Y-112933112D03*
%TD*%
D20*
%TO.C,JP3*%
X157209500Y-110570000D03*
X157209500Y-111870000D03*
X157209500Y-113170000D03*
%TD*%
%TO.C,JP4*%
X153979000Y-110570000D03*
X153979000Y-111870000D03*
X153979000Y-113170000D03*
%TD*%
%TO.C,JP2*%
X148288000Y-110570000D03*
X148288000Y-111870000D03*
X148288000Y-113170000D03*
%TD*%
D33*
%TO.C,TP1*%
X167900000Y-85200000D03*
%TD*%
%TO.C,TP2*%
X146700000Y-85300000D03*
%TD*%
D30*
%TO.C,J3*%
X179880000Y-100360000D03*
X179880000Y-105900000D03*
X179880000Y-103130000D03*
X179880000Y-97590000D03*
D31*
X179880000Y-94820000D03*
D30*
X182720000Y-104510000D03*
X182720000Y-101740000D03*
X182720000Y-98970000D03*
X182720000Y-96200000D03*
D32*
X181300000Y-112860000D03*
X181300000Y-87860000D03*
%TD*%
D12*
%TO.C,R13*%
X136110000Y-106165000D03*
X137935000Y-106165000D03*
%TD*%
M02*
