%TF.GenerationSoftware,KiCad,Pcbnew,9.0.6*%
%TF.CreationDate,2026-01-17T14:07:05+01:00*%
%TF.ProjectId,icncconv,69636e63-636f-46e7-962e-6b696361645f,rev?*%
%TF.SameCoordinates,Original*%
%TF.FileFunction,Copper,L1,Top*%
%TF.FilePolarity,Positive*%
%FSLAX46Y46*%
G04 Gerber Fmt 4.6, Leading zero omitted, Abs format (unit mm)*
G04 Created by KiCad (PCBNEW 9.0.6) date 2026-01-17 14:07:05*
%MOMM*%
%LPD*%
G01*
G04 APERTURE LIST*
G04 Aperture macros list*
%AMRoundRect*
0 Rectangle with rounded corners*
0 $1 Rounding radius*
0 $2 $3 $4 $5 $6 $7 $8 $9 X,Y pos of 4 corners*
0 Add a 4 corners polygon primitive as box body*
4,1,4,$2,$3,$4,$5,$6,$7,$8,$9,$2,$3,0*
0 Add four circle primitives for the rounded corners*
1,1,$1+$1,$2,$3*
1,1,$1+$1,$4,$5*
1,1,$1+$1,$6,$7*
1,1,$1+$1,$8,$9*
0 Add four rect primitives between the rounded corners*
20,1,$1+$1,$2,$3,$4,$5,0*
20,1,$1+$1,$4,$5,$6,$7,0*
20,1,$1+$1,$6,$7,$8,$9,0*
20,1,$1+$1,$8,$9,$2,$3,0*%
G04 Aperture macros list end*
%TA.AperFunction,EtchedComponent*%
%ADD10C,0.000000*%
%TD*%
%TA.AperFunction,SMDPad,CuDef*%
%ADD11RoundRect,0.250000X-0.400000X-0.550000X0.400000X-0.550000X0.400000X0.550000X-0.400000X0.550000X0*%
%TD*%
%TA.AperFunction,SMDPad,CuDef*%
%ADD12RoundRect,0.250000X-0.750000X-0.550000X0.750000X-0.550000X0.750000X0.550000X-0.750000X0.550000X0*%
%TD*%
%TA.AperFunction,SMDPad,CuDef*%
%ADD13RoundRect,0.250000X-0.400000X-0.625000X0.400000X-0.625000X0.400000X0.625000X-0.400000X0.625000X0*%
%TD*%
%TA.AperFunction,SMDPad,CuDef*%
%ADD14RoundRect,0.250000X-0.412500X-0.650000X0.412500X-0.650000X0.412500X0.650000X-0.412500X0.650000X0*%
%TD*%
%TA.AperFunction,ComponentPad*%
%ADD15RoundRect,0.250000X-0.550000X-0.550000X0.550000X-0.550000X0.550000X0.550000X-0.550000X0.550000X0*%
%TD*%
%TA.AperFunction,ComponentPad*%
%ADD16C,1.600000*%
%TD*%
%TA.AperFunction,SMDPad,CuDef*%
%ADD17RoundRect,0.100000X-0.637500X-0.100000X0.637500X-0.100000X0.637500X0.100000X-0.637500X0.100000X0*%
%TD*%
%TA.AperFunction,ComponentPad*%
%ADD18C,2.600000*%
%TD*%
%TA.AperFunction,SMDPad,CuDef*%
%ADD19RoundRect,0.250000X-0.970000X-0.310000X0.970000X-0.310000X0.970000X0.310000X-0.970000X0.310000X0*%
%TD*%
%TA.AperFunction,SMDPad,CuDef*%
%ADD20C,2.000000*%
%TD*%
%TA.AperFunction,SMDPad,CuDef*%
%ADD21R,1.000000X1.500000*%
%TD*%
%TA.AperFunction,ComponentPad*%
%ADD22C,4.000000*%
%TD*%
%TA.AperFunction,ComponentPad*%
%ADD23R,1.600000X1.600000*%
%TD*%
G04 APERTURE END LIST*
D10*
%TA.AperFunction,EtchedComponent*%
%TO.C,NT1*%
G36*
X169415000Y-131805000D02*
G01*
X165415000Y-131805000D01*
X165415000Y-129805000D01*
X169415000Y-129805000D01*
X169415000Y-131805000D01*
G37*
%TD.AperFunction*%
%TD*%
D11*
%TO.P,RV3,1,1*%
%TO.N,GND*%
X181880000Y-105690000D03*
D12*
%TO.P,RV3,2,2*%
%TO.N,Net-(SW1-C)*%
X180630000Y-108590000D03*
D11*
%TO.P,RV3,3,3*%
X179380000Y-105690000D03*
%TD*%
%TO.P,RV2,1,1*%
%TO.N,Net-(R4-Pad2)*%
X181880000Y-97540000D03*
D12*
%TO.P,RV2,2,2*%
%TO.N,ICNV_VREF*%
X180630000Y-100440000D03*
D11*
%TO.P,RV2,3,3*%
%TO.N,Net-(R3-Pad1)*%
X179380000Y-97540000D03*
%TD*%
%TO.P,RV1,1,1*%
%TO.N,Net-(R2-Pad1)*%
X181880000Y-89390000D03*
D12*
%TO.P,RV1,2,2*%
%TO.N,ICNV_VREF*%
X180630000Y-92290000D03*
D11*
%TO.P,RV1,3,3*%
%TO.N,Net-(R1-Pad1)*%
X179380000Y-89390000D03*
%TD*%
D13*
%TO.P,R10,1*%
%TO.N,COS-*%
X132352500Y-99500000D03*
%TO.P,R10,2*%
%TO.N,ICNV_VREF*%
X135452500Y-99500000D03*
%TD*%
%TO.P,R9,1*%
%TO.N,ICNV_VREF*%
X132352500Y-97510000D03*
%TO.P,R9,2*%
%TO.N,SIN-*%
X135452500Y-97510000D03*
%TD*%
%TO.P,R8,1*%
%TO.N,ICNV_VREF*%
X132352500Y-95520000D03*
%TO.P,R8,2*%
%TO.N,SIN+*%
X135452500Y-95520000D03*
%TD*%
%TO.P,R7,1*%
%TO.N,ICNV_VREF*%
X132352500Y-93530000D03*
%TO.P,R7,2*%
%TO.N,COS+*%
X135452500Y-93530000D03*
%TD*%
%TO.P,R6,1*%
%TO.N,ICNV_VREF*%
X156080000Y-132200000D03*
%TO.P,R6,2*%
%TO.N,IDX-*%
X159180000Y-132200000D03*
%TD*%
%TO.P,R5,1*%
%TO.N,ICNV_VREF*%
X156080000Y-130210000D03*
%TO.P,R5,2*%
%TO.N,IDX+*%
X159180000Y-130210000D03*
%TD*%
%TO.P,R4,1*%
%TO.N,COS-*%
X156080000Y-128220000D03*
%TO.P,R4,2*%
%TO.N,Net-(R4-Pad2)*%
X159180000Y-128220000D03*
%TD*%
%TO.P,R3,1*%
%TO.N,Net-(R3-Pad1)*%
X156080000Y-126230000D03*
%TO.P,R3,2*%
%TO.N,COS+*%
X159180000Y-126230000D03*
%TD*%
%TO.P,R2,1*%
%TO.N,Net-(R2-Pad1)*%
X156080000Y-124240000D03*
%TO.P,R2,2*%
%TO.N,SIN-*%
X159180000Y-124240000D03*
%TD*%
%TO.P,R1,1*%
%TO.N,Net-(R1-Pad1)*%
X156080000Y-122250000D03*
%TO.P,R1,2*%
%TO.N,SIN+*%
X159180000Y-122250000D03*
%TD*%
D14*
%TO.P,C7,1*%
%TO.N,ICNV_RCLK*%
X187127500Y-121480000D03*
%TO.P,C7,2*%
%TO.N,GND*%
X190252500Y-121480000D03*
%TD*%
%TO.P,C6,1*%
%TO.N,ICNV_RCLK*%
X187127500Y-119510000D03*
%TO.P,C6,2*%
%TO.N,ICNV_VREF*%
X190252500Y-119510000D03*
%TD*%
%TO.P,C5,1*%
%TO.N,GND*%
X187127500Y-117540000D03*
%TO.P,C5,2*%
%TO.N,+5V*%
X190252500Y-117540000D03*
%TD*%
%TO.P,C4,1*%
%TO.N,+5V*%
X187127500Y-115570000D03*
%TO.P,C4,2*%
%TO.N,GND*%
X190252500Y-115570000D03*
%TD*%
%TO.P,C3,1*%
%TO.N,+5V*%
X187127500Y-113600000D03*
%TO.P,C3,2*%
%TO.N,GND*%
X190252500Y-113600000D03*
%TD*%
%TO.P,C2,1*%
%TO.N,+5V*%
X187127500Y-111630000D03*
%TO.P,C2,2*%
%TO.N,GND*%
X190252500Y-111630000D03*
%TD*%
%TO.P,C1,1*%
%TO.N,ICNV_VREF*%
X187127500Y-109660000D03*
%TO.P,C1,2*%
%TO.N,GND*%
X190252500Y-109660000D03*
%TD*%
D15*
%TO.P,U2,1,1A*%
%TO.N,MC_1A*%
X177880000Y-110720000D03*
D16*
%TO.P,U2,2,1Y*%
%TO.N,A+*%
X177880000Y-113260000D03*
%TO.P,U2,3,1Z*%
%TO.N,A-*%
X177880000Y-115800000D03*
%TO.P,U2,4,1\u002C2EN*%
%TO.N,+5V*%
X177880000Y-118340000D03*
%TO.P,U2,5,2Z*%
%TO.N,B-*%
X177880000Y-120880000D03*
%TO.P,U2,6,2Y*%
%TO.N,B+*%
X177880000Y-123420000D03*
%TO.P,U2,7,2A*%
%TO.N,MC_2A*%
X177880000Y-125960000D03*
%TO.P,U2,8,GND*%
%TO.N,GND*%
X177880000Y-128500000D03*
%TO.P,U2,9,3A*%
%TO.N,MC_3A*%
X185500000Y-128500000D03*
%TO.P,U2,10,3Y*%
%TO.N,IDX+*%
X185500000Y-125960000D03*
%TO.P,U2,11,3Z*%
%TO.N,IDX-*%
X185500000Y-123420000D03*
%TO.P,U2,12,3\u002C4EN*%
%TO.N,+5V*%
X185500000Y-120880000D03*
%TO.P,U2,13,4Z*%
%TO.N,unconnected-(U2-4Z-Pad13)*%
X185500000Y-118340000D03*
%TO.P,U2,14,4Y*%
%TO.N,unconnected-(U2-4Y-Pad14)*%
X185500000Y-115800000D03*
%TO.P,U2,15,4A*%
%TO.N,unconnected-(U2-4A-Pad15)*%
X185500000Y-113260000D03*
%TO.P,U2,16,VCC*%
%TO.N,+5V*%
X185500000Y-110720000D03*
%TD*%
D17*
%TO.P,U1,1,PCOS*%
%TO.N,COS+*%
X165802500Y-122355000D03*
%TO.P,U1,2,NCOS*%
%TO.N,COS-*%
X165802500Y-123005000D03*
%TO.P,U1,3,SG1*%
%TO.N,SG1*%
X165802500Y-123655000D03*
%TO.P,U1,4,SG0*%
%TO.N,SG0*%
X165802500Y-124305000D03*
%TO.P,U1,5,VREF*%
%TO.N,ICNV_VREF*%
X165802500Y-124955000D03*
%TO.P,U1,6,ROT*%
%TO.N,ROT*%
X165802500Y-125605000D03*
%TO.P,U1,7,SF1*%
%TO.N,SF1*%
X165802500Y-126255000D03*
%TO.P,U1,8,SF0*%
%TO.N,SF0*%
X165802500Y-126905000D03*
%TO.P,U1,9,GND*%
%TO.N,GND*%
X165802500Y-127555000D03*
%TO.P,U1,10,Z*%
%TO.N,MC_3A*%
X165802500Y-128205000D03*
%TO.P,U1,11,B*%
%TO.N,MC_2A*%
X171527500Y-128205000D03*
%TO.P,U1,12,A*%
%TO.N,MC_1A*%
X171527500Y-127555000D03*
%TO.P,U1,13,VDD*%
%TO.N,+5V*%
X171527500Y-126905000D03*
%TO.P,U1,14,RCLK*%
%TO.N,ICNV_RCLK*%
X171527500Y-126255000D03*
%TO.P,U1,15,VCC*%
%TO.N,+5V*%
X171527500Y-125605000D03*
%TO.P,U1,16,GNDA*%
%TO.N,GNDA*%
X171527500Y-124955000D03*
%TO.P,U1,17,PZERO*%
%TO.N,IDX+*%
X171527500Y-124305000D03*
%TO.P,U1,18,NZERO*%
%TO.N,IDX-*%
X171527500Y-123655000D03*
%TO.P,U1,19,PSIN*%
%TO.N,SIN+*%
X171527500Y-123005000D03*
%TO.P,U1,20,NSIN*%
%TO.N,SIN-*%
X171527500Y-122355000D03*
%TD*%
D18*
%TO.P,TP2,1,1*%
%TO.N,GND*%
X161590000Y-128230000D03*
%TD*%
%TO.P,TP1,1,1*%
%TO.N,Net-(SW1-C)*%
X161590000Y-123580000D03*
%TD*%
D19*
%TO.P,SW1,1,A*%
%TO.N,+5V*%
X145385000Y-124475000D03*
%TO.P,SW1,2,B*%
%TO.N,ICNV_RCLK*%
X153995000Y-124475000D03*
%TD*%
D20*
%TO.P,NT1,1,1*%
%TO.N,GND*%
X165415000Y-130805000D03*
%TO.P,NT1,2,2*%
%TO.N,GNDA*%
X169415000Y-130805000D03*
%TD*%
D21*
%TO.P,JP5,3,B*%
%TO.N,GND*%
X188970000Y-101340000D03*
%TO.P,JP5,2,C*%
%TO.N,SF0*%
X187670000Y-101340000D03*
%TO.P,JP5,1,A*%
%TO.N,+5V*%
X186370000Y-101340000D03*
%TD*%
%TO.P,JP4,3,B*%
%TO.N,GND*%
X188970000Y-97505000D03*
%TO.P,JP4,2,C*%
%TO.N,ROT*%
X187670000Y-97505000D03*
%TO.P,JP4,1,A*%
%TO.N,+5V*%
X186370000Y-97505000D03*
%TD*%
%TO.P,JP3,3,B*%
%TO.N,GND*%
X188970000Y-93670000D03*
%TO.P,JP3,2,C*%
%TO.N,SF1*%
X187670000Y-93670000D03*
%TO.P,JP3,1,A*%
%TO.N,+5V*%
X186370000Y-93670000D03*
%TD*%
%TO.P,JP2,3,B*%
%TO.N,GND*%
X188970000Y-89835000D03*
%TO.P,JP2,2,C*%
%TO.N,SG0*%
X187670000Y-89835000D03*
%TO.P,JP2,1,A*%
%TO.N,+5V*%
X186370000Y-89835000D03*
%TD*%
%TO.P,JP1,3,B*%
%TO.N,GND*%
X188970000Y-86000000D03*
%TO.P,JP1,2,C*%
%TO.N,SG1*%
X187670000Y-86000000D03*
%TO.P,JP1,1,A*%
%TO.N,+5V*%
X186370000Y-86000000D03*
%TD*%
D22*
%TO.P,J2,0*%
%TO.N,N/C*%
X147340000Y-108898676D03*
X172340000Y-108898676D03*
D23*
%TO.P,J2,1,Pin_1*%
%TO.N,A+*%
X154300000Y-106058676D03*
D16*
%TO.P,J2,2,Pin_2*%
%TO.N,A-*%
X157070000Y-106058676D03*
%TO.P,J2,3,Pin_3*%
%TO.N,+5V*%
X159840000Y-106058676D03*
%TO.P,J2,4,Pin_4*%
%TO.N,GND*%
X162610000Y-106058676D03*
%TO.P,J2,5,Pin_5*%
%TO.N,B+*%
X165380000Y-106058676D03*
%TO.P,J2,6,Pin_6*%
%TO.N,B-*%
X155685000Y-108898676D03*
%TO.P,J2,7,Pin_7*%
%TO.N,IDX+*%
X158455000Y-108898676D03*
%TO.P,J2,8,Pin_8*%
%TO.N,IDX-*%
X161225000Y-108898676D03*
%TO.P,J2,9,Pin_9*%
%TO.N,SHIELD*%
X163995000Y-108898676D03*
%TD*%
D22*
%TO.P,J1,0*%
%TO.N,N/C*%
X147340000Y-90379338D03*
X172340000Y-90379338D03*
D23*
%TO.P,J1,1,Pin_1*%
%TO.N,SIN+*%
X154300000Y-87539338D03*
D16*
%TO.P,J1,2,Pin_2*%
%TO.N,SIN-*%
X157070000Y-87539338D03*
%TO.P,J1,3,Pin_3*%
%TO.N,+5V*%
X159840000Y-87539338D03*
%TO.P,J1,4,Pin_4*%
%TO.N,GND*%
X162610000Y-87539338D03*
%TO.P,J1,5,Pin_5*%
%TO.N,COS+*%
X165380000Y-87539338D03*
%TO.P,J1,6,Pin_6*%
%TO.N,COS-*%
X155685000Y-90379338D03*
%TO.P,J1,7,Pin_7*%
%TO.N,IDX+*%
X158455000Y-90379338D03*
%TO.P,J1,8,Pin_8*%
%TO.N,IDX-*%
X161225000Y-90379338D03*
%TO.P,J1,9,Pin_9*%
%TO.N,SHIELD*%
X163995000Y-90379338D03*
%TD*%
M02*
