M48
; DRILL file {KiCad 9.0.6} date 2026-01-17T14:07:05+0100
; FORMAT={-:-/ absolute / inch / decimal}
; #@! TF.CreationDate,2026-01-17T14:07:05+01:00
; #@! TF.GenerationSoftware,Kicad,Pcbnew,9.0.6
; #@! TF.FileFunction,Plated,1,2,PTH
FMAT,2
INCH
; #@! TA.AperFunction,Plated,PTH,ComponentDrill
T1C0.0315
; #@! TA.AperFunction,Plated,PTH,ComponentDrill
T2C0.0394
; #@! TA.AperFunction,Plated,PTH,ComponentDrill
T3C0.0512
; #@! TA.AperFunction,Plated,PTH,ComponentDrill
T4C0.1260
%
G90
G05
T1
X7.0031Y-4.3591
X7.0031Y-4.4591
X7.0031Y-4.5591
X7.0031Y-4.6591
X7.0031Y-4.7591
X7.0031Y-4.8591
X7.0031Y-4.9591
X7.0031Y-5.0591
X7.3031Y-4.3591
X7.3031Y-4.4591
X7.3031Y-4.5591
X7.3031Y-4.6591
X7.3031Y-4.7591
X7.3031Y-4.8591
X7.3031Y-4.9591
X7.3031Y-5.0591
T2
X6.0748Y-3.4464
X6.0748Y-4.1755
X6.1293Y-3.5582
X6.1293Y-4.2873
X6.1839Y-3.4464
X6.1839Y-4.1755
X6.2384Y-3.5582
X6.2384Y-4.2873
X6.2929Y-3.4464
X6.2929Y-4.1755
X6.3474Y-3.5582
X6.3474Y-4.2873
X6.402Y-3.4464
X6.402Y-4.1755
X6.4565Y-3.5582
X6.4565Y-4.2873
X6.511Y-3.4464
X6.511Y-4.1755
T3
X6.3618Y-4.8654
X6.3618Y-5.0484
T4
X5.8008Y-3.5582
X5.8008Y-4.2873
X6.785Y-3.5582
X6.785Y-4.2873
M30
